<svg xmlns="http://www.w3.org/2000/svg" xmlns:v="https://svgstorm.com"
viewBox = "0 0 333 300"
width="333"
height="300">
<g fill="None" fill-opacity="0.0" stroke="#E5E5E4" stroke-opacity="1.00" stroke-width="0.3"><path d="
M 0.00 300.00 
L 327.00 300.00
C 328.57 297.72 330.67 295.43 333.00 294.00
L 333.00 0.00
L 0.00 0.00
L 0.00 300.00
M 308.00 276.00 
C 303.42 279.21 293.92 274.64 288.00 276.00 C 282.08 277.36 273.51 275.38 267.00 276.00 C 260.49 276.62 252.78 275.72 246.00 276.00 C 239.22 276.28 231.90 275.87 225.00 276.00 C 218.10 276.13 210.96 275.94 204.00 276.00 C 197.04 276.06 189.98 275.97 183.00 276.00 C 176.02 276.03 168.99 275.99 162.00 276.00 C 155.01 276.01 148.00 275.99 141.00 276.00 C 134.00 276.01 127.00 276.00 120.00 276.00 C 113.00 276.00 106.00 276.00 99.00 276.00 C 92.00 276.00 85.00 276.00 78.00 276.00 C 71.00 276.00 64.00 276.00 57.00 276.00
C 57.00 272.33 57.00 268.67 57.00 265.00
C 57.00 183.67 57.00 102.33 57.00 21.00
C 134.33 21.00 211.67 21.00 289.00 21.00
C 295.53 21.00 301.73 21.03 308.00 22.00
C 301.54 63.18 301.62 106.34 300.00 148.00 C 298.38 189.66 310.77 233.85 308.00 276.00 Z"/>
</g>
<g fill="None" fill-opacity="0.0" stroke="#E6D2C1" stroke-opacity="1.00" stroke-width="0.3"><path d="
M 57.00 265.00 
C 57.05 264.77 57.95 264.35 58.00 264.00
C 58.75 258.78 57.44 253.25 58.00 248.00
C 61.88 255.69 71.54 242.27 75.00 250.00
C 75.22 241.59 83.25 236.37 89.00 231.00
C 98.10 228.28 107.31 230.67 116.00 231.00
C 119.64 222.29 133.10 218.01 138.00 210.00
C 137.31 204.62 131.95 201.24 131.00 196.00
C 122.22 178.82 132.37 161.00 134.78 142.78 C 137.19 124.56 144.65 109.12 152.00 93.00
C 153.71 99.14 154.00 105.65 155.00 112.00
C 156.32 119.34 161.23 123.34 164.00 129.00
C 164.24 124.80 167.28 121.09 168.00 117.00
C 169.20 118.11 169.66 120.29 170.00 122.00
C 173.23 130.82 174.62 140.31 176.00 150.00
C 176.54 151.82 178.13 155.18 178.00 157.00
C 183.86 149.27 180.85 134.37 182.00 125.00
C 190.80 136.43 199.95 151.74 198.00 167.00 C 196.05 182.26 209.57 199.75 198.00 212.00
C 201.26 216.75 202.32 224.29 206.00 229.00
C 209.89 229.08 212.22 230.56 216.01 229.99 C 219.80 229.42 220.54 233.09 223.00 234.00
C 230.11 233.41 238.44 232.75 244.00 237.00
C 246.94 233.93 251.57 242.12 255.25 243.75 C 258.92 245.39 254.68 260.19 258.00 262.00
C 259.00 262.00 260.00 262.00 261.00 262.00
C 265.65 262.00 277.07 265.66 276.99 258.99 C 276.92 252.32 280.82 248.92 279.00 245.00
C 280.84 245.81 282.28 245.26 284.00 247.00
C 284.54 243.36 278.46 243.06 285.00 243.00
C 283.82 237.28 287.01 238.38 289.00 242.00
C 284.39 230.91 294.40 221.95 294.00 211.00
C 293.01 201.83 292.42 194.14 292.07 183.92 C 291.71 173.70 291.38 156.72 290.22 145.78 C 289.06 134.84 291.53 131.03 289.80 119.75 C 288.07 108.48 287.93 94.57 286.74 83.25 C 285.54 71.93 286.94 61.64 289.79 51.77 C 292.64 41.90 284.61 29.28 295.00 23.00
C 293.97 20.63 289.96 23.46 289.00 21.00
C 211.67 21.00 134.33 21.00 57.00 21.00
C 57.00 102.33 57.00 183.67 57.00 265.00
M 146.00 58.00 
C 142.01 56.55 142.97 50.14 145.00 47.00
C 149.95 48.11 147.73 54.93 146.00 58.00
M 172.00 52.00 
C 174.89 55.40 177.83 60.34 174.00 64.00
C 171.19 60.98 169.54 55.37 172.00 52.00
M 159.00 62.00 
C 160.49 66.07 162.67 71.83 157.00 74.00
C 154.26 70.15 154.97 64.60 159.00 62.00
M 179.00 85.00 
C 182.41 91.05 185.47 100.68 176.00 103.00
C 174.76 98.75 173.50 94.49 173.00 90.00
C 176.00 89.26 175.61 84.69 179.00 85.00 Z"/>
</g>
<g fill="None" fill-opacity="0.0" stroke="#E9DED1" stroke-opacity="1.00" stroke-width="0.3"><path d="
M 294.00 211.00 
C 295.54 225.28 295.47 237.45 299.00 251.00
C 294.98 252.55 294.57 259.98 298.00 262.00
C 300.43 264.60 307.31 265.32 304.00 271.00
C 305.77 272.52 308.76 272.99 308.00 276.00
C 310.77 233.85 298.38 189.66 300.00 148.00 C 301.62 106.34 301.54 63.18 308.00 22.00
C 301.73 21.03 295.53 21.00 289.00 21.00
C 289.96 23.46 293.97 20.63 295.00 23.00
C 284.61 29.28 292.64 41.90 289.79 51.77 C 286.94 61.64 285.54 71.93 286.74 83.25 C 287.93 94.57 288.07 108.48 289.80 119.75 C 291.53 131.03 289.06 134.84 290.22 145.78 C 291.38 156.72 291.71 173.70 292.07 183.92 C 292.42 194.14 293.01 201.83 294.00 211.00 Z"/>
</g>
<g fill="None" fill-opacity="0.0" stroke="#F2BF6D" stroke-opacity="1.00" stroke-width="0.3"><path d="
M 146.00 58.00 
C 147.73 54.93 149.95 48.11 145.00 47.00
C 142.97 50.14 142.01 56.55 146.00 58.00 Z"/>
</g>
<g fill="None" fill-opacity="0.0" stroke="#F3BC48" stroke-opacity="1.00" stroke-width="0.3"><path d="
M 172.00 52.00 
C 169.54 55.37 171.19 60.98 174.00 64.00
C 177.83 60.34 174.89 55.40 172.00 52.00 Z"/>
</g>
<g fill="None" fill-opacity="0.0" stroke="#F0B552" stroke-opacity="1.00" stroke-width="0.3"><path d="
M 159.00 62.00 
C 154.97 64.60 154.26 70.15 157.00 74.00
C 162.67 71.83 160.49 66.07 159.00 62.00 Z"/>
</g>
<g fill="None" fill-opacity="0.0" stroke="#E7AF48" stroke-opacity="1.00" stroke-width="0.3"><path d="
M 179.00 85.00 
C 175.61 84.69 176.00 89.26 173.00 90.00
C 173.50 94.49 174.76 98.75 176.00 103.00
C 185.47 100.68 182.41 91.05 179.00 85.00 Z"/>
</g>
<g fill="None" fill-opacity="0.0" stroke="#E6B349" stroke-opacity="1.00" stroke-width="0.3"><path d="
M 131.00 196.00 
C 133.85 199.83 136.62 206.76 140.00 210.00
C 144.55 214.36 148.29 206.78 152.70 204.70 C 157.10 202.61 161.83 197.90 163.00 193.00
C 166.70 195.02 173.61 203.04 174.00 207.00
C 173.55 209.12 172.14 210.21 171.00 212.00
C 176.96 218.97 182.18 213.32 185.00 207.00
C 188.58 203.80 195.23 207.97 198.00 212.00
C 209.57 199.75 196.05 182.26 198.00 167.00 C 199.95 151.74 190.80 136.43 182.00 125.00
C 180.85 134.37 183.86 149.27 178.00 157.00
C 177.48 157.68 177.82 160.17 176.00 160.00
C 175.33 155.01 174.18 150.14 174.00 145.00
C 168.63 147.85 165.98 155.16 162.00 160.00
C 157.53 152.20 166.91 141.84 162.74 134.26 C 158.58 126.67 154.07 121.29 155.00 112.00
C 154.00 105.65 153.71 99.14 152.00 93.00
C 144.65 109.12 137.19 124.56 134.78 142.78 C 132.37 161.00 122.22 178.82 131.00 196.00
M 191.00 192.00 
C 191.11 194.23 190.21 197.07 188.00 198.00
C 187.89 195.77 188.79 192.93 191.00 192.00 Z"/>
</g>
<g fill="None" fill-opacity="0.0" stroke="#F1A747" stroke-opacity="1.00" stroke-width="0.3"><path d="
M 178.00 157.00 
C 178.13 155.18 176.54 151.82 176.00 150.00
C 173.86 142.85 171.02 133.33 170.00 126.00
C 169.97 132.68 172.20 138.29 172.00 145.00
C 168.52 140.49 163.80 135.21 164.00 129.00
C 161.23 123.34 156.32 119.34 155.00 112.00
C 154.07 121.29 158.58 126.67 162.74 134.26 C 166.91 141.84 157.53 152.20 162.00 160.00
C 165.98 155.16 168.63 147.85 174.00 145.00
C 174.18 150.14 175.33 155.01 176.00 160.00
C 177.82 160.17 177.48 157.68 178.00 157.00 Z"/>
</g>
<g fill="None" fill-opacity="0.0" stroke="#F19136" stroke-opacity="1.00" stroke-width="0.3"><path d="
M 164.00 129.00 
C 163.80 135.21 168.52 140.49 172.00 145.00
C 172.20 138.29 169.97 132.68 170.00 126.00
C 170.01 124.69 170.13 123.30 170.00 122.00
C 169.66 120.29 169.20 118.11 168.00 117.00
C 167.28 121.09 164.24 124.80 164.00 129.00 Z"/>
</g>
<g fill="None" fill-opacity="0.0" stroke="#EEC094" stroke-opacity="1.00" stroke-width="0.3"><path d="
M 170.00 126.00 
C 171.02 133.33 173.86 142.85 176.00 150.00
C 174.62 140.31 173.23 130.82 170.00 122.00
C 170.13 123.30 170.01 124.69 170.00 126.00 Z"/>
</g>
<g fill="None" fill-opacity="0.0" stroke="#D58728" stroke-opacity="1.00" stroke-width="0.3"><path d="
M 191.00 192.00 
C 188.79 192.93 187.89 195.77 188.00 198.00
C 190.21 197.07 191.11 194.23 191.00 192.00 Z"/>
</g>
<g fill="None" fill-opacity="0.0" stroke="#D0925C" stroke-opacity="1.00" stroke-width="0.3"><path d="
M 140.00 210.00 
C 131.01 214.58 125.96 226.62 117.00 231.00
C 119.81 231.93 122.71 235.02 126.00 235.00
C 130.39 232.93 134.79 228.91 139.00 232.00
C 138.78 229.13 143.42 224.66 147.23 224.23 C 151.04 223.80 151.64 230.93 152.93 234.07 C 154.21 237.21 147.87 243.74 148.00 243.00
C 148.48 244.23 148.60 245.69 149.00 247.00
C 149.28 247.90 148.68 250.99 151.00 250.00
C 150.95 249.50 151.00 249.00 151.00 249.00
C 151.00 248.08 150.82 246.90 151.00 246.00
C 151.64 242.71 154.57 236.58 159.00 238.00 C 163.44 239.43 171.75 235.93 176.00 238.00
C 171.61 236.19 175.49 227.16 170.00 224.00
C 166.43 221.94 161.84 220.79 158.00 219.00
C 156.82 218.45 154.12 219.35 154.00 217.00
C 161.26 215.27 166.59 201.47 174.00 207.00
C 173.61 203.04 166.70 195.02 163.00 193.00
C 161.83 197.90 157.10 202.61 152.70 204.70 C 148.29 206.78 144.55 214.36 140.00 210.00 Z"/>
</g>
<g fill="None" fill-opacity="0.0" stroke="#DDB891" stroke-opacity="1.00" stroke-width="0.3"><path d="
M 116.00 231.00 
C 116.50 231.02 117.00 231.00 117.00 231.00
C 125.96 226.62 131.01 214.58 140.00 210.00
C 136.62 206.76 133.85 199.83 131.00 196.00
C 131.95 201.24 137.31 204.62 138.00 210.00
C 133.10 218.01 119.64 222.29 116.00 231.00 Z"/>
</g>
<g fill="None" fill-opacity="0.0" stroke="#C47139" stroke-opacity="1.00" stroke-width="0.3"><path d="
M 158.00 219.00 
C 164.14 219.50 176.93 211.50 174.00 225.00
C 172.46 225.37 171.60 223.57 170.00 224.00
C 175.49 227.16 171.61 236.19 176.00 238.00
C 176.43 238.18 177.00 238.00 177.00 238.00
C 176.27 236.39 175.64 234.91 176.00 233.00
C 178.02 234.34 177.95 237.72 180.00 239.00
C 180.26 238.75 181.00 239.00 181.00 239.00
C 181.10 237.07 181.59 233.48 183.00 232.00
C 177.88 232.75 176.54 224.01 175.00 220.00
C 180.36 219.36 188.16 207.46 185.00 207.00
C 182.18 213.32 176.96 218.97 171.00 212.00
C 172.14 210.21 173.55 209.12 174.00 207.00
C 166.59 201.47 161.26 215.27 154.00 217.00
C 154.12 219.35 156.82 218.45 158.00 219.00 Z"/>
</g>
<g fill="None" fill-opacity="0.0" stroke="#D49A62" stroke-opacity="1.00" stroke-width="0.3"><path d="
M 185.00 207.00 
C 188.16 207.46 180.36 219.36 175.00 220.00
C 176.54 224.01 177.88 232.75 183.00 232.00
C 190.70 230.87 197.35 228.83 206.00 229.00
C 202.32 224.29 201.26 216.75 198.00 212.00
C 195.23 207.97 188.58 203.80 185.00 207.00 Z"/>
</g>
<g fill="None" fill-opacity="0.0" stroke="#DFD8BA" stroke-opacity="1.00" stroke-width="0.3"><path d="
M 261.00 262.00 
C 264.46 262.76 269.08 263.69 273.00 264.00
C 281.12 264.64 289.01 263.56 296.00 268.00
C 294.50 265.99 297.85 264.62 298.00 262.00
C 294.57 259.98 294.98 252.55 299.00 251.00
C 295.47 237.45 295.54 225.28 294.00 211.00
C 294.40 221.95 284.39 230.91 289.00 242.00
C 287.01 238.38 283.82 237.28 285.00 243.00
C 278.46 243.06 284.54 243.36 284.00 247.00
C 282.28 245.26 280.84 245.81 279.00 245.00
C 280.82 248.92 276.92 252.32 276.99 258.99 C 277.07 265.66 265.65 262.00 261.00 262.00 Z"/>
</g>
<g fill="None" fill-opacity="0.0" stroke="#9D542F" stroke-opacity="1.00" stroke-width="0.3"><path d="
M 158.00 219.00 
C 161.84 220.79 166.43 221.94 170.00 224.00
C 171.60 223.57 172.46 225.37 174.00 225.00
C 176.93 211.50 164.14 219.50 158.00 219.00 Z"/>
</g>
<g fill="None" fill-opacity="0.0" stroke="#ECA644" stroke-opacity="1.00" stroke-width="0.3"><path d="
M 139.00 232.00 
C 142.05 234.24 146.66 239.57 148.00 243.00
C 147.87 243.74 154.21 237.21 152.93 234.07 C 151.64 230.93 151.04 223.80 147.23 224.23 C 143.42 224.66 138.78 229.13 139.00 232.00 Z"/>
</g>
<g fill="None" fill-opacity="0.0" stroke="#B7A8A6" stroke-opacity="1.00" stroke-width="0.3"><path d="
M 89.00 231.00 
C 86.82 231.81 77.68 241.71 77.00 244.00
C 79.75 240.11 91.15 243.27 95.00 241.00 C 98.85 238.73 103.39 243.34 108.00 245.00
C 108.44 245.16 109.00 245.00 109.00 245.00
C 110.90 240.41 121.62 237.07 126.00 235.00
C 122.71 235.02 119.81 231.93 117.00 231.00
C 117.00 231.00 116.50 231.02 116.00 231.00
C 107.31 230.67 98.10 228.28 89.00 231.00 Z"/>
</g>
<g fill="None" fill-opacity="0.0" stroke="#B7ABAD" stroke-opacity="1.00" stroke-width="0.3"><path d="
M 183.00 232.00 
C 181.59 233.48 181.10 237.07 181.00 239.00
C 180.95 240.00 181.05 241.00 181.00 242.00
C 182.91 241.49 184.46 242.54 187.00 241.00
C 196.08 235.49 208.86 238.89 220.00 238.00
C 220.00 239.33 220.00 240.67 220.00 242.00
C 221.51 238.87 220.61 236.58 218.00 234.00
C 219.67 234.00 221.33 234.00 223.00 234.00
C 220.54 233.09 219.80 229.42 216.01 229.99 C 212.22 230.56 209.89 229.08 206.00 229.00
C 197.35 228.83 190.70 230.87 183.00 232.00 Z"/>
</g>
<g fill="None" fill-opacity="0.0" stroke="#DBD6D8" stroke-opacity="1.00" stroke-width="0.3"><path d="
M 126.00 235.00 
C 121.62 237.07 110.90 240.41 109.00 245.00
C 109.90 246.57 110.86 248.17 111.00 250.00
C 118.91 248.16 125.76 242.42 134.00 241.00
C 135.04 244.90 138.82 247.61 141.00 251.00
C 141.71 248.20 147.48 244.76 149.00 247.00
C 148.60 245.69 148.48 244.23 148.00 243.00
C 146.66 239.57 142.05 234.24 139.00 232.00
C 134.79 228.91 130.39 232.93 126.00 235.00 Z"/>
</g>
<g fill="None" fill-opacity="0.0" stroke="#DBD0AE" stroke-opacity="1.00" stroke-width="0.3"><path d="
M 58.00 264.00 
C 60.70 263.40 64.23 264.00 67.00 264.00
C 71.62 264.00 75.50 263.17 80.00 263.00
C 79.50 262.55 79.28 261.57 79.00 261.00
C 77.12 257.15 75.58 248.75 77.00 244.00
C 77.68 241.71 86.82 231.81 89.00 231.00
C 83.25 236.37 75.22 241.59 75.00 250.00
C 71.54 242.27 61.88 255.69 58.00 248.00
C 57.44 253.25 58.75 258.78 58.00 264.00 Z"/>
</g>
<g fill="None" fill-opacity="0.0" stroke="#B64526" stroke-opacity="1.00" stroke-width="0.3"><path d="
M 177.00 238.00 
C 177.92 239.69 178.62 240.34 180.00 239.00
C 177.95 237.72 178.02 234.34 176.00 233.00
C 175.64 234.91 176.27 236.39 177.00 238.00 Z"/>
</g>
<g fill="None" fill-opacity="0.0" stroke="#DED8DA" stroke-opacity="1.00" stroke-width="0.3"><path d="
M 220.00 242.00 
C 219.80 242.41 220.16 243.56 220.00 244.00
C 224.13 246.04 229.47 241.80 234.00 243.00 C 238.53 244.20 244.35 242.10 249.00 243.00
C 248.69 241.38 246.08 238.24 245.00 237.00
C 244.56 236.84 244.00 237.00 244.00 237.00
C 238.44 232.75 230.11 233.41 223.00 234.00
C 221.33 234.00 219.67 234.00 218.00 234.00
C 220.61 236.58 221.51 238.87 220.00 242.00 Z"/>
</g>
<g fill="None" fill-opacity="0.0" stroke="#CBC2A7" stroke-opacity="1.00" stroke-width="0.3"><path d="
M 244.00 237.00 
C 244.00 237.00 244.56 236.84 245.00 237.00
C 255.71 240.86 256.00 249.03 256.00 259.00
C 256.00 259.50 256.00 260.00 256.00 260.00
C 255.94 260.30 255.17 261.80 255.00 262.00
C 255.80 261.76 257.16 262.00 258.00 262.00
C 254.68 260.19 258.92 245.39 255.25 243.75 C 251.57 242.12 246.94 233.93 244.00 237.00 Z"/>
</g>
<g fill="None" fill-opacity="0.0" stroke="#A1A295" stroke-opacity="1.00" stroke-width="0.3"><path d="
M 249.00 243.00 
C 249.70 246.63 247.86 251.54 247.00 255.00
C 250.24 255.81 252.84 257.83 256.00 259.00
C 256.00 249.03 255.71 240.86 245.00 237.00
C 246.08 238.24 248.69 241.38 249.00 243.00 Z"/>
</g>
<g fill="None" fill-opacity="0.0" stroke="#C1B1B4" stroke-opacity="1.00" stroke-width="0.3"><path d="
M 151.00 246.00 
C 152.41 243.40 161.01 245.09 164.00 245.00 C 166.99 244.91 174.86 244.12 178.00 245.00
C 177.54 243.88 178.28 242.19 178.00 241.00
C 177.49 240.30 176.02 238.87 176.00 238.00
C 171.75 235.93 163.44 239.43 159.00 238.00 C 154.57 236.58 151.64 242.71 151.00 246.00 Z"/>
</g>
<g fill="None" fill-opacity="0.0" stroke="#AF7D7A" stroke-opacity="1.00" stroke-width="0.3"><path d="
M 178.00 241.00 
C 178.78 242.08 180.29 243.27 180.00 245.00
C 181.39 244.74 180.78 242.95 181.00 242.00
C 181.05 241.00 180.95 240.00 181.00 239.00
C 181.00 239.00 180.26 238.75 180.00 239.00
C 178.62 240.34 177.92 239.69 177.00 238.00
C 177.00 238.00 176.43 238.18 176.00 238.00
C 176.02 238.87 177.49 240.30 178.00 241.00 Z"/>
</g>
<g fill="None" fill-opacity="0.0" stroke="#A2AAA7" stroke-opacity="1.00" stroke-width="0.3"><path d="
M 187.00 241.00 
C 188.00 240.59 188.77 239.72 190.00 240.00
C 190.19 244.33 193.23 247.81 194.00 252.00
C 199.07 249.78 212.39 251.49 218.00 252.00
C 217.80 250.31 218.75 249.99 219.00 249.00
C 219.45 247.17 219.47 245.48 220.00 244.00
C 220.16 243.56 219.80 242.41 220.00 242.00
C 220.00 240.67 220.00 239.33 220.00 238.00
C 208.86 238.89 196.08 235.49 187.00 241.00 Z"/>
</g>
<g fill="None" fill-opacity="0.0" stroke="#9A9F89" stroke-opacity="1.00" stroke-width="0.3"><path d="
M 77.00 244.00 
C 75.58 248.75 77.12 257.15 79.00 261.00
C 80.16 257.42 87.01 260.53 90.01 258.01 C 93.00 255.48 98.27 261.48 100.00 262.00
C 101.47 262.00 103.59 261.61 105.00 262.00
C 105.16 259.20 108.53 253.55 111.00 253.00
C 110.07 250.27 109.49 247.60 108.00 245.00
C 103.39 243.34 98.85 238.73 95.00 241.00 C 91.15 243.27 79.75 240.11 77.00 244.00 Z"/>
</g>
<g fill="None" fill-opacity="0.0" stroke="#798D7C" stroke-opacity="1.00" stroke-width="0.3"><path d="
M 187.00 241.00 
C 185.65 241.56 183.22 245.10 182.00 246.00
C 183.34 246.65 183.28 250.84 183.00 252.00
C 184.98 253.77 185.66 257.60 188.00 259.00
C 189.63 259.19 193.88 253.27 194.00 252.00
C 193.23 247.81 190.19 244.33 190.00 240.00
C 188.77 239.72 188.00 240.59 187.00 241.00 Z"/>
</g>
<g fill="None" fill-opacity="0.0" stroke="#C9D7C7" stroke-opacity="1.00" stroke-width="0.3"><path d="
M 109.00 245.00 
C 109.00 245.00 108.44 245.16 108.00 245.00
C 109.49 247.60 110.07 250.27 111.00 253.00
C 112.07 256.12 113.60 259.33 115.00 262.00
C 117.70 261.52 121.41 260.58 123.69 258.69 C 125.98 256.81 130.75 256.80 132.68 254.68 C 134.60 252.56 141.33 253.56 142.00 253.00
C 141.69 252.37 141.35 251.57 141.00 251.00
C 138.82 247.61 135.04 244.90 134.00 241.00
C 125.76 242.42 118.91 248.16 111.00 250.00
C 110.86 248.17 109.90 246.57 109.00 245.00 Z"/>
</g>
<g fill="None" fill-opacity="0.0" stroke="#938C8F" stroke-opacity="1.00" stroke-width="0.3"><path d="
M 178.00 245.00 
C 178.93 245.26 180.71 245.91 181.00 247.00
C 181.09 246.65 181.70 246.22 182.00 246.00
C 183.22 245.10 185.65 241.56 187.00 241.00
C 184.46 242.54 182.91 241.49 181.00 242.00
C 180.78 242.95 181.39 244.74 180.00 245.00
C 180.29 243.27 178.78 242.08 178.00 241.00
C 178.28 242.19 177.54 243.88 178.00 245.00 Z"/>
</g>
<g fill="None" fill-opacity="0.0" stroke="#CFD6D0" stroke-opacity="1.00" stroke-width="0.3"><path d="
M 220.00 244.00 
C 219.47 245.48 219.45 247.17 219.00 249.00
C 219.15 252.23 220.95 254.73 221.00 258.00
C 227.47 255.04 240.10 261.81 246.00 258.00
C 246.33 256.92 246.72 256.14 247.00 255.00
C 247.86 251.54 249.70 246.63 249.00 243.00
C 244.35 242.10 238.53 244.20 234.00 243.00 C 229.47 241.80 224.13 246.04 220.00 244.00 Z"/>
</g>
<g fill="None" fill-opacity="0.0" stroke="#B4BDBC" stroke-opacity="1.00" stroke-width="0.3"><path d="
M 141.00 251.00 
C 141.35 251.57 141.69 252.37 142.00 253.00
C 143.50 256.05 143.70 261.25 148.00 261.00
C 148.50 260.97 149.00 261.00 149.00 261.00
C 150.89 257.84 151.36 253.76 151.00 250.00
C 148.68 250.99 149.28 247.90 149.00 247.00
C 147.48 244.76 141.71 248.20 141.00 251.00 Z"/>
</g>
<g fill="None" fill-opacity="0.0" stroke="#A2ABA7" stroke-opacity="1.00" stroke-width="0.3"><path d="
M 151.00 246.00 
C 150.82 246.90 151.00 248.08 151.00 249.00
C 153.51 250.19 153.69 253.53 154.00 256.00
C 161.00 256.00 168.00 256.00 175.00 256.00
C 175.62 252.57 177.38 249.47 178.00 246.00
C 179.88 246.24 179.46 248.55 181.00 249.00
C 180.92 248.51 180.88 247.47 181.00 247.00
C 180.71 245.91 178.93 245.26 178.00 245.00
C 174.86 244.12 166.99 244.91 164.00 245.00 C 161.01 245.09 152.41 243.40 151.00 246.00 Z"/>
</g>
<g fill="None" fill-opacity="0.0" stroke="#839B7F" stroke-opacity="1.00" stroke-width="0.3"><path d="
M 151.00 249.00 
C 151.00 249.00 150.95 249.50 151.00 250.00
C 151.36 253.76 150.89 257.84 149.00 261.00
C 151.19 260.92 154.87 259.98 154.00 257.00
C 161.24 258.89 174.88 252.40 177.00 262.00
C 177.50 262.00 178.58 261.82 179.00 262.00
C 178.83 262.10 179.93 259.18 180.00 259.00
C 180.87 256.70 181.71 254.53 182.00 252.00
C 181.81 251.69 181.09 249.49 181.00 249.00
C 179.46 248.55 179.88 246.24 178.00 246.00
C 177.38 249.47 175.62 252.57 175.00 256.00
C 168.00 256.00 161.00 256.00 154.00 256.00
C 153.69 253.53 153.51 250.19 151.00 249.00 Z"/>
</g>
<g fill="None" fill-opacity="0.0" stroke="#606C68" stroke-opacity="1.00" stroke-width="0.3"><path d="
M 181.00 247.00 
C 180.88 247.47 180.92 248.51 181.00 249.00
C 181.09 249.49 181.81 251.69 182.00 252.00
C 182.14 252.23 183.00 252.00 183.00 252.00
C 183.28 250.84 183.34 246.65 182.00 246.00
C 181.70 246.22 181.09 246.65 181.00 247.00 Z"/>
</g>
<g fill="None" fill-opacity="0.0" stroke="#D0BAA8" stroke-opacity="1.00" stroke-width="0.3"><path d="
M 218.00 252.00 
C 218.06 252.49 218.00 253.00 218.00 253.00
C 218.78 254.16 221.00 257.01 221.00 258.00
C 220.95 254.73 219.15 252.23 219.00 249.00
C 218.75 249.99 217.80 250.31 218.00 252.00 Z"/>
</g>
<g fill="None" fill-opacity="0.0" stroke="#BAD5AE" stroke-opacity="1.00" stroke-width="0.3"><path d="
M 115.00 262.00 
C 115.21 262.39 115.00 263.00 115.00 263.00
C 117.42 265.50 126.98 264.55 131.00 264.00 C 135.02 263.45 142.39 263.18 147.00 263.00
C 147.43 262.80 147.72 261.14 148.00 261.00
C 143.70 261.25 143.50 256.05 142.00 253.00
C 141.33 253.56 134.60 252.56 132.68 254.68 C 130.75 256.80 125.98 256.81 123.69 258.69 C 121.41 260.58 117.70 261.52 115.00 262.00 Z"/>
</g>
<g fill="None" fill-opacity="0.0" stroke="#476433" stroke-opacity="1.00" stroke-width="0.3"><path d="
M 180.00 259.00 
C 182.41 257.70 182.41 261.70 183.00 262.00
C 184.89 262.03 186.79 262.83 188.00 263.00
C 192.33 263.00 196.67 263.00 201.00 263.00
C 203.77 263.00 207.31 263.60 210.00 263.00
C 210.03 262.65 210.67 262.17 211.00 262.00
C 211.23 258.43 203.00 260.33 200.00 260.00 C 197.00 259.67 190.67 260.60 188.00 259.00
C 185.66 257.60 184.98 253.77 183.00 252.00
C 183.00 252.00 182.14 252.23 182.00 252.00
C 181.71 254.53 180.87 256.70 180.00 259.00 Z"/>
</g>
<g fill="None" fill-opacity="0.0" stroke="#749B5F" stroke-opacity="1.00" stroke-width="0.3"><path d="
M 188.00 259.00 
C 190.67 260.60 197.00 259.67 200.00 260.00 C 203.00 260.33 211.23 258.43 211.00 262.00
C 215.85 259.58 215.12 256.54 218.00 253.00
C 218.00 253.00 218.06 252.49 218.00 252.00
C 212.39 251.49 199.07 249.78 194.00 252.00
C 193.88 253.27 189.63 259.19 188.00 259.00 Z"/>
</g>
<g fill="None" fill-opacity="0.0" stroke="#75825E" stroke-opacity="1.00" stroke-width="0.3"><path d="
M 105.00 262.00 
C 105.35 262.10 105.77 262.95 106.00 263.00
C 108.96 263.00 112.05 263.27 115.00 263.00
C 115.00 263.00 115.21 262.39 115.00 262.00
C 113.60 259.33 112.07 256.12 111.00 253.00
C 108.53 253.55 105.16 259.20 105.00 262.00 Z"/>
</g>
<g fill="None" fill-opacity="0.0" stroke="#BFA972" stroke-opacity="1.00" stroke-width="0.3"><path d="
M 211.00 262.00 
C 210.67 262.17 210.03 262.65 210.00 263.00
C 209.95 263.50 210.00 264.00 210.00 264.00
C 212.30 264.00 214.70 263.80 217.00 264.00
C 218.08 263.59 221.00 259.12 221.00 258.00
C 221.00 257.01 218.78 254.16 218.00 253.00
C 215.12 256.54 215.85 259.58 211.00 262.00 Z"/>
</g>
<g fill="None" fill-opacity="0.0" stroke="#84996F" stroke-opacity="1.00" stroke-width="0.3"><path d="
M 246.00 258.00 
C 245.42 259.89 245.32 261.99 245.00 264.00
C 249.58 265.07 252.99 263.00 256.00 260.00
C 256.00 260.00 256.00 259.50 256.00 259.00
C 252.84 257.83 250.24 255.81 247.00 255.00
C 246.72 256.14 246.33 256.92 246.00 258.00 Z"/>
</g>
<g fill="None" fill-opacity="0.0" stroke="#719555" stroke-opacity="1.00" stroke-width="0.3"><path d="
M 149.00 261.00 
C 149.00 261.00 148.50 260.97 148.00 261.00
C 147.72 261.14 147.43 262.80 147.00 263.00
C 156.84 262.62 166.85 262.00 177.00 262.00
C 174.88 252.40 161.24 258.89 154.00 257.00
C 154.87 259.98 151.19 260.92 149.00 261.00 Z"/>
</g>
<g fill="None" fill-opacity="0.0" stroke="#6F8D48" stroke-opacity="1.00" stroke-width="0.3"><path d="
M 79.00 261.00 
C 79.28 261.57 79.50 262.55 80.00 263.00
C 83.09 262.89 87.26 263.00 91.00 263.00
C 93.42 262.77 96.91 262.00 100.00 262.00
C 98.27 261.48 93.00 255.48 90.01 258.01 C 87.01 260.53 80.16 257.42 79.00 261.00 Z"/>
</g>
<g fill="None" fill-opacity="0.0" stroke="#A4C886" stroke-opacity="1.00" stroke-width="0.3"><path d="
M 217.00 264.00 
C 223.01 264.51 230.74 265.77 237.00 265.00 C 243.26 264.23 250.57 267.31 255.00 262.00
C 255.17 261.80 255.94 260.30 256.00 260.00
C 252.99 263.00 249.58 265.07 245.00 264.00
C 245.32 261.99 245.42 259.89 246.00 258.00
C 240.10 261.81 227.47 255.04 221.00 258.00
C 221.00 259.12 218.08 263.59 217.00 264.00 Z"/>
</g>
<g fill="None" fill-opacity="0.0" stroke="#886126" stroke-opacity="1.00" stroke-width="0.3"><path d="
M 179.00 262.00 
C 180.33 262.02 181.67 261.98 183.00 262.00
C 182.41 261.70 182.41 257.70 180.00 259.00
C 179.93 259.18 178.83 262.10 179.00 262.00 Z"/>
</g>
<g fill="None" fill-opacity="0.0" stroke="#8EAF5E" stroke-opacity="1.00" stroke-width="0.3"><path d="
M 91.00 263.00 
C 96.00 263.00 101.00 263.00 106.00 263.00
C 105.77 262.95 105.35 262.10 105.00 262.00
C 103.59 261.61 101.47 262.00 100.00 262.00
C 96.91 262.00 93.42 262.77 91.00 263.00 Z"/>
</g>
<g fill="None" fill-opacity="0.0" stroke="#D0E67E" stroke-opacity="1.00" stroke-width="0.3"><path d="
M 147.00 263.00 
C 142.39 263.18 135.02 263.45 131.00 264.00 C 126.98 264.55 117.42 265.50 115.00 263.00
C 112.05 263.27 108.96 263.00 106.00 263.00
C 101.00 263.00 96.00 263.00 91.00 263.00
C 87.26 263.00 83.09 262.89 80.00 263.00
C 75.50 263.17 71.62 264.00 67.00 264.00
C 64.72 264.22 60.99 265.91 58.00 265.00
C 58.00 267.67 58.00 270.33 58.00 273.00
C 91.67 263.70 127.94 266.91 164.00 269.00 C 200.06 271.09 238.37 271.55 274.00 275.00
C 285.00 275.00 296.00 275.00 307.00 275.00
C 297.65 267.66 284.41 265.32 273.00 264.00
C 269.08 263.69 264.46 262.76 261.00 262.00
C 260.00 262.00 259.00 262.00 258.00 262.00
C 257.16 262.00 255.80 261.76 255.00 262.00
C 250.57 267.31 243.26 264.23 237.00 265.00 C 230.74 265.77 223.01 264.51 217.00 264.00
C 214.70 263.80 212.30 264.00 210.00 264.00
C 206.90 264.00 203.36 263.23 201.00 263.00
C 196.67 263.00 192.33 263.00 188.00 263.00
C 184.68 263.00 181.65 263.13 179.00 262.00
C 178.58 261.82 177.50 262.00 177.00 262.00
C 166.85 262.00 156.84 262.62 147.00 263.00 Z"/>
</g>
<g fill="None" fill-opacity="0.0" stroke="#97A644" stroke-opacity="1.00" stroke-width="0.3"><path d="
M 188.00 263.00 
C 186.79 262.83 184.89 262.03 183.00 262.00
C 181.67 261.98 180.33 262.02 179.00 262.00
C 181.65 263.13 184.68 263.00 188.00 263.00 Z"/>
</g>
<g fill="None" fill-opacity="0.0" stroke="#CEDFAE" stroke-opacity="1.00" stroke-width="0.3"><path d="
M 273.00 264.00 
C 284.41 265.32 297.65 267.66 307.00 275.00
C 296.00 275.00 285.00 275.00 274.00 275.00
C 265.00 275.00 256.00 275.01 247.00 275.00 C 238.00 274.99 229.01 275.02 220.00 275.00 C 210.99 274.98 202.02 275.05 193.00 275.00 C 183.98 274.95 173.93 275.11 165.00 275.00 C 156.07 274.89 146.66 275.26 138.00 275.00 C 129.34 274.74 119.16 275.59 111.00 275.00 C 102.84 274.41 91.09 276.30 84.00 275.00 C 76.91 273.70 60.75 278.68 58.00 273.00
C 58.00 270.33 58.00 267.67 58.00 265.00
C 60.99 265.91 64.72 264.22 67.00 264.00
C 64.23 264.00 60.70 263.40 58.00 264.00
C 57.95 264.35 57.05 264.77 57.00 265.00
C 57.00 268.67 57.00 272.33 57.00 276.00
C 64.00 276.00 71.00 276.00 78.00 276.00 C 85.00 276.00 92.00 276.00 99.00 276.00 C 106.00 276.00 113.00 276.00 120.00 276.00 C 127.00 276.00 134.00 276.01 141.00 276.00 C 148.00 275.99 155.01 276.01 162.00 276.00 C 168.99 275.99 176.02 276.03 183.00 276.00 C 189.98 275.97 197.04 276.06 204.00 276.00 C 210.96 275.94 218.10 276.13 225.00 276.00 C 231.90 275.87 239.22 276.28 246.00 276.00 C 252.78 275.72 260.49 276.62 267.00 276.00 C 273.51 275.38 282.08 277.36 288.00 276.00 C 293.92 274.64 303.42 279.21 308.00 276.00
C 308.76 272.99 305.77 272.52 304.00 271.00
C 307.31 265.32 300.43 264.60 298.00 262.00
C 297.85 264.62 294.50 265.99 296.00 268.00
C 289.01 263.56 281.12 264.64 273.00 264.00 Z"/>
</g>
<g fill="None" fill-opacity="0.0" stroke="#719238" stroke-opacity="1.00" stroke-width="0.3"><path d="
M 210.00 264.00 
C 210.00 264.00 209.95 263.50 210.00 263.00
C 207.31 263.60 203.77 263.00 201.00 263.00
C 203.36 263.23 206.90 264.00 210.00 264.00 Z"/>
</g>
<g fill="None" fill-opacity="0.0" stroke="#A1D14E" stroke-opacity="1.00" stroke-width="0.3"><path d="
M 58.00 273.00 
C 60.75 278.68 76.91 273.70 84.00 275.00 C 91.09 276.30 102.84 274.41 111.00 275.00 C 119.16 275.59 129.34 274.74 138.00 275.00 C 146.66 275.26 156.07 274.89 165.00 275.00 C 173.93 275.11 183.98 274.95 193.00 275.00 C 202.02 275.05 210.99 274.98 220.00 275.00 C 229.01 275.02 238.00 274.99 247.00 275.00 C 256.00 275.01 265.00 275.00 274.00 275.00
C 238.37 271.55 200.06 271.09 164.00 269.00 C 127.94 266.91 91.67 263.70 58.00 273.00 Z"/>
</g>
<g fill="None" fill-opacity="0.0" stroke="#939393" stroke-opacity="0.16" stroke-width="0.3"><path d="
M 327.00 300.00 
L 333.00 300.00
L 333.00 294.00
C 330.67 295.43 328.57 297.72 327.00 300.00 Z"/>
</g>
<g fill="#E5E5E4" fill-opacity="1.00" stroke="None">
<path d="
M 0.00 300.00 
L 327.00 300.00
C 328.57 297.72 330.67 295.43 333.00 294.00
L 333.00 0.00
L 0.00 0.00
L 0.00 300.00
M 308.00 276.00 
C 303.42 279.21 293.92 274.64 288.00 276.00 C 282.08 277.36 273.51 275.38 267.00 276.00 C 260.49 276.62 252.78 275.72 246.00 276.00 C 239.22 276.28 231.90 275.87 225.00 276.00 C 218.10 276.13 210.96 275.94 204.00 276.00 C 197.04 276.06 189.98 275.97 183.00 276.00 C 176.02 276.03 168.99 275.99 162.00 276.00 C 155.01 276.01 148.00 275.99 141.00 276.00 C 134.00 276.01 127.00 276.00 120.00 276.00 C 113.00 276.00 106.00 276.00 99.00 276.00 C 92.00 276.00 85.00 276.00 78.00 276.00 C 71.00 276.00 64.00 276.00 57.00 276.00
C 57.00 272.33 57.00 268.67 57.00 265.00
C 57.00 183.67 57.00 102.33 57.00 21.00
C 134.33 21.00 211.67 21.00 289.00 21.00
C 295.53 21.00 301.73 21.03 308.00 22.00
C 301.54 63.18 301.62 106.34 300.00 148.00 C 298.38 189.66 310.77 233.85 308.00 276.00 Z"/>
</g>
<g fill="#E6D2C1" fill-opacity="1.00" stroke="None">
<path d="
M 57.00 265.00 
C 57.05 264.77 57.95 264.35 58.00 264.00
C 58.75 258.78 57.44 253.25 58.00 248.00
C 61.88 255.69 71.54 242.27 75.00 250.00
C 75.22 241.59 83.25 236.37 89.00 231.00
C 98.10 228.28 107.31 230.67 116.00 231.00
C 119.64 222.29 133.10 218.01 138.00 210.00
C 137.31 204.62 131.95 201.24 131.00 196.00
C 122.22 178.82 132.37 161.00 134.78 142.78 C 137.19 124.56 144.65 109.12 152.00 93.00
C 153.71 99.14 154.00 105.65 155.00 112.00
C 156.32 119.34 161.23 123.34 164.00 129.00
C 164.24 124.80 167.28 121.09 168.00 117.00
C 169.20 118.11 169.66 120.29 170.00 122.00
C 173.23 130.82 174.62 140.31 176.00 150.00
C 176.54 151.82 178.13 155.18 178.00 157.00
C 183.86 149.27 180.85 134.37 182.00 125.00
C 190.80 136.43 199.95 151.74 198.00 167.00 C 196.05 182.26 209.57 199.75 198.00 212.00
C 201.26 216.75 202.32 224.29 206.00 229.00
C 209.89 229.08 212.22 230.56 216.01 229.99 C 219.80 229.42 220.54 233.09 223.00 234.00
C 230.11 233.41 238.44 232.75 244.00 237.00
C 246.94 233.93 251.57 242.12 255.25 243.75 C 258.92 245.39 254.68 260.19 258.00 262.00
C 259.00 262.00 260.00 262.00 261.00 262.00
C 265.65 262.00 277.07 265.66 276.99 258.99 C 276.92 252.32 280.82 248.92 279.00 245.00
C 280.84 245.81 282.28 245.26 284.00 247.00
C 284.54 243.36 278.46 243.06 285.00 243.00
C 283.82 237.28 287.01 238.38 289.00 242.00
C 284.39 230.91 294.40 221.95 294.00 211.00
C 293.01 201.83 292.42 194.14 292.07 183.92 C 291.71 173.70 291.38 156.72 290.22 145.78 C 289.06 134.84 291.53 131.03 289.80 119.75 C 288.07 108.48 287.93 94.57 286.74 83.25 C 285.54 71.93 286.94 61.64 289.79 51.77 C 292.64 41.90 284.61 29.28 295.00 23.00
C 293.97 20.63 289.96 23.46 289.00 21.00
C 211.67 21.00 134.33 21.00 57.00 21.00
C 57.00 102.33 57.00 183.67 57.00 265.00
M 146.00 58.00 
C 142.01 56.55 142.97 50.14 145.00 47.00
C 149.95 48.11 147.73 54.93 146.00 58.00
M 172.00 52.00 
C 174.89 55.40 177.83 60.34 174.00 64.00
C 171.19 60.98 169.54 55.37 172.00 52.00
M 159.00 62.00 
C 160.49 66.07 162.67 71.83 157.00 74.00
C 154.26 70.15 154.97 64.60 159.00 62.00
M 179.00 85.00 
C 182.41 91.05 185.47 100.68 176.00 103.00
C 174.76 98.75 173.50 94.49 173.00 90.00
C 176.00 89.26 175.61 84.69 179.00 85.00 Z"/>
</g>
<g fill="#E9DED1" fill-opacity="1.00" stroke="None">
<path d="
M 294.00 211.00 
C 295.54 225.28 295.47 237.45 299.00 251.00
C 294.98 252.55 294.57 259.98 298.00 262.00
C 300.43 264.60 307.31 265.32 304.00 271.00
C 305.77 272.52 308.76 272.99 308.00 276.00
C 310.77 233.85 298.38 189.66 300.00 148.00 C 301.62 106.34 301.54 63.18 308.00 22.00
C 301.73 21.03 295.53 21.00 289.00 21.00
C 289.96 23.46 293.97 20.63 295.00 23.00
C 284.61 29.28 292.64 41.90 289.79 51.77 C 286.94 61.64 285.54 71.93 286.74 83.25 C 287.93 94.57 288.07 108.48 289.80 119.75 C 291.53 131.03 289.06 134.84 290.22 145.78 C 291.38 156.72 291.71 173.70 292.07 183.92 C 292.42 194.14 293.01 201.83 294.00 211.00 Z"/>
</g>
<g fill="#F2BF6D" fill-opacity="1.00" stroke="None">
<path d="
M 146.00 58.00 
C 147.73 54.93 149.95 48.11 145.00 47.00
C 142.97 50.14 142.01 56.55 146.00 58.00 Z"/>
</g>
<g fill="#F3BC48" fill-opacity="1.00" stroke="None">
<path d="
M 172.00 52.00 
C 169.54 55.37 171.19 60.98 174.00 64.00
C 177.83 60.34 174.89 55.40 172.00 52.00 Z"/>
</g>
<g fill="#F0B552" fill-opacity="1.00" stroke="None">
<path d="
M 159.00 62.00 
C 154.97 64.60 154.26 70.15 157.00 74.00
C 162.67 71.83 160.49 66.07 159.00 62.00 Z"/>
</g>
<g fill="#E7AF48" fill-opacity="1.00" stroke="None">
<path d="
M 179.00 85.00 
C 175.61 84.69 176.00 89.26 173.00 90.00
C 173.50 94.49 174.76 98.75 176.00 103.00
C 185.47 100.68 182.41 91.05 179.00 85.00 Z"/>
</g>
<g fill="#E6B349" fill-opacity="1.00" stroke="None">
<path d="
M 131.00 196.00 
C 133.85 199.83 136.62 206.76 140.00 210.00
C 144.55 214.36 148.29 206.78 152.70 204.70 C 157.10 202.61 161.83 197.90 163.00 193.00
C 166.70 195.02 173.61 203.04 174.00 207.00
C 173.55 209.12 172.14 210.21 171.00 212.00
C 176.96 218.97 182.18 213.32 185.00 207.00
C 188.58 203.80 195.23 207.97 198.00 212.00
C 209.57 199.75 196.05 182.26 198.00 167.00 C 199.95 151.74 190.80 136.43 182.00 125.00
C 180.85 134.37 183.86 149.27 178.00 157.00
C 177.48 157.68 177.82 160.17 176.00 160.00
C 175.33 155.01 174.18 150.14 174.00 145.00
C 168.63 147.85 165.98 155.16 162.00 160.00
C 157.53 152.20 166.91 141.84 162.74 134.26 C 158.58 126.67 154.07 121.29 155.00 112.00
C 154.00 105.65 153.71 99.14 152.00 93.00
C 144.65 109.12 137.19 124.56 134.78 142.78 C 132.37 161.00 122.22 178.82 131.00 196.00
M 191.00 192.00 
C 191.11 194.23 190.21 197.07 188.00 198.00
C 187.89 195.77 188.79 192.93 191.00 192.00 Z"/>
</g>
<g fill="#F1A747" fill-opacity="1.00" stroke="None">
<path d="
M 178.00 157.00 
C 178.13 155.18 176.54 151.82 176.00 150.00
C 173.86 142.85 171.02 133.33 170.00 126.00
C 169.97 132.68 172.20 138.29 172.00 145.00
C 168.52 140.49 163.80 135.21 164.00 129.00
C 161.23 123.34 156.32 119.34 155.00 112.00
C 154.07 121.29 158.58 126.67 162.74 134.26 C 166.91 141.84 157.53 152.20 162.00 160.00
C 165.98 155.16 168.63 147.85 174.00 145.00
C 174.18 150.14 175.33 155.01 176.00 160.00
C 177.82 160.17 177.48 157.68 178.00 157.00 Z"/>
</g>
<g fill="#F19136" fill-opacity="1.00" stroke="None">
<path d="
M 164.00 129.00 
C 163.80 135.21 168.52 140.49 172.00 145.00
C 172.20 138.29 169.97 132.68 170.00 126.00
C 170.01 124.69 170.13 123.30 170.00 122.00
C 169.66 120.29 169.20 118.11 168.00 117.00
C 167.28 121.09 164.24 124.80 164.00 129.00 Z"/>
</g>
<g fill="#EEC094" fill-opacity="1.00" stroke="None">
<path d="
M 170.00 126.00 
C 171.02 133.33 173.86 142.85 176.00 150.00
C 174.62 140.31 173.23 130.82 170.00 122.00
C 170.13 123.30 170.01 124.69 170.00 126.00 Z"/>
</g>
<g fill="#D58728" fill-opacity="1.00" stroke="None">
<path d="
M 191.00 192.00 
C 188.79 192.93 187.89 195.77 188.00 198.00
C 190.21 197.07 191.11 194.23 191.00 192.00 Z"/>
</g>
<g fill="#D0925C" fill-opacity="1.00" stroke="None">
<path d="
M 140.00 210.00 
C 131.01 214.58 125.96 226.62 117.00 231.00
C 119.81 231.93 122.71 235.02 126.00 235.00
C 130.39 232.93 134.79 228.91 139.00 232.00
C 138.78 229.13 143.42 224.66 147.23 224.23 C 151.04 223.80 151.64 230.93 152.93 234.07 C 154.21 237.21 147.87 243.74 148.00 243.00
C 148.48 244.23 148.60 245.69 149.00 247.00
C 149.28 247.90 148.68 250.99 151.00 250.00
C 150.95 249.50 151.00 249.00 151.00 249.00
C 151.00 248.08 150.82 246.90 151.00 246.00
C 151.64 242.71 154.57 236.58 159.00 238.00 C 163.44 239.43 171.75 235.93 176.00 238.00
C 171.61 236.19 175.49 227.16 170.00 224.00
C 166.43 221.94 161.84 220.79 158.00 219.00
C 156.82 218.45 154.12 219.35 154.00 217.00
C 161.26 215.27 166.59 201.47 174.00 207.00
C 173.61 203.04 166.70 195.02 163.00 193.00
C 161.83 197.90 157.10 202.61 152.70 204.70 C 148.29 206.78 144.55 214.36 140.00 210.00 Z"/>
</g>
<g fill="#DDB891" fill-opacity="1.00" stroke="None">
<path d="
M 116.00 231.00 
C 116.50 231.02 117.00 231.00 117.00 231.00
C 125.96 226.62 131.01 214.58 140.00 210.00
C 136.62 206.76 133.85 199.83 131.00 196.00
C 131.95 201.24 137.31 204.62 138.00 210.00
C 133.10 218.01 119.64 222.29 116.00 231.00 Z"/>
</g>
<g fill="#C47139" fill-opacity="1.00" stroke="None">
<path d="
M 158.00 219.00 
C 164.14 219.50 176.93 211.50 174.00 225.00
C 172.46 225.37 171.60 223.57 170.00 224.00
C 175.49 227.16 171.61 236.19 176.00 238.00
C 176.43 238.18 177.00 238.00 177.00 238.00
C 176.27 236.39 175.64 234.91 176.00 233.00
C 178.02 234.34 177.95 237.72 180.00 239.00
C 180.26 238.75 181.00 239.00 181.00 239.00
C 181.10 237.07 181.59 233.48 183.00 232.00
C 177.88 232.75 176.54 224.01 175.00 220.00
C 180.36 219.36 188.16 207.46 185.00 207.00
C 182.18 213.32 176.96 218.97 171.00 212.00
C 172.14 210.21 173.55 209.12 174.00 207.00
C 166.59 201.47 161.26 215.27 154.00 217.00
C 154.12 219.35 156.82 218.45 158.00 219.00 Z"/>
</g>
<g fill="#D49A62" fill-opacity="1.00" stroke="None">
<path d="
M 185.00 207.00 
C 188.16 207.46 180.36 219.36 175.00 220.00
C 176.54 224.01 177.88 232.75 183.00 232.00
C 190.70 230.87 197.35 228.83 206.00 229.00
C 202.32 224.29 201.26 216.75 198.00 212.00
C 195.23 207.97 188.58 203.80 185.00 207.00 Z"/>
</g>
<g fill="#DFD8BA" fill-opacity="1.00" stroke="None">
<path d="
M 261.00 262.00 
C 264.46 262.76 269.08 263.69 273.00 264.00
C 281.12 264.64 289.01 263.56 296.00 268.00
C 294.50 265.99 297.85 264.62 298.00 262.00
C 294.57 259.98 294.98 252.55 299.00 251.00
C 295.47 237.45 295.54 225.28 294.00 211.00
C 294.40 221.95 284.39 230.91 289.00 242.00
C 287.01 238.38 283.82 237.28 285.00 243.00
C 278.46 243.06 284.54 243.36 284.00 247.00
C 282.28 245.26 280.84 245.81 279.00 245.00
C 280.82 248.92 276.92 252.32 276.99 258.99 C 277.07 265.66 265.65 262.00 261.00 262.00 Z"/>
</g>
<g fill="#9D542F" fill-opacity="1.00" stroke="None">
<path d="
M 158.00 219.00 
C 161.84 220.79 166.43 221.94 170.00 224.00
C 171.60 223.57 172.46 225.37 174.00 225.00
C 176.93 211.50 164.14 219.50 158.00 219.00 Z"/>
</g>
<g fill="#ECA644" fill-opacity="1.00" stroke="None">
<path d="
M 139.00 232.00 
C 142.05 234.24 146.66 239.57 148.00 243.00
C 147.87 243.74 154.21 237.21 152.93 234.07 C 151.64 230.93 151.04 223.80 147.23 224.23 C 143.42 224.66 138.78 229.13 139.00 232.00 Z"/>
</g>
<g fill="#B7A8A6" fill-opacity="1.00" stroke="None">
<path d="
M 89.00 231.00 
C 86.82 231.81 77.68 241.71 77.00 244.00
C 79.75 240.11 91.15 243.27 95.00 241.00 C 98.85 238.73 103.39 243.34 108.00 245.00
C 108.44 245.16 109.00 245.00 109.00 245.00
C 110.90 240.41 121.62 237.07 126.00 235.00
C 122.71 235.02 119.81 231.93 117.00 231.00
C 117.00 231.00 116.50 231.02 116.00 231.00
C 107.31 230.67 98.10 228.28 89.00 231.00 Z"/>
</g>
<g fill="#B7ABAD" fill-opacity="1.00" stroke="None">
<path d="
M 183.00 232.00 
C 181.59 233.48 181.10 237.07 181.00 239.00
C 180.95 240.00 181.05 241.00 181.00 242.00
C 182.91 241.49 184.46 242.54 187.00 241.00
C 196.08 235.49 208.86 238.89 220.00 238.00
C 220.00 239.33 220.00 240.67 220.00 242.00
C 221.51 238.87 220.61 236.58 218.00 234.00
C 219.67 234.00 221.33 234.00 223.00 234.00
C 220.54 233.09 219.80 229.42 216.01 229.99 C 212.22 230.56 209.89 229.08 206.00 229.00
C 197.35 228.83 190.70 230.87 183.00 232.00 Z"/>
</g>
<g fill="#DBD6D8" fill-opacity="1.00" stroke="None">
<path d="
M 126.00 235.00 
C 121.62 237.07 110.90 240.41 109.00 245.00
C 109.90 246.57 110.86 248.17 111.00 250.00
C 118.91 248.16 125.76 242.42 134.00 241.00
C 135.04 244.90 138.82 247.61 141.00 251.00
C 141.71 248.20 147.48 244.76 149.00 247.00
C 148.60 245.69 148.48 244.23 148.00 243.00
C 146.66 239.57 142.05 234.24 139.00 232.00
C 134.79 228.91 130.39 232.93 126.00 235.00 Z"/>
</g>
<g fill="#DBD0AE" fill-opacity="1.00" stroke="None">
<path d="
M 58.00 264.00 
C 60.70 263.40 64.23 264.00 67.00 264.00
C 71.62 264.00 75.50 263.17 80.00 263.00
C 79.50 262.55 79.28 261.57 79.00 261.00
C 77.12 257.15 75.58 248.75 77.00 244.00
C 77.68 241.71 86.82 231.81 89.00 231.00
C 83.25 236.37 75.22 241.59 75.00 250.00
C 71.54 242.27 61.88 255.69 58.00 248.00
C 57.44 253.25 58.75 258.78 58.00 264.00 Z"/>
</g>
<g fill="#B64526" fill-opacity="1.00" stroke="None">
<path d="
M 177.00 238.00 
C 177.92 239.69 178.62 240.34 180.00 239.00
C 177.95 237.72 178.02 234.34 176.00 233.00
C 175.64 234.91 176.27 236.39 177.00 238.00 Z"/>
</g>
<g fill="#DED8DA" fill-opacity="1.00" stroke="None">
<path d="
M 220.00 242.00 
C 219.80 242.41 220.16 243.56 220.00 244.00
C 224.13 246.04 229.47 241.80 234.00 243.00 C 238.53 244.20 244.35 242.10 249.00 243.00
C 248.69 241.38 246.08 238.24 245.00 237.00
C 244.56 236.84 244.00 237.00 244.00 237.00
C 238.44 232.75 230.11 233.41 223.00 234.00
C 221.33 234.00 219.67 234.00 218.00 234.00
C 220.61 236.58 221.51 238.87 220.00 242.00 Z"/>
</g>
<g fill="#CBC2A7" fill-opacity="1.00" stroke="None">
<path d="
M 244.00 237.00 
C 244.00 237.00 244.56 236.84 245.00 237.00
C 255.71 240.86 256.00 249.03 256.00 259.00
C 256.00 259.50 256.00 260.00 256.00 260.00
C 255.94 260.30 255.17 261.80 255.00 262.00
C 255.80 261.76 257.16 262.00 258.00 262.00
C 254.68 260.19 258.92 245.39 255.25 243.75 C 251.57 242.12 246.94 233.93 244.00 237.00 Z"/>
</g>
<g fill="#A1A295" fill-opacity="1.00" stroke="None">
<path d="
M 249.00 243.00 
C 249.70 246.63 247.86 251.54 247.00 255.00
C 250.24 255.81 252.84 257.83 256.00 259.00
C 256.00 249.03 255.71 240.86 245.00 237.00
C 246.08 238.24 248.69 241.38 249.00 243.00 Z"/>
</g>
<g fill="#C1B1B4" fill-opacity="1.00" stroke="None">
<path d="
M 151.00 246.00 
C 152.41 243.40 161.01 245.09 164.00 245.00 C 166.99 244.91 174.86 244.12 178.00 245.00
C 177.54 243.88 178.28 242.19 178.00 241.00
C 177.49 240.30 176.02 238.87 176.00 238.00
C 171.75 235.93 163.44 239.43 159.00 238.00 C 154.57 236.58 151.64 242.71 151.00 246.00 Z"/>
</g>
<g fill="#AF7D7A" fill-opacity="1.00" stroke="None">
<path d="
M 178.00 241.00 
C 178.78 242.08 180.29 243.27 180.00 245.00
C 181.39 244.74 180.78 242.95 181.00 242.00
C 181.05 241.00 180.95 240.00 181.00 239.00
C 181.00 239.00 180.26 238.75 180.00 239.00
C 178.62 240.34 177.92 239.69 177.00 238.00
C 177.00 238.00 176.43 238.18 176.00 238.00
C 176.02 238.87 177.49 240.30 178.00 241.00 Z"/>
</g>
<g fill="#A2AAA7" fill-opacity="1.00" stroke="None">
<path d="
M 187.00 241.00 
C 188.00 240.59 188.77 239.72 190.00 240.00
C 190.19 244.33 193.23 247.81 194.00 252.00
C 199.07 249.78 212.39 251.49 218.00 252.00
C 217.80 250.31 218.75 249.99 219.00 249.00
C 219.45 247.17 219.47 245.48 220.00 244.00
C 220.16 243.56 219.80 242.41 220.00 242.00
C 220.00 240.67 220.00 239.33 220.00 238.00
C 208.86 238.89 196.08 235.49 187.00 241.00 Z"/>
</g>
<g fill="#9A9F89" fill-opacity="1.00" stroke="None">
<path d="
M 77.00 244.00 
C 75.58 248.75 77.12 257.15 79.00 261.00
C 80.16 257.42 87.01 260.53 90.01 258.01 C 93.00 255.48 98.27 261.48 100.00 262.00
C 101.47 262.00 103.59 261.61 105.00 262.00
C 105.16 259.20 108.53 253.55 111.00 253.00
C 110.07 250.27 109.49 247.60 108.00 245.00
C 103.39 243.34 98.85 238.73 95.00 241.00 C 91.15 243.27 79.75 240.11 77.00 244.00 Z"/>
</g>
<g fill="#798D7C" fill-opacity="1.00" stroke="None">
<path d="
M 187.00 241.00 
C 185.65 241.56 183.22 245.10 182.00 246.00
C 183.34 246.65 183.28 250.84 183.00 252.00
C 184.98 253.77 185.66 257.60 188.00 259.00
C 189.63 259.19 193.88 253.27 194.00 252.00
C 193.23 247.81 190.19 244.33 190.00 240.00
C 188.77 239.72 188.00 240.59 187.00 241.00 Z"/>
</g>
<g fill="#C9D7C7" fill-opacity="1.00" stroke="None">
<path d="
M 109.00 245.00 
C 109.00 245.00 108.44 245.16 108.00 245.00
C 109.49 247.60 110.07 250.27 111.00 253.00
C 112.07 256.12 113.60 259.33 115.00 262.00
C 117.70 261.52 121.41 260.58 123.69 258.69 C 125.98 256.81 130.75 256.80 132.68 254.68 C 134.60 252.56 141.33 253.56 142.00 253.00
C 141.69 252.37 141.35 251.57 141.00 251.00
C 138.82 247.61 135.04 244.90 134.00 241.00
C 125.76 242.42 118.91 248.16 111.00 250.00
C 110.86 248.17 109.90 246.57 109.00 245.00 Z"/>
</g>
<g fill="#938C8F" fill-opacity="1.00" stroke="None">
<path d="
M 178.00 245.00 
C 178.93 245.26 180.71 245.91 181.00 247.00
C 181.09 246.65 181.70 246.22 182.00 246.00
C 183.22 245.10 185.65 241.56 187.00 241.00
C 184.46 242.54 182.91 241.49 181.00 242.00
C 180.78 242.95 181.39 244.74 180.00 245.00
C 180.29 243.27 178.78 242.08 178.00 241.00
C 178.28 242.19 177.54 243.88 178.00 245.00 Z"/>
</g>
<g fill="#CFD6D0" fill-opacity="1.00" stroke="None">
<path d="
M 220.00 244.00 
C 219.47 245.48 219.45 247.17 219.00 249.00
C 219.15 252.23 220.95 254.73 221.00 258.00
C 227.47 255.04 240.10 261.81 246.00 258.00
C 246.33 256.92 246.72 256.14 247.00 255.00
C 247.86 251.54 249.70 246.63 249.00 243.00
C 244.35 242.10 238.53 244.20 234.00 243.00 C 229.47 241.80 224.13 246.04 220.00 244.00 Z"/>
</g>
<g fill="#B4BDBC" fill-opacity="1.00" stroke="None">
<path d="
M 141.00 251.00 
C 141.35 251.57 141.69 252.37 142.00 253.00
C 143.50 256.05 143.70 261.25 148.00 261.00
C 148.50 260.97 149.00 261.00 149.00 261.00
C 150.89 257.84 151.36 253.76 151.00 250.00
C 148.68 250.99 149.28 247.90 149.00 247.00
C 147.48 244.76 141.71 248.20 141.00 251.00 Z"/>
</g>
<g fill="#A2ABA7" fill-opacity="1.00" stroke="None">
<path d="
M 151.00 246.00 
C 150.82 246.90 151.00 248.08 151.00 249.00
C 153.51 250.19 153.69 253.53 154.00 256.00
C 161.00 256.00 168.00 256.00 175.00 256.00
C 175.62 252.57 177.38 249.47 178.00 246.00
C 179.88 246.24 179.46 248.55 181.00 249.00
C 180.92 248.51 180.88 247.47 181.00 247.00
C 180.71 245.91 178.93 245.26 178.00 245.00
C 174.86 244.12 166.99 244.91 164.00 245.00 C 161.01 245.09 152.41 243.40 151.00 246.00 Z"/>
</g>
<g fill="#839B7F" fill-opacity="1.00" stroke="None">
<path d="
M 151.00 249.00 
C 151.00 249.00 150.95 249.50 151.00 250.00
C 151.36 253.76 150.89 257.84 149.00 261.00
C 151.19 260.92 154.87 259.98 154.00 257.00
C 161.24 258.89 174.88 252.40 177.00 262.00
C 177.50 262.00 178.58 261.82 179.00 262.00
C 178.83 262.10 179.93 259.18 180.00 259.00
C 180.87 256.70 181.71 254.53 182.00 252.00
C 181.81 251.69 181.09 249.49 181.00 249.00
C 179.46 248.55 179.88 246.24 178.00 246.00
C 177.38 249.47 175.62 252.57 175.00 256.00
C 168.00 256.00 161.00 256.00 154.00 256.00
C 153.69 253.53 153.51 250.19 151.00 249.00 Z"/>
</g>
<g fill="#606C68" fill-opacity="1.00" stroke="None">
<path d="
M 181.00 247.00 
C 180.88 247.47 180.92 248.51 181.00 249.00
C 181.09 249.49 181.81 251.69 182.00 252.00
C 182.14 252.23 183.00 252.00 183.00 252.00
C 183.28 250.84 183.34 246.65 182.00 246.00
C 181.70 246.22 181.09 246.65 181.00 247.00 Z"/>
</g>
<g fill="#D0BAA8" fill-opacity="1.00" stroke="None">
<path d="
M 218.00 252.00 
C 218.06 252.49 218.00 253.00 218.00 253.00
C 218.78 254.16 221.00 257.01 221.00 258.00
C 220.95 254.73 219.15 252.23 219.00 249.00
C 218.75 249.99 217.80 250.31 218.00 252.00 Z"/>
</g>
<g fill="#BAD5AE" fill-opacity="1.00" stroke="None">
<path d="
M 115.00 262.00 
C 115.21 262.39 115.00 263.00 115.00 263.00
C 117.42 265.50 126.98 264.55 131.00 264.00 C 135.02 263.45 142.39 263.18 147.00 263.00
C 147.43 262.80 147.72 261.14 148.00 261.00
C 143.70 261.25 143.50 256.05 142.00 253.00
C 141.33 253.56 134.60 252.56 132.68 254.68 C 130.75 256.80 125.98 256.81 123.69 258.69 C 121.41 260.58 117.70 261.52 115.00 262.00 Z"/>
</g>
<g fill="#476433" fill-opacity="1.00" stroke="None">
<path d="
M 180.00 259.00 
C 182.41 257.70 182.41 261.70 183.00 262.00
C 184.89 262.03 186.79 262.83 188.00 263.00
C 192.33 263.00 196.67 263.00 201.00 263.00
C 203.77 263.00 207.31 263.60 210.00 263.00
C 210.03 262.65 210.67 262.17 211.00 262.00
C 211.23 258.43 203.00 260.33 200.00 260.00 C 197.00 259.67 190.67 260.60 188.00 259.00
C 185.66 257.60 184.98 253.77 183.00 252.00
C 183.00 252.00 182.14 252.23 182.00 252.00
C 181.71 254.53 180.87 256.70 180.00 259.00 Z"/>
</g>
<g fill="#749B5F" fill-opacity="1.00" stroke="None">
<path d="
M 188.00 259.00 
C 190.67 260.60 197.00 259.67 200.00 260.00 C 203.00 260.33 211.23 258.43 211.00 262.00
C 215.85 259.58 215.12 256.54 218.00 253.00
C 218.00 253.00 218.06 252.49 218.00 252.00
C 212.39 251.49 199.07 249.78 194.00 252.00
C 193.88 253.27 189.63 259.19 188.00 259.00 Z"/>
</g>
<g fill="#75825E" fill-opacity="1.00" stroke="None">
<path d="
M 105.00 262.00 
C 105.35 262.10 105.77 262.95 106.00 263.00
C 108.96 263.00 112.05 263.27 115.00 263.00
C 115.00 263.00 115.21 262.39 115.00 262.00
C 113.60 259.33 112.07 256.12 111.00 253.00
C 108.53 253.55 105.16 259.20 105.00 262.00 Z"/>
</g>
<g fill="#BFA972" fill-opacity="1.00" stroke="None">
<path d="
M 211.00 262.00 
C 210.67 262.17 210.03 262.65 210.00 263.00
C 209.95 263.50 210.00 264.00 210.00 264.00
C 212.30 264.00 214.70 263.80 217.00 264.00
C 218.08 263.59 221.00 259.12 221.00 258.00
C 221.00 257.01 218.78 254.16 218.00 253.00
C 215.12 256.54 215.85 259.58 211.00 262.00 Z"/>
</g>
<g fill="#84996F" fill-opacity="1.00" stroke="None">
<path d="
M 246.00 258.00 
C 245.42 259.89 245.32 261.99 245.00 264.00
C 249.58 265.07 252.99 263.00 256.00 260.00
C 256.00 260.00 256.00 259.50 256.00 259.00
C 252.84 257.83 250.24 255.81 247.00 255.00
C 246.72 256.14 246.33 256.92 246.00 258.00 Z"/>
</g>
<g fill="#719555" fill-opacity="1.00" stroke="None">
<path d="
M 149.00 261.00 
C 149.00 261.00 148.50 260.97 148.00 261.00
C 147.72 261.14 147.43 262.80 147.00 263.00
C 156.84 262.62 166.85 262.00 177.00 262.00
C 174.88 252.40 161.24 258.89 154.00 257.00
C 154.87 259.98 151.19 260.92 149.00 261.00 Z"/>
</g>
<g fill="#6F8D48" fill-opacity="1.00" stroke="None">
<path d="
M 79.00 261.00 
C 79.28 261.57 79.50 262.55 80.00 263.00
C 83.09 262.89 87.26 263.00 91.00 263.00
C 93.42 262.77 96.91 262.00 100.00 262.00
C 98.27 261.48 93.00 255.48 90.01 258.01 C 87.01 260.53 80.16 257.42 79.00 261.00 Z"/>
</g>
<g fill="#A4C886" fill-opacity="1.00" stroke="None">
<path d="
M 217.00 264.00 
C 223.01 264.51 230.74 265.77 237.00 265.00 C 243.26 264.23 250.57 267.31 255.00 262.00
C 255.17 261.80 255.94 260.30 256.00 260.00
C 252.99 263.00 249.58 265.07 245.00 264.00
C 245.32 261.99 245.42 259.89 246.00 258.00
C 240.10 261.81 227.47 255.04 221.00 258.00
C 221.00 259.12 218.08 263.59 217.00 264.00 Z"/>
</g>
<g fill="#886126" fill-opacity="1.00" stroke="None">
<path d="
M 179.00 262.00 
C 180.33 262.02 181.67 261.98 183.00 262.00
C 182.41 261.70 182.41 257.70 180.00 259.00
C 179.93 259.18 178.83 262.10 179.00 262.00 Z"/>
</g>
<g fill="#8EAF5E" fill-opacity="1.00" stroke="None">
<path d="
M 91.00 263.00 
C 96.00 263.00 101.00 263.00 106.00 263.00
C 105.77 262.95 105.35 262.10 105.00 262.00
C 103.59 261.61 101.47 262.00 100.00 262.00
C 96.91 262.00 93.42 262.77 91.00 263.00 Z"/>
</g>
<g fill="#D0E67E" fill-opacity="1.00" stroke="None">
<path d="
M 147.00 263.00 
C 142.39 263.18 135.02 263.45 131.00 264.00 C 126.98 264.55 117.42 265.50 115.00 263.00
C 112.05 263.27 108.96 263.00 106.00 263.00
C 101.00 263.00 96.00 263.00 91.00 263.00
C 87.26 263.00 83.09 262.89 80.00 263.00
C 75.50 263.17 71.62 264.00 67.00 264.00
C 64.72 264.22 60.99 265.91 58.00 265.00
C 58.00 267.67 58.00 270.33 58.00 273.00
C 91.67 263.70 127.94 266.91 164.00 269.00 C 200.06 271.09 238.37 271.55 274.00 275.00
C 285.00 275.00 296.00 275.00 307.00 275.00
C 297.65 267.66 284.41 265.32 273.00 264.00
C 269.08 263.69 264.46 262.76 261.00 262.00
C 260.00 262.00 259.00 262.00 258.00 262.00
C 257.16 262.00 255.80 261.76 255.00 262.00
C 250.57 267.31 243.26 264.23 237.00 265.00 C 230.74 265.77 223.01 264.51 217.00 264.00
C 214.70 263.80 212.30 264.00 210.00 264.00
C 206.90 264.00 203.36 263.23 201.00 263.00
C 196.67 263.00 192.33 263.00 188.00 263.00
C 184.68 263.00 181.65 263.13 179.00 262.00
C 178.58 261.82 177.50 262.00 177.00 262.00
C 166.85 262.00 156.84 262.62 147.00 263.00 Z"/>
</g>
<g fill="#97A644" fill-opacity="1.00" stroke="None">
<path d="
M 188.00 263.00 
C 186.79 262.83 184.89 262.03 183.00 262.00
C 181.67 261.98 180.33 262.02 179.00 262.00
C 181.65 263.13 184.68 263.00 188.00 263.00 Z"/>
</g>
<g fill="#CEDFAE" fill-opacity="1.00" stroke="None">
<path d="
M 273.00 264.00 
C 284.41 265.32 297.65 267.66 307.00 275.00
C 296.00 275.00 285.00 275.00 274.00 275.00
C 265.00 275.00 256.00 275.01 247.00 275.00 C 238.00 274.99 229.01 275.02 220.00 275.00 C 210.99 274.98 202.02 275.05 193.00 275.00 C 183.98 274.95 173.93 275.11 165.00 275.00 C 156.07 274.89 146.66 275.26 138.00 275.00 C 129.34 274.74 119.16 275.59 111.00 275.00 C 102.84 274.41 91.09 276.30 84.00 275.00 C 76.91 273.70 60.75 278.68 58.00 273.00
C 58.00 270.33 58.00 267.67 58.00 265.00
C 60.99 265.91 64.72 264.22 67.00 264.00
C 64.23 264.00 60.70 263.40 58.00 264.00
C 57.95 264.35 57.05 264.77 57.00 265.00
C 57.00 268.67 57.00 272.33 57.00 276.00
C 64.00 276.00 71.00 276.00 78.00 276.00 C 85.00 276.00 92.00 276.00 99.00 276.00 C 106.00 276.00 113.00 276.00 120.00 276.00 C 127.00 276.00 134.00 276.01 141.00 276.00 C 148.00 275.99 155.01 276.01 162.00 276.00 C 168.99 275.99 176.02 276.03 183.00 276.00 C 189.98 275.97 197.04 276.06 204.00 276.00 C 210.96 275.94 218.10 276.13 225.00 276.00 C 231.90 275.87 239.22 276.28 246.00 276.00 C 252.78 275.72 260.49 276.62 267.00 276.00 C 273.51 275.38 282.08 277.36 288.00 276.00 C 293.92 274.64 303.42 279.21 308.00 276.00
C 308.76 272.99 305.77 272.52 304.00 271.00
C 307.31 265.32 300.43 264.60 298.00 262.00
C 297.85 264.62 294.50 265.99 296.00 268.00
C 289.01 263.56 281.12 264.64 273.00 264.00 Z"/>
</g>
<g fill="#719238" fill-opacity="1.00" stroke="None">
<path d="
M 210.00 264.00 
C 210.00 264.00 209.95 263.50 210.00 263.00
C 207.31 263.60 203.77 263.00 201.00 263.00
C 203.36 263.23 206.90 264.00 210.00 264.00 Z"/>
</g>
<g fill="#A1D14E" fill-opacity="1.00" stroke="None">
<path d="
M 58.00 273.00 
C 60.75 278.68 76.91 273.70 84.00 275.00 C 91.09 276.30 102.84 274.41 111.00 275.00 C 119.16 275.59 129.34 274.74 138.00 275.00 C 146.66 275.26 156.07 274.89 165.00 275.00 C 173.93 275.11 183.98 274.95 193.00 275.00 C 202.02 275.05 210.99 274.98 220.00 275.00 C 229.01 275.02 238.00 274.99 247.00 275.00 C 256.00 275.01 265.00 275.00 274.00 275.00
C 238.37 271.55 200.06 271.09 164.00 269.00 C 127.94 266.91 91.67 263.70 58.00 273.00 Z"/>
</g>
<g fill="#939393" fill-opacity="0.16" stroke="None">
<path d="
M 327.00 300.00 
L 333.00 300.00
L 333.00 294.00
C 330.67 295.43 328.57 297.72 327.00 300.00 Z"/>
</g>
</svg>