<svg xmlns="http://www.w3.org/2000/svg" xmlns:v="https://svgstorm.com"
viewBox = "0 0 294 300"
width="294"
height="300">
<g fill="None" fill-opacity="0.0" stroke="#E7E7E7" stroke-opacity="1.00" stroke-width="0.3"><path d="
M 0.00 300.00 
L 294.00 300.00
L 294.00 0.00
L 0.00 0.00
L 0.00 300.00
M 274.00 22.00 
C 274.00 106.67 274.00 191.33 274.00 276.00
C 189.67 276.00 105.33 276.00 21.00 276.00
C 21.00 191.33 21.00 106.67 21.00 22.00
C 105.33 22.00 189.67 22.00 274.00 22.00 Z"/>
</g>
<g fill="None" fill-opacity="0.0" stroke="#CECCCC" stroke-opacity="1.00" stroke-width="0.3"><path d="
M 274.00 22.00 
C 189.67 22.00 105.33 22.00 21.00 22.00
C 21.00 106.67 21.00 191.33 21.00 276.00
C 105.33 276.00 189.67 276.00 274.00 276.00
C 274.00 191.33 274.00 106.67 274.00 22.00
M 210.00 62.00 
C 210.75 62.75 211.54 64.07 212.00 65.00
C 214.34 69.67 213.53 74.61 213.00 79.00
C 211.86 88.42 209.65 92.52 204.00 100.00
C 203.28 100.95 202.67 102.08 202.00 103.00
C 207.50 100.58 213.59 108.22 215.30 112.70 C 217.02 117.17 221.96 122.81 225.30 126.70 C 228.65 130.58 235.26 132.54 237.92 137.08 C 240.58 141.63 241.04 156.39 237.00 148.00
C 236.54 151.69 235.86 153.23 240.00 154.00
C 240.85 157.11 238.19 159.15 238.00 162.00
C 236.61 161.16 234.21 158.54 233.00 161.00
C 234.00 161.07 235.00 160.95 236.00 161.00
C 237.54 165.02 231.24 164.55 232.00 161.00
C 231.50 160.53 232.50 158.47 232.00 158.00
C 231.55 158.15 231.00 158.00 231.00 158.00
C 224.07 163.13 210.34 154.99 207.67 148.33 C 205.01 141.66 196.46 132.98 190.00 130.00
C 184.78 140.82 179.66 151.34 174.00 162.00
C 173.81 163.16 175.01 166.87 173.69 168.69 C 172.38 170.52 170.17 172.17 170.00 174.00
C 169.89 175.22 174.80 185.43 173.93 191.07 C 173.05 196.72 175.48 208.03 173.67 213.67 C 171.86 219.31 165.89 222.08 163.00 227.00
C 168.55 231.55 168.40 240.53 169.00 246.00
C 178.57 262.81 152.21 274.92 145.00 257.00
C 141.15 254.50 127.77 245.69 130.00 237.00
C 130.23 236.10 131.89 235.39 132.00 235.00
C 121.20 223.38 133.28 213.51 138.99 203.99 C 144.70 194.47 138.18 170.64 128.25 182.25 C 118.32 193.85 114.28 196.75 105.25 206.25 C 96.22 215.74 93.49 223.75 85.00 233.00
C 84.06 235.77 85.81 238.98 81.00 236.00
C 73.18 231.15 69.31 220.97 63.00 216.00
C 62.62 215.70 60.26 214.17 60.00 214.00
C 59.06 213.39 57.03 214.47 56.00 214.00
C 63.63 204.02 79.60 196.06 85.25 183.25 C 90.90 170.43 102.77 160.14 112.00 149.00
C 108.01 145.88 106.89 139.08 113.00 137.00
C 108.89 131.24 115.21 125.18 116.00 119.00
C 109.54 123.39 102.19 127.49 96.00 133.00
C 95.77 125.58 86.83 120.60 80.00 121.00
C 85.10 114.90 83.48 105.94 90.08 101.08 C 96.69 96.22 100.67 90.13 109.67 91.67 C 118.67 93.21 122.14 80.72 131.00 82.00
C 134.23 80.33 142.04 75.94 147.00 81.00
C 144.29 65.86 152.10 48.93 169.07 44.07 C 186.05 39.22 202.06 46.16 210.00 62.00
M 88.00 125.00 
C 90.40 125.66 90.24 125.48 92.00 127.00
C 94.68 129.32 94.32 129.55 95.00 133.00
C 95.47 135.39 95.48 137.61 96.00 140.00
C 92.34 142.56 89.67 141.76 88.00 138.00
C 86.95 140.01 86.02 141.98 85.00 144.00
C 79.93 140.90 69.80 147.57 69.00 139.00
C 71.71 138.35 71.41 135.29 73.00 134.00
C 75.63 126.50 78.72 122.47 88.00 125.00
M 79.00 155.00 
C 78.37 161.58 71.55 153.43 79.00 155.00
M 85.00 155.00 
C 86.00 156.00 83.39 158.03 82.32 156.66 C 81.25 155.29 84.32 154.32 85.00 155.00 Z"/>
</g>
<g fill="None" fill-opacity="0.0" stroke="#EAE8E7" stroke-opacity="1.00" stroke-width="0.3"><path d="
M 147.00 81.00 
C 148.51 89.44 157.61 94.74 165.00 97.00
C 158.95 79.12 173.54 58.55 192.00 56.00
C 199.40 55.33 204.85 56.85 210.00 62.00
C 202.06 46.16 186.05 39.22 169.07 44.07 C 152.10 48.93 144.29 65.86 147.00 81.00 Z"/>
</g>
<g fill="None" fill-opacity="0.0" stroke="#E9C270" stroke-opacity="1.00" stroke-width="0.3"><path d="
M 147.00 81.00 
C 142.04 75.94 134.23 80.33 131.00 82.00
C 149.26 81.11 138.63 102.13 150.08 105.92 C 161.52 109.72 170.32 114.11 182.00 117.00
C 190.85 118.10 195.23 117.20 199.00 110.00
C 199.01 109.50 199.00 109.00 199.00 109.00
C 199.51 106.23 199.51 103.84 197.00 103.00
C 194.93 104.11 193.42 104.91 191.00 105.00
C 186.74 107.90 182.68 111.76 177.00 106.00
C 179.38 104.88 182.06 103.66 179.00 101.00
C 178.13 99.25 176.94 97.70 176.00 96.00
C 173.95 92.28 174.43 91.02 175.00 87.00
C 175.19 81.99 176.04 78.99 179.00 75.00
C 186.90 64.38 205.88 55.92 212.00 73.00
C 212.71 74.97 212.88 76.81 213.00 79.00
C 213.53 74.61 214.34 69.67 212.00 65.00
C 208.18 58.64 198.13 56.04 192.00 56.00
C 173.54 58.55 158.95 79.12 165.00 97.00
C 157.61 94.74 148.51 89.44 147.00 81.00 Z"/>
</g>
<g fill="None" fill-opacity="0.0" stroke="#EDD8B1" stroke-opacity="1.00" stroke-width="0.3"><path d="
M 212.00 65.00 
C 211.54 64.07 210.75 62.75 210.00 62.00
C 204.85 56.85 199.40 55.33 192.00 56.00
C 198.13 56.04 208.18 58.64 212.00 65.00 Z"/>
</g>
<g fill="None" fill-opacity="0.0" stroke="#F4CDC0" stroke-opacity="1.00" stroke-width="0.3"><path d="
M 179.00 75.00 
C 186.85 65.99 205.26 58.30 212.00 73.00
C 205.88 55.92 186.90 64.38 179.00 75.00 Z"/>
</g>
<g fill="None" fill-opacity="0.0" stroke="#F8ECFB" stroke-opacity="1.00" stroke-width="0.3"><path d="
M 179.00 75.00 
C 176.04 78.99 175.19 81.99 175.00 87.00
C 174.88 90.27 174.90 93.06 176.00 96.00
C 176.94 97.70 178.13 99.25 179.00 101.00
C 181.67 103.67 187.40 105.13 191.00 105.00
C 193.42 104.91 194.93 104.11 197.00 103.00
C 198.86 102.01 202.31 101.04 204.00 100.00
C 209.65 92.52 211.86 88.42 213.00 79.00
C 212.88 76.81 212.71 74.97 212.00 73.00
C 205.26 58.30 186.85 65.99 179.00 75.00 Z"/>
</g>
<g fill="None" fill-opacity="0.0" stroke="#E6E4E5" stroke-opacity="1.00" stroke-width="0.3"><path d="
M 116.00 119.00 
C 119.28 116.77 123.50 114.98 128.00 115.00
C 124.44 123.56 118.41 131.35 115.00 140.00
C 125.11 147.58 139.70 156.25 154.00 160.00
C 158.77 161.87 169.81 165.51 174.00 162.00
C 179.66 151.34 184.78 140.82 190.00 130.00
C 196.46 132.98 205.01 141.66 207.67 148.33 C 210.34 154.99 224.07 163.13 231.00 158.00
C 229.01 156.38 226.10 155.64 224.00 154.00
C 222.21 152.60 220.69 150.31 219.00 149.00
C 217.31 147.69 209.76 145.47 211.00 141.00
C 217.60 146.61 216.23 138.21 222.00 136.00
C 222.33 139.88 225.25 142.78 228.00 138.00
C 231.58 135.78 240.64 141.32 236.00 147.00
C 234.70 148.59 231.23 147.55 230.00 151.00
C 230.13 151.46 229.75 152.70 230.00 153.00
C 230.82 152.93 233.61 153.09 235.00 154.00
C 235.21 155.77 233.46 157.37 232.00 158.00
C 232.50 158.47 231.50 160.53 232.00 161.00
C 232.27 161.25 233.00 161.00 233.00 161.00
C 234.21 158.54 236.61 161.16 238.00 162.00
C 238.19 159.15 240.85 157.11 240.00 154.00
C 235.86 153.23 236.54 151.69 237.00 148.00
C 241.04 156.39 240.58 141.63 237.92 137.08 C 235.26 132.54 228.65 130.58 225.30 126.70 C 221.96 122.81 217.02 117.17 215.30 112.70 C 213.59 108.22 207.50 100.58 202.00 103.00
C 200.81 104.63 200.10 106.68 199.00 109.00
C 199.00 109.00 199.01 109.50 199.00 110.00
C 198.80 119.78 188.63 118.64 182.00 117.00
C 170.32 114.11 161.52 109.72 150.08 105.92 C 138.63 102.13 149.26 81.11 131.00 82.00
C 122.14 80.72 118.67 93.21 109.67 91.67 C 100.67 90.13 96.69 96.22 90.08 101.08 C 83.48 105.94 85.10 114.90 80.00 121.00
C 86.83 120.60 95.77 125.58 96.00 133.00
C 102.19 127.49 109.54 123.39 116.00 119.00
M 162.00 112.00 
C 167.00 114.29 162.68 123.82 157.33 120.67 C 151.98 117.52 156.59 109.52 162.00 112.00
M 191.00 119.00 
C 193.88 120.66 190.58 127.95 187.30 126.64 C 184.03 125.34 187.05 116.73 191.00 119.00 Z"/>
</g>
<g fill="None" fill-opacity="0.0" stroke="#F2C5AF" stroke-opacity="1.00" stroke-width="0.3"><path d="
M 176.00 96.00 
C 174.90 93.06 174.88 90.27 175.00 87.00
C 174.43 91.02 173.95 92.28 176.00 96.00 Z"/>
</g>
<g fill="None" fill-opacity="0.0" stroke="#E2C2A9" stroke-opacity="1.00" stroke-width="0.3"><path d="
M 197.00 103.00 
C 199.51 103.84 199.51 106.23 199.00 109.00
C 200.10 106.68 200.81 104.63 202.00 103.00
C 202.67 102.08 203.28 100.95 204.00 100.00
C 202.31 101.04 198.86 102.01 197.00 103.00 Z"/>
</g>
<g fill="None" fill-opacity="0.0" stroke="#EEBB91" stroke-opacity="1.00" stroke-width="0.3"><path d="
M 191.00 105.00 
C 187.40 105.13 181.67 103.67 179.00 101.00
C 182.06 103.66 179.38 104.88 177.00 106.00
C 182.68 111.76 186.74 107.90 191.00 105.00 Z"/>
</g>
<g fill="None" fill-opacity="0.0" stroke="#E5C9B7" stroke-opacity="1.00" stroke-width="0.3"><path d="
M 182.00 117.00 
C 188.63 118.64 198.80 119.78 199.00 110.00
C 195.23 117.20 190.85 118.10 182.00 117.00 Z"/>
</g>
<g fill="None" fill-opacity="0.0" stroke="#D6C4E6" stroke-opacity="1.00" stroke-width="0.3"><path d="
M 162.00 112.00 
C 156.59 109.52 151.98 117.52 157.33 120.67 C 162.68 123.82 167.00 114.29 162.00 112.00 Z"/>
</g>
<g fill="None" fill-opacity="0.0" stroke="#E3BA63" stroke-opacity="1.00" stroke-width="0.3"><path d="
M 116.00 119.00 
C 115.21 125.18 108.89 131.24 113.00 137.00
C 106.89 139.08 108.01 145.88 112.00 149.00
C 116.94 152.86 123.33 160.41 129.75 165.25 C 136.18 170.08 147.07 173.57 155.00 174.00
C 163.39 174.46 174.87 174.43 174.00 163.00
C 168.13 164.78 159.13 164.36 154.00 160.00
C 139.70 156.25 125.11 147.58 115.00 140.00
C 118.41 131.35 124.44 123.56 128.00 115.00
C 123.50 114.98 119.28 116.77 116.00 119.00 Z"/>
</g>
<g fill="None" fill-opacity="0.0" stroke="#CEB2E5" stroke-opacity="1.00" stroke-width="0.3"><path d="
M 191.00 119.00 
C 187.05 116.73 184.03 125.34 187.30 126.64 C 190.58 127.95 193.88 120.66 191.00 119.00 Z"/>
</g>
<g fill="None" fill-opacity="0.0" stroke="#D7BBE3" stroke-opacity="1.00" stroke-width="0.3"><path d="
M 73.00 134.00 
C 73.23 135.45 73.95 136.48 74.00 138.00
C 81.10 139.27 89.34 132.40 88.00 125.00
C 78.72 122.47 75.63 126.50 73.00 134.00 Z"/>
</g>
<g fill="None" fill-opacity="0.0" stroke="#E8C071" stroke-opacity="1.00" stroke-width="0.3"><path d="
M 73.00 134.00 
C 71.41 135.29 71.71 138.35 69.00 139.00
C 69.80 147.57 79.93 140.90 85.00 144.00
C 86.02 141.98 86.95 140.01 88.00 138.00
C 89.67 141.76 92.34 142.56 96.00 140.00
C 95.48 137.61 95.47 135.39 95.00 133.00
C 94.61 131.81 92.90 128.14 92.00 127.00
C 90.24 125.48 90.40 125.66 88.00 125.00
C 89.34 132.40 81.10 139.27 74.00 138.00
C 73.95 136.48 73.23 135.45 73.00 134.00 Z"/>
</g>
<g fill="None" fill-opacity="0.0" stroke="#E4C6AF" stroke-opacity="1.00" stroke-width="0.3"><path d="
M 95.00 133.00 
C 94.32 129.55 94.68 129.32 92.00 127.00
C 92.90 128.14 94.61 131.81 95.00 133.00 Z"/>
</g>
<g fill="None" fill-opacity="0.0" stroke="#E6BD85" stroke-opacity="1.00" stroke-width="0.3"><path d="
M 219.00 149.00 
C 218.36 146.48 219.66 144.32 220.00 142.00
C 221.99 142.28 223.78 143.48 226.00 143.00
C 226.94 142.00 229.51 139.62 231.00 140.00
C 229.89 138.89 229.97 137.91 228.00 138.00
C 225.25 142.78 222.33 139.88 222.00 136.00
C 216.23 138.21 217.60 146.61 211.00 141.00
C 209.76 145.47 217.31 147.69 219.00 149.00 Z"/>
</g>
<g fill="None" fill-opacity="0.0" stroke="#E0CEE9" stroke-opacity="1.00" stroke-width="0.3"><path d="
M 228.00 138.00 
C 229.97 137.91 229.89 138.89 231.00 140.00
C 232.22 141.22 232.14 141.67 233.00 143.00
C 233.81 144.26 235.91 145.07 236.00 147.00
C 240.64 141.32 231.58 135.78 228.00 138.00 Z"/>
</g>
<g fill="None" fill-opacity="0.0" stroke="#ECE8E5" stroke-opacity="1.00" stroke-width="0.3"><path d="
M 226.00 143.00 
C 225.75 143.27 226.00 144.00 226.00 144.00
C 228.73 144.09 229.54 145.04 231.00 147.00
C 231.55 145.54 233.40 144.82 233.00 143.00
C 232.14 141.67 232.22 141.22 231.00 140.00
C 229.51 139.62 226.94 142.00 226.00 143.00 Z"/>
</g>
<g fill="None" fill-opacity="0.0" stroke="#CDABD6" stroke-opacity="1.00" stroke-width="0.3"><path d="
M 219.00 149.00 
C 220.69 150.31 222.21 152.60 224.00 154.00
C 226.40 154.56 227.98 153.17 230.00 153.00
C 229.75 152.70 230.13 151.46 230.00 151.00
C 229.19 148.09 225.82 147.74 226.00 144.00
C 226.00 144.00 225.75 143.27 226.00 143.00
C 223.78 143.48 221.99 142.28 220.00 142.00
C 219.66 144.32 218.36 146.48 219.00 149.00 Z"/>
</g>
<g fill="None" fill-opacity="0.0" stroke="#E4BE89" stroke-opacity="1.00" stroke-width="0.3"><path d="
M 226.00 144.00 
C 225.82 147.74 229.19 148.09 230.00 151.00
C 231.23 147.55 234.70 148.59 236.00 147.00
C 235.91 145.07 233.81 144.26 233.00 143.00
C 233.40 144.82 231.55 145.54 231.00 147.00
C 229.54 145.04 228.73 144.09 226.00 144.00 Z"/>
</g>
<g fill="None" fill-opacity="0.0" stroke="#E3E2E2" stroke-opacity="1.00" stroke-width="0.3"><path d="
M 60.00 214.00 
C 61.39 213.76 62.17 209.84 64.68 211.34 C 67.19 212.83 64.87 215.84 63.00 216.00
C 69.31 220.97 73.18 231.15 81.00 236.00
C 81.78 235.98 84.52 233.52 85.00 233.00
C 93.49 223.75 96.22 215.74 105.25 206.25 C 114.28 196.75 118.32 193.85 128.25 182.25 C 138.18 170.64 144.70 194.47 138.99 203.99 C 133.28 213.51 121.20 223.38 132.00 235.00
C 132.71 235.77 134.38 236.27 135.00 237.00
C 136.92 237.41 140.23 235.38 143.00 238.00
C 141.86 243.78 147.32 247.52 147.00 253.00
C 146.00 253.00 145.00 253.00 144.00 253.00
C 144.56 254.10 144.52 255.82 145.00 257.00
C 152.21 274.92 178.57 262.81 169.00 246.00
C 165.37 239.62 158.74 234.25 163.00 227.00
C 165.89 222.08 171.86 219.31 173.67 213.67 C 175.48 208.03 173.05 196.72 173.93 191.07 C 174.80 185.43 169.89 175.22 170.00 174.00
C 165.83 176.45 158.86 174.63 155.00 174.00
C 147.07 173.57 136.18 170.08 129.75 165.25 C 123.33 160.41 116.94 152.86 112.00 149.00
C 102.77 160.14 90.90 170.43 85.25 183.25 C 79.60 196.06 63.63 204.02 56.00 214.00
C 57.03 214.47 59.06 213.39 60.00 214.00 Z"/>
</g>
<g fill="None" fill-opacity="0.0" stroke="#E1C08D" stroke-opacity="1.00" stroke-width="0.3"><path d="
M 224.00 154.00 
C 226.10 155.64 229.01 156.38 231.00 158.00
C 231.00 158.00 231.55 158.15 232.00 158.00
C 233.46 157.37 235.21 155.77 235.00 154.00
C 233.61 153.09 230.82 152.93 230.00 153.00
C 227.98 153.17 226.40 154.56 224.00 154.00 Z"/>
</g>
<g fill="None" fill-opacity="0.0" stroke="#DDC49F" stroke-opacity="1.00" stroke-width="0.3"><path d="
M 79.00 155.00 
C 71.55 153.43 78.37 161.58 79.00 155.00 Z"/>
</g>
<g fill="None" fill-opacity="0.0" stroke="#E2BF7E" stroke-opacity="1.00" stroke-width="0.3"><path d="
M 85.00 155.00 
C 84.32 154.32 81.25 155.29 82.32 156.66 C 83.39 158.03 86.00 156.00 85.00 155.00 Z"/>
</g>
<g fill="None" fill-opacity="0.0" stroke="#E1C599" stroke-opacity="1.00" stroke-width="0.3"><path d="
M 155.00 174.00 
C 158.86 174.63 165.83 176.45 170.00 174.00
C 170.17 172.17 172.38 170.52 173.69 168.69 C 175.01 166.87 173.81 163.16 174.00 162.00
C 169.81 165.51 158.77 161.87 154.00 160.00
C 159.13 164.36 168.13 164.78 174.00 163.00
C 174.87 174.43 163.39 174.46 155.00 174.00 Z"/>
</g>
<g fill="None" fill-opacity="0.0" stroke="#DFBB79" stroke-opacity="1.00" stroke-width="0.3"><path d="
M 233.00 161.00 
C 233.00 161.00 232.27 161.25 232.00 161.00
C 231.24 164.55 237.54 165.02 236.00 161.00
C 235.00 160.95 234.00 161.07 233.00 161.00 Z"/>
</g>
<g fill="None" fill-opacity="0.0" stroke="#D6C2E7" stroke-opacity="1.00" stroke-width="0.3"><path d="
M 60.00 214.00 
C 60.26 214.17 62.62 215.70 63.00 216.00
C 64.87 215.84 67.19 212.83 64.68 211.34 C 62.17 209.84 61.39 213.76 60.00 214.00 Z"/>
</g>
<g fill="None" fill-opacity="0.0" stroke="#C2AAD7" stroke-opacity="1.00" stroke-width="0.3"><path d="
M 169.00 246.00 
C 168.40 240.53 168.55 231.55 163.00 227.00
C 158.74 234.25 165.37 239.62 169.00 246.00 Z"/>
</g>
<g fill="None" fill-opacity="0.0" stroke="#CDBADF" stroke-opacity="1.00" stroke-width="0.3"><path d="
M 81.00 236.00 
C 85.81 238.98 84.06 235.77 85.00 233.00
C 84.52 233.52 81.78 235.98 81.00 236.00 Z"/>
</g>
<g fill="None" fill-opacity="0.0" stroke="#C6AD99" stroke-opacity="1.00" stroke-width="0.3"><path d="
M 130.00 237.00 
C 131.94 233.42 134.96 239.84 136.00 239.00
C 135.85 238.58 135.25 237.29 135.00 237.00
C 134.38 236.27 132.71 235.77 132.00 235.00
C 131.89 235.39 130.23 236.10 130.00 237.00 Z"/>
</g>
<g fill="None" fill-opacity="0.0" stroke="#C5A6D6" stroke-opacity="1.00" stroke-width="0.3"><path d="
M 135.00 237.00 
C 135.25 237.29 135.85 238.58 136.00 239.00
C 137.97 244.33 141.57 248.25 144.00 253.00
C 145.00 253.00 146.00 253.00 147.00 253.00
C 147.32 247.52 141.86 243.78 143.00 238.00
C 140.23 235.38 136.92 237.41 135.00 237.00 Z"/>
</g>
<g fill="None" fill-opacity="0.0" stroke="#D7A85E" stroke-opacity="1.00" stroke-width="0.3"><path d="
M 130.00 237.00 
C 127.77 245.69 141.15 254.50 145.00 257.00
C 144.52 255.82 144.56 254.10 144.00 253.00
C 141.57 248.25 137.97 244.33 136.00 239.00
C 134.96 239.84 131.94 233.42 130.00 237.00 Z"/>
</g>
<g fill="#E7E7E7" fill-opacity="1.00" stroke="None">
<path d="
M 0.00 300.00 
L 294.00 300.00
L 294.00 0.00
L 0.00 0.00
L 0.00 300.00
M 274.00 22.00 
C 274.00 106.67 274.00 191.33 274.00 276.00
C 189.67 276.00 105.33 276.00 21.00 276.00
C 21.00 191.33 21.00 106.67 21.00 22.00
C 105.33 22.00 189.67 22.00 274.00 22.00 Z"/>
</g>
<g fill="#CECCCC" fill-opacity="1.00" stroke="None">
<path d="
M 274.00 22.00 
C 189.67 22.00 105.33 22.00 21.00 22.00
C 21.00 106.67 21.00 191.33 21.00 276.00
C 105.33 276.00 189.67 276.00 274.00 276.00
C 274.00 191.33 274.00 106.67 274.00 22.00
M 210.00 62.00 
C 210.75 62.75 211.54 64.07 212.00 65.00
C 214.34 69.67 213.53 74.61 213.00 79.00
C 211.86 88.42 209.65 92.52 204.00 100.00
C 203.28 100.95 202.67 102.08 202.00 103.00
C 207.50 100.58 213.59 108.22 215.30 112.70 C 217.02 117.17 221.96 122.81 225.30 126.70 C 228.65 130.58 235.26 132.54 237.92 137.08 C 240.58 141.63 241.04 156.39 237.00 148.00
C 236.54 151.69 235.86 153.23 240.00 154.00
C 240.85 157.11 238.19 159.15 238.00 162.00
C 236.61 161.16 234.21 158.54 233.00 161.00
C 234.00 161.07 235.00 160.95 236.00 161.00
C 237.54 165.02 231.24 164.55 232.00 161.00
C 231.50 160.53 232.50 158.47 232.00 158.00
C 231.55 158.15 231.00 158.00 231.00 158.00
C 224.07 163.13 210.34 154.99 207.67 148.33 C 205.01 141.66 196.46 132.98 190.00 130.00
C 184.78 140.82 179.66 151.34 174.00 162.00
C 173.81 163.16 175.01 166.87 173.69 168.69 C 172.38 170.52 170.17 172.17 170.00 174.00
C 169.89 175.22 174.80 185.43 173.93 191.07 C 173.05 196.72 175.48 208.03 173.67 213.67 C 171.86 219.31 165.89 222.08 163.00 227.00
C 168.55 231.55 168.40 240.53 169.00 246.00
C 178.57 262.81 152.21 274.92 145.00 257.00
C 141.15 254.50 127.77 245.69 130.00 237.00
C 130.23 236.10 131.89 235.39 132.00 235.00
C 121.20 223.38 133.28 213.51 138.99 203.99 C 144.70 194.47 138.18 170.64 128.25 182.25 C 118.32 193.85 114.28 196.75 105.25 206.25 C 96.22 215.74 93.49 223.75 85.00 233.00
C 84.06 235.77 85.81 238.98 81.00 236.00
C 73.18 231.15 69.31 220.97 63.00 216.00
C 62.62 215.70 60.26 214.17 60.00 214.00
C 59.06 213.39 57.03 214.47 56.00 214.00
C 63.63 204.02 79.60 196.06 85.25 183.25 C 90.90 170.43 102.77 160.14 112.00 149.00
C 108.01 145.88 106.89 139.08 113.00 137.00
C 108.89 131.24 115.21 125.18 116.00 119.00
C 109.54 123.39 102.19 127.49 96.00 133.00
C 95.77 125.58 86.83 120.60 80.00 121.00
C 85.10 114.90 83.48 105.94 90.08 101.08 C 96.69 96.22 100.67 90.13 109.67 91.67 C 118.67 93.21 122.14 80.72 131.00 82.00
C 134.23 80.33 142.04 75.94 147.00 81.00
C 144.29 65.86 152.10 48.93 169.07 44.07 C 186.05 39.22 202.06 46.16 210.00 62.00
M 88.00 125.00 
C 90.40 125.66 90.24 125.48 92.00 127.00
C 94.68 129.32 94.32 129.55 95.00 133.00
C 95.47 135.39 95.48 137.61 96.00 140.00
C 92.34 142.56 89.67 141.76 88.00 138.00
C 86.95 140.01 86.02 141.98 85.00 144.00
C 79.93 140.90 69.80 147.57 69.00 139.00
C 71.71 138.35 71.41 135.29 73.00 134.00
C 75.63 126.50 78.72 122.47 88.00 125.00
M 79.00 155.00 
C 78.37 161.58 71.55 153.43 79.00 155.00
M 85.00 155.00 
C 86.00 156.00 83.39 158.03 82.32 156.66 C 81.25 155.29 84.32 154.32 85.00 155.00 Z"/>
</g>
<g fill="#EAE8E7" fill-opacity="1.00" stroke="None">
<path d="
M 147.00 81.00 
C 148.51 89.44 157.61 94.74 165.00 97.00
C 158.95 79.12 173.54 58.55 192.00 56.00
C 199.40 55.33 204.85 56.85 210.00 62.00
C 202.06 46.16 186.05 39.22 169.07 44.07 C 152.10 48.93 144.29 65.86 147.00 81.00 Z"/>
</g>
<g fill="#E9C270" fill-opacity="1.00" stroke="None">
<path d="
M 147.00 81.00 
C 142.04 75.94 134.23 80.33 131.00 82.00
C 149.26 81.11 138.63 102.13 150.08 105.92 C 161.52 109.72 170.32 114.11 182.00 117.00
C 190.85 118.10 195.23 117.20 199.00 110.00
C 199.01 109.50 199.00 109.00 199.00 109.00
C 199.51 106.23 199.51 103.84 197.00 103.00
C 194.93 104.11 193.42 104.91 191.00 105.00
C 186.74 107.90 182.68 111.76 177.00 106.00
C 179.38 104.88 182.06 103.66 179.00 101.00
C 178.13 99.25 176.94 97.70 176.00 96.00
C 173.95 92.28 174.43 91.02 175.00 87.00
C 175.19 81.99 176.04 78.99 179.00 75.00
C 186.90 64.38 205.88 55.92 212.00 73.00
C 212.71 74.97 212.88 76.81 213.00 79.00
C 213.53 74.61 214.34 69.67 212.00 65.00
C 208.18 58.64 198.13 56.04 192.00 56.00
C 173.54 58.55 158.95 79.12 165.00 97.00
C 157.61 94.74 148.51 89.44 147.00 81.00 Z"/>
</g>
<g fill="#EDD8B1" fill-opacity="1.00" stroke="None">
<path d="
M 212.00 65.00 
C 211.54 64.07 210.75 62.75 210.00 62.00
C 204.85 56.85 199.40 55.33 192.00 56.00
C 198.13 56.04 208.18 58.64 212.00 65.00 Z"/>
</g>
<g fill="#F4CDC0" fill-opacity="1.00" stroke="None">
<path d="
M 179.00 75.00 
C 186.85 65.99 205.26 58.30 212.00 73.00
C 205.88 55.92 186.90 64.38 179.00 75.00 Z"/>
</g>
<g fill="#F8ECFB" fill-opacity="1.00" stroke="None">
<path d="
M 179.00 75.00 
C 176.04 78.99 175.19 81.99 175.00 87.00
C 174.88 90.27 174.90 93.06 176.00 96.00
C 176.94 97.70 178.13 99.25 179.00 101.00
C 181.67 103.67 187.40 105.13 191.00 105.00
C 193.42 104.91 194.93 104.11 197.00 103.00
C 198.86 102.01 202.31 101.04 204.00 100.00
C 209.65 92.52 211.86 88.42 213.00 79.00
C 212.88 76.81 212.71 74.97 212.00 73.00
C 205.26 58.30 186.85 65.99 179.00 75.00 Z"/>
</g>
<g fill="#E6E4E5" fill-opacity="1.00" stroke="None">
<path d="
M 116.00 119.00 
C 119.28 116.77 123.50 114.98 128.00 115.00
C 124.44 123.56 118.41 131.35 115.00 140.00
C 125.11 147.58 139.70 156.25 154.00 160.00
C 158.77 161.87 169.81 165.51 174.00 162.00
C 179.66 151.34 184.78 140.82 190.00 130.00
C 196.46 132.98 205.01 141.66 207.67 148.33 C 210.34 154.99 224.07 163.13 231.00 158.00
C 229.01 156.38 226.10 155.64 224.00 154.00
C 222.21 152.60 220.69 150.31 219.00 149.00
C 217.31 147.69 209.76 145.47 211.00 141.00
C 217.60 146.61 216.23 138.21 222.00 136.00
C 222.33 139.88 225.25 142.78 228.00 138.00
C 231.58 135.78 240.64 141.32 236.00 147.00
C 234.70 148.59 231.23 147.55 230.00 151.00
C 230.13 151.46 229.75 152.70 230.00 153.00
C 230.82 152.93 233.61 153.09 235.00 154.00
C 235.21 155.77 233.46 157.37 232.00 158.00
C 232.50 158.47 231.50 160.53 232.00 161.00
C 232.27 161.25 233.00 161.00 233.00 161.00
C 234.21 158.54 236.61 161.16 238.00 162.00
C 238.19 159.15 240.85 157.11 240.00 154.00
C 235.86 153.23 236.54 151.69 237.00 148.00
C 241.04 156.39 240.58 141.63 237.92 137.08 C 235.26 132.54 228.65 130.58 225.30 126.70 C 221.96 122.81 217.02 117.17 215.30 112.70 C 213.59 108.22 207.50 100.58 202.00 103.00
C 200.81 104.63 200.10 106.68 199.00 109.00
C 199.00 109.00 199.01 109.50 199.00 110.00
C 198.80 119.78 188.63 118.64 182.00 117.00
C 170.32 114.11 161.52 109.72 150.08 105.92 C 138.63 102.13 149.26 81.11 131.00 82.00
C 122.14 80.72 118.67 93.21 109.67 91.67 C 100.67 90.13 96.69 96.22 90.08 101.08 C 83.48 105.94 85.10 114.90 80.00 121.00
C 86.83 120.60 95.77 125.58 96.00 133.00
C 102.19 127.49 109.54 123.39 116.00 119.00
M 162.00 112.00 
C 167.00 114.29 162.68 123.82 157.33 120.67 C 151.98 117.52 156.59 109.52 162.00 112.00
M 191.00 119.00 
C 193.88 120.66 190.58 127.95 187.30 126.64 C 184.03 125.34 187.05 116.73 191.00 119.00 Z"/>
</g>
<g fill="#F2C5AF" fill-opacity="1.00" stroke="None">
<path d="
M 176.00 96.00 
C 174.90 93.06 174.88 90.27 175.00 87.00
C 174.43 91.02 173.95 92.28 176.00 96.00 Z"/>
</g>
<g fill="#E2C2A9" fill-opacity="1.00" stroke="None">
<path d="
M 197.00 103.00 
C 199.51 103.84 199.51 106.23 199.00 109.00
C 200.10 106.68 200.81 104.63 202.00 103.00
C 202.67 102.08 203.28 100.95 204.00 100.00
C 202.31 101.04 198.86 102.01 197.00 103.00 Z"/>
</g>
<g fill="#EEBB91" fill-opacity="1.00" stroke="None">
<path d="
M 191.00 105.00 
C 187.40 105.13 181.67 103.67 179.00 101.00
C 182.06 103.66 179.38 104.88 177.00 106.00
C 182.68 111.76 186.74 107.90 191.00 105.00 Z"/>
</g>
<g fill="#E5C9B7" fill-opacity="1.00" stroke="None">
<path d="
M 182.00 117.00 
C 188.63 118.64 198.80 119.78 199.00 110.00
C 195.23 117.20 190.85 118.10 182.00 117.00 Z"/>
</g>
<g fill="#D6C4E6" fill-opacity="1.00" stroke="None">
<path d="
M 162.00 112.00 
C 156.59 109.52 151.98 117.52 157.33 120.67 C 162.68 123.82 167.00 114.29 162.00 112.00 Z"/>
</g>
<g fill="#E3BA63" fill-opacity="1.00" stroke="None">
<path d="
M 116.00 119.00 
C 115.21 125.18 108.89 131.24 113.00 137.00
C 106.89 139.08 108.01 145.88 112.00 149.00
C 116.94 152.86 123.33 160.41 129.75 165.25 C 136.18 170.08 147.07 173.57 155.00 174.00
C 163.39 174.46 174.87 174.43 174.00 163.00
C 168.13 164.78 159.13 164.36 154.00 160.00
C 139.70 156.25 125.11 147.58 115.00 140.00
C 118.41 131.35 124.44 123.56 128.00 115.00
C 123.50 114.98 119.28 116.77 116.00 119.00 Z"/>
</g>
<g fill="#CEB2E5" fill-opacity="1.00" stroke="None">
<path d="
M 191.00 119.00 
C 187.05 116.73 184.03 125.34 187.30 126.64 C 190.58 127.95 193.88 120.66 191.00 119.00 Z"/>
</g>
<g fill="#D7BBE3" fill-opacity="1.00" stroke="None">
<path d="
M 73.00 134.00 
C 73.23 135.45 73.95 136.48 74.00 138.00
C 81.10 139.27 89.34 132.40 88.00 125.00
C 78.72 122.47 75.63 126.50 73.00 134.00 Z"/>
</g>
<g fill="#E8C071" fill-opacity="1.00" stroke="None">
<path d="
M 73.00 134.00 
C 71.41 135.29 71.71 138.35 69.00 139.00
C 69.80 147.57 79.93 140.90 85.00 144.00
C 86.02 141.98 86.95 140.01 88.00 138.00
C 89.67 141.76 92.34 142.56 96.00 140.00
C 95.48 137.61 95.47 135.39 95.00 133.00
C 94.61 131.81 92.90 128.14 92.00 127.00
C 90.24 125.48 90.40 125.66 88.00 125.00
C 89.34 132.40 81.10 139.27 74.00 138.00
C 73.95 136.48 73.23 135.45 73.00 134.00 Z"/>
</g>
<g fill="#E4C6AF" fill-opacity="1.00" stroke="None">
<path d="
M 95.00 133.00 
C 94.32 129.55 94.68 129.32 92.00 127.00
C 92.90 128.14 94.61 131.81 95.00 133.00 Z"/>
</g>
<g fill="#E6BD85" fill-opacity="1.00" stroke="None">
<path d="
M 219.00 149.00 
C 218.36 146.48 219.66 144.32 220.00 142.00
C 221.99 142.28 223.78 143.48 226.00 143.00
C 226.94 142.00 229.51 139.62 231.00 140.00
C 229.89 138.89 229.97 137.91 228.00 138.00
C 225.25 142.78 222.33 139.88 222.00 136.00
C 216.23 138.21 217.60 146.61 211.00 141.00
C 209.76 145.47 217.31 147.69 219.00 149.00 Z"/>
</g>
<g fill="#E0CEE9" fill-opacity="1.00" stroke="None">
<path d="
M 228.00 138.00 
C 229.97 137.91 229.89 138.89 231.00 140.00
C 232.22 141.22 232.14 141.67 233.00 143.00
C 233.81 144.26 235.91 145.07 236.00 147.00
C 240.64 141.32 231.58 135.78 228.00 138.00 Z"/>
</g>
<g fill="#ECE8E5" fill-opacity="1.00" stroke="None">
<path d="
M 226.00 143.00 
C 225.75 143.27 226.00 144.00 226.00 144.00
C 228.73 144.09 229.54 145.04 231.00 147.00
C 231.55 145.54 233.40 144.82 233.00 143.00
C 232.14 141.67 232.22 141.22 231.00 140.00
C 229.51 139.62 226.94 142.00 226.00 143.00 Z"/>
</g>
<g fill="#CDABD6" fill-opacity="1.00" stroke="None">
<path d="
M 219.00 149.00 
C 220.69 150.31 222.21 152.60 224.00 154.00
C 226.40 154.56 227.98 153.17 230.00 153.00
C 229.75 152.70 230.13 151.46 230.00 151.00
C 229.19 148.09 225.82 147.74 226.00 144.00
C 226.00 144.00 225.75 143.27 226.00 143.00
C 223.78 143.48 221.99 142.28 220.00 142.00
C 219.66 144.32 218.36 146.48 219.00 149.00 Z"/>
</g>
<g fill="#E4BE89" fill-opacity="1.00" stroke="None">
<path d="
M 226.00 144.00 
C 225.82 147.74 229.19 148.09 230.00 151.00
C 231.23 147.55 234.70 148.59 236.00 147.00
C 235.91 145.07 233.81 144.26 233.00 143.00
C 233.40 144.82 231.55 145.54 231.00 147.00
C 229.54 145.04 228.73 144.09 226.00 144.00 Z"/>
</g>
<g fill="#E3E2E2" fill-opacity="1.00" stroke="None">
<path d="
M 60.00 214.00 
C 61.39 213.76 62.17 209.84 64.68 211.34 C 67.19 212.83 64.87 215.84 63.00 216.00
C 69.31 220.97 73.18 231.15 81.00 236.00
C 81.78 235.98 84.52 233.52 85.00 233.00
C 93.49 223.75 96.22 215.74 105.25 206.25 C 114.28 196.75 118.32 193.85 128.25 182.25 C 138.18 170.64 144.70 194.47 138.99 203.99 C 133.28 213.51 121.20 223.38 132.00 235.00
C 132.71 235.77 134.38 236.27 135.00 237.00
C 136.92 237.41 140.23 235.38 143.00 238.00
C 141.86 243.78 147.32 247.52 147.00 253.00
C 146.00 253.00 145.00 253.00 144.00 253.00
C 144.56 254.10 144.52 255.82 145.00 257.00
C 152.21 274.92 178.57 262.81 169.00 246.00
C 165.37 239.62 158.74 234.25 163.00 227.00
C 165.89 222.08 171.86 219.31 173.67 213.67 C 175.48 208.03 173.05 196.72 173.93 191.07 C 174.80 185.43 169.89 175.22 170.00 174.00
C 165.83 176.45 158.86 174.63 155.00 174.00
C 147.07 173.57 136.18 170.08 129.75 165.25 C 123.33 160.41 116.94 152.86 112.00 149.00
C 102.77 160.14 90.90 170.43 85.25 183.25 C 79.60 196.06 63.63 204.02 56.00 214.00
C 57.03 214.47 59.06 213.39 60.00 214.00 Z"/>
</g>
<g fill="#E1C08D" fill-opacity="1.00" stroke="None">
<path d="
M 224.00 154.00 
C 226.10 155.64 229.01 156.38 231.00 158.00
C 231.00 158.00 231.55 158.15 232.00 158.00
C 233.46 157.37 235.21 155.77 235.00 154.00
C 233.61 153.09 230.82 152.93 230.00 153.00
C 227.98 153.17 226.40 154.56 224.00 154.00 Z"/>
</g>
<g fill="#DDC49F" fill-opacity="1.00" stroke="None">
<path d="
M 79.00 155.00 
C 71.55 153.43 78.37 161.58 79.00 155.00 Z"/>
</g>
<g fill="#E2BF7E" fill-opacity="1.00" stroke="None">
<path d="
M 85.00 155.00 
C 84.32 154.32 81.25 155.29 82.32 156.66 C 83.39 158.03 86.00 156.00 85.00 155.00 Z"/>
</g>
<g fill="#E1C599" fill-opacity="1.00" stroke="None">
<path d="
M 155.00 174.00 
C 158.86 174.63 165.83 176.45 170.00 174.00
C 170.17 172.17 172.38 170.52 173.69 168.69 C 175.01 166.87 173.81 163.16 174.00 162.00
C 169.81 165.51 158.77 161.87 154.00 160.00
C 159.13 164.36 168.13 164.78 174.00 163.00
C 174.87 174.43 163.39 174.46 155.00 174.00 Z"/>
</g>
<g fill="#DFBB79" fill-opacity="1.00" stroke="None">
<path d="
M 233.00 161.00 
C 233.00 161.00 232.27 161.25 232.00 161.00
C 231.24 164.55 237.54 165.02 236.00 161.00
C 235.00 160.95 234.00 161.07 233.00 161.00 Z"/>
</g>
<g fill="#D6C2E7" fill-opacity="1.00" stroke="None">
<path d="
M 60.00 214.00 
C 60.26 214.17 62.62 215.70 63.00 216.00
C 64.87 215.84 67.19 212.83 64.68 211.34 C 62.17 209.84 61.39 213.76 60.00 214.00 Z"/>
</g>
<g fill="#C2AAD7" fill-opacity="1.00" stroke="None">
<path d="
M 169.00 246.00 
C 168.40 240.53 168.55 231.55 163.00 227.00
C 158.74 234.25 165.37 239.62 169.00 246.00 Z"/>
</g>
<g fill="#CDBADF" fill-opacity="1.00" stroke="None">
<path d="
M 81.00 236.00 
C 85.81 238.98 84.06 235.77 85.00 233.00
C 84.52 233.52 81.78 235.98 81.00 236.00 Z"/>
</g>
<g fill="#C6AD99" fill-opacity="1.00" stroke="None">
<path d="
M 130.00 237.00 
C 131.94 233.42 134.96 239.84 136.00 239.00
C 135.85 238.58 135.25 237.29 135.00 237.00
C 134.38 236.27 132.71 235.77 132.00 235.00
C 131.89 235.39 130.23 236.10 130.00 237.00 Z"/>
</g>
<g fill="#C5A6D6" fill-opacity="1.00" stroke="None">
<path d="
M 135.00 237.00 
C 135.25 237.29 135.85 238.58 136.00 239.00
C 137.97 244.33 141.57 248.25 144.00 253.00
C 145.00 253.00 146.00 253.00 147.00 253.00
C 147.32 247.52 141.86 243.78 143.00 238.00
C 140.23 235.38 136.92 237.41 135.00 237.00 Z"/>
</g>
<g fill="#D7A85E" fill-opacity="1.00" stroke="None">
<path d="
M 130.00 237.00 
C 127.77 245.69 141.15 254.50 145.00 257.00
C 144.52 255.82 144.56 254.10 144.00 253.00
C 141.57 248.25 137.97 244.33 136.00 239.00
C 134.96 239.84 131.94 233.42 130.00 237.00 Z"/>
</g>
</svg>