<svg xmlns="http://www.w3.org/2000/svg" xmlns:v="https://svgstorm.com"
viewBox = "0 0 332 300"
width="332"
height="300">
<g fill="None" fill-opacity="0.0" stroke="#E5E4E5" stroke-opacity="1.00" stroke-width="0.3"><path d="
M 0.00 300.00 
L 332.00 300.00
L 332.00 0.00
L 0.00 0.00
L 0.00 300.00
M 162.00 24.00 
C 163.16 24.00 164.52 23.58 166.01 23.01 C 167.49 22.43 169.36 25.00 169.00 25.00
C 174.13 25.06 182.05 21.69 189.00 23.00 C 195.95 24.31 203.84 22.41 211.00 23.00 C 218.16 23.59 225.74 22.73 233.00 23.00 C 240.26 23.27 247.70 22.87 255.00 23.00 C 262.30 23.13 269.69 22.93 277.00 23.00 C 284.31 23.07 291.68 22.95 299.00 23.00
C 296.43 67.89 297.68 107.32 297.60 148.75 C 297.53 190.18 290.34 235.33 291.00 277.00
C 264.16 279.29 236.26 277.37 209.00 278.00
C 205.03 278.00 200.55 276.99 197.00 277.00
C 169.56 277.08 140.19 277.99 112.00 278.00
C 111.50 278.00 111.00 278.00 111.00 278.00
C 110.00 278.00 109.00 278.00 108.00 278.00
C 105.67 278.00 103.33 278.00 101.00 278.00
C 99.67 278.00 98.33 278.00 97.00 278.00
C 83.67 278.00 70.33 278.00 57.00 278.00
C 57.00 193.00 57.00 108.00 57.00 23.00
C 91.84 23.67 127.99 21.67 162.00 24.00 Z"/>
</g>
<g fill="None" fill-opacity="0.0" stroke="#C6C4CC" stroke-opacity="1.00" stroke-width="0.3"><path d="
M 97.00 278.00 
C 96.73 277.87 96.33 277.17 96.00 277.00
C 86.73 272.38 83.12 258.64 91.75 251.75 C 100.38 244.87 111.69 244.20 119.75 253.25 C 127.81 262.30 119.23 272.20 112.00 278.00
C 140.19 277.99 169.56 277.08 197.00 277.00
C 181.91 271.36 187.41 244.80 204.01 244.01 C 220.61 243.21 225.43 273.01 209.00 278.00
C 236.26 277.37 264.16 279.29 291.00 277.00
C 290.34 235.33 297.53 190.18 297.60 148.75 C 297.68 107.32 296.43 67.89 299.00 23.00
C 291.68 22.95 284.31 23.07 277.00 23.00 C 269.69 22.93 262.30 23.13 255.00 23.00 C 247.70 22.87 240.26 23.27 233.00 23.00 C 225.74 22.73 218.16 23.59 211.00 23.00 C 203.84 22.41 195.95 24.31 189.00 23.00 C 182.05 21.69 174.13 25.06 169.00 25.00
C 163.08 31.67 163.90 44.34 160.00 52.00
C 180.18 50.83 195.33 64.73 213.08 71.92 C 230.82 79.12 247.60 87.30 264.00 97.00
C 257.17 98.97 250.07 91.46 243.00 90.00
C 244.19 92.56 246.96 93.40 249.00 95.00
C 236.29 99.73 221.49 88.97 209.00 85.00
C 213.22 88.71 216.61 94.63 221.00 98.00
C 233.83 104.27 245.91 113.87 248.00 129.00
C 239.97 125.02 234.17 116.64 227.00 111.00
C 229.50 113.10 228.96 120.12 230.78 123.22 C 232.59 126.33 234.19 132.73 233.00 136.00
C 231.75 135.70 231.29 134.17 230.00 134.00
C 234.33 141.09 215.06 150.66 210.00 151.00
C 223.73 163.03 219.04 190.78 200.00 194.00
C 198.45 194.45 196.19 195.70 194.00 195.00
C 198.64 199.33 197.49 207.92 196.00 213.00
C 192.59 226.14 178.80 235.02 166.00 227.00
C 171.44 241.98 153.21 259.12 138.98 252.02 C 124.74 244.93 122.72 225.47 134.00 215.00
C 123.60 216.63 114.88 208.76 112.03 199.97 C 109.17 191.19 114.28 179.24 104.75 174.25 C 95.22 169.26 91.59 158.54 92.00 149.00 C 92.42 139.46 103.50 130.61 95.75 122.25 C 88.00 113.89 88.56 104.20 91.93 94.93 C 95.30 85.65 104.49 79.38 114.00 79.00
C 118.15 78.84 122.16 79.37 126.00 78.00
C 127.32 77.32 128.60 76.48 130.00 76.00
C 134.00 74.61 147.71 76.05 150.00 81.00
C 150.00 74.78 147.48 65.74 150.31 60.31 C 153.13 54.87 153.14 47.18 156.32 42.32 C 159.50 37.47 158.25 27.64 162.00 24.00
C 127.99 21.67 91.84 23.67 57.00 23.00
C 57.00 108.00 57.00 193.00 57.00 278.00
C 70.33 278.00 83.67 278.00 97.00 278.00 Z"/>
</g>
<g fill="None" fill-opacity="0.0" stroke="#A2C478" stroke-opacity="1.00" stroke-width="0.3"><path d="
M 162.00 24.00 
C 158.25 27.64 159.50 37.47 156.32 42.32 C 153.14 47.18 153.13 54.87 150.31 60.31 C 147.48 65.74 150.00 74.78 150.00 81.00
C 150.00 83.33 150.00 85.67 150.00 88.00
C 150.00 101.43 152.82 104.53 161.00 114.00
C 159.09 110.77 154.09 104.83 153.00 100.00
C 165.40 99.87 177.52 98.22 189.07 103.93 C 200.63 109.63 214.56 108.39 227.00 111.00
C 234.17 116.64 239.97 125.02 248.00 129.00
C 245.91 113.87 233.83 104.27 221.00 98.00
C 207.38 91.34 192.66 82.07 182.00 72.00
C 183.00 72.00 184.00 72.00 185.00 72.00
C 174.32 70.97 165.50 67.87 156.00 63.00
C 155.06 59.53 158.46 57.36 158.00 54.00
C 168.04 53.21 176.77 58.23 185.00 63.00
C 192.46 67.04 201.75 78.62 209.00 85.00
C 221.49 88.97 236.29 99.73 249.00 95.00
C 246.96 93.40 244.19 92.56 243.00 90.00
C 250.07 91.46 257.17 98.97 264.00 97.00
C 247.60 87.30 230.82 79.12 213.08 71.92 C 195.33 64.73 180.18 50.83 160.00 52.00
C 163.90 44.34 163.08 31.67 169.00 25.00
C 169.36 25.00 167.49 22.43 166.01 23.01 C 164.52 23.58 163.16 24.00 162.00 24.00
M 164.00 72.00 
C 158.90 73.52 152.18 73.60 154.00 66.00
C 158.11 65.28 163.32 67.67 164.00 72.00 Z"/>
</g>
<g fill="None" fill-opacity="0.0" stroke="#BEBEC3" stroke-opacity="1.00" stroke-width="0.3"><path d="
M 185.00 72.00 
C 187.64 72.26 190.35 71.81 193.00 72.00
C 190.95 68.55 187.00 66.42 185.00 63.00
C 176.77 58.23 168.04 53.21 158.00 54.00
C 158.46 57.36 155.06 59.53 156.00 63.00
C 165.50 67.87 174.32 70.97 185.00 72.00 Z"/>
</g>
<g fill="None" fill-opacity="0.0" stroke="#70A145" stroke-opacity="1.00" stroke-width="0.3"><path d="
M 185.00 63.00 
C 187.00 66.42 190.95 68.55 193.00 72.00
C 190.35 71.81 187.64 72.26 185.00 72.00
C 184.00 72.00 183.00 72.00 182.00 72.00
C 192.66 82.07 207.38 91.34 221.00 98.00
C 216.61 94.63 213.22 88.71 209.00 85.00
C 201.75 78.62 192.46 67.04 185.00 63.00 Z"/>
</g>
<g fill="None" fill-opacity="0.0" stroke="#BDBDC2" stroke-opacity="1.00" stroke-width="0.3"><path d="
M 164.00 72.00 
C 163.32 67.67 158.11 65.28 154.00 66.00
C 152.18 73.60 158.90 73.52 164.00 72.00 Z"/>
</g>
<g fill="None" fill-opacity="0.0" stroke="#8D57C3" stroke-opacity="1.00" stroke-width="0.3"><path d="
M 130.00 76.00 
C 128.75 76.60 128.26 79.94 126.00 79.00
C 128.15 82.00 129.72 83.63 124.00 83.00
C 128.64 89.30 127.56 94.96 121.00 100.00
C 131.24 96.89 139.96 91.63 150.00 88.00
C 150.00 85.67 150.00 83.33 150.00 81.00
C 147.71 76.05 134.00 74.61 130.00 76.00 Z"/>
</g>
<g fill="None" fill-opacity="0.0" stroke="#B373DF" stroke-opacity="1.00" stroke-width="0.3"><path d="
M 126.00 78.00 
C 121.47 80.35 118.54 79.27 114.00 79.00
C 104.49 79.38 95.30 85.65 91.93 94.93 C 88.56 104.20 88.00 113.89 95.75 122.25 C 103.50 130.61 92.42 139.46 92.00 149.00 C 91.59 158.54 95.22 169.26 104.75 174.25 C 114.28 179.24 109.17 191.19 112.03 199.97 C 114.88 208.76 123.60 216.63 134.00 215.00
C 122.72 225.47 124.74 244.93 138.98 252.02 C 153.21 259.12 171.44 241.98 166.00 227.00
C 178.80 235.02 192.59 226.14 196.00 213.00
C 196.58 208.69 197.77 197.95 193.00 196.00
C 190.63 199.88 184.42 196.38 186.00 192.00
C 188.52 192.56 192.30 190.81 194.00 193.00
C 193.25 193.22 191.26 194.61 193.00 195.00
C 194.73 193.21 197.60 194.38 200.00 194.00
C 219.04 190.78 223.73 163.03 210.00 151.00
C 215.06 150.66 234.33 141.09 230.00 134.00
C 226.35 132.28 222.32 130.01 219.00 128.00
C 219.92 129.17 221.11 130.41 221.00 132.00
C 218.02 132.72 215.24 135.14 213.00 137.00
C 209.89 130.35 200.49 136.27 195.00 137.00
C 191.62 128.14 179.26 133.01 180.00 142.00
C 178.00 138.92 177.10 134.70 176.00 131.00
C 169.35 130.87 161.85 132.29 157.00 127.00
C 163.09 125.32 170.32 124.76 177.00 124.00
C 171.54 121.19 165.20 118.87 161.00 114.00
C 152.82 104.53 150.00 101.43 150.00 88.00
C 139.96 91.63 131.24 96.89 121.00 100.00
C 127.56 94.96 128.64 89.30 124.00 83.00
C 129.72 83.63 128.15 82.00 126.00 79.00
C 128.26 79.94 128.75 76.60 130.00 76.00
C 128.60 76.48 127.32 77.32 126.00 78.00
M 150.00 125.00 
C 150.19 127.88 146.67 128.41 145.00 130.00
C 145.35 127.14 144.73 124.61 144.00 122.00
C 145.95 123.18 147.58 124.98 150.00 125.00
M 131.00 159.00 
C 125.46 169.95 135.39 187.75 148.00 189.00
C 135.63 197.84 142.37 214.61 155.00 220.00
C 148.09 223.85 143.08 213.56 135.00 217.00
C 134.83 215.14 134.25 214.08 132.00 213.00
C 144.31 206.29 139.43 196.92 134.25 185.75 C 129.06 174.58 110.68 187.26 113.00 173.00
C 124.14 170.76 125.59 152.25 114.00 149.00
C 118.93 146.72 125.48 150.66 131.00 148.00
C 132.18 147.64 132.62 147.01 134.00 147.00
C 134.50 147.00 135.00 147.00 135.00 147.00
C 139.38 144.39 139.89 138.82 143.00 135.00
C 145.24 139.09 143.40 145.16 144.00 150.00
C 138.05 148.92 133.27 154.21 131.00 159.00
M 178.00 153.00 
C 175.60 161.69 188.48 162.99 194.00 164.00
C 188.00 166.36 180.66 163.51 175.00 167.00
C 174.37 163.65 171.49 160.92 169.00 159.00
C 172.51 157.82 175.14 155.22 178.00 153.00
M 159.00 224.00 
C 167.42 216.44 167.91 232.63 159.00 224.00 Z"/>
</g>
<g fill="None" fill-opacity="0.0" stroke="#B09ACC" stroke-opacity="1.00" stroke-width="0.3"><path d="
M 114.00 79.00 
C 118.54 79.27 121.47 80.35 126.00 78.00
C 122.16 79.37 118.15 78.84 114.00 79.00 Z"/>
</g>
<g fill="None" fill-opacity="0.0" stroke="#B8D58C" stroke-opacity="1.00" stroke-width="0.3"><path d="
M 161.00 114.00 
C 165.20 118.87 171.54 121.19 177.00 124.00
C 177.43 124.22 178.63 124.82 179.00 125.00
C 179.88 125.43 181.94 126.05 183.00 126.00
C 184.29 125.94 184.31 126.01 185.00 125.00
C 186.56 122.72 186.02 118.31 187.00 116.00
C 187.18 115.58 187.04 114.50 187.00 114.00
C 186.86 112.35 187.11 110.66 187.00 109.00
C 194.48 113.08 202.19 117.24 209.00 122.00
C 212.38 123.97 215.84 126.08 219.00 128.00
C 222.32 130.01 226.35 132.28 230.00 134.00
C 231.29 134.17 231.75 135.70 233.00 136.00
C 234.19 132.73 232.59 126.33 230.78 123.22 C 228.96 120.12 229.50 113.10 227.00 111.00
C 214.56 108.39 200.63 109.63 189.07 103.93 C 177.52 98.22 165.40 99.87 153.00 100.00
C 154.09 104.83 159.09 110.77 161.00 114.00 Z"/>
</g>
<g fill="None" fill-opacity="0.0" stroke="#7445B0" stroke-opacity="1.00" stroke-width="0.3"><path d="
M 187.00 114.00 
C 189.00 113.35 193.67 115.79 195.00 117.00
C 192.30 115.54 187.42 120.36 187.00 116.00
C 186.02 118.31 186.56 122.72 185.00 125.00
C 187.24 125.32 196.47 128.20 199.07 124.07 C 201.67 119.94 211.75 127.03 209.00 122.00
C 202.19 117.24 194.48 113.08 187.00 109.00
C 187.11 110.66 186.86 112.35 187.00 114.00 Z"/>
</g>
<g fill="None" fill-opacity="0.0" stroke="#431C94" stroke-opacity="1.00" stroke-width="0.3"><path d="
M 187.00 116.00 
C 187.42 120.36 192.30 115.54 195.00 117.00
C 193.67 115.79 189.00 113.35 187.00 114.00
C 187.04 114.50 187.18 115.58 187.00 116.00 Z"/>
</g>
<g fill="None" fill-opacity="0.0" stroke="#8D41D8" stroke-opacity="1.00" stroke-width="0.3"><path d="
M 150.00 125.00 
C 147.58 124.98 145.95 123.18 144.00 122.00
C 144.73 124.61 145.35 127.14 145.00 130.00
C 146.67 128.41 150.19 127.88 150.00 125.00 Z"/>
</g>
<g fill="None" fill-opacity="0.0" stroke="#9A5DCD" stroke-opacity="1.00" stroke-width="0.3"><path d="
M 185.00 125.00 
C 184.31 126.01 184.29 125.94 183.00 126.00
C 182.08 126.90 181.50 130.12 180.00 131.00
C 178.01 129.76 174.44 127.89 174.00 125.00
C 175.67 125.00 177.33 125.00 179.00 125.00
C 178.63 124.82 177.43 124.22 177.00 124.00
C 170.32 124.76 163.09 125.32 157.00 127.00
C 161.85 132.29 169.35 130.87 176.00 131.00
C 177.10 134.70 178.00 138.92 180.00 142.00
C 179.26 133.01 191.62 128.14 195.00 137.00
C 200.49 136.27 209.89 130.35 213.00 137.00
C 215.24 135.14 218.02 132.72 221.00 132.00
C 221.11 130.41 219.92 129.17 219.00 128.00
C 215.84 126.08 212.38 123.97 209.00 122.00
C 211.75 127.03 201.67 119.94 199.07 124.07 C 196.47 128.20 187.24 125.32 185.00 125.00 Z"/>
</g>
<g fill="None" fill-opacity="0.0" stroke="#773EBE" stroke-opacity="1.00" stroke-width="0.3"><path d="
M 183.00 126.00 
C 181.94 126.05 179.88 125.43 179.00 125.00
C 177.33 125.00 175.67 125.00 174.00 125.00
C 174.44 127.89 178.01 129.76 180.00 131.00
C 181.50 130.12 182.08 126.90 183.00 126.00 Z"/>
</g>
<g fill="None" fill-opacity="0.0" stroke="#7F38D0" stroke-opacity="1.00" stroke-width="0.3"><path d="
M 135.00 147.00 
C 137.67 146.41 139.63 144.37 142.00 143.00
C 141.83 145.78 132.41 153.22 134.00 147.00
C 132.62 147.01 132.18 147.64 131.00 148.00
C 129.89 148.60 128.76 150.44 127.00 150.00
C 128.92 152.37 127.53 160.38 131.00 159.00
C 133.27 154.21 138.05 148.92 144.00 150.00
C 143.40 145.16 145.24 139.09 143.00 135.00
C 139.89 138.82 139.38 144.39 135.00 147.00 Z"/>
</g>
<g fill="None" fill-opacity="0.0" stroke="#3D1690" stroke-opacity="1.00" stroke-width="0.3"><path d="
M 135.00 147.00 
C 135.00 147.00 134.50 147.00 134.00 147.00
C 132.41 153.22 141.83 145.78 142.00 143.00
C 139.63 144.37 137.67 146.41 135.00 147.00 Z"/>
</g>
<g fill="None" fill-opacity="0.0" stroke="#994DDC" stroke-opacity="1.00" stroke-width="0.3"><path d="
M 131.00 159.00 
C 127.53 160.38 128.92 152.37 127.00 150.00
C 128.76 150.44 129.89 148.60 131.00 148.00
C 125.48 150.66 118.93 146.72 114.00 149.00
C 125.59 152.25 124.14 170.76 113.00 173.00
C 110.68 187.26 129.06 174.58 134.25 185.75 C 139.43 196.92 144.31 206.29 132.00 213.00
C 134.25 214.08 134.83 215.14 135.00 217.00
C 143.08 213.56 148.09 223.85 155.00 220.00
C 142.37 214.61 135.63 197.84 148.00 189.00
C 135.39 187.75 125.46 169.95 131.00 159.00
M 145.00 214.00 
C 142.16 213.41 138.02 215.23 136.00 213.00
C 137.55 211.45 140.17 211.17 141.00 209.00
C 142.71 210.19 145.12 211.65 145.00 214.00 Z"/>
</g>
<g fill="None" fill-opacity="0.0" stroke="#9749DD" stroke-opacity="1.00" stroke-width="0.3"><path d="
M 178.00 153.00 
C 175.14 155.22 172.51 157.82 169.00 159.00
C 171.49 160.92 174.37 163.65 175.00 167.00
C 180.66 163.51 188.00 166.36 194.00 164.00
C 188.48 162.99 175.60 161.69 178.00 153.00
M 176.00 164.00 
C 174.42 162.33 175.03 159.19 174.00 157.00
C 179.00 157.03 179.71 161.31 176.00 164.00 Z"/>
</g>
<g fill="None" fill-opacity="0.0" stroke="#4A1E90" stroke-opacity="1.00" stroke-width="0.3"><path d="
M 176.00 164.00 
C 179.71 161.31 179.00 157.03 174.00 157.00
C 175.03 159.19 174.42 162.33 176.00 164.00 Z"/>
</g>
<g fill="None" fill-opacity="0.0" stroke="#984CDD" stroke-opacity="1.00" stroke-width="0.3"><path d="
M 193.00 196.00 
C 192.82 195.93 193.00 195.00 193.00 195.00
C 191.26 194.61 193.25 193.22 194.00 193.00
C 192.30 190.81 188.52 192.56 186.00 192.00
C 184.42 196.38 190.63 199.88 193.00 196.00 Z"/>
</g>
<g fill="None" fill-opacity="0.0" stroke="#B99DD7" stroke-opacity="1.00" stroke-width="0.3"><path d="
M 193.00 195.00 
C 193.00 195.00 192.82 195.93 193.00 196.00
C 197.77 197.95 196.58 208.69 196.00 213.00
C 197.49 207.92 198.64 199.33 194.00 195.00
C 196.19 195.70 198.45 194.45 200.00 194.00
C 197.60 194.38 194.73 193.21 193.00 195.00 Z"/>
</g>
<g fill="None" fill-opacity="0.0" stroke="#6D2BCC" stroke-opacity="1.00" stroke-width="0.3"><path d="
M 145.00 214.00 
C 145.12 211.65 142.71 210.19 141.00 209.00
C 140.17 211.17 137.55 211.45 136.00 213.00
C 138.02 215.23 142.16 213.41 145.00 214.00 Z"/>
</g>
<g fill="None" fill-opacity="0.0" stroke="#9C4DDF" stroke-opacity="1.00" stroke-width="0.3"><path d="
M 159.00 224.00 
C 167.91 232.63 167.42 216.44 159.00 224.00 Z"/>
</g>
<g fill="None" fill-opacity="0.0" stroke="#AD6FDC" stroke-opacity="1.00" stroke-width="0.3"><path d="
M 197.00 277.00 
C 200.55 276.99 205.03 278.00 209.00 278.00
C 225.43 273.01 220.61 243.21 204.01 244.01 C 187.41 244.80 181.91 271.36 197.00 277.00 Z"/>
</g>
<g fill="None" fill-opacity="0.0" stroke="#C5AFDB" stroke-opacity="1.00" stroke-width="0.3"><path d="
M 96.00 277.00 
C 90.98 271.87 85.49 265.56 88.78 257.78 C 92.07 250.00 98.94 247.07 107.00 248.00 C 115.06 248.93 119.39 252.97 121.98 261.02 C 124.56 269.08 114.10 273.10 111.00 278.00
C 111.00 278.00 111.50 278.00 112.00 278.00
C 119.23 272.20 127.81 262.30 119.75 253.25 C 111.69 244.20 100.38 244.87 91.75 251.75 C 83.12 258.64 86.73 272.38 96.00 277.00 Z"/>
</g>
<g fill="None" fill-opacity="0.0" stroke="#C388E8" stroke-opacity="1.00" stroke-width="0.3"><path d="
M 96.00 277.00 
C 96.33 277.17 96.73 277.87 97.00 278.00
C 98.33 278.00 99.67 278.00 101.00 278.00
C 100.42 277.87 98.40 276.72 98.00 276.00
C 102.33 276.00 106.67 276.00 111.00 276.00
C 110.76 277.67 108.15 276.17 108.00 278.00
C 109.00 278.00 110.00 278.00 111.00 278.00
C 114.10 273.10 124.56 269.08 121.98 261.02 C 119.39 252.97 115.06 248.93 107.00 248.00 C 98.94 247.07 92.07 250.00 88.78 257.78 C 85.49 265.56 90.98 271.87 96.00 277.00 Z"/>
</g>
<g fill="None" fill-opacity="0.0" stroke="#9F63D7" stroke-opacity="1.00" stroke-width="0.3"><path d="
M 101.00 278.00 
C 103.33 278.00 105.67 278.00 108.00 278.00
C 108.15 276.17 110.76 277.67 111.00 276.00
C 106.67 276.00 102.33 276.00 98.00 276.00
C 98.40 276.72 100.42 277.87 101.00 278.00 Z"/>
</g>
<g fill="#E5E4E5" fill-opacity="1.00" stroke="None">
<path d="
M 0.00 300.00 
L 332.00 300.00
L 332.00 0.00
L 0.00 0.00
L 0.00 300.00
M 162.00 24.00 
C 163.16 24.00 164.52 23.58 166.01 23.01 C 167.49 22.43 169.36 25.00 169.00 25.00
C 174.13 25.06 182.05 21.69 189.00 23.00 C 195.95 24.31 203.84 22.41 211.00 23.00 C 218.16 23.59 225.74 22.73 233.00 23.00 C 240.26 23.27 247.70 22.87 255.00 23.00 C 262.30 23.13 269.69 22.93 277.00 23.00 C 284.31 23.07 291.68 22.95 299.00 23.00
C 296.43 67.89 297.68 107.32 297.60 148.75 C 297.53 190.18 290.34 235.33 291.00 277.00
C 264.16 279.29 236.26 277.37 209.00 278.00
C 205.03 278.00 200.55 276.99 197.00 277.00
C 169.56 277.08 140.19 277.99 112.00 278.00
C 111.50 278.00 111.00 278.00 111.00 278.00
C 110.00 278.00 109.00 278.00 108.00 278.00
C 105.67 278.00 103.33 278.00 101.00 278.00
C 99.67 278.00 98.33 278.00 97.00 278.00
C 83.67 278.00 70.33 278.00 57.00 278.00
C 57.00 193.00 57.00 108.00 57.00 23.00
C 91.84 23.67 127.99 21.67 162.00 24.00 Z"/>
</g>
<g fill="#C6C4CC" fill-opacity="1.00" stroke="None">
<path d="
M 97.00 278.00 
C 96.73 277.87 96.33 277.17 96.00 277.00
C 86.73 272.38 83.12 258.64 91.75 251.75 C 100.38 244.87 111.69 244.20 119.75 253.25 C 127.81 262.30 119.23 272.20 112.00 278.00
C 140.19 277.99 169.56 277.08 197.00 277.00
C 181.91 271.36 187.41 244.80 204.01 244.01 C 220.61 243.21 225.43 273.01 209.00 278.00
C 236.26 277.37 264.16 279.29 291.00 277.00
C 290.34 235.33 297.53 190.18 297.60 148.75 C 297.68 107.32 296.43 67.89 299.00 23.00
C 291.68 22.95 284.31 23.07 277.00 23.00 C 269.69 22.93 262.30 23.13 255.00 23.00 C 247.70 22.87 240.26 23.27 233.00 23.00 C 225.74 22.73 218.16 23.59 211.00 23.00 C 203.84 22.41 195.95 24.31 189.00 23.00 C 182.05 21.69 174.13 25.06 169.00 25.00
C 163.08 31.67 163.90 44.34 160.00 52.00
C 180.18 50.83 195.33 64.73 213.08 71.92 C 230.82 79.12 247.60 87.30 264.00 97.00
C 257.17 98.97 250.07 91.46 243.00 90.00
C 244.19 92.56 246.96 93.40 249.00 95.00
C 236.29 99.73 221.49 88.97 209.00 85.00
C 213.22 88.71 216.61 94.63 221.00 98.00
C 233.83 104.27 245.91 113.87 248.00 129.00
C 239.97 125.02 234.17 116.64 227.00 111.00
C 229.50 113.10 228.96 120.12 230.78 123.22 C 232.59 126.33 234.19 132.73 233.00 136.00
C 231.75 135.70 231.29 134.17 230.00 134.00
C 234.33 141.09 215.06 150.66 210.00 151.00
C 223.73 163.03 219.04 190.78 200.00 194.00
C 198.45 194.45 196.19 195.70 194.00 195.00
C 198.64 199.33 197.49 207.92 196.00 213.00
C 192.59 226.14 178.80 235.02 166.00 227.00
C 171.44 241.98 153.21 259.12 138.98 252.02 C 124.74 244.93 122.72 225.47 134.00 215.00
C 123.60 216.63 114.88 208.76 112.03 199.97 C 109.17 191.19 114.28 179.24 104.75 174.25 C 95.22 169.26 91.59 158.54 92.00 149.00 C 92.42 139.46 103.50 130.61 95.75 122.25 C 88.00 113.89 88.56 104.20 91.93 94.93 C 95.30 85.65 104.49 79.38 114.00 79.00
C 118.15 78.84 122.16 79.37 126.00 78.00
C 127.32 77.32 128.60 76.48 130.00 76.00
C 134.00 74.61 147.71 76.05 150.00 81.00
C 150.00 74.78 147.48 65.74 150.31 60.31 C 153.13 54.87 153.14 47.18 156.32 42.32 C 159.50 37.47 158.25 27.64 162.00 24.00
C 127.99 21.67 91.84 23.67 57.00 23.00
C 57.00 108.00 57.00 193.00 57.00 278.00
C 70.33 278.00 83.67 278.00 97.00 278.00 Z"/>
</g>
<g fill="#A2C478" fill-opacity="1.00" stroke="None">
<path d="
M 162.00 24.00 
C 158.25 27.64 159.50 37.47 156.32 42.32 C 153.14 47.18 153.13 54.87 150.31 60.31 C 147.48 65.74 150.00 74.78 150.00 81.00
C 150.00 83.33 150.00 85.67 150.00 88.00
C 150.00 101.43 152.82 104.53 161.00 114.00
C 159.09 110.77 154.09 104.83 153.00 100.00
C 165.40 99.87 177.52 98.22 189.07 103.93 C 200.63 109.63 214.56 108.39 227.00 111.00
C 234.17 116.64 239.97 125.02 248.00 129.00
C 245.91 113.87 233.83 104.27 221.00 98.00
C 207.38 91.34 192.66 82.07 182.00 72.00
C 183.00 72.00 184.00 72.00 185.00 72.00
C 174.32 70.97 165.50 67.87 156.00 63.00
C 155.06 59.53 158.46 57.36 158.00 54.00
C 168.04 53.21 176.77 58.23 185.00 63.00
C 192.46 67.04 201.75 78.62 209.00 85.00
C 221.49 88.97 236.29 99.73 249.00 95.00
C 246.96 93.40 244.19 92.56 243.00 90.00
C 250.07 91.46 257.17 98.97 264.00 97.00
C 247.60 87.30 230.82 79.12 213.08 71.92 C 195.33 64.73 180.18 50.83 160.00 52.00
C 163.90 44.34 163.08 31.67 169.00 25.00
C 169.36 25.00 167.49 22.43 166.01 23.01 C 164.52 23.58 163.16 24.00 162.00 24.00
M 164.00 72.00 
C 158.90 73.52 152.18 73.60 154.00 66.00
C 158.11 65.28 163.32 67.67 164.00 72.00 Z"/>
</g>
<g fill="#BEBEC3" fill-opacity="1.00" stroke="None">
<path d="
M 185.00 72.00 
C 187.64 72.26 190.35 71.81 193.00 72.00
C 190.95 68.55 187.00 66.42 185.00 63.00
C 176.77 58.23 168.04 53.21 158.00 54.00
C 158.46 57.36 155.06 59.53 156.00 63.00
C 165.50 67.87 174.32 70.97 185.00 72.00 Z"/>
</g>
<g fill="#70A145" fill-opacity="1.00" stroke="None">
<path d="
M 185.00 63.00 
C 187.00 66.42 190.95 68.55 193.00 72.00
C 190.35 71.81 187.64 72.26 185.00 72.00
C 184.00 72.00 183.00 72.00 182.00 72.00
C 192.66 82.07 207.38 91.34 221.00 98.00
C 216.61 94.63 213.22 88.71 209.00 85.00
C 201.75 78.62 192.46 67.04 185.00 63.00 Z"/>
</g>
<g fill="#BDBDC2" fill-opacity="1.00" stroke="None">
<path d="
M 164.00 72.00 
C 163.32 67.67 158.11 65.28 154.00 66.00
C 152.18 73.60 158.90 73.52 164.00 72.00 Z"/>
</g>
<g fill="#8D57C3" fill-opacity="1.00" stroke="None">
<path d="
M 130.00 76.00 
C 128.75 76.60 128.26 79.94 126.00 79.00
C 128.15 82.00 129.72 83.63 124.00 83.00
C 128.64 89.30 127.56 94.96 121.00 100.00
C 131.24 96.89 139.96 91.63 150.00 88.00
C 150.00 85.67 150.00 83.33 150.00 81.00
C 147.71 76.05 134.00 74.61 130.00 76.00 Z"/>
</g>
<g fill="#B373DF" fill-opacity="1.00" stroke="None">
<path d="
M 126.00 78.00 
C 121.47 80.35 118.54 79.27 114.00 79.00
C 104.49 79.38 95.30 85.65 91.93 94.93 C 88.56 104.20 88.00 113.89 95.75 122.25 C 103.50 130.61 92.42 139.46 92.00 149.00 C 91.59 158.54 95.22 169.26 104.75 174.25 C 114.28 179.24 109.17 191.19 112.03 199.97 C 114.88 208.76 123.60 216.63 134.00 215.00
C 122.72 225.47 124.74 244.93 138.98 252.02 C 153.21 259.12 171.44 241.98 166.00 227.00
C 178.80 235.02 192.59 226.14 196.00 213.00
C 196.58 208.69 197.77 197.95 193.00 196.00
C 190.63 199.88 184.42 196.38 186.00 192.00
C 188.52 192.56 192.30 190.81 194.00 193.00
C 193.25 193.22 191.26 194.61 193.00 195.00
C 194.73 193.21 197.60 194.38 200.00 194.00
C 219.04 190.78 223.73 163.03 210.00 151.00
C 215.06 150.66 234.33 141.09 230.00 134.00
C 226.35 132.28 222.32 130.01 219.00 128.00
C 219.92 129.17 221.11 130.41 221.00 132.00
C 218.02 132.72 215.24 135.14 213.00 137.00
C 209.89 130.35 200.49 136.27 195.00 137.00
C 191.62 128.14 179.26 133.01 180.00 142.00
C 178.00 138.92 177.10 134.70 176.00 131.00
C 169.35 130.87 161.85 132.29 157.00 127.00
C 163.09 125.32 170.32 124.76 177.00 124.00
C 171.54 121.19 165.20 118.87 161.00 114.00
C 152.82 104.53 150.00 101.43 150.00 88.00
C 139.96 91.63 131.24 96.89 121.00 100.00
C 127.56 94.96 128.64 89.30 124.00 83.00
C 129.72 83.63 128.15 82.00 126.00 79.00
C 128.26 79.94 128.75 76.60 130.00 76.00
C 128.60 76.48 127.32 77.32 126.00 78.00
M 150.00 125.00 
C 150.19 127.88 146.67 128.41 145.00 130.00
C 145.35 127.14 144.73 124.61 144.00 122.00
C 145.95 123.18 147.58 124.98 150.00 125.00
M 131.00 159.00 
C 125.46 169.95 135.39 187.75 148.00 189.00
C 135.63 197.84 142.37 214.61 155.00 220.00
C 148.09 223.85 143.08 213.56 135.00 217.00
C 134.83 215.14 134.25 214.08 132.00 213.00
C 144.31 206.29 139.43 196.92 134.25 185.75 C 129.06 174.58 110.68 187.26 113.00 173.00
C 124.14 170.76 125.59 152.25 114.00 149.00
C 118.93 146.72 125.48 150.66 131.00 148.00
C 132.18 147.64 132.62 147.01 134.00 147.00
C 134.50 147.00 135.00 147.00 135.00 147.00
C 139.38 144.39 139.89 138.82 143.00 135.00
C 145.24 139.09 143.40 145.16 144.00 150.00
C 138.05 148.92 133.27 154.21 131.00 159.00
M 178.00 153.00 
C 175.60 161.69 188.48 162.99 194.00 164.00
C 188.00 166.36 180.66 163.51 175.00 167.00
C 174.37 163.65 171.49 160.92 169.00 159.00
C 172.51 157.82 175.14 155.22 178.00 153.00
M 159.00 224.00 
C 167.42 216.44 167.91 232.63 159.00 224.00 Z"/>
</g>
<g fill="#B09ACC" fill-opacity="1.00" stroke="None">
<path d="
M 114.00 79.00 
C 118.54 79.27 121.47 80.35 126.00 78.00
C 122.16 79.37 118.15 78.84 114.00 79.00 Z"/>
</g>
<g fill="#B8D58C" fill-opacity="1.00" stroke="None">
<path d="
M 161.00 114.00 
C 165.20 118.87 171.54 121.19 177.00 124.00
C 177.43 124.22 178.63 124.82 179.00 125.00
C 179.88 125.43 181.94 126.05 183.00 126.00
C 184.29 125.94 184.31 126.01 185.00 125.00
C 186.56 122.72 186.02 118.31 187.00 116.00
C 187.18 115.58 187.04 114.50 187.00 114.00
C 186.86 112.35 187.11 110.66 187.00 109.00
C 194.48 113.08 202.19 117.24 209.00 122.00
C 212.38 123.97 215.84 126.08 219.00 128.00
C 222.32 130.01 226.35 132.28 230.00 134.00
C 231.29 134.17 231.75 135.70 233.00 136.00
C 234.19 132.73 232.59 126.33 230.78 123.22 C 228.96 120.12 229.50 113.10 227.00 111.00
C 214.56 108.39 200.63 109.63 189.07 103.93 C 177.52 98.22 165.40 99.87 153.00 100.00
C 154.09 104.83 159.09 110.77 161.00 114.00 Z"/>
</g>
<g fill="#7445B0" fill-opacity="1.00" stroke="None">
<path d="
M 187.00 114.00 
C 189.00 113.35 193.67 115.79 195.00 117.00
C 192.30 115.54 187.42 120.36 187.00 116.00
C 186.02 118.31 186.56 122.72 185.00 125.00
C 187.24 125.32 196.47 128.20 199.07 124.07 C 201.67 119.94 211.75 127.03 209.00 122.00
C 202.19 117.24 194.48 113.08 187.00 109.00
C 187.11 110.66 186.86 112.35 187.00 114.00 Z"/>
</g>
<g fill="#431C94" fill-opacity="1.00" stroke="None">
<path d="
M 187.00 116.00 
C 187.42 120.36 192.30 115.54 195.00 117.00
C 193.67 115.79 189.00 113.35 187.00 114.00
C 187.04 114.50 187.18 115.58 187.00 116.00 Z"/>
</g>
<g fill="#8D41D8" fill-opacity="1.00" stroke="None">
<path d="
M 150.00 125.00 
C 147.58 124.98 145.95 123.18 144.00 122.00
C 144.73 124.61 145.35 127.14 145.00 130.00
C 146.67 128.41 150.19 127.88 150.00 125.00 Z"/>
</g>
<g fill="#9A5DCD" fill-opacity="1.00" stroke="None">
<path d="
M 185.00 125.00 
C 184.31 126.01 184.29 125.94 183.00 126.00
C 182.08 126.90 181.50 130.12 180.00 131.00
C 178.01 129.76 174.44 127.89 174.00 125.00
C 175.67 125.00 177.33 125.00 179.00 125.00
C 178.63 124.82 177.43 124.22 177.00 124.00
C 170.32 124.76 163.09 125.32 157.00 127.00
C 161.85 132.29 169.35 130.87 176.00 131.00
C 177.10 134.70 178.00 138.92 180.00 142.00
C 179.26 133.01 191.62 128.14 195.00 137.00
C 200.49 136.27 209.89 130.35 213.00 137.00
C 215.24 135.14 218.02 132.72 221.00 132.00
C 221.11 130.41 219.92 129.17 219.00 128.00
C 215.84 126.08 212.38 123.97 209.00 122.00
C 211.75 127.03 201.67 119.94 199.07 124.07 C 196.47 128.20 187.24 125.32 185.00 125.00 Z"/>
</g>
<g fill="#773EBE" fill-opacity="1.00" stroke="None">
<path d="
M 183.00 126.00 
C 181.94 126.05 179.88 125.43 179.00 125.00
C 177.33 125.00 175.67 125.00 174.00 125.00
C 174.44 127.89 178.01 129.76 180.00 131.00
C 181.50 130.12 182.08 126.90 183.00 126.00 Z"/>
</g>
<g fill="#7F38D0" fill-opacity="1.00" stroke="None">
<path d="
M 135.00 147.00 
C 137.67 146.41 139.63 144.37 142.00 143.00
C 141.83 145.78 132.41 153.22 134.00 147.00
C 132.62 147.01 132.18 147.64 131.00 148.00
C 129.89 148.60 128.76 150.44 127.00 150.00
C 128.92 152.37 127.53 160.38 131.00 159.00
C 133.27 154.21 138.05 148.92 144.00 150.00
C 143.40 145.16 145.24 139.09 143.00 135.00
C 139.89 138.82 139.38 144.39 135.00 147.00 Z"/>
</g>
<g fill="#3D1690" fill-opacity="1.00" stroke="None">
<path d="
M 135.00 147.00 
C 135.00 147.00 134.50 147.00 134.00 147.00
C 132.41 153.22 141.83 145.78 142.00 143.00
C 139.63 144.37 137.67 146.41 135.00 147.00 Z"/>
</g>
<g fill="#994DDC" fill-opacity="1.00" stroke="None">
<path d="
M 131.00 159.00 
C 127.53 160.38 128.92 152.37 127.00 150.00
C 128.76 150.44 129.89 148.60 131.00 148.00
C 125.48 150.66 118.93 146.72 114.00 149.00
C 125.59 152.25 124.14 170.76 113.00 173.00
C 110.68 187.26 129.06 174.58 134.25 185.75 C 139.43 196.92 144.31 206.29 132.00 213.00
C 134.25 214.08 134.83 215.14 135.00 217.00
C 143.08 213.56 148.09 223.85 155.00 220.00
C 142.37 214.61 135.63 197.84 148.00 189.00
C 135.39 187.75 125.46 169.95 131.00 159.00
M 145.00 214.00 
C 142.16 213.41 138.02 215.23 136.00 213.00
C 137.55 211.45 140.17 211.17 141.00 209.00
C 142.71 210.19 145.12 211.65 145.00 214.00 Z"/>
</g>
<g fill="#9749DD" fill-opacity="1.00" stroke="None">
<path d="
M 178.00 153.00 
C 175.14 155.22 172.51 157.82 169.00 159.00
C 171.49 160.92 174.37 163.65 175.00 167.00
C 180.66 163.51 188.00 166.36 194.00 164.00
C 188.48 162.99 175.60 161.69 178.00 153.00
M 176.00 164.00 
C 174.42 162.33 175.03 159.19 174.00 157.00
C 179.00 157.03 179.71 161.31 176.00 164.00 Z"/>
</g>
<g fill="#4A1E90" fill-opacity="1.00" stroke="None">
<path d="
M 176.00 164.00 
C 179.71 161.31 179.00 157.03 174.00 157.00
C 175.03 159.19 174.42 162.33 176.00 164.00 Z"/>
</g>
<g fill="#984CDD" fill-opacity="1.00" stroke="None">
<path d="
M 193.00 196.00 
C 192.82 195.93 193.00 195.00 193.00 195.00
C 191.26 194.61 193.25 193.22 194.00 193.00
C 192.30 190.81 188.52 192.56 186.00 192.00
C 184.42 196.38 190.63 199.88 193.00 196.00 Z"/>
</g>
<g fill="#B99DD7" fill-opacity="1.00" stroke="None">
<path d="
M 193.00 195.00 
C 193.00 195.00 192.82 195.93 193.00 196.00
C 197.77 197.95 196.58 208.69 196.00 213.00
C 197.49 207.92 198.64 199.33 194.00 195.00
C 196.19 195.70 198.45 194.45 200.00 194.00
C 197.60 194.38 194.73 193.21 193.00 195.00 Z"/>
</g>
<g fill="#6D2BCC" fill-opacity="1.00" stroke="None">
<path d="
M 145.00 214.00 
C 145.12 211.65 142.71 210.19 141.00 209.00
C 140.17 211.17 137.55 211.45 136.00 213.00
C 138.02 215.23 142.16 213.41 145.00 214.00 Z"/>
</g>
<g fill="#9C4DDF" fill-opacity="1.00" stroke="None">
<path d="
M 159.00 224.00 
C 167.91 232.63 167.42 216.44 159.00 224.00 Z"/>
</g>
<g fill="#AD6FDC" fill-opacity="1.00" stroke="None">
<path d="
M 197.00 277.00 
C 200.55 276.99 205.03 278.00 209.00 278.00
C 225.43 273.01 220.61 243.21 204.01 244.01 C 187.41 244.80 181.91 271.36 197.00 277.00 Z"/>
</g>
<g fill="#C5AFDB" fill-opacity="1.00" stroke="None">
<path d="
M 96.00 277.00 
C 90.98 271.87 85.49 265.56 88.78 257.78 C 92.07 250.00 98.94 247.07 107.00 248.00 C 115.06 248.93 119.39 252.97 121.98 261.02 C 124.56 269.08 114.10 273.10 111.00 278.00
C 111.00 278.00 111.50 278.00 112.00 278.00
C 119.23 272.20 127.81 262.30 119.75 253.25 C 111.69 244.20 100.38 244.87 91.75 251.75 C 83.12 258.64 86.73 272.38 96.00 277.00 Z"/>
</g>
<g fill="#C388E8" fill-opacity="1.00" stroke="None">
<path d="
M 96.00 277.00 
C 96.33 277.17 96.73 277.87 97.00 278.00
C 98.33 278.00 99.67 278.00 101.00 278.00
C 100.42 277.87 98.40 276.72 98.00 276.00
C 102.33 276.00 106.67 276.00 111.00 276.00
C 110.76 277.67 108.15 276.17 108.00 278.00
C 109.00 278.00 110.00 278.00 111.00 278.00
C 114.10 273.10 124.56 269.08 121.98 261.02 C 119.39 252.97 115.06 248.93 107.00 248.00 C 98.94 247.07 92.07 250.00 88.78 257.78 C 85.49 265.56 90.98 271.87 96.00 277.00 Z"/>
</g>
<g fill="#9F63D7" fill-opacity="1.00" stroke="None">
<path d="
M 101.00 278.00 
C 103.33 278.00 105.67 278.00 108.00 278.00
C 108.15 276.17 110.76 277.67 111.00 276.00
C 106.67 276.00 102.33 276.00 98.00 276.00
C 98.40 276.72 100.42 277.87 101.00 278.00 Z"/>
</g>
</svg>