<svg xmlns="http://www.w3.org/2000/svg" xmlns:v="https://svgstorm.com"
viewBox = "0 0 366 300"
<g fill="None" fill-opacity="0.0" stroke="#E5E4E3" stroke-opacity="1.00" stroke-width="0.3"><path d="
M 0.00 295.00 
C 1.93 296.26 3.91 298.00 5.00 300.00
L 366.00 300.00
L 366.00 0.00
L 0.00 0.00
L 0.00 295.00
M 267.00 166.00 
C 267.00 169.33 267.00 172.67 267.00 176.00
C 267.00 188.46 266.78 200.49 267.00 213.00 C 267.22 225.51 266.44 238.45 267.00 251.00 C 267.56 263.55 269.64 277.96 255.00 276.00 C 240.36 274.04 230.50 276.94 217.00 276.00 C 203.50 275.06 192.94 276.48 180.00 276.00 C 167.06 275.52 154.71 276.37 142.00 276.00 C 129.29 275.63 117.61 276.51 105.00 276.00 C 92.39 275.49 79.58 276.96 67.00 276.00
C 55.24 275.10 60.40 259.09 58.00 250.00 C 55.60 240.91 56.44 231.95 55.01 222.99 C 53.57 214.04 53.52 205.28 52.07 195.93 C 50.62 186.58 49.90 172.82 50.00 163.00 C 50.10 153.18 47.60 139.47 47.01 129.99 C 46.41 120.51 45.38 112.00 43.66 103.32 C 41.95 94.64 41.06 87.98 38.22 77.78 C 35.38 67.58 35.01 57.66 32.22 47.78 C 29.44 37.90 27.98 29.86 27.00 23.00
C 39.07 20.03 52.24 21.25 65.00 21.00
C 77.84 21.00 90.11 21.04 103.00 21.00 C 115.89 20.96 129.02 21.11 142.00 21.00 C 154.98 20.89 166.82 21.25 180.00 21.00 C 193.18 20.75 205.43 21.54 219.00 21.00 C 232.57 20.46 242.50 22.23 257.00 21.00 C 271.50 19.77 266.73 37.89 267.00 50.00 C 267.27 62.11 266.89 75.45 267.00 88.00 C 267.11 100.55 266.96 114.24 267.00 127.00 C 267.04 139.76 267.00 153.18 267.00 166.00 Z"/>
</g>
<g fill="None" fill-opacity="0.0" stroke="#E2DAD5" stroke-opacity="1.00" stroke-width="0.3"><path d="
M 67.00 276.00 
C 62.58 272.88 67.55 261.30 66.00 256.00 C 64.45 250.70 67.32 241.61 65.60 236.25 C 63.88 230.90 64.00 222.96 63.00 217.00 C 62.00 211.04 60.52 204.12 60.07 197.93 C 59.63 191.73 59.01 187.37 58.00 181.00 C 57.00 174.63 56.62 167.63 56.00 161.00 C 55.38 154.37 53.77 147.97 54.00 141.00 C 54.23 134.03 52.81 127.05 53.00 120.00 C 53.19 112.95 53.14 106.03 53.00 99.00 C 52.86 91.97 53.52 83.93 53.00 77.00 C 52.48 70.07 54.66 63.34 54.99 56.99 C 55.33 50.64 56.53 43.65 56.40 38.25 C 56.26 32.85 58.36 28.69 57.00 23.00
C 59.13 20.71 63.30 23.46 65.00 21.00
C 52.24 21.25 39.07 20.03 27.00 23.00
C 27.98 29.86 29.44 37.90 32.22 47.78 C 35.01 57.66 35.38 67.58 38.22 77.78 C 41.06 87.98 41.95 94.64 43.66 103.32 C 45.38 112.00 46.41 120.51 47.01 129.99 C 47.60 139.47 50.10 153.18 50.00 163.00 C 49.90 172.82 50.62 186.58 52.07 195.93 C 53.52 205.28 53.57 214.04 55.01 222.99 C 56.44 231.95 55.60 240.91 58.00 250.00 C 60.40 259.09 55.24 275.10 67.00 276.00 Z"/>
</g>
<g fill="None" fill-opacity="0.0" stroke="#D5C8C2" stroke-opacity="1.00" stroke-width="0.3"><path d="
M 67.00 276.00 
C 79.58 276.96 92.39 275.49 105.00 276.00 C 117.61 276.51 129.29 275.63 142.00 276.00 C 154.71 276.37 167.06 275.52 180.00 276.00 C 192.94 276.48 203.50 275.06 217.00 276.00 C 230.50 276.94 240.36 274.04 255.00 276.00 C 269.64 277.96 267.56 263.55 267.00 251.00 C 266.44 238.45 267.22 225.51 267.00 213.00 C 266.78 200.49 267.00 188.46 267.00 176.00
C 266.06 181.23 262.19 182.58 259.00 186.00
C 253.05 196.80 242.24 202.36 234.00 212.00
C 231.60 214.81 229.39 217.25 229.00 221.00
C 228.90 221.97 229.17 223.04 229.00 224.00
C 227.86 230.28 223.82 243.17 217.92 245.92 C 212.03 248.68 196.70 243.70 194.23 236.77 C 191.76 229.84 197.70 218.30 201.00 212.00
C 200.94 211.51 201.00 211.00 201.00 211.00
C 201.79 210.57 202.63 209.45 204.00 210.00
C 205.63 205.69 204.81 200.68 205.00 196.00
C 187.92 196.60 174.08 199.25 157.00 201.00 C 139.92 202.75 125.82 203.72 108.00 206.00 C 90.18 208.28 84.82 191.54 84.01 175.99 C 83.20 160.44 78.34 145.11 76.74 129.26 C 75.14 113.40 70.61 98.63 71.93 81.93 C 73.24 65.22 93.73 65.33 108.00 64.00 C 122.27 62.68 141.07 59.36 156.01 58.01 C 170.95 56.66 190.18 53.94 205.00 53.00 C 219.82 52.06 238.77 43.72 248.00 58.00
C 242.52 62.02 238.44 68.03 233.00 72.00
C 231.66 73.34 230.43 74.78 229.00 76.00
C 221.78 82.17 215.47 89.37 208.00 95.00
C 210.03 100.67 216.87 103.84 220.00 109.00
C 226.02 106.65 229.50 99.46 235.00 96.00
C 241.16 89.84 247.05 80.97 255.00 78.00
C 257.64 107.56 262.94 137.13 267.00 166.00
C 267.00 153.18 267.04 139.76 267.00 127.00 C 266.96 114.24 267.11 100.55 267.00 88.00 C 266.89 75.45 267.27 62.11 267.00 50.00 C 266.73 37.89 271.50 19.77 257.00 21.00 C 242.50 22.23 232.57 20.46 219.00 21.00 C 205.43 21.54 193.18 20.75 180.00 21.00 C 166.82 21.25 154.98 20.89 142.00 21.00 C 129.02 21.11 115.89 20.96 103.00 21.00 C 90.11 21.04 77.84 21.00 65.00 21.00
C 63.30 23.46 59.13 20.71 57.00 23.00
C 58.36 28.69 56.26 32.85 56.40 38.25 C 56.53 43.65 55.33 50.64 54.99 56.99 C 54.66 63.34 52.48 70.07 53.00 77.00 C 53.52 83.93 52.86 91.97 53.00 99.00 C 53.14 106.03 53.19 112.95 53.00 120.00 C 52.81 127.05 54.23 134.03 54.00 141.00 C 53.77 147.97 55.38 154.37 56.00 161.00 C 56.62 167.63 57.00 174.63 58.00 181.00 C 59.01 187.37 59.63 191.73 60.07 197.93 C 60.52 204.12 62.00 211.04 63.00 217.00 C 64.00 222.96 63.88 230.90 65.60 236.25 C 67.32 241.61 64.45 250.70 66.00 256.00 C 67.55 261.30 62.58 272.88 67.00 276.00 Z"/>
</g>
<g fill="None" fill-opacity="0.0" stroke="#E4CFB8" stroke-opacity="1.00" stroke-width="0.3"><path d="
M 201.00 211.00 
C 205.48 212.22 211.41 213.32 215.22 215.78 C 219.04 218.24 227.27 216.02 229.00 221.00
C 229.39 217.25 231.60 214.81 234.00 212.00
C 232.83 213.08 231.29 214.15 230.00 215.00
C 227.55 211.07 230.98 206.83 232.00 203.00
C 227.78 197.53 223.90 197.86 217.33 195.67 C 210.76 193.48 210.68 199.70 207.00 205.00
C 206.05 194.96 204.28 184.31 203.00 174.00
C 202.01 175.61 198.51 174.89 197.00 175.00
C 166.79 177.18 136.94 181.60 107.00 185.00
C 103.87 169.21 102.60 152.95 100.00 137.00
C 97.31 120.08 94.75 103.17 93.00 86.00
C 137.97 80.93 182.98 75.97 228.00 71.00
C 229.84 70.89 232.33 68.26 233.00 72.00
C 238.44 68.03 242.52 62.02 248.00 58.00
C 238.77 43.72 219.82 52.06 205.00 53.00 C 190.18 53.94 170.95 56.66 156.01 58.01 C 141.07 59.36 122.27 62.68 108.00 64.00 C 93.73 65.33 73.24 65.22 71.93 81.93 C 70.61 98.63 75.14 113.40 76.74 129.26 C 78.34 145.11 83.20 160.44 84.01 175.99 C 84.82 191.54 90.18 208.28 108.00 206.00 C 125.82 203.72 139.92 202.75 157.00 201.00 C 174.08 199.25 187.92 196.60 205.00 196.00
C 204.81 200.68 205.63 205.69 204.00 210.00
C 202.63 209.45 201.79 210.57 201.00 211.00 Z"/>
</g>
<g fill="None" fill-opacity="0.0" stroke="#9A8377" stroke-opacity="1.00" stroke-width="0.3"><path d="
M 228.00 71.00 
C 229.30 71.19 230.69 70.85 232.00 71.00
C 232.45 73.31 229.47 74.07 229.00 76.00
C 230.43 74.78 231.66 73.34 233.00 72.00
C 232.33 68.26 229.84 70.89 228.00 71.00 Z"/>
</g>
<g fill="None" fill-opacity="0.0" stroke="#715560" stroke-opacity="1.00" stroke-width="0.3"><path d="
M 100.00 137.00 
C 100.20 129.94 103.68 124.78 105.00 118.00
C 119.59 109.17 123.71 129.49 134.25 136.75 C 144.79 144.01 152.69 159.26 167.22 161.78 C 181.75 164.29 200.21 152.03 206.00 144.00
C 208.19 143.43 207.83 146.98 210.00 145.00
C 212.37 140.96 218.94 137.03 224.00 136.00
C 229.02 134.98 235.59 136.18 240.00 138.00
C 243.97 135.49 238.73 121.94 239.00 117.00 C 239.27 112.06 235.36 100.98 235.00 96.00
C 229.50 99.46 226.02 106.65 220.00 109.00
C 216.87 103.84 210.03 100.67 208.00 95.00
C 215.47 89.37 221.78 82.17 229.00 76.00
C 229.47 74.07 232.45 73.31 232.00 71.00
C 230.69 70.85 229.30 71.19 228.00 71.00
C 182.98 75.97 137.97 80.93 93.00 86.00
C 94.75 103.17 97.31 120.08 100.00 137.00
M 201.00 115.00 
C 201.53 117.96 201.69 120.05 201.00 123.00
C 198.14 135.30 187.25 139.67 179.25 150.25 C 171.24 160.82 158.25 147.32 148.25 142.75 C 138.25 138.17 126.68 121.82 133.77 110.77 C 140.86 99.73 158.20 95.61 167.00 106.00
C 174.42 90.17 201.47 97.39 201.00 115.00 Z"/>
</g>
<g fill="None" fill-opacity="0.0" stroke="#E4C9AA" stroke-opacity="1.00" stroke-width="0.3"><path d="
M 235.00 96.00 
C 235.36 100.98 239.27 112.06 239.00 117.00 C 238.73 121.94 243.97 135.49 240.00 138.00
C 249.94 142.09 257.91 144.66 261.99 155.01 C 266.07 165.36 264.47 176.07 259.00 186.00
C 262.19 182.58 266.06 181.23 267.00 176.00
C 267.00 172.67 267.00 169.33 267.00 166.00
C 262.94 137.13 257.64 107.56 255.00 78.00
C 247.05 80.97 241.16 89.84 235.00 96.00 Z"/>
</g>
<g fill="None" fill-opacity="0.0" stroke="#E59287" stroke-opacity="1.00" stroke-width="0.3"><path d="
M 201.00 123.00 
C 201.28 120.48 201.17 117.53 201.00 115.00
C 201.47 97.39 174.42 90.17 167.00 106.00
C 158.20 95.61 140.86 99.73 133.77 110.77 C 126.68 121.82 138.25 138.17 148.25 142.75 C 158.25 147.32 171.24 160.82 179.25 150.25 C 187.25 139.67 198.14 135.30 201.00 123.00 Z"/>
</g>
<g fill="None" fill-opacity="0.0" stroke="#7C6270" stroke-opacity="1.00" stroke-width="0.3"><path d="
M 100.00 137.00 
C 102.60 152.95 103.87 169.21 107.00 185.00
C 136.94 181.60 166.79 177.18 197.00 175.00
C 198.13 174.78 200.21 173.15 202.00 174.00
C 202.47 172.12 200.94 169.07 203.00 168.00
C 203.28 163.16 204.47 157.58 206.00 153.00
C 206.89 150.34 208.58 147.42 210.00 145.00
C 207.83 146.98 208.19 143.43 206.00 144.00
C 200.21 152.03 181.75 164.29 167.22 161.78 C 152.69 159.26 144.79 144.01 134.25 136.75 C 123.71 129.49 119.59 109.17 105.00 118.00
C 103.68 124.78 100.20 129.94 100.00 137.00 Z"/>
</g>
<g fill="None" fill-opacity="0.0" stroke="#A65C59" stroke-opacity="1.00" stroke-width="0.3"><path d="
M 201.00 123.00 
C 201.69 120.05 201.53 117.96 201.00 115.00
C 201.17 117.53 201.28 120.48 201.00 123.00 Z"/>
</g>
<g fill="None" fill-opacity="0.0" stroke="#C4A78E" stroke-opacity="1.00" stroke-width="0.3"><path d="
M 210.00 145.00 
C 208.58 147.42 206.89 150.34 206.00 153.00
C 208.87 146.36 216.88 138.01 224.00 136.00
C 218.94 137.03 212.37 140.96 210.00 145.00 Z"/>
</g>
<g fill="None" fill-opacity="0.0" stroke="#FBECBF" stroke-opacity="1.00" stroke-width="0.3"><path d="
M 206.00 153.00 
C 204.47 157.58 203.28 163.16 203.00 168.00
C 202.89 169.97 202.94 172.02 203.00 174.00
C 204.28 184.31 206.05 194.96 207.00 205.00
C 210.68 199.70 210.76 193.48 217.33 195.67 C 223.90 197.86 227.78 197.53 232.00 203.00
C 230.98 206.83 227.55 211.07 230.00 215.00
C 231.29 214.15 232.83 213.08 234.00 212.00
C 242.24 202.36 253.05 196.80 259.00 186.00
C 264.47 176.07 266.07 165.36 261.99 155.01 C 257.91 144.66 249.94 142.09 240.00 138.00
C 235.59 136.18 229.02 134.98 224.00 136.00
C 216.88 138.01 208.87 146.36 206.00 153.00 Z"/>
</g>
<g fill="None" fill-opacity="0.0" stroke="#C1A28E" stroke-opacity="1.00" stroke-width="0.3"><path d="
M 197.00 175.00 
C 198.51 174.89 202.01 175.61 203.00 174.00
C 202.94 172.02 202.89 169.97 203.00 168.00
C 200.94 169.07 202.47 172.12 202.00 174.00
C 200.21 173.15 198.13 174.78 197.00 175.00 Z"/>
</g>
<g fill="None" fill-opacity="0.0" stroke="#BA9C89" stroke-opacity="1.00" stroke-width="0.3"><path d="
M 201.00 212.00 
C 201.54 216.42 208.92 218.08 212.69 220.31 C 216.47 222.53 224.14 224.63 229.00 224.00
C 229.17 223.04 228.90 221.97 229.00 221.00
C 227.27 216.02 219.04 218.24 215.22 215.78 C 211.41 213.32 205.48 212.22 201.00 211.00
C 201.00 211.00 200.94 211.51 201.00 212.00 Z"/>
</g>
<g fill="None" fill-opacity="0.0" stroke="#B3A7AB" stroke-opacity="1.00" stroke-width="0.3"><path d="
M 229.00 224.00 
C 224.14 224.63 216.47 222.53 212.69 220.31 C 208.92 218.08 201.54 216.42 201.00 212.00
C 197.70 218.30 191.76 229.84 194.23 236.77 C 196.70 243.70 212.03 248.68 217.92 245.92 C 223.82 243.17 227.86 230.28 229.00 224.00 Z"/>
</g>
<g fill="None" fill-opacity="0.0" stroke="#ACACAC" stroke-opacity="0.25" stroke-width="0.3"><path d="
M 0.00 300.00 
L 5.00 300.00
C 3.91 298.00 1.93 296.26 0.00 295.00
L 0.00 300.00 Z"/>
</g>
<g fill="#E5E4E3" fill-opacity="1.00" stroke="None">
<path d="
M 0.00 295.00 
C 1.93 296.26 3.91 298.00 5.00 300.00
L 366.00 300.00
L 366.00 0.00
L 0.00 0.00
L 0.00 295.00
M 267.00 166.00 
C 267.00 169.33 267.00 172.67 267.00 176.00
C 267.00 188.46 266.78 200.49 267.00 213.00 C 267.22 225.51 266.44 238.45 267.00 251.00 C 267.56 263.55 269.64 277.96 255.00 276.00 C 240.36 274.04 230.50 276.94 217.00 276.00 C 203.50 275.06 192.94 276.48 180.00 276.00 C 167.06 275.52 154.71 276.37 142.00 276.00 C 129.29 275.63 117.61 276.51 105.00 276.00 C 92.39 275.49 79.58 276.96 67.00 276.00
C 55.24 275.10 60.40 259.09 58.00 250.00 C 55.60 240.91 56.44 231.95 55.01 222.99 C 53.57 214.04 53.52 205.28 52.07 195.93 C 50.62 186.58 49.90 172.82 50.00 163.00 C 50.10 153.18 47.60 139.47 47.01 129.99 C 46.41 120.51 45.38 112.00 43.66 103.32 C 41.95 94.64 41.06 87.98 38.22 77.78 C 35.38 67.58 35.01 57.66 32.22 47.78 C 29.44 37.90 27.98 29.86 27.00 23.00
C 39.07 20.03 52.24 21.25 65.00 21.00
C 77.84 21.00 90.11 21.04 103.00 21.00 C 115.89 20.96 129.02 21.11 142.00 21.00 C 154.98 20.89 166.82 21.25 180.00 21.00 C 193.18 20.75 205.43 21.54 219.00 21.00 C 232.57 20.46 242.50 22.23 257.00 21.00 C 271.50 19.77 266.73 37.89 267.00 50.00 C 267.27 62.11 266.89 75.45 267.00 88.00 C 267.11 100.55 266.96 114.24 267.00 127.00 C 267.04 139.76 267.00 153.18 267.00 166.00 Z"/>
</g>
<g fill="#E2DAD5" fill-opacity="1.00" stroke="None">
<path d="
M 67.00 276.00 
C 62.58 272.88 67.55 261.30 66.00 256.00 C 64.45 250.70 67.32 241.61 65.60 236.25 C 63.88 230.90 64.00 222.96 63.00 217.00 C 62.00 211.04 60.52 204.12 60.07 197.93 C 59.63 191.73 59.01 187.37 58.00 181.00 C 57.00 174.63 56.62 167.63 56.00 161.00 C 55.38 154.37 53.77 147.97 54.00 141.00 C 54.23 134.03 52.81 127.05 53.00 120.00 C 53.19 112.95 53.14 106.03 53.00 99.00 C 52.86 91.97 53.52 83.93 53.00 77.00 C 52.48 70.07 54.66 63.34 54.99 56.99 C 55.33 50.64 56.53 43.65 56.40 38.25 C 56.26 32.85 58.36 28.69 57.00 23.00
C 59.13 20.71 63.30 23.46 65.00 21.00
C 52.24 21.25 39.07 20.03 27.00 23.00
C 27.98 29.86 29.44 37.90 32.22 47.78 C 35.01 57.66 35.38 67.58 38.22 77.78 C 41.06 87.98 41.95 94.64 43.66 103.32 C 45.38 112.00 46.41 120.51 47.01 129.99 C 47.60 139.47 50.10 153.18 50.00 163.00 C 49.90 172.82 50.62 186.58 52.07 195.93 C 53.52 205.28 53.57 214.04 55.01 222.99 C 56.44 231.95 55.60 240.91 58.00 250.00 C 60.40 259.09 55.24 275.10 67.00 276.00 Z"/>
</g>
<g fill="#D5C8C2" fill-opacity="1.00" stroke="None">
<path d="
M 67.00 276.00 
C 79.58 276.96 92.39 275.49 105.00 276.00 C 117.61 276.51 129.29 275.63 142.00 276.00 C 154.71 276.37 167.06 275.52 180.00 276.00 C 192.94 276.48 203.50 275.06 217.00 276.00 C 230.50 276.94 240.36 274.04 255.00 276.00 C 269.64 277.96 267.56 263.55 267.00 251.00 C 266.44 238.45 267.22 225.51 267.00 213.00 C 266.78 200.49 267.00 188.46 267.00 176.00
C 266.06 181.23 262.19 182.58 259.00 186.00
C 253.05 196.80 242.24 202.36 234.00 212.00
C 231.60 214.81 229.39 217.25 229.00 221.00
C 228.90 221.97 229.17 223.04 229.00 224.00
C 227.86 230.28 223.82 243.17 217.92 245.92 C 212.03 248.68 196.70 243.70 194.23 236.77 C 191.76 229.84 197.70 218.30 201.00 212.00
C 200.94 211.51 201.00 211.00 201.00 211.00
C 201.79 210.57 202.63 209.45 204.00 210.00
C 205.63 205.69 204.81 200.68 205.00 196.00
C 187.92 196.60 174.08 199.25 157.00 201.00 C 139.92 202.75 125.82 203.72 108.00 206.00 C 90.18 208.28 84.82 191.54 84.01 175.99 C 83.20 160.44 78.34 145.11 76.74 129.26 C 75.14 113.40 70.61 98.63 71.93 81.93 C 73.24 65.22 93.73 65.33 108.00 64.00 C 122.27 62.68 141.07 59.36 156.01 58.01 C 170.95 56.66 190.18 53.94 205.00 53.00 C 219.82 52.06 238.77 43.72 248.00 58.00
C 242.52 62.02 238.44 68.03 233.00 72.00
C 231.66 73.34 230.43 74.78 229.00 76.00
C 221.78 82.17 215.47 89.37 208.00 95.00
C 210.03 100.67 216.87 103.84 220.00 109.00
C 226.02 106.65 229.50 99.46 235.00 96.00
C 241.16 89.84 247.05 80.97 255.00 78.00
C 257.64 107.56 262.94 137.13 267.00 166.00
C 267.00 153.18 267.04 139.76 267.00 127.00 C 266.96 114.24 267.11 100.55 267.00 88.00 C 266.89 75.45 267.27 62.11 267.00 50.00 C 266.73 37.89 271.50 19.77 257.00 21.00 C 242.50 22.23 232.57 20.46 219.00 21.00 C 205.43 21.54 193.18 20.75 180.00 21.00 C 166.82 21.25 154.98 20.89 142.00 21.00 C 129.02 21.11 115.89 20.96 103.00 21.00 C 90.11 21.04 77.84 21.00 65.00 21.00
C 63.30 23.46 59.13 20.71 57.00 23.00
C 58.36 28.69 56.26 32.85 56.40 38.25 C 56.53 43.65 55.33 50.64 54.99 56.99 C 54.66 63.34 52.48 70.07 53.00 77.00 C 53.52 83.93 52.86 91.97 53.00 99.00 C 53.14 106.03 53.19 112.95 53.00 120.00 C 52.81 127.05 54.23 134.03 54.00 141.00 C 53.77 147.97 55.38 154.37 56.00 161.00 C 56.62 167.63 57.00 174.63 58.00 181.00 C 59.01 187.37 59.63 191.73 60.07 197.93 C 60.52 204.12 62.00 211.04 63.00 217.00 C 64.00 222.96 63.88 230.90 65.60 236.25 C 67.32 241.61 64.45 250.70 66.00 256.00 C 67.55 261.30 62.58 272.88 67.00 276.00 Z"/>
</g>
<g fill="#E4CFB8" fill-opacity="1.00" stroke="None">
<path d="
M 201.00 211.00 
C 205.48 212.22 211.41 213.32 215.22 215.78 C 219.04 218.24 227.27 216.02 229.00 221.00
C 229.39 217.25 231.60 214.81 234.00 212.00
C 232.83 213.08 231.29 214.15 230.00 215.00
C 227.55 211.07 230.98 206.83 232.00 203.00
C 227.78 197.53 223.90 197.86 217.33 195.67 C 210.76 193.48 210.68 199.70 207.00 205.00
C 206.05 194.96 204.28 184.31 203.00 174.00
C 202.01 175.61 198.51 174.89 197.00 175.00
C 166.79 177.18 136.94 181.60 107.00 185.00
C 103.87 169.21 102.60 152.95 100.00 137.00
C 97.31 120.08 94.75 103.17 93.00 86.00
C 137.97 80.93 182.98 75.97 228.00 71.00
C 229.84 70.89 232.33 68.26 233.00 72.00
C 238.44 68.03 242.52 62.02 248.00 58.00
C 238.77 43.72 219.82 52.06 205.00 53.00 C 190.18 53.94 170.95 56.66 156.01 58.01 C 141.07 59.36 122.27 62.68 108.00 64.00 C 93.73 65.33 73.24 65.22 71.93 81.93 C 70.61 98.63 75.14 113.40 76.74 129.26 C 78.34 145.11 83.20 160.44 84.01 175.99 C 84.82 191.54 90.18 208.28 108.00 206.00 C 125.82 203.72 139.92 202.75 157.00 201.00 C 174.08 199.25 187.92 196.60 205.00 196.00
C 204.81 200.68 205.63 205.69 204.00 210.00
C 202.63 209.45 201.79 210.57 201.00 211.00 Z"/>
</g>
<g fill="#9A8377" fill-opacity="1.00" stroke="None">
<path d="
M 228.00 71.00 
C 229.30 71.19 230.69 70.85 232.00 71.00
C 232.45 73.31 229.47 74.07 229.00 76.00
C 230.43 74.78 231.66 73.34 233.00 72.00
C 232.33 68.26 229.84 70.89 228.00 71.00 Z"/>
</g>
<g fill="#715560" fill-opacity="1.00" stroke="None">
<path d="
M 100.00 137.00 
C 100.20 129.94 103.68 124.78 105.00 118.00
C 119.59 109.17 123.71 129.49 134.25 136.75 C 144.79 144.01 152.69 159.26 167.22 161.78 C 181.75 164.29 200.21 152.03 206.00 144.00
C 208.19 143.43 207.83 146.98 210.00 145.00
C 212.37 140.96 218.94 137.03 224.00 136.00
C 229.02 134.98 235.59 136.18 240.00 138.00
C 243.97 135.49 238.73 121.94 239.00 117.00 C 239.27 112.06 235.36 100.98 235.00 96.00
C 229.50 99.46 226.02 106.65 220.00 109.00
C 216.87 103.84 210.03 100.67 208.00 95.00
C 215.47 89.37 221.78 82.17 229.00 76.00
C 229.47 74.07 232.45 73.31 232.00 71.00
C 230.69 70.85 229.30 71.19 228.00 71.00
C 182.98 75.97 137.97 80.93 93.00 86.00
C 94.75 103.17 97.31 120.08 100.00 137.00
M 201.00 115.00 
C 201.53 117.96 201.69 120.05 201.00 123.00
C 198.14 135.30 187.25 139.67 179.25 150.25 C 171.24 160.82 158.25 147.32 148.25 142.75 C 138.25 138.17 126.68 121.82 133.77 110.77 C 140.86 99.73 158.20 95.61 167.00 106.00
C 174.42 90.17 201.47 97.39 201.00 115.00 Z"/>
</g>
<g fill="#E4C9AA" fill-opacity="1.00" stroke="None">
<path d="
M 235.00 96.00 
C 235.36 100.98 239.27 112.06 239.00 117.00 C 238.73 121.94 243.97 135.49 240.00 138.00
C 249.94 142.09 257.91 144.66 261.99 155.01 C 266.07 165.36 264.47 176.07 259.00 186.00
C 262.19 182.58 266.06 181.23 267.00 176.00
C 267.00 172.67 267.00 169.33 267.00 166.00
C 262.94 137.13 257.64 107.56 255.00 78.00
C 247.05 80.97 241.16 89.84 235.00 96.00 Z"/>
</g>
<g fill="#E59287" fill-opacity="1.00" stroke="None">
<path d="
M 201.00 123.00 
C 201.28 120.48 201.17 117.53 201.00 115.00
C 201.47 97.39 174.42 90.17 167.00 106.00
C 158.20 95.61 140.86 99.73 133.77 110.77 C 126.68 121.82 138.25 138.17 148.25 142.75 C 158.25 147.32 171.24 160.82 179.25 150.25 C 187.25 139.67 198.14 135.30 201.00 123.00 Z"/>
</g>
<g fill="#7C6270" fill-opacity="1.00" stroke="None">
<path d="
M 100.00 137.00 
C 102.60 152.95 103.87 169.21 107.00 185.00
C 136.94 181.60 166.79 177.18 197.00 175.00
C 198.13 174.78 200.21 173.15 202.00 174.00
C 202.47 172.12 200.94 169.07 203.00 168.00
C 203.28 163.16 204.47 157.58 206.00 153.00
C 206.89 150.34 208.58 147.42 210.00 145.00
C 207.83 146.98 208.19 143.43 206.00 144.00
C 200.21 152.03 181.75 164.29 167.22 161.78 C 152.69 159.26 144.79 144.01 134.25 136.75 C 123.71 129.49 119.59 109.17 105.00 118.00
C 103.68 124.78 100.20 129.94 100.00 137.00 Z"/>
</g>
<g fill="#A65C59" fill-opacity="1.00" stroke="None">
<path d="
M 201.00 123.00 
C 201.69 120.05 201.53 117.96 201.00 115.00
C 201.17 117.53 201.28 120.48 201.00 123.00 Z"/>
</g>
<g fill="#C4A78E" fill-opacity="1.00" stroke="None">
<path d="
M 210.00 145.00 
C 208.58 147.42 206.89 150.34 206.00 153.00
C 208.87 146.36 216.88 138.01 224.00 136.00
C 218.94 137.03 212.37 140.96 210.00 145.00 Z"/>
</g>
<g fill="#FBECBF" fill-opacity="1.00" stroke="None">
<path d="
M 206.00 153.00 
C 204.47 157.58 203.28 163.16 203.00 168.00
C 202.89 169.97 202.94 172.02 203.00 174.00
C 204.28 184.31 206.05 194.96 207.00 205.00
C 210.68 199.70 210.76 193.48 217.33 195.67 C 223.90 197.86 227.78 197.53 232.00 203.00
C 230.98 206.83 227.55 211.07 230.00 215.00
C 231.29 214.15 232.83 213.08 234.00 212.00
C 242.24 202.36 253.05 196.80 259.00 186.00
C 264.47 176.07 266.07 165.36 261.99 155.01 C 257.91 144.66 249.94 142.09 240.00 138.00
C 235.59 136.18 229.02 134.98 224.00 136.00
C 216.88 138.01 208.87 146.36 206.00 153.00 Z"/>
</g>
<g fill="#C1A28E" fill-opacity="1.00" stroke="None">
<path d="
M 197.00 175.00 
C 198.51 174.89 202.01 175.61 203.00 174.00
C 202.94 172.02 202.89 169.97 203.00 168.00
C 200.94 169.07 202.47 172.12 202.00 174.00
C 200.21 173.15 198.13 174.78 197.00 175.00 Z"/>
</g>
<g fill="#BA9C89" fill-opacity="1.00" stroke="None">
<path d="
M 201.00 212.00 
C 201.54 216.42 208.92 218.08 212.69 220.31 C 216.47 222.53 224.14 224.63 229.00 224.00
C 229.17 223.04 228.90 221.97 229.00 221.00
C 227.27 216.02 219.04 218.24 215.22 215.78 C 211.41 213.32 205.48 212.22 201.00 211.00
C 201.00 211.00 200.94 211.51 201.00 212.00 Z"/>
</g>
<g fill="#B3A7AB" fill-opacity="1.00" stroke="None">
<path d="
M 229.00 224.00 
C 224.14 224.63 216.47 222.53 212.69 220.31 C 208.92 218.08 201.54 216.42 201.00 212.00
C 197.70 218.30 191.76 229.84 194.23 236.77 C 196.70 243.70 212.03 248.68 217.92 245.92 C 223.82 243.17 227.86 230.28 229.00 224.00 Z"/>
</g>
<g fill="#ACACAC" fill-opacity="0.25" stroke="None">
<path d="
M 0.00 300.00 
L 5.00 300.00
C 3.91 298.00 1.93 296.26 0.00 295.00
L 0.00 300.00 Z"/>
</g>
</svg>