<svg xmlns="http://www.w3.org/2000/svg" xmlns:v="https://svgstorm.com"
viewBox = "0 0 330 300">
<g fill="None" fill-opacity="0.0" stroke="#E5E5E5" stroke-opacity="1.00" stroke-width="0.3"><path d="
M 0.00 300.00 
L 330.00 300.00
L 330.00 0.00
L 0.00 0.00
L 0.00 300.00
M 275.00 151.00 
C 275.00 166.33 275.00 181.67 275.00 197.00
C 275.00 223.67 275.00 250.33 275.00 277.00
C 263.67 277.00 252.33 277.00 241.00 277.00
C 230.00 277.00 219.00 277.00 208.00 277.00
C 181.98 277.00 156.82 277.00 131.00 277.00
C 113.33 277.00 95.67 277.00 78.00 277.00
C 65.32 277.00 56.02 276.20 43.00 277.00 C 29.98 277.80 33.71 261.79 33.00 251.00 C 32.29 240.21 31.00 230.28 31.00 219.00 C 31.00 207.72 30.80 195.14 30.02 183.98 C 29.25 172.81 29.78 164.31 29.02 153.97 C 28.27 143.64 28.58 128.84 29.00 118.00 C 29.42 107.16 29.98 97.02 29.00 86.00 C 28.02 74.98 27.85 63.43 26.22 52.78 C 24.59 42.13 24.44 31.83 25.00 22.00
C 107.83 19.68 191.75 21.66 275.00 21.00
C 275.00 64.33 275.00 107.67 275.00 151.00 Z"/>
</g>
<g fill="None" fill-opacity="0.0" stroke="#CBC8BC" stroke-opacity="1.00" stroke-width="0.3"><path d="
M 78.00 277.00 
C 76.97 267.04 77.15 253.94 87.23 249.23 C 97.31 244.52 107.70 250.63 111.00 260.00
C 121.49 257.47 133.02 265.75 131.00 277.00
C 156.82 277.00 181.98 277.00 208.00 277.00
C 203.65 252.14 244.95 252.40 241.00 277.00
C 252.33 277.00 263.67 277.00 275.00 277.00
C 275.00 250.33 275.00 223.67 275.00 197.00
C 274.52 197.75 272.80 198.07 272.00 198.00
C 279.98 212.48 259.88 230.44 251.00 214.00
C 245.94 228.31 231.45 213.53 222.98 217.98 C 214.51 222.43 204.15 226.90 196.00 218.00
C 194.57 220.91 190.39 221.08 189.00 224.00
C 191.85 222.90 194.11 220.70 197.00 220.00
C 196.47 229.54 194.23 239.65 183.75 245.75 C 173.28 251.86 170.58 264.74 173.00 277.00
C 165.33 277.00 157.67 277.00 150.00 277.00
C 150.32 265.96 153.18 253.23 143.75 246.25 C 134.32 239.26 129.20 231.94 129.07 220.93 C 128.94 209.91 122.94 202.64 113.75 197.25 C 104.57 191.85 102.88 181.99 94.00 177.00
C 87.24 183.90 78.29 179.82 70.98 176.02 C 63.66 172.23 50.77 171.52 50.22 162.78 C 49.67 154.03 41.40 144.12 45.26 136.26 C 49.11 128.40 57.20 126.82 61.75 118.75 C 66.31 110.68 74.56 106.98 83.00 113.00
C 84.70 99.78 85.43 86.62 97.08 80.08 C 108.72 73.54 114.89 69.67 125.75 61.75 C 136.60 53.82 144.67 64.76 155.00 70.00
C 156.37 66.24 157.79 61.56 161.00 59.00
C 167.11 56.63 175.66 60.78 182.00 59.00 C 188.34 57.22 192.65 62.58 196.00 67.00
C 203.37 58.67 208.99 51.49 221.01 55.99 C 233.02 60.50 243.69 59.47 256.00 62.00
C 258.85 73.86 261.72 85.72 263.00 98.00
C 264.37 106.11 263.84 112.91 257.23 119.23 C 250.62 125.54 250.63 131.11 244.25 137.25 C 237.87 143.39 226.10 137.20 219.00 136.00
C 216.07 135.77 213.73 135.88 211.00 135.00
C 213.39 138.41 212.95 150.64 215.32 153.68 C 217.69 156.71 221.38 170.29 217.00 171.00
C 226.14 178.21 235.22 165.57 243.00 178.00
C 242.12 176.24 241.41 173.66 239.00 173.00
C 241.68 165.53 245.76 162.31 250.30 155.30 C 254.85 148.30 267.57 151.70 275.00 151.00
C 275.00 107.67 275.00 64.33 275.00 21.00
C 191.75 21.66 107.83 19.68 25.00 22.00
C 24.44 31.83 24.59 42.13 26.22 52.78 C 27.85 63.43 28.02 74.98 29.00 86.00 C 29.98 97.02 29.42 107.16 29.00 118.00 C 28.58 128.84 28.27 143.64 29.02 153.97 C 29.78 164.31 29.25 172.81 30.02 183.98 C 30.80 195.14 31.00 207.72 31.00 219.00 C 31.00 230.28 32.29 240.21 33.00 251.00 C 33.71 261.79 29.98 277.80 43.00 277.00 C 56.02 276.20 65.32 277.00 78.00 277.00 Z"/>
</g>
<g fill="None" fill-opacity="0.0" stroke="#C7D874" stroke-opacity="1.00" stroke-width="0.3"><path d="
M 161.00 59.00 
C 161.36 64.92 165.55 69.81 165.00 76.00
C 177.21 79.21 190.60 95.58 202.00 85.00
C 201.76 87.79 201.46 89.32 201.00 92.00
C 202.91 100.35 213.84 107.29 218.00 115.00
C 233.10 110.63 247.95 105.54 263.00 101.00
C 262.97 100.01 262.97 98.99 263.00 98.00
C 261.72 85.72 258.85 73.86 256.00 62.00
C 243.69 59.47 233.02 60.50 221.01 55.99 C 208.99 51.49 203.37 58.67 196.00 67.00
C 192.65 62.58 188.34 57.22 182.00 59.00 C 175.66 60.78 167.11 56.63 161.00 59.00 Z"/>
</g>
<g fill="None" fill-opacity="0.0" stroke="#BBD685" stroke-opacity="1.00" stroke-width="0.3"><path d="
M 94.00 177.00 
C 95.03 175.95 95.90 174.93 97.00 174.00
C 97.26 173.78 97.88 173.26 98.00 173.00
C 99.49 169.83 103.22 164.58 106.75 162.75 C 110.28 160.92 115.96 167.32 120.00 168.00
C 120.96 168.16 122.70 166.03 124.00 167.00
C 124.76 169.29 124.81 171.81 126.00 174.00
C 127.49 175.25 128.78 175.18 130.00 174.00
C 129.33 170.60 129.78 169.59 131.75 166.75 C 133.73 163.92 138.07 168.00 139.00 168.00
C 146.28 168.00 152.10 157.39 159.00 156.00
C 158.82 161.02 157.39 165.77 158.00 171.00
C 166.48 165.86 175.30 163.31 186.00 165.00
C 186.82 159.78 193.88 159.69 197.00 157.00
C 199.54 150.29 179.01 143.01 175.00 144.00
C 177.09 132.29 180.46 120.89 182.00 109.00
C 189.73 106.41 188.11 113.09 191.00 117.00
C 190.65 114.49 190.12 110.95 189.00 109.00
C 196.39 107.29 195.61 96.54 201.00 92.00
C 201.46 89.32 201.76 87.79 202.00 85.00
C 190.60 95.58 177.21 79.21 165.00 76.00
C 165.55 69.81 161.36 64.92 161.00 59.00
C 157.79 61.56 156.37 66.24 155.00 70.00
C 144.67 64.76 136.60 53.82 125.75 61.75 C 114.89 69.67 108.72 73.54 97.08 80.08 C 85.43 86.62 84.70 99.78 83.00 113.00
C 74.56 106.98 66.31 110.68 61.75 118.75 C 57.20 126.82 49.11 128.40 45.26 136.26 C 41.40 144.12 49.67 154.03 50.22 162.78 C 50.77 171.52 63.66 172.23 70.98 176.02 C 78.29 179.82 87.24 183.90 94.00 177.00 Z"/>
</g>
<g fill="None" fill-opacity="0.0" stroke="#A1C160" stroke-opacity="1.00" stroke-width="0.3"><path d="
M 191.00 117.00 
C 191.13 117.95 191.00 119.04 191.00 120.00
C 191.48 122.65 192.39 127.51 193.78 130.22 C 195.17 132.93 202.14 131.08 204.00 133.00
C 206.92 133.47 208.68 134.26 211.00 135.00
C 213.73 135.88 216.07 135.77 219.00 136.00
C 231.42 136.99 242.86 142.04 248.92 128.92 C 254.98 115.79 263.48 115.20 263.00 101.00
C 247.95 105.54 233.10 110.63 218.00 115.00
C 213.84 107.29 202.91 100.35 201.00 92.00
C 195.61 96.54 196.39 107.29 189.00 109.00
C 190.12 110.95 190.65 114.49 191.00 117.00 Z"/>
</g>
<g fill="None" fill-opacity="0.0" stroke="#B8C397" stroke-opacity="1.00" stroke-width="0.3"><path d="
M 263.00 101.00 
C 263.48 115.20 254.98 115.79 248.92 128.92 C 242.86 142.04 231.42 136.99 219.00 136.00
C 226.10 137.20 237.87 143.39 244.25 137.25 C 250.63 131.11 250.62 125.54 257.23 119.23 C 263.84 112.91 264.37 106.11 263.00 98.00
C 262.97 98.99 262.97 100.01 263.00 101.00 Z"/>
</g>
<g fill="None" fill-opacity="0.0" stroke="#C9C7B7" stroke-opacity="1.00" stroke-width="0.3"><path d="
M 197.00 157.00 
C 201.28 156.11 204.98 157.21 208.00 160.00
C 205.36 152.76 204.19 141.95 204.00 134.00
C 200.28 132.11 195.64 133.22 192.00 131.00
C 192.71 127.06 190.51 123.90 191.00 120.00
C 191.00 119.04 191.13 117.95 191.00 117.00
C 188.11 113.09 189.73 106.41 182.00 109.00
C 180.46 120.89 177.09 132.29 175.00 144.00
C 179.01 143.01 199.54 150.29 197.00 157.00 Z"/>
</g>
<g fill="None" fill-opacity="0.0" stroke="#B4C094" stroke-opacity="1.00" stroke-width="0.3"><path d="
M 204.00 134.00 
C 203.99 133.50 204.00 133.00 204.00 133.00
C 202.14 131.08 195.17 132.93 193.78 130.22 C 192.39 127.51 191.48 122.65 191.00 120.00
C 190.51 123.90 192.71 127.06 192.00 131.00
C 195.64 133.22 200.28 132.11 204.00 134.00 Z"/>
</g>
<g fill="None" fill-opacity="0.0" stroke="#B38F5F" stroke-opacity="1.00" stroke-width="0.3"><path d="
M 204.00 134.00 
C 204.19 141.95 205.36 152.76 208.00 160.00
C 211.57 163.30 214.17 168.77 217.00 171.00
C 221.38 170.29 217.69 156.71 215.32 153.68 C 212.95 150.64 213.39 138.41 211.00 135.00
C 208.68 134.26 206.92 133.47 204.00 133.00
C 204.00 133.00 203.99 133.50 204.00 134.00 Z"/>
</g>
<g fill="None" fill-opacity="0.0" stroke="#ABC76D" stroke-opacity="1.00" stroke-width="0.3"><path d="
M 243.00 178.00 
C 243.53 179.07 242.59 180.87 243.00 182.00
C 249.29 181.67 252.24 187.36 256.25 190.75 C 260.27 194.14 268.77 192.28 272.00 198.00
C 272.80 198.07 274.52 197.75 275.00 197.00
C 275.00 181.67 275.00 166.33 275.00 151.00
C 267.57 151.70 254.85 148.30 250.30 155.30 C 245.76 162.31 241.68 165.53 239.00 173.00
C 241.41 173.66 242.12 176.24 243.00 178.00 Z"/>
</g>
<g fill="None" fill-opacity="0.0" stroke="#CCC9BD" stroke-opacity="1.00" stroke-width="0.3"><path d="
M 139.00 168.00 
C 137.23 171.80 140.66 181.60 140.00 186.00 C 139.34 190.40 135.95 198.93 138.00 203.00 C 140.05 207.07 145.22 208.07 146.75 213.25 C 148.29 218.42 159.26 210.16 160.00 218.00
C 153.09 218.81 142.63 227.02 147.75 233.25 C 152.87 239.47 162.47 246.88 170.22 242.22 C 177.97 237.56 181.52 231.84 186.00 225.00
C 171.09 230.64 160.40 216.99 151.23 206.77 C 142.06 196.55 146.43 178.01 158.00 171.00
C 157.39 165.77 158.82 161.02 159.00 156.00
C 152.10 157.39 146.28 168.00 139.00 168.00 Z"/>
</g>
<g fill="None" fill-opacity="0.0" stroke="#E7E6E5" stroke-opacity="1.00" stroke-width="0.3"><path d="
M 158.00 171.00 
C 146.43 178.01 142.06 196.55 151.23 206.77 C 160.40 216.99 171.09 230.64 186.00 225.00
C 187.00 224.62 188.03 224.37 189.00 224.00
C 190.39 221.08 194.57 220.91 196.00 218.00
C 204.15 226.90 214.51 222.43 222.98 217.98 C 231.45 213.53 245.94 228.31 251.00 214.00
C 259.88 230.44 279.98 212.48 272.00 198.00
C 268.77 192.28 260.27 194.14 256.25 190.75 C 252.24 187.36 249.29 181.67 243.00 182.00
C 242.59 180.87 243.53 179.07 243.00 178.00
C 235.22 165.57 226.14 178.21 217.00 171.00
C 214.17 168.77 211.57 163.30 208.00 160.00
C 204.98 157.21 201.28 156.11 197.00 157.00
C 193.88 159.69 186.82 159.78 186.00 165.00
C 175.30 163.31 166.48 165.86 158.00 171.00 Z"/>
</g>
<g fill="None" fill-opacity="0.0" stroke="#CBC7B9" stroke-opacity="1.00" stroke-width="0.3"><path d="
M 98.00 173.00 
C 105.95 172.55 111.33 187.72 116.00 192.00
C 119.27 194.13 123.50 196.20 127.00 198.00
C 127.99 187.07 121.10 178.43 120.00 168.00
C 115.96 167.32 110.28 160.92 106.75 162.75 C 103.22 164.58 99.49 169.83 98.00 173.00 Z"/>
</g>
<g fill="None" fill-opacity="0.0" stroke="#AA9E60" stroke-opacity="1.00" stroke-width="0.3"><path d="
M 130.00 174.00 
C 130.26 173.75 131.00 174.00 131.00 174.00
C 131.13 170.56 134.06 161.98 139.00 168.00
C 138.07 168.00 133.73 163.92 131.75 166.75 C 129.78 169.59 129.33 170.60 130.00 174.00 Z"/>
</g>
<g fill="None" fill-opacity="0.0" stroke="#C29D7A" stroke-opacity="1.00" stroke-width="0.3"><path d="
M 120.00 168.00 
C 121.10 178.43 127.99 187.07 127.00 198.00
C 123.50 196.20 119.27 194.13 116.00 192.00
C 112.53 189.74 109.24 186.40 107.25 182.75 C 105.25 179.10 98.84 177.10 97.00 174.00
C 95.90 174.93 95.03 175.95 94.00 177.00
C 102.88 181.99 104.57 191.85 113.75 197.25 C 122.94 202.64 128.94 209.91 129.07 220.93 C 129.20 231.94 134.32 239.26 143.75 246.25 C 153.18 253.23 150.32 265.96 150.00 277.00
C 157.67 277.00 165.33 277.00 173.00 277.00
C 170.58 264.74 173.28 251.86 183.75 245.75 C 194.23 239.65 196.47 229.54 197.00 220.00
C 194.11 220.70 191.85 222.90 189.00 224.00
C 188.03 224.37 187.00 224.62 186.00 225.00
C 181.52 231.84 177.97 237.56 170.22 242.22 C 162.47 246.88 152.87 239.47 147.75 233.25 C 142.63 227.02 153.09 218.81 160.00 218.00
C 159.26 210.16 148.29 218.42 146.75 213.25 C 145.22 208.07 140.05 207.07 138.00 203.00 C 135.95 198.93 139.34 190.40 140.00 186.00 C 140.66 181.60 137.23 171.80 139.00 168.00
C 134.06 161.98 131.13 170.56 131.00 174.00
C 130.87 177.33 131.10 180.67 131.00 184.00
C 127.80 181.81 127.00 177.51 126.00 174.00
C 124.81 171.81 124.76 169.29 124.00 167.00
C 122.70 166.03 120.96 168.16 120.00 168.00 Z"/>
</g>
<g fill="None" fill-opacity="0.0" stroke="#A18659" stroke-opacity="1.00" stroke-width="0.3"><path d="
M 97.00 174.00 
C 98.84 177.10 105.25 179.10 107.25 182.75 C 109.24 186.40 112.53 189.74 116.00 192.00
C 111.33 187.72 105.95 172.55 98.00 173.00
C 97.88 173.26 97.26 173.78 97.00 174.00 Z"/>
</g>
<g fill="None" fill-opacity="0.0" stroke="#CCC3B2" stroke-opacity="1.00" stroke-width="0.3"><path d="
M 131.00 174.00 
C 131.00 174.00 130.26 173.75 130.00 174.00
C 128.78 175.18 127.49 175.25 126.00 174.00
C 127.00 177.51 127.80 181.81 131.00 184.00
C 131.10 180.67 130.87 177.33 131.00 174.00 Z"/>
</g>
<g fill="None" fill-opacity="0.0" stroke="#BBD88A" stroke-opacity="1.00" stroke-width="0.3"><path d="
M 78.00 277.00 
C 95.67 277.00 113.33 277.00 131.00 277.00
C 133.02 265.75 121.49 257.47 111.00 260.00
C 107.70 250.63 97.31 244.52 87.23 249.23 C 77.15 253.94 76.97 267.04 78.00 277.00 Z"/>
</g>
<g fill="None" fill-opacity="0.0" stroke="#ADC973" stroke-opacity="1.00" stroke-width="0.3"><path d="
M 208.00 277.00 
C 219.00 277.00 230.00 277.00 241.00 277.00
C 244.95 252.40 203.65 252.14 208.00 277.00 Z"/>
</g>
<g fill="#E5E5E5" fill-opacity="1.00" stroke="None">
<path d="
M 0.00 300.00 
L 330.00 300.00
L 330.00 0.00
L 0.00 0.00
L 0.00 300.00
M 275.00 151.00 
C 275.00 166.33 275.00 181.67 275.00 197.00
C 275.00 223.67 275.00 250.33 275.00 277.00
C 263.67 277.00 252.33 277.00 241.00 277.00
C 230.00 277.00 219.00 277.00 208.00 277.00
C 181.98 277.00 156.82 277.00 131.00 277.00
C 113.33 277.00 95.67 277.00 78.00 277.00
C 65.32 277.00 56.02 276.20 43.00 277.00 C 29.98 277.80 33.71 261.79 33.00 251.00 C 32.29 240.21 31.00 230.28 31.00 219.00 C 31.00 207.72 30.80 195.14 30.02 183.98 C 29.25 172.81 29.78 164.31 29.02 153.97 C 28.27 143.64 28.58 128.84 29.00 118.00 C 29.42 107.16 29.98 97.02 29.00 86.00 C 28.02 74.98 27.85 63.43 26.22 52.78 C 24.59 42.13 24.44 31.83 25.00 22.00
C 107.83 19.68 191.75 21.66 275.00 21.00
C 275.00 64.33 275.00 107.67 275.00 151.00 Z"/>
</g>
<g fill="#CBC8BC" fill-opacity="1.00" stroke="None">
<path d="
M 78.00 277.00 
C 76.97 267.04 77.15 253.94 87.23 249.23 C 97.31 244.52 107.70 250.63 111.00 260.00
C 121.49 257.47 133.02 265.75 131.00 277.00
C 156.82 277.00 181.98 277.00 208.00 277.00
C 203.65 252.14 244.95 252.40 241.00 277.00
C 252.33 277.00 263.67 277.00 275.00 277.00
C 275.00 250.33 275.00 223.67 275.00 197.00
C 274.52 197.75 272.80 198.07 272.00 198.00
C 279.98 212.48 259.88 230.44 251.00 214.00
C 245.94 228.31 231.45 213.53 222.98 217.98 C 214.51 222.43 204.15 226.90 196.00 218.00
C 194.57 220.91 190.39 221.08 189.00 224.00
C 191.85 222.90 194.11 220.70 197.00 220.00
C 196.47 229.54 194.23 239.65 183.75 245.75 C 173.28 251.86 170.58 264.74 173.00 277.00
C 165.33 277.00 157.67 277.00 150.00 277.00
C 150.32 265.96 153.18 253.23 143.75 246.25 C 134.32 239.26 129.20 231.94 129.07 220.93 C 128.94 209.91 122.94 202.64 113.75 197.25 C 104.57 191.85 102.88 181.99 94.00 177.00
C 87.24 183.90 78.29 179.82 70.98 176.02 C 63.66 172.23 50.77 171.52 50.22 162.78 C 49.67 154.03 41.40 144.12 45.26 136.26 C 49.11 128.40 57.20 126.82 61.75 118.75 C 66.31 110.68 74.56 106.98 83.00 113.00
C 84.70 99.78 85.43 86.62 97.08 80.08 C 108.72 73.54 114.89 69.67 125.75 61.75 C 136.60 53.82 144.67 64.76 155.00 70.00
C 156.37 66.24 157.79 61.56 161.00 59.00
C 167.11 56.63 175.66 60.78 182.00 59.00 C 188.34 57.22 192.65 62.58 196.00 67.00
C 203.37 58.67 208.99 51.49 221.01 55.99 C 233.02 60.50 243.69 59.47 256.00 62.00
C 258.85 73.86 261.72 85.72 263.00 98.00
C 264.37 106.11 263.84 112.91 257.23 119.23 C 250.62 125.54 250.63 131.11 244.25 137.25 C 237.87 143.39 226.10 137.20 219.00 136.00
C 216.07 135.77 213.73 135.88 211.00 135.00
C 213.39 138.41 212.95 150.64 215.32 153.68 C 217.69 156.71 221.38 170.29 217.00 171.00
C 226.14 178.21 235.22 165.57 243.00 178.00
C 242.12 176.24 241.41 173.66 239.00 173.00
C 241.68 165.53 245.76 162.31 250.30 155.30 C 254.85 148.30 267.57 151.70 275.00 151.00
C 275.00 107.67 275.00 64.33 275.00 21.00
C 191.75 21.66 107.83 19.68 25.00 22.00
C 24.44 31.83 24.59 42.13 26.22 52.78 C 27.85 63.43 28.02 74.98 29.00 86.00 C 29.98 97.02 29.42 107.16 29.00 118.00 C 28.58 128.84 28.27 143.64 29.02 153.97 C 29.78 164.31 29.25 172.81 30.02 183.98 C 30.80 195.14 31.00 207.72 31.00 219.00 C 31.00 230.28 32.29 240.21 33.00 251.00 C 33.71 261.79 29.98 277.80 43.00 277.00 C 56.02 276.20 65.32 277.00 78.00 277.00 Z"/>
</g>
<g fill="#C7D874" fill-opacity="1.00" stroke="None">
<path d="
M 161.00 59.00 
C 161.36 64.92 165.55 69.81 165.00 76.00
C 177.21 79.21 190.60 95.58 202.00 85.00
C 201.76 87.79 201.46 89.32 201.00 92.00
C 202.91 100.35 213.84 107.29 218.00 115.00
C 233.10 110.63 247.95 105.54 263.00 101.00
C 262.97 100.01 262.97 98.99 263.00 98.00
C 261.72 85.72 258.85 73.86 256.00 62.00
C 243.69 59.47 233.02 60.50 221.01 55.99 C 208.99 51.49 203.37 58.67 196.00 67.00
C 192.65 62.58 188.34 57.22 182.00 59.00 C 175.66 60.78 167.11 56.63 161.00 59.00 Z"/>
</g>
<g fill="#BBD685" fill-opacity="1.00" stroke="None">
<path d="
M 94.00 177.00 
C 95.03 175.95 95.90 174.93 97.00 174.00
C 97.26 173.78 97.88 173.26 98.00 173.00
C 99.49 169.83 103.22 164.58 106.75 162.75 C 110.28 160.92 115.96 167.32 120.00 168.00
C 120.96 168.16 122.70 166.03 124.00 167.00
C 124.76 169.29 124.81 171.81 126.00 174.00
C 127.49 175.25 128.78 175.18 130.00 174.00
C 129.33 170.60 129.78 169.59 131.75 166.75 C 133.73 163.92 138.07 168.00 139.00 168.00
C 146.28 168.00 152.10 157.39 159.00 156.00
C 158.82 161.02 157.39 165.77 158.00 171.00
C 166.48 165.86 175.30 163.31 186.00 165.00
C 186.82 159.78 193.88 159.69 197.00 157.00
C 199.54 150.29 179.01 143.01 175.00 144.00
C 177.09 132.29 180.46 120.89 182.00 109.00
C 189.73 106.41 188.11 113.09 191.00 117.00
C 190.65 114.49 190.12 110.95 189.00 109.00
C 196.39 107.29 195.61 96.54 201.00 92.00
C 201.46 89.32 201.76 87.79 202.00 85.00
C 190.60 95.58 177.21 79.21 165.00 76.00
C 165.55 69.81 161.36 64.92 161.00 59.00
C 157.79 61.56 156.37 66.24 155.00 70.00
C 144.67 64.76 136.60 53.82 125.75 61.75 C 114.89 69.67 108.72 73.54 97.08 80.08 C 85.43 86.62 84.70 99.78 83.00 113.00
C 74.56 106.98 66.31 110.68 61.75 118.75 C 57.20 126.82 49.11 128.40 45.26 136.26 C 41.40 144.12 49.67 154.03 50.22 162.78 C 50.77 171.52 63.66 172.23 70.98 176.02 C 78.29 179.82 87.24 183.90 94.00 177.00 Z"/>
</g>
<g fill="#A1C160" fill-opacity="1.00" stroke="None">
<path d="
M 191.00 117.00 
C 191.13 117.95 191.00 119.04 191.00 120.00
C 191.48 122.65 192.39 127.51 193.78 130.22 C 195.17 132.93 202.14 131.08 204.00 133.00
C 206.92 133.47 208.68 134.26 211.00 135.00
C 213.73 135.88 216.07 135.77 219.00 136.00
C 231.42 136.99 242.86 142.04 248.92 128.92 C 254.98 115.79 263.48 115.20 263.00 101.00
C 247.95 105.54 233.10 110.63 218.00 115.00
C 213.84 107.29 202.91 100.35 201.00 92.00
C 195.61 96.54 196.39 107.29 189.00 109.00
C 190.12 110.95 190.65 114.49 191.00 117.00 Z"/>
</g>
<g fill="#B8C397" fill-opacity="1.00" stroke="None">
<path d="
M 263.00 101.00 
C 263.48 115.20 254.98 115.79 248.92 128.92 C 242.86 142.04 231.42 136.99 219.00 136.00
C 226.10 137.20 237.87 143.39 244.25 137.25 C 250.63 131.11 250.62 125.54 257.23 119.23 C 263.84 112.91 264.37 106.11 263.00 98.00
C 262.97 98.99 262.97 100.01 263.00 101.00 Z"/>
</g>
<g fill="#C9C7B7" fill-opacity="1.00" stroke="None">
<path d="
M 197.00 157.00 
C 201.28 156.11 204.98 157.21 208.00 160.00
C 205.36 152.76 204.19 141.95 204.00 134.00
C 200.28 132.11 195.64 133.22 192.00 131.00
C 192.71 127.06 190.51 123.90 191.00 120.00
C 191.00 119.04 191.13 117.95 191.00 117.00
C 188.11 113.09 189.73 106.41 182.00 109.00
C 180.46 120.89 177.09 132.29 175.00 144.00
C 179.01 143.01 199.54 150.29 197.00 157.00 Z"/>
</g>
<g fill="#B4C094" fill-opacity="1.00" stroke="None">
<path d="
M 204.00 134.00 
C 203.99 133.50 204.00 133.00 204.00 133.00
C 202.14 131.08 195.17 132.93 193.78 130.22 C 192.39 127.51 191.48 122.65 191.00 120.00
C 190.51 123.90 192.71 127.06 192.00 131.00
C 195.64 133.22 200.28 132.11 204.00 134.00 Z"/>
</g>
<g fill="#B38F5F" fill-opacity="1.00" stroke="None">
<path d="
M 204.00 134.00 
C 204.19 141.95 205.36 152.76 208.00 160.00
C 211.57 163.30 214.17 168.77 217.00 171.00
C 221.38 170.29 217.69 156.71 215.32 153.68 C 212.95 150.64 213.39 138.41 211.00 135.00
C 208.68 134.26 206.92 133.47 204.00 133.00
C 204.00 133.00 203.99 133.50 204.00 134.00 Z"/>
</g>
<g fill="#ABC76D" fill-opacity="1.00" stroke="None">
<path d="
M 243.00 178.00 
C 243.53 179.07 242.59 180.87 243.00 182.00
C 249.29 181.67 252.24 187.36 256.25 190.75 C 260.27 194.14 268.77 192.28 272.00 198.00
C 272.80 198.07 274.52 197.75 275.00 197.00
C 275.00 181.67 275.00 166.33 275.00 151.00
C 267.57 151.70 254.85 148.30 250.30 155.30 C 245.76 162.31 241.68 165.53 239.00 173.00
C 241.41 173.66 242.12 176.24 243.00 178.00 Z"/>
</g>
<g fill="#CCC9BD" fill-opacity="1.00" stroke="None">
<path d="
M 139.00 168.00 
C 137.23 171.80 140.66 181.60 140.00 186.00 C 139.34 190.40 135.95 198.93 138.00 203.00 C 140.05 207.07 145.22 208.07 146.75 213.25 C 148.29 218.42 159.26 210.16 160.00 218.00
C 153.09 218.81 142.63 227.02 147.75 233.25 C 152.87 239.47 162.47 246.88 170.22 242.22 C 177.97 237.56 181.52 231.84 186.00 225.00
C 171.09 230.64 160.40 216.99 151.23 206.77 C 142.06 196.55 146.43 178.01 158.00 171.00
C 157.39 165.77 158.82 161.02 159.00 156.00
C 152.10 157.39 146.28 168.00 139.00 168.00 Z"/>
</g>
<g fill="#E7E6E5" fill-opacity="1.00" stroke="None">
<path d="
M 158.00 171.00 
C 146.43 178.01 142.06 196.55 151.23 206.77 C 160.40 216.99 171.09 230.64 186.00 225.00
C 187.00 224.62 188.03 224.37 189.00 224.00
C 190.39 221.08 194.57 220.91 196.00 218.00
C 204.15 226.90 214.51 222.43 222.98 217.98 C 231.45 213.53 245.94 228.31 251.00 214.00
C 259.88 230.44 279.98 212.48 272.00 198.00
C 268.77 192.28 260.27 194.14 256.25 190.75 C 252.24 187.36 249.29 181.67 243.00 182.00
C 242.59 180.87 243.53 179.07 243.00 178.00
C 235.22 165.57 226.14 178.21 217.00 171.00
C 214.17 168.77 211.57 163.30 208.00 160.00
C 204.98 157.21 201.28 156.11 197.00 157.00
C 193.88 159.69 186.82 159.78 186.00 165.00
C 175.30 163.31 166.48 165.86 158.00 171.00 Z"/>
</g>
<g fill="#CBC7B9" fill-opacity="1.00" stroke="None">
<path d="
M 98.00 173.00 
C 105.95 172.55 111.33 187.72 116.00 192.00
C 119.27 194.13 123.50 196.20 127.00 198.00
C 127.99 187.07 121.10 178.43 120.00 168.00
C 115.96 167.32 110.28 160.92 106.75 162.75 C 103.22 164.58 99.49 169.83 98.00 173.00 Z"/>
</g>
<g fill="#AA9E60" fill-opacity="1.00" stroke="None">
<path d="
M 130.00 174.00 
C 130.26 173.75 131.00 174.00 131.00 174.00
C 131.13 170.56 134.06 161.98 139.00 168.00
C 138.07 168.00 133.73 163.92 131.75 166.75 C 129.78 169.59 129.33 170.60 130.00 174.00 Z"/>
</g>
<g fill="#C29D7A" fill-opacity="1.00" stroke="None">
<path d="
M 120.00 168.00 
C 121.10 178.43 127.99 187.07 127.00 198.00
C 123.50 196.20 119.27 194.13 116.00 192.00
C 112.53 189.74 109.24 186.40 107.25 182.75 C 105.25 179.10 98.84 177.10 97.00 174.00
C 95.90 174.93 95.03 175.95 94.00 177.00
C 102.88 181.99 104.57 191.85 113.75 197.25 C 122.94 202.64 128.94 209.91 129.07 220.93 C 129.20 231.94 134.32 239.26 143.75 246.25 C 153.18 253.23 150.32 265.96 150.00 277.00
C 157.67 277.00 165.33 277.00 173.00 277.00
C 170.58 264.74 173.28 251.86 183.75 245.75 C 194.23 239.65 196.47 229.54 197.00 220.00
C 194.11 220.70 191.85 222.90 189.00 224.00
C 188.03 224.37 187.00 224.62 186.00 225.00
C 181.52 231.84 177.97 237.56 170.22 242.22 C 162.47 246.88 152.87 239.47 147.75 233.25 C 142.63 227.02 153.09 218.81 160.00 218.00
C 159.26 210.16 148.29 218.42 146.75 213.25 C 145.22 208.07 140.05 207.07 138.00 203.00 C 135.95 198.93 139.34 190.40 140.00 186.00 C 140.66 181.60 137.23 171.80 139.00 168.00
C 134.06 161.98 131.13 170.56 131.00 174.00
C 130.87 177.33 131.10 180.67 131.00 184.00
C 127.80 181.81 127.00 177.51 126.00 174.00
C 124.81 171.81 124.76 169.29 124.00 167.00
C 122.70 166.03 120.96 168.16 120.00 168.00 Z"/>
</g>
<g fill="#A18659" fill-opacity="1.00" stroke="None">
<path d="
M 97.00 174.00 
C 98.84 177.10 105.25 179.10 107.25 182.75 C 109.24 186.40 112.53 189.74 116.00 192.00
C 111.33 187.72 105.95 172.55 98.00 173.00
C 97.88 173.26 97.26 173.78 97.00 174.00 Z"/>
</g>
<g fill="#CCC3B2" fill-opacity="1.00" stroke="None">
<path d="
M 131.00 174.00 
C 131.00 174.00 130.26 173.75 130.00 174.00
C 128.78 175.18 127.49 175.25 126.00 174.00
C 127.00 177.51 127.80 181.81 131.00 184.00
C 131.10 180.67 130.87 177.33 131.00 174.00 Z"/>
</g>
<g fill="#BBD88A" fill-opacity="1.00" stroke="None">
<path d="
M 78.00 277.00 
C 95.67 277.00 113.33 277.00 131.00 277.00
C 133.02 265.75 121.49 257.47 111.00 260.00
C 107.70 250.63 97.31 244.52 87.23 249.23 C 77.15 253.94 76.97 267.04 78.00 277.00 Z"/>
</g>
<g fill="#ADC973" fill-opacity="1.00" stroke="None">
<path d="
M 208.00 277.00 
C 219.00 277.00 230.00 277.00 241.00 277.00
C 244.95 252.40 203.65 252.14 208.00 277.00 Z"/>
</g>
</svg>