<svg xmlns="http://www.w3.org/2000/svg" xmlns:v="https://svgstorm.com"
viewBox = "0 0 297 300"
width="297"
height="300">
<g fill="None" fill-opacity="0.0" stroke="#9A8DC1" stroke-opacity="0.39" stroke-width="0.3"><path d="
M 0.00 4.00 
C 1.57 3.04 3.25 1.68 4.00 0.00
L 0.00 0.00
L 0.00 4.00 Z"/>
</g>
<g fill="None" fill-opacity="0.0" stroke="#A993DC" stroke-opacity="1.00" stroke-width="0.3"><path d="
M 0.00 4.00 
L 0.00 300.00
L 297.00 300.00
L 297.00 6.00
C 289.69 7.72 293.84 18.28 293.00 25.00 C 292.16 31.72 293.63 41.05 293.00 48.00
C 288.27 48.62 288.07 52.75 286.00 55.00
C 283.93 42.76 285.48 28.21 285.00 15.00
C 199.94 14.90 114.71 15.51 30.00 14.00
C 33.20 10.02 23.27 6.09 21.00 10.00
C 20.48 2.46 1.16 12.81 5.00 0.00
L 4.00 0.00
C 3.25 1.68 1.57 3.04 0.00 4.00
M 245.00 278.00 
C 243.72 277.83 242.29 278.00 241.00 278.00
C 228.33 278.00 215.67 278.00 203.00 278.00
C 201.03 278.00 198.96 277.82 197.00 278.00
C 166.05 280.85 132.84 275.67 103.00 283.00
C 98.42 274.68 85.20 280.95 77.00 279.00
C 74.61 278.79 72.66 277.89 70.00 278.00
C 68.07 278.08 64.64 279.00 62.00 279.00
C 60.33 279.00 58.67 279.00 57.00 279.00
C 51.83 279.00 43.89 279.70 39.00 279.00 C 34.11 278.30 25.20 281.33 22.00 278.00
C 19.48 250.18 22.66 222.00 22.00 194.00 C 21.34 166.00 21.30 137.06 22.00 109.00 C 22.70 80.94 19.47 51.95 22.00 24.00
C 21.01 21.32 15.21 19.56 15.00 16.00
C 104.67 16.00 194.33 16.00 284.00 16.00
C 272.99 25.25 277.54 38.39 277.00 52.00 C 276.46 65.61 277.18 80.90 277.00 95.00 C 276.82 109.10 276.95 123.57 277.00 138.00 C 277.05 152.43 276.69 167.30 277.00 182.00 C 277.31 196.70 276.21 209.88 277.00 225.00 C 277.79 240.12 275.19 251.95 277.00 268.00 C 278.81 284.05 256.76 279.29 245.00 278.00 Z"/>
</g>
<g fill="None" fill-opacity="0.0" stroke="#BDA9E8" stroke-opacity="1.00" stroke-width="0.3"><path d="
M 297.00 6.00 
L 297.00 0.00
L 293.00 0.00
C 293.00 2.00 293.00 4.00 293.00 6.00
C 209.13 6.95 120.75 8.95 39.00 5.00
C 41.67 4.50 41.94 1.31 45.00 2.00
C 44.92 0.74 42.94 1.44 43.00 0.00
L 5.00 0.00
C 1.16 12.81 20.48 2.46 21.00 10.00
C 23.27 6.09 33.20 10.02 30.00 14.00
C 114.71 15.51 199.94 14.90 285.00 15.00
C 285.48 28.21 283.93 42.76 286.00 55.00
C 288.07 52.75 288.27 48.62 293.00 48.00
C 293.63 41.05 292.16 31.72 293.00 25.00 C 293.84 18.28 289.69 7.72 297.00 6.00 Z"/>
</g>
<g fill="None" fill-opacity="0.0" stroke="#C9B8EE" stroke-opacity="1.00" stroke-width="0.3"><path d="
M 293.00 0.00 
L 43.00 0.00
C 42.94 1.44 44.92 0.74 45.00 2.00
C 41.94 1.31 41.67 4.50 39.00 5.00
C 120.75 8.95 209.13 6.95 293.00 6.00
C 293.00 4.00 293.00 2.00 293.00 0.00 Z"/>
</g>
<g fill="None" fill-opacity="0.0" stroke="#9A7FD2" stroke-opacity="1.00" stroke-width="0.3"><path d="
M 22.00 24.00 
C 25.89 19.95 36.08 24.15 42.00 23.00 C 47.92 21.85 56.38 23.50 63.00 23.00 C 69.62 22.50 78.11 23.23 85.00 23.00 C 91.89 22.77 99.02 23.10 106.00 23.00 C 112.98 22.90 119.93 23.03 127.00 23.00 C 134.07 22.97 141.92 23.00 149.00 23.00 C 156.08 23.00 162.98 22.96 170.00 23.00 C 177.02 23.04 184.02 22.88 191.00 23.00 C 197.98 23.12 206.19 22.75 213.00 23.00 C 219.81 23.25 227.64 22.41 234.00 23.00 C 240.36 23.59 249.52 21.69 255.00 23.00 C 260.48 24.31 273.04 19.77 276.00 24.00
C 278.87 28.10 274.77 36.71 276.00 42.00 C 277.23 47.29 275.42 55.24 276.00 61.00 C 276.58 66.76 275.75 73.00 276.00 79.00 C 276.25 85.00 275.89 91.90 276.00 98.00 C 276.11 104.10 275.96 109.84 276.00 116.00 C 276.04 122.16 276.00 128.79 276.00 135.00
C 276.00 149.00 276.00 163.00 276.00 177.00
C 276.00 210.67 276.00 244.33 276.00 278.00
C 265.67 278.00 255.33 278.00 245.00 278.00
C 256.76 279.29 278.81 284.05 277.00 268.00 C 275.19 251.95 277.79 240.12 277.00 225.00 C 276.21 209.88 277.31 196.70 277.00 182.00 C 276.69 167.30 277.05 152.43 277.00 138.00 C 276.95 123.57 276.82 109.10 277.00 95.00 C 277.18 80.90 276.46 65.61 277.00 52.00 C 277.54 38.39 272.99 25.25 284.00 16.00
C 194.33 16.00 104.67 16.00 15.00 16.00
C 15.21 19.56 21.01 21.32 22.00 24.00 Z"/>
</g>
<g fill="None" fill-opacity="0.0" stroke="#8169C0" stroke-opacity="1.00" stroke-width="0.3"><path d="
M 22.00 24.00 
C 22.00 23.96 23.00 24.00 23.00 24.00
C 107.33 24.00 191.67 24.00 276.00 24.00
C 273.04 19.77 260.48 24.31 255.00 23.00 C 249.52 21.69 240.36 23.59 234.00 23.00 C 227.64 22.41 219.81 23.25 213.00 23.00 C 206.19 22.75 197.98 23.12 191.00 23.00 C 184.02 22.88 177.02 23.04 170.00 23.00 C 162.98 22.96 156.08 23.00 149.00 23.00 C 141.92 23.00 134.07 22.97 127.00 23.00 C 119.93 23.03 112.98 22.90 106.00 23.00 C 99.02 23.10 91.89 22.77 85.00 23.00 C 78.11 23.23 69.62 22.50 63.00 23.00 C 56.38 23.50 47.92 21.85 42.00 23.00 C 36.08 24.15 25.89 19.95 22.00 24.00 Z"/>
</g>
<g fill="None" fill-opacity="0.0" stroke="#5E4BA2" stroke-opacity="1.00" stroke-width="0.3"><path d="
M 22.00 278.00 
C 22.00 278.04 23.00 278.00 23.00 278.00
C 25.51 250.18 22.34 222.00 23.00 194.00 C 23.66 166.00 23.70 137.06 23.00 109.00 C 22.30 80.94 25.53 51.95 23.00 24.00
C 23.00 24.00 22.00 23.96 22.00 24.00
C 19.47 51.95 22.70 80.94 22.00 109.00 C 21.30 137.06 21.34 166.00 22.00 194.00 C 22.66 222.00 19.48 250.18 22.00 278.00 Z"/>
</g>
<g fill="None" fill-opacity="0.0" stroke="#463494" stroke-opacity="1.00" stroke-width="0.3"><path d="
M 23.00 278.00 
C 27.12 278.00 36.40 277.80 40.00 278.00 C 43.60 278.20 54.97 278.34 53.00 276.00
C 52.50 276.00 52.00 276.00 52.00 276.00
C 46.33 276.00 40.67 276.00 35.00 276.00
C 39.68 260.15 42.81 243.79 48.00 228.00
C 50.33 228.00 52.67 228.00 55.00 228.00
C 51.35 216.50 64.69 218.50 72.00 219.00
C 70.74 210.82 67.79 203.09 66.00 195.00
C 63.87 189.02 62.83 182.74 66.00 177.00
C 67.05 174.08 69.30 170.58 71.00 168.00
C 70.13 165.28 71.65 161.79 71.00 159.00
C 60.42 159.95 49.60 158.29 39.00 159.00
C 38.93 151.18 39.10 143.87 39.00 136.00 C 38.90 128.13 39.18 119.93 39.00 112.00 C 38.82 104.07 39.40 97.05 39.00 89.00 C 38.60 80.95 39.84 73.29 39.00 65.00 C 38.16 56.71 38.39 48.34 48.00 50.00 C 57.61 51.66 62.33 49.26 71.00 50.00 C 79.67 50.74 86.65 49.61 95.00 50.00 C 103.35 50.39 110.74 49.71 119.00 50.00
C 119.00 64.33 119.00 78.67 119.00 93.00
C 122.19 93.00 125.52 93.65 128.00 94.00
C 141.84 94.53 147.68 96.26 159.25 103.75 C 170.81 111.25 170.00 120.22 170.00 134.00
C 170.00 140.33 170.00 146.67 170.00 153.00
C 170.73 145.48 174.52 142.16 181.02 140.02 C 187.53 137.89 193.12 134.80 198.67 133.67 C 204.22 132.54 214.88 132.25 217.00 128.00
C 217.00 124.54 218.95 111.09 216.00 109.00
C 209.04 109.63 201.18 108.60 195.00 108.00
C 191.33 108.00 187.67 108.00 184.00 108.00
C 186.53 88.63 191.78 69.96 196.00 51.00
C 212.67 51.00 229.33 51.00 246.00 51.00
C 250.01 69.98 254.06 88.97 258.00 108.00
C 254.00 108.00 250.00 108.00 246.00 108.00
C 240.06 108.57 232.65 109.60 226.00 109.00
C 221.94 111.87 226.97 123.06 225.00 127.00
C 242.25 128.59 259.06 133.25 275.00 139.00
C 275.28 137.72 274.24 135.50 276.00 135.00
C 276.00 128.79 276.04 122.16 276.00 116.00 C 275.96 109.84 276.11 104.10 276.00 98.00 C 275.89 91.90 276.25 85.00 276.00 79.00 C 275.75 73.00 276.58 66.76 276.00 61.00 C 275.42 55.24 277.23 47.29 276.00 42.00 C 274.77 36.71 278.87 28.10 276.00 24.00
C 191.67 24.00 107.33 24.00 23.00 24.00
C 25.53 51.95 22.30 80.94 23.00 109.00 C 23.70 137.06 23.66 166.00 23.00 194.00 C 22.34 222.00 25.51 250.18 23.00 278.00 Z"/>
</g>
<g fill="None" fill-opacity="0.0" stroke="#604A76" stroke-opacity="1.00" stroke-width="0.3"><path d="
M 71.00 159.00 
C 70.76 158.68 71.00 158.00 71.00 158.00
C 60.75 157.07 50.27 158.69 40.00 158.00
C 40.00 143.33 40.00 128.67 40.00 114.00
C 40.00 93.00 40.00 72.00 40.00 51.00
C 66.00 51.00 92.00 51.00 118.00 51.00
C 118.00 65.00 118.00 79.00 118.00 93.00
C 118.49 93.06 119.00 93.00 119.00 93.00
C 119.00 78.67 119.00 64.33 119.00 50.00
C 110.74 49.71 103.35 50.39 95.00 50.00 C 86.65 49.61 79.67 50.74 71.00 50.00 C 62.33 49.26 57.61 51.66 48.00 50.00 C 38.39 48.34 38.16 56.71 39.00 65.00 C 39.84 73.29 38.60 80.95 39.00 89.00 C 39.40 97.05 38.82 104.07 39.00 112.00 C 39.18 119.93 38.90 128.13 39.00 136.00 C 39.10 143.87 38.93 151.18 39.00 159.00
C 49.60 158.29 60.42 159.95 71.00 159.00 Z"/>
</g>
<g fill="None" fill-opacity="0.0" stroke="#8E7883" stroke-opacity="1.00" stroke-width="0.3"><path d="
M 40.00 114.00 
C 40.92 116.48 43.79 117.00 46.00 118.00
C 46.25 108.57 46.85 97.27 47.00 88.00 C 47.15 78.73 45.36 66.41 49.00 61.00
C 54.48 59.53 62.30 61.08 68.00 61.00 C 73.70 60.92 82.62 59.92 88.00 61.00 C 93.38 62.08 103.79 58.06 108.00 61.00
C 110.54 62.78 109.09 74.95 109.00 78.00 C 108.91 81.05 110.79 93.52 108.00 95.00
C 110.57 94.87 112.47 94.20 115.00 94.00
C 115.96 93.68 116.43 92.81 118.00 93.00
C 118.00 79.00 118.00 65.00 118.00 51.00
C 92.00 51.00 66.00 51.00 40.00 51.00
C 40.00 72.00 40.00 93.00 40.00 114.00 Z"/>
</g>
<g fill="None" fill-opacity="0.0" stroke="#908393" stroke-opacity="1.00" stroke-width="0.3"><path d="
M 195.00 108.00 
C 196.67 108.00 198.33 108.00 200.00 108.00
C 199.13 107.79 197.51 106.18 196.00 107.00
C 196.00 91.08 198.48 75.74 203.00 61.00
C 209.29 64.67 216.01 57.96 221.70 58.65 C 227.38 59.34 233.62 66.72 239.00 62.00
C 240.42 67.54 241.79 73.12 242.00 79.00
C 242.42 81.65 242.94 84.07 243.00 87.00
C 243.73 93.03 246.23 100.09 245.00 107.00
C 242.81 107.52 239.38 105.86 238.00 108.00
C 240.67 108.00 243.33 108.00 246.00 108.00
C 250.00 108.00 254.00 108.00 258.00 108.00
C 254.06 88.97 250.01 69.98 246.00 51.00
C 229.33 51.00 212.67 51.00 196.00 51.00
C 191.78 69.96 186.53 88.63 184.00 108.00
C 187.67 108.00 191.33 108.00 195.00 108.00 Z"/>
</g>
<g fill="None" fill-opacity="0.0" stroke="#B2A6A6" stroke-opacity="1.00" stroke-width="0.3"><path d="
M 200.00 108.00 
C 205.26 108.00 210.76 107.53 216.00 108.00
C 213.39 107.75 209.32 106.11 206.00 107.00
C 195.59 94.63 196.91 79.69 209.70 70.70 C 222.49 61.71 232.78 67.86 242.00 79.00
C 241.79 73.12 240.42 67.54 239.00 62.00
C 233.62 66.72 227.38 59.34 221.70 58.65 C 216.01 57.96 209.29 64.67 203.00 61.00
C 198.48 75.74 196.00 91.08 196.00 107.00
C 197.51 106.18 199.13 107.79 200.00 108.00 Z"/>
</g>
<g fill="None" fill-opacity="0.0" stroke="#80697B" stroke-opacity="1.00" stroke-width="0.3"><path d="
M 40.00 114.00 
C 40.00 128.67 40.00 143.33 40.00 158.00
C 50.27 158.69 60.75 157.07 71.00 158.00
C 71.00 154.35 70.63 151.34 70.00 148.00
C 65.33 144.70 54.25 150.47 49.00 148.00
C 49.00 141.67 49.00 135.33 49.00 129.00
C 49.00 113.33 49.00 97.67 49.00 82.00
C 49.00 76.70 51.17 65.73 49.00 61.00
C 45.36 66.41 47.15 78.73 47.00 88.00 C 46.85 97.27 46.25 108.57 46.00 118.00
C 43.79 117.00 40.92 116.48 40.00 114.00 Z"/>
</g>
<g fill="None" fill-opacity="0.0" stroke="#52706D" stroke-opacity="1.00" stroke-width="0.3"><path d="
M 49.00 82.00 
C 50.44 87.52 59.40 87.34 63.00 91.00
C 63.25 91.25 64.00 91.00 64.00 91.00
C 64.91 74.21 77.03 67.68 92.00 77.00
C 92.29 82.75 92.56 88.55 94.00 94.00
C 96.04 91.45 99.09 89.46 100.00 86.00
C 102.49 86.68 101.99 90.00 104.00 91.00
C 104.97 88.71 106.24 85.87 108.00 89.00
C 108.00 79.67 108.00 70.33 108.00 61.00
C 103.79 58.06 93.38 62.08 88.00 61.00 C 82.62 59.92 73.70 60.92 68.00 61.00 C 62.30 61.08 54.48 59.53 49.00 61.00
C 51.17 65.73 49.00 76.70 49.00 82.00 Z"/>
</g>
<g fill="None" fill-opacity="0.0" stroke="#6F726C" stroke-opacity="1.00" stroke-width="0.3"><path d="
M 94.00 94.00 
C 94.15 94.45 94.24 95.69 94.00 96.00
C 96.80 95.47 100.27 95.23 103.00 95.00
C 104.65 94.86 106.34 95.08 108.00 95.00
C 110.79 93.52 108.91 81.05 109.00 78.00 C 109.09 74.95 110.54 62.78 108.00 61.00
C 108.00 70.33 108.00 79.67 108.00 89.00
C 106.24 85.87 104.97 88.71 104.00 91.00
C 101.99 90.00 102.49 86.68 100.00 86.00
C 99.09 89.46 96.04 91.45 94.00 94.00 Z"/>
</g>
<g fill="None" fill-opacity="0.0" stroke="#CAC0B8" stroke-opacity="1.00" stroke-width="0.3"><path d="
M 216.00 108.00 
C 219.27 107.70 222.71 108.00 226.00 108.00
C 228.33 108.00 230.67 108.00 233.00 108.00
C 239.39 106.01 243.11 92.66 243.00 87.00
C 242.94 84.07 242.42 81.65 242.00 79.00
C 232.78 67.86 222.49 61.71 209.70 70.70 C 196.91 79.69 195.59 94.63 206.00 107.00
C 209.32 106.11 213.39 107.75 216.00 108.00
M 220.00 71.00 
C 231.22 69.50 240.52 86.76 234.07 97.07 C 227.63 107.39 215.05 109.55 208.23 98.77 C 201.41 87.99 206.96 72.74 220.00 71.00 Z"/>
</g>
<g fill="None" fill-opacity="0.0" stroke="#E5DED4" stroke-opacity="1.00" stroke-width="0.3"><path d="
M 220.00 71.00 
C 206.96 72.74 201.41 87.99 208.23 98.77 C 215.05 109.55 227.63 107.39 234.07 97.07 C 240.52 86.76 231.22 69.50 220.00 71.00 Z"/>
</g>
<g fill="None" fill-opacity="0.0" stroke="#2C273E" stroke-opacity="1.00" stroke-width="0.3"><path d="
M 64.00 91.00 
C 63.79 94.86 64.48 98.83 63.00 102.00
C 60.90 106.49 54.91 108.70 55.22 114.22 C 55.53 119.75 54.90 128.10 49.00 129.00
C 49.00 135.33 49.00 141.67 49.00 148.00
C 54.25 150.47 65.33 144.70 70.00 148.00
C 69.83 147.09 70.00 145.93 70.00 145.00
C 68.04 147.93 61.42 143.90 63.00 140.00 C 64.59 136.09 61.81 130.09 63.00 126.00
C 65.33 125.56 67.02 127.24 69.00 128.00
C 68.67 124.59 68.62 120.40 69.00 117.00
C 67.06 117.62 65.87 115.80 64.00 116.00
C 65.82 110.32 72.20 106.68 74.00 101.00
C 67.57 95.72 64.41 82.38 75.22 79.22 C 86.04 76.07 91.06 87.30 88.00 98.00
C 89.24 97.32 92.95 96.20 94.00 96.00
C 94.24 95.69 94.15 94.45 94.00 94.00
C 92.56 88.55 92.29 82.75 92.00 77.00
C 77.03 67.68 64.91 74.21 64.00 91.00 Z"/>
</g>
<g fill="None" fill-opacity="0.0" stroke="#8A7481" stroke-opacity="1.00" stroke-width="0.3"><path d="
M 69.00 117.00 
C 69.75 110.30 82.18 101.18 88.00 98.00
C 91.06 87.30 86.04 76.07 75.22 79.22 C 64.41 82.38 67.57 95.72 74.00 101.00
C 72.20 106.68 65.82 110.32 64.00 116.00
C 65.87 115.80 67.06 117.62 69.00 117.00 Z"/>
</g>
<g fill="None" fill-opacity="0.0" stroke="#676F66" stroke-opacity="1.00" stroke-width="0.3"><path d="
M 49.00 129.00 
C 54.90 128.10 55.53 119.75 55.22 114.22 C 54.91 108.70 60.90 106.49 63.00 102.00
C 63.97 98.77 62.69 94.37 63.00 91.00
C 59.40 87.34 50.44 87.52 49.00 82.00
C 49.00 97.67 49.00 113.33 49.00 129.00 Z"/>
</g>
<g fill="None" fill-opacity="0.0" stroke="#B7AAAC" stroke-opacity="1.00" stroke-width="0.3"><path d="
M 233.00 108.00 
C 234.67 108.00 236.33 108.00 238.00 108.00
C 239.38 105.86 242.81 107.52 245.00 107.00
C 246.23 100.09 243.73 93.03 243.00 87.00
C 243.11 92.66 239.39 106.01 233.00 108.00 Z"/>
</g>
<g fill="None" fill-opacity="0.0" stroke="#4B4E53" stroke-opacity="1.00" stroke-width="0.3"><path d="
M 63.00 102.00 
C 64.48 98.83 63.79 94.86 64.00 91.00
C 64.00 91.00 63.25 91.25 63.00 91.00
C 62.69 94.37 63.97 98.77 63.00 102.00 Z"/>
</g>
<g fill="None" fill-opacity="0.0" stroke="#95456A" stroke-opacity="1.00" stroke-width="0.3"><path d="
M 115.00 94.00 
C 119.22 93.66 123.76 93.84 128.00 94.00
C 125.52 93.65 122.19 93.00 119.00 93.00
C 119.00 93.00 118.49 93.06 118.00 93.00
C 116.43 92.81 115.96 93.68 115.00 94.00 Z"/>
</g>
<g fill="None" fill-opacity="0.0" stroke="#CD4C3A" stroke-opacity="1.00" stroke-width="0.3"><path d="
M 108.00 95.00 
C 106.34 95.08 104.65 94.86 103.00 95.00
C 93.04 97.21 84.15 108.00 74.00 111.00
C 74.62 114.50 72.73 119.32 75.00 122.00
C 75.00 118.67 75.00 115.33 75.00 112.00
C 80.80 108.12 86.24 107.60 92.08 103.08 C 97.91 98.55 104.79 101.67 110.00 102.00
C 109.90 106.30 114.44 106.10 118.00 105.00
C 119.25 109.43 125.83 109.88 127.30 115.70 C 128.78 121.51 136.33 119.10 135.00 126.00
C 151.92 126.86 147.28 147.62 151.00 158.00
C 150.22 160.92 149.06 160.82 147.00 159.00
C 145.75 165.09 151.97 160.21 154.00 163.00
C 158.96 163.29 164.03 163.00 169.00 163.00
C 168.14 153.53 169.16 142.69 170.00 134.00
C 170.00 120.22 170.81 111.25 159.25 103.75 C 147.68 96.26 141.84 94.53 128.00 94.00
C 123.76 93.84 119.22 93.66 115.00 94.00
C 112.47 94.20 110.57 94.87 108.00 95.00 Z"/>
</g>
<g fill="None" fill-opacity="0.0" stroke="#A42F36" stroke-opacity="1.00" stroke-width="0.3"><path d="
M 94.00 96.00 
C 92.95 96.20 89.24 97.32 88.00 98.00
C 82.18 101.18 69.75 110.30 69.00 117.00
C 68.62 120.40 68.67 124.59 69.00 128.00
C 69.49 133.04 70.00 139.27 70.00 145.00
C 70.00 145.93 69.83 147.09 70.00 148.00
C 70.63 151.34 71.00 154.35 71.00 158.00
C 71.00 158.00 70.76 158.68 71.00 159.00
C 72.35 160.82 72.36 164.49 72.00 167.00
C 74.00 166.92 76.00 167.06 78.00 167.00
C 78.41 159.82 76.24 153.28 77.00 146.00
C 77.00 137.62 75.00 130.50 75.00 122.00
C 72.73 119.32 74.62 114.50 74.00 111.00
C 84.15 108.00 93.04 97.21 103.00 95.00
C 100.27 95.23 96.80 95.47 94.00 96.00 Z"/>
</g>
<g fill="None" fill-opacity="0.0" stroke="#DB6348" stroke-opacity="1.00" stroke-width="0.3"><path d="
M 75.00 122.00 
C 75.00 130.50 77.00 137.62 77.00 146.00
C 78.17 158.07 82.26 173.64 67.00 179.00
C 75.78 178.83 84.07 180.74 93.00 180.00
C 91.26 195.65 100.13 207.64 102.78 222.22 C 105.43 236.80 103.06 253.87 106.00 267.00
C 114.51 266.23 123.45 267.00 132.00 267.00
C 132.50 267.00 133.00 267.00 133.00 267.00
C 135.05 265.48 138.27 266.00 141.00 266.00
C 150.66 266.00 161.11 266.14 170.00 267.00
C 178.13 267.79 187.87 267.79 196.00 267.00
C 198.98 266.71 206.74 266.68 208.00 264.00
C 208.98 252.87 205.52 239.11 208.00 228.00 C 210.48 216.89 212.44 207.67 216.00 197.00
C 216.39 195.82 217.77 193.84 218.00 193.00
C 218.00 188.33 218.00 183.67 218.00 179.00
C 218.55 179.89 215.47 177.74 216.00 178.00
C 213.09 176.56 210.13 174.18 207.00 173.00
C 202.00 171.86 193.08 172.22 188.00 173.00
C 185.86 173.79 183.90 178.75 182.00 180.00
C 188.55 186.38 197.51 190.25 194.00 202.00
C 189.03 201.29 183.43 200.36 179.00 199.00
C 175.84 198.43 172.62 198.40 170.00 197.00
C 169.67 196.82 169.26 196.11 169.00 196.00
C 168.50 195.97 167.50 196.00 167.00 196.00
C 158.19 196.00 147.64 197.62 139.00 196.00
C 137.71 195.76 136.30 196.19 135.00 196.00
C 135.32 192.00 137.77 188.02 140.00 185.00
C 142.68 179.58 144.72 173.61 147.00 168.00
C 148.83 163.51 149.03 163.38 154.00 163.00
C 151.97 160.21 145.75 165.09 147.00 159.00
C 149.06 160.82 150.22 160.92 151.00 158.00
C 147.28 147.62 151.92 126.86 135.00 126.00
C 136.33 119.10 128.78 121.51 127.30 115.70 C 125.83 109.88 119.25 109.43 118.00 105.00
C 114.44 106.10 109.90 106.30 110.00 102.00
C 104.79 101.67 97.91 98.55 92.08 103.08 C 86.24 107.60 80.80 108.12 75.00 112.00
C 75.00 115.33 75.00 118.67 75.00 122.00
M 100.00 197.00 
C 94.01 187.35 105.58 172.34 112.92 182.08 C 120.25 191.82 108.78 204.87 100.00 197.00
M 206.00 178.00 
C 215.54 178.94 215.31 200.19 204.92 199.92 C 194.54 199.66 195.38 176.95 206.00 178.00
M 118.00 220.00 
C 124.30 217.01 135.85 220.77 143.00 220.00 C 150.15 219.23 160.78 219.06 168.00 220.00 C 175.22 220.94 187.54 216.93 194.00 220.00
C 194.94 220.45 186.07 222.88 182.00 222.00 C 177.93 221.12 169.70 222.22 165.00 222.00 C 160.30 221.78 152.70 221.72 148.00 222.00 C 143.30 222.28 135.05 221.03 131.00 222.00 C 126.95 222.97 117.03 220.46 118.00 220.00 Z"/>
</g>
<g fill="None" fill-opacity="0.0" stroke="#8172A3" stroke-opacity="1.00" stroke-width="0.3"><path d="
M 216.00 109.00 
C 215.88 108.97 216.00 108.00 216.00 108.00
C 210.76 107.53 205.26 108.00 200.00 108.00
C 198.33 108.00 196.67 108.00 195.00 108.00
C 201.18 108.60 209.04 109.63 216.00 109.00 Z"/>
</g>
<g fill="None" fill-opacity="0.0" stroke="#AB9397" stroke-opacity="1.00" stroke-width="0.3"><path d="
M 216.00 109.00 
C 220.89 110.31 217.13 125.15 218.00 131.00 C 218.87 136.85 217.68 148.12 218.00 155.00 C 218.32 161.88 218.00 171.84 218.00 179.00
C 218.00 183.67 218.00 188.33 218.00 193.00
C 218.00 215.99 219.67 240.89 217.00 263.00
C 216.95 265.39 217.68 268.37 216.00 270.00
C 216.87 269.73 219.22 269.15 220.00 267.00
C 222.78 270.14 228.40 272.97 232.00 271.00
C 229.95 270.76 226.26 270.55 225.00 269.00
C 220.96 264.04 225.14 253.71 224.00 247.00 C 222.86 240.29 224.48 231.21 224.00 224.00 C 223.52 216.79 224.14 208.40 224.00 201.00 C 223.86 193.60 223.92 184.30 224.00 177.00 C 224.08 169.70 223.62 160.79 224.00 154.00 C 224.38 147.21 223.06 136.70 224.00 131.00 C 224.94 125.30 221.07 110.32 226.00 109.00
C 226.12 108.97 226.00 108.00 226.00 108.00
C 222.71 108.00 219.27 107.70 216.00 108.00
C 216.00 108.00 215.88 108.97 216.00 109.00 Z"/>
</g>
<g fill="None" fill-opacity="0.0" stroke="#8072A4" stroke-opacity="1.00" stroke-width="0.3"><path d="
M 226.00 109.00 
C 232.65 109.60 240.06 108.57 246.00 108.00
C 243.33 108.00 240.67 108.00 238.00 108.00
C 236.33 108.00 234.67 108.00 233.00 108.00
C 230.67 108.00 228.33 108.00 226.00 108.00
C 226.00 108.00 226.12 108.97 226.00 109.00 Z"/>
</g>
<g fill="None" fill-opacity="0.0" stroke="#917587" stroke-opacity="1.00" stroke-width="0.3"><path d="
M 217.00 128.00 
C 217.00 135.96 215.92 145.17 217.00 153.00 C 218.08 160.83 214.69 171.36 216.00 178.00
C 215.47 177.74 218.55 179.89 218.00 179.00
C 218.00 171.84 218.32 161.88 218.00 155.00 C 217.68 148.12 218.87 136.85 218.00 131.00 C 217.13 125.15 220.89 110.31 216.00 109.00
C 218.95 111.09 217.00 124.54 217.00 128.00 Z"/>
</g>
<g fill="None" fill-opacity="0.0" stroke="#6F53AC" stroke-opacity="1.00" stroke-width="0.3"><path d="
M 225.00 269.00 
C 221.65 263.06 226.45 253.06 225.00 246.00 C 223.55 238.94 225.67 229.56 225.00 222.00 C 224.33 214.44 225.35 205.77 225.00 198.00 C 224.65 190.23 225.26 181.83 225.00 174.00
C 231.05 180.28 244.24 177.90 252.03 177.02 C 259.81 176.14 273.75 173.12 274.00 164.00
C 276.83 167.27 273.14 173.80 276.00 177.00
C 276.00 163.00 276.00 149.00 276.00 135.00
C 274.24 135.50 275.28 137.72 275.00 139.00
C 259.06 133.25 242.25 128.59 225.00 127.00
C 226.97 123.06 221.94 111.87 226.00 109.00
C 221.07 110.32 224.94 125.30 224.00 131.00 C 223.06 136.70 224.38 147.21 224.00 154.00 C 223.62 160.79 224.08 169.70 224.00 177.00 C 223.92 184.30 223.86 193.60 224.00 201.00 C 224.14 208.40 223.52 216.79 224.00 224.00 C 224.48 231.21 222.86 240.29 224.00 247.00 C 225.14 253.71 220.96 264.04 225.00 269.00 Z"/>
</g>
<g fill="None" fill-opacity="0.0" stroke="#7D6577" stroke-opacity="1.00" stroke-width="0.3"><path d="
M 70.00 145.00 
C 70.00 139.27 69.49 133.04 69.00 128.00
C 67.02 127.24 65.33 125.56 63.00 126.00
C 61.81 130.09 64.59 136.09 63.00 140.00 C 61.42 143.90 68.04 147.93 70.00 145.00 Z"/>
</g>
<g fill="None" fill-opacity="0.0" stroke="#7254AD" stroke-opacity="1.00" stroke-width="0.3"><path d="
M 170.00 153.00 
C 170.00 156.29 170.30 159.73 170.00 163.00
C 172.24 162.70 174.74 163.00 177.00 163.00
C 181.00 163.00 185.00 163.00 189.00 163.00
C 188.76 165.58 186.92 167.62 186.00 170.00
C 187.28 174.14 202.98 171.48 207.00 173.00
C 210.13 174.18 213.09 176.56 216.00 178.00
C 214.69 171.36 218.08 160.83 217.00 153.00 C 215.92 145.17 217.00 135.96 217.00 128.00
C 214.88 132.25 204.22 132.54 198.67 133.67 C 193.12 134.80 187.53 137.89 181.02 140.02 C 174.52 142.16 170.73 145.48 170.00 153.00 Z"/>
</g>
<g fill="None" fill-opacity="0.0" stroke="#BB4552" stroke-opacity="1.00" stroke-width="0.3"><path d="
M 169.00 163.00 
C 169.50 163.00 170.00 163.00 170.00 163.00
C 170.30 159.73 170.00 156.29 170.00 153.00
C 170.00 146.67 170.00 140.33 170.00 134.00
C 169.16 142.69 168.14 153.53 169.00 163.00 Z"/>
</g>
<g fill="None" fill-opacity="0.0" stroke="#C94A42" stroke-opacity="1.00" stroke-width="0.3"><path d="
M 72.00 167.00 
C 71.95 167.35 71.18 167.73 71.00 168.00
C 69.30 170.58 67.05 174.08 66.00 177.00
C 65.84 177.44 66.00 178.00 66.00 178.00
C 66.51 181.49 71.50 179.32 74.00 181.00
C 73.66 194.44 79.74 207.56 81.00 220.00
C 83.06 220.62 82.10 220.18 83.00 222.00
C 85.79 227.62 84.01 234.66 85.99 241.01 C 87.97 247.35 86.44 255.10 87.00 262.00 C 87.56 268.90 99.31 265.01 104.00 267.00
C 104.42 267.18 105.84 266.77 106.00 267.00
C 103.06 253.87 105.43 236.80 102.78 222.22 C 100.13 207.64 91.26 195.65 93.00 180.00
C 84.07 180.74 75.78 178.83 67.00 179.00
C 82.26 173.64 78.17 158.07 77.00 146.00
C 76.24 153.28 78.41 159.82 78.00 167.00
C 76.00 167.06 74.00 166.92 72.00 167.00 Z"/>
</g>
<g fill="None" fill-opacity="0.0" stroke="#7E2961" stroke-opacity="1.00" stroke-width="0.3"><path d="
M 71.00 168.00 
C 71.18 167.73 71.95 167.35 72.00 167.00
C 72.36 164.49 72.35 160.82 71.00 159.00
C 71.65 161.79 70.13 165.28 71.00 168.00 Z"/>
</g>
<g fill="None" fill-opacity="0.0" stroke="#D8A0A0" stroke-opacity="1.00" stroke-width="0.3"><path d="
M 147.00 168.00 
C 147.74 166.75 149.96 165.92 150.00 164.00
C 156.67 164.00 163.33 164.00 170.00 164.00
C 170.04 164.00 170.00 163.00 170.00 163.00
C 170.00 163.00 169.50 163.00 169.00 163.00
C 164.03 163.00 158.96 163.29 154.00 163.00
C 149.03 163.38 148.83 163.51 147.00 168.00 Z"/>
</g>
<g fill="None" fill-opacity="0.0" stroke="#A091BF" stroke-opacity="1.00" stroke-width="0.3"><path d="
M 170.00 164.00 
C 172.41 163.95 175.30 163.16 177.00 163.00
C 174.74 163.00 172.24 162.70 170.00 163.00
C 170.00 163.00 170.04 164.00 170.00 164.00 Z"/>
</g>
<g fill="None" fill-opacity="0.0" stroke="#E4DDE0" stroke-opacity="1.00" stroke-width="0.3"><path d="
M 170.00 164.00 
C 163.33 164.00 156.67 164.00 150.00 164.00
C 149.96 165.92 147.74 166.75 147.00 168.00
C 144.72 173.61 142.68 179.58 140.00 185.00
C 140.18 185.97 139.86 187.03 140.00 188.00
C 152.02 187.85 165.08 186.59 174.00 195.00
C 174.24 194.73 174.94 194.24 175.00 194.00
C 176.21 189.52 178.10 185.30 180.00 181.00
C 180.91 178.94 181.98 177.00 183.00 175.00
C 183.91 173.22 185.11 171.52 186.00 170.00
C 186.92 167.62 188.76 165.58 189.00 163.00
C 185.00 163.00 181.00 163.00 177.00 163.00
C 175.30 163.16 172.41 163.95 170.00 164.00 Z"/>
</g>
<g fill="None" fill-opacity="0.0" stroke="#5941A5" stroke-opacity="1.00" stroke-width="0.3"><path d="
M 225.00 269.00 
C 226.26 270.55 229.95 270.76 232.00 271.00
C 232.49 271.06 233.55 270.85 234.00 271.00
C 238.28 272.48 244.50 271.90 245.00 278.00
C 255.33 278.00 265.67 278.00 276.00 278.00
C 276.00 244.33 276.00 210.67 276.00 177.00
C 273.14 173.80 276.83 167.27 274.00 164.00
C 273.75 173.12 259.81 176.14 252.03 177.02 C 244.24 177.90 231.05 180.28 225.00 174.00
C 225.26 181.83 224.65 190.23 225.00 198.00 C 225.35 205.77 224.33 214.44 225.00 222.00 C 225.67 229.56 223.55 238.94 225.00 246.00 C 226.45 253.06 221.65 263.06 225.00 269.00 Z"/>
</g>
<g fill="None" fill-opacity="0.0" stroke="#CA6571" stroke-opacity="1.00" stroke-width="0.3"><path d="
M 183.00 175.00 
C 184.58 173.43 185.92 173.32 188.00 173.00
C 193.08 172.22 202.00 171.86 207.00 173.00
C 202.98 171.48 187.28 174.14 186.00 170.00
C 185.11 171.52 183.91 173.22 183.00 175.00 Z"/>
</g>
<g fill="None" fill-opacity="0.0" stroke="#D74530" stroke-opacity="1.00" stroke-width="0.3"><path d="
M 183.00 175.00 
C 181.98 177.00 180.91 178.94 180.00 181.00
C 179.62 184.50 184.22 196.70 179.00 199.00
C 183.43 200.36 189.03 201.29 194.00 202.00
C 197.51 190.25 188.55 186.38 182.00 180.00
C 183.90 178.75 185.86 173.79 188.00 173.00
C 185.92 173.32 184.58 173.43 183.00 175.00 Z"/>
</g>
<g fill="None" fill-opacity="0.0" stroke="#722E78" stroke-opacity="1.00" stroke-width="0.3"><path d="
M 66.00 195.00 
C 65.04 190.68 63.28 181.67 66.00 178.00
C 66.00 178.00 65.84 177.44 66.00 177.00
C 62.83 182.74 63.87 189.02 66.00 195.00 Z"/>
</g>
<g fill="None" fill-opacity="0.0" stroke="#B3343A" stroke-opacity="1.00" stroke-width="0.3"><path d="
M 66.00 195.00 
C 67.79 203.09 70.74 210.82 72.00 219.00
C 74.71 219.18 78.39 219.22 81.00 220.00
C 79.74 207.56 73.66 194.44 74.00 181.00
C 71.50 179.32 66.51 181.49 66.00 178.00
C 63.28 181.67 65.04 190.68 66.00 195.00 Z"/>
</g>
<g fill="None" fill-opacity="0.0" stroke="#653D37" stroke-opacity="1.00" stroke-width="0.3"><path d="
M 100.00 197.00 
C 108.78 204.87 120.25 191.82 112.92 182.08 C 105.58 172.34 94.01 187.35 100.00 197.00 Z"/>
</g>
<g fill="None" fill-opacity="0.0" stroke="#603934" stroke-opacity="1.00" stroke-width="0.3"><path d="
M 206.00 178.00 
C 195.38 176.95 194.54 199.66 204.92 199.92 C 215.31 200.19 215.54 178.94 206.00 178.00 Z"/>
</g>
<g fill="None" fill-opacity="0.0" stroke="#A8261D" stroke-opacity="1.00" stroke-width="0.3"><path d="
M 175.00 194.00 
C 175.77 196.75 171.81 197.44 170.00 197.00
C 172.62 198.40 175.84 198.43 179.00 199.00
C 184.22 196.70 179.62 184.50 180.00 181.00
C 178.10 185.30 176.21 189.52 175.00 194.00 Z"/>
</g>
<g fill="None" fill-opacity="0.0" stroke="#E1C3C4" stroke-opacity="1.00" stroke-width="0.3"><path d="
M 139.00 196.00 
C 147.06 196.71 158.95 192.58 167.00 196.00
C 167.50 196.00 168.50 195.97 169.00 196.00
C 170.92 196.10 172.77 196.41 174.00 195.00
C 165.08 186.59 152.02 187.85 140.00 188.00
C 139.86 187.03 140.18 185.97 140.00 185.00
C 137.77 188.02 135.32 192.00 135.00 196.00
C 136.30 196.19 137.71 195.76 139.00 196.00 Z"/>
</g>
<g fill="None" fill-opacity="0.0" stroke="#927588" stroke-opacity="1.00" stroke-width="0.3"><path d="
M 216.00 197.00 
C 215.26 206.85 217.86 218.17 217.00 229.00 C 216.14 239.83 217.22 252.03 217.00 263.00
C 219.67 240.89 218.00 215.99 218.00 193.00
C 217.77 193.84 216.39 195.82 216.00 197.00 Z"/>
</g>
<g fill="None" fill-opacity="0.0" stroke="#AB5B59" stroke-opacity="1.00" stroke-width="0.3"><path d="
M 174.00 195.00 
C 172.77 196.41 170.92 196.10 169.00 196.00
C 169.26 196.11 169.67 196.82 170.00 197.00
C 171.81 197.44 175.77 196.75 175.00 194.00
C 174.94 194.24 174.24 194.73 174.00 195.00 Z"/>
</g>
<g fill="None" fill-opacity="0.0" stroke="#C88685" stroke-opacity="1.00" stroke-width="0.3"><path d="
M 139.00 196.00 
C 147.64 197.62 158.19 196.00 167.00 196.00
C 158.95 192.58 147.06 196.71 139.00 196.00 Z"/>
</g>
<g fill="None" fill-opacity="0.0" stroke="#553B9E" stroke-opacity="1.00" stroke-width="0.3"><path d="
M 208.00 264.00 
C 207.99 264.14 209.91 266.15 209.00 267.00
C 204.67 267.00 200.33 267.00 196.00 267.00
C 195.88 267.04 194.07 270.89 192.00 269.00
C 192.01 272.29 189.88 274.93 189.00 278.00
C 191.90 277.94 194.42 278.31 197.00 277.00
C 197.93 272.13 202.23 272.58 206.00 272.00
C 209.22 271.51 212.85 270.97 216.00 270.00
C 217.68 268.37 216.95 265.39 217.00 263.00
C 217.22 252.03 216.14 239.83 217.00 229.00 C 217.86 218.17 215.26 206.85 216.00 197.00
C 212.44 207.67 210.48 216.89 208.00 228.00 C 205.52 239.11 208.98 252.87 208.00 264.00 Z"/>
</g>
<g fill="None" fill-opacity="0.0" stroke="#C98949" stroke-opacity="1.00" stroke-width="0.3"><path d="
M 55.00 228.00 
C 57.91 227.94 61.11 227.66 64.00 228.00
C 68.09 228.48 69.92 229.17 70.00 232.00
C 70.11 235.56 68.47 239.37 68.00 243.00
C 66.49 254.60 65.30 266.10 65.00 278.00
C 66.67 278.00 68.33 278.00 70.00 278.00
C 70.48 268.40 71.18 257.11 72.99 247.99 C 74.80 238.88 70.73 223.73 80.00 221.00
C 80.78 230.70 77.88 241.64 78.00 251.00 C 78.12 260.36 72.81 271.08 77.00 278.00
C 76.53 274.39 77.92 271.51 78.00 268.00
C 78.01 267.50 78.00 267.00 78.00 267.00
C 78.28 255.09 80.85 242.90 82.00 231.00
C 82.24 228.52 83.46 224.28 83.00 222.00
C 82.10 220.18 83.06 220.62 81.00 220.00
C 78.39 219.22 74.71 219.18 72.00 219.00
C 64.69 218.50 51.35 216.50 55.00 228.00 Z"/>
</g>
<g fill="None" fill-opacity="0.0" stroke="#C44E36" stroke-opacity="1.00" stroke-width="0.3"><path d="
M 194.00 220.00 
C 169.74 221.66 142.19 221.67 118.00 220.00
C 117.03 220.46 126.95 222.97 131.00 222.00 C 135.05 221.03 143.30 222.28 148.00 222.00 C 152.70 221.72 160.30 221.78 165.00 222.00 C 169.70 222.22 177.93 221.12 182.00 222.00 C 186.07 222.88 194.94 220.45 194.00 220.00 Z"/>
</g>
<g fill="None" fill-opacity="0.0" stroke="#993928" stroke-opacity="1.00" stroke-width="0.3"><path d="
M 194.00 220.00 
C 187.54 216.93 175.22 220.94 168.00 220.00 C 160.78 219.06 150.15 219.23 143.00 220.00 C 135.85 220.77 124.30 217.01 118.00 220.00
C 142.19 221.67 169.74 221.66 194.00 220.00 Z"/>
</g>
<g fill="None" fill-opacity="0.0" stroke="#D4C0BF" stroke-opacity="1.00" stroke-width="0.3"><path d="
M 70.00 278.00 
C 72.66 277.89 74.61 278.79 77.00 279.00
C 76.96 279.00 77.00 278.00 77.00 278.00
C 72.81 271.08 78.12 260.36 78.00 251.00 C 77.88 241.64 80.78 230.70 80.00 221.00
C 70.73 223.73 74.80 238.88 72.99 247.99 C 71.18 257.11 70.48 268.40 70.00 278.00 Z"/>
</g>
<g fill="None" fill-opacity="0.0" stroke="#AF2E21" stroke-opacity="1.00" stroke-width="0.3"><path d="
M 82.00 231.00 
C 82.26 235.38 82.89 244.24 83.00 249.00 C 83.11 253.76 80.81 264.90 85.00 267.00
C 91.00 267.00 97.00 267.00 103.00 267.00
C 103.50 267.00 104.00 267.00 104.00 267.00
C 99.31 265.01 87.56 268.90 87.00 262.00 C 86.44 255.10 87.97 247.35 85.99 241.01 C 84.01 234.66 85.79 227.62 83.00 222.00
C 83.46 224.28 82.24 228.52 82.00 231.00 Z"/>
</g>
<g fill="None" fill-opacity="0.0" stroke="#B768D5" stroke-opacity="1.00" stroke-width="0.3"><path d="
M 52.00 276.00 
C 50.99 260.97 61.96 244.80 64.00 230.00
C 64.07 229.51 64.19 228.08 64.00 228.00
C 61.11 227.66 57.91 227.94 55.00 228.00
C 52.67 228.00 50.33 228.00 48.00 228.00
C 42.81 243.79 39.68 260.15 35.00 276.00
C 40.67 276.00 46.33 276.00 52.00 276.00 Z"/>
</g>
<g fill="None" fill-opacity="0.0" stroke="#D18B84" stroke-opacity="1.00" stroke-width="0.3"><path d="
M 64.00 230.00 
C 64.00 229.98 66.80 229.99 67.00 230.00
C 69.34 230.17 69.31 229.82 70.00 232.00
C 69.92 229.17 68.09 228.48 64.00 228.00
C 64.19 228.08 64.07 229.51 64.00 230.00 Z"/>
</g>
<g fill="None" fill-opacity="0.0" stroke="#DACBDB" stroke-opacity="1.00" stroke-width="0.3"><path d="
M 52.00 276.00 
C 52.00 276.00 52.50 276.00 53.00 276.00
C 53.50 276.00 54.53 275.87 55.00 276.00
C 58.02 274.24 58.61 264.29 59.93 260.93 C 61.24 257.56 64.23 248.96 64.78 245.78 C 65.32 242.59 69.68 231.47 67.00 230.00
C 66.80 229.99 64.00 229.98 64.00 230.00
C 61.96 244.80 50.99 260.97 52.00 276.00 Z"/>
</g>
<g fill="None" fill-opacity="0.0" stroke="#D08CC8" stroke-opacity="1.00" stroke-width="0.3"><path d="
M 55.00 276.00 
C 54.93 275.98 56.59 277.84 57.00 277.00
C 57.20 275.07 58.49 273.47 59.00 272.00
C 59.26 265.19 62.90 257.06 65.00 251.00
C 65.61 248.24 67.35 245.36 68.00 243.00
C 68.47 239.37 70.11 235.56 70.00 232.00
C 69.31 229.82 69.34 230.17 67.00 230.00
C 69.68 231.47 65.32 242.59 64.78 245.78 C 64.23 248.96 61.24 257.56 59.93 260.93 C 58.61 264.29 58.02 274.24 55.00 276.00 Z"/>
</g>
<g fill="None" fill-opacity="0.0" stroke="#891B12" stroke-opacity="1.00" stroke-width="0.3"><path d="
M 78.00 267.00 
C 80.24 266.70 82.74 267.00 85.00 267.00
C 80.81 264.90 83.11 253.76 83.00 249.00 C 82.89 244.24 82.26 235.38 82.00 231.00
C 80.85 242.90 78.28 255.09 78.00 267.00 Z"/>
</g>
<g fill="None" fill-opacity="0.0" stroke="#B15C25" stroke-opacity="1.00" stroke-width="0.3"><path d="
M 65.00 251.00 
C 63.90 255.96 62.80 260.96 62.00 266.00
C 61.48 269.25 59.65 274.97 60.00 278.00
C 60.48 278.09 62.00 278.04 62.00 278.00
C 62.00 277.97 64.80 278.00 65.00 278.00
C 65.30 266.10 66.49 254.60 68.00 243.00
C 67.35 245.36 65.61 248.24 65.00 251.00 Z"/>
</g>
<g fill="None" fill-opacity="0.0" stroke="#A4495B" stroke-opacity="1.00" stroke-width="0.3"><path d="
M 59.00 272.00 
C 58.98 272.50 59.00 273.00 59.00 273.00
C 60.00 271.64 61.53 267.60 62.00 266.00
C 62.80 260.96 63.90 255.96 65.00 251.00
C 62.90 257.06 59.26 265.19 59.00 272.00 Z"/>
</g>
<g fill="None" fill-opacity="0.0" stroke="#B25273" stroke-opacity="1.00" stroke-width="0.3"><path d="
M 196.00 267.00 
C 200.33 267.00 204.67 267.00 209.00 267.00
C 209.91 266.15 207.99 264.14 208.00 264.00
C 206.74 266.68 198.98 266.71 196.00 267.00 Z"/>
</g>
<g fill="None" fill-opacity="0.0" stroke="#8D3920" stroke-opacity="1.00" stroke-width="0.3"><path d="
M 59.00 273.00 
C 57.95 275.07 57.26 277.46 60.00 278.00
C 59.65 274.97 61.48 269.25 62.00 266.00
C 61.53 267.60 60.00 271.64 59.00 273.00 Z"/>
</g>
<g fill="None" fill-opacity="0.0" stroke="#B6556A" stroke-opacity="1.00" stroke-width="0.3"><path d="
M 133.00 267.00 
C 135.63 267.00 138.38 267.24 141.00 267.00
C 140.96 267.00 141.00 266.00 141.00 266.00
C 138.27 266.00 135.05 265.48 133.00 267.00 Z"/>
</g>
<g fill="None" fill-opacity="0.0" stroke="#AF4E3C" stroke-opacity="1.00" stroke-width="0.3"><path d="
M 141.00 267.00 
C 149.51 267.77 158.45 267.00 167.00 267.00
C 167.50 267.00 168.00 267.00 168.00 267.00
C 168.50 267.00 169.00 267.00 169.00 267.00
C 169.50 267.00 170.00 267.00 170.00 267.00
C 161.11 266.14 150.66 266.00 141.00 266.00
C 141.00 266.00 140.96 267.00 141.00 267.00 Z"/>
</g>
<g fill="None" fill-opacity="0.0" stroke="#10070C" stroke-opacity="1.00" stroke-width="0.3"><path d="
M 78.00 268.00 
C 79.32 267.89 80.67 268.08 82.00 268.00
C 81.81 271.55 84.61 274.30 84.00 278.00
C 88.33 278.00 92.67 278.00 97.00 278.00
C 97.65 275.71 97.60 272.00 99.00 270.00
C 100.03 268.53 101.57 267.60 103.00 267.00
C 97.00 267.00 91.00 267.00 85.00 267.00
C 82.74 267.00 80.24 266.70 78.00 267.00
C 78.00 267.00 78.01 267.50 78.00 268.00 Z"/>
</g>
<g fill="None" fill-opacity="0.0" stroke="#1D1042" stroke-opacity="1.00" stroke-width="0.3"><path d="
M 99.00 270.00 
C 100.96 267.84 103.17 270.33 104.00 267.00
C 104.00 267.00 103.50 267.00 103.00 267.00
C 101.57 267.60 100.03 268.53 99.00 270.00 Z"/>
</g>
<g fill="None" fill-opacity="0.0" stroke="#362288" stroke-opacity="1.00" stroke-width="0.3"><path d="
M 99.00 270.00 
C 97.60 272.00 97.65 275.71 97.00 278.00
C 102.00 278.00 107.00 278.00 112.00 278.00
C 111.57 274.85 110.25 272.21 110.00 269.00
C 108.72 268.72 106.50 269.76 106.00 268.00
C 105.88 267.97 106.00 267.00 106.00 267.00
C 105.84 266.77 104.42 267.18 104.00 267.00
C 103.17 270.33 100.96 267.84 99.00 270.00 Z"/>
</g>
<g fill="None" fill-opacity="0.0" stroke="#49292C" stroke-opacity="1.00" stroke-width="0.3"><path d="
M 106.00 268.00 
C 111.81 267.38 112.66 273.44 113.00 278.00
C 117.33 278.00 121.67 278.00 126.00 278.00
C 126.65 273.74 127.54 268.27 132.00 267.00
C 123.45 267.00 114.51 266.23 106.00 267.00
C 106.00 267.00 105.88 267.97 106.00 268.00 Z"/>
</g>
<g fill="None" fill-opacity="0.0" stroke="#3C278B" stroke-opacity="1.00" stroke-width="0.3"><path d="
M 126.00 278.00 
C 133.33 278.00 140.67 278.00 148.00 278.00
C 147.07 274.66 146.60 271.16 145.00 268.00
C 143.72 267.72 141.50 268.76 141.00 267.00
C 138.38 267.24 135.63 267.00 133.00 267.00
C 133.00 267.00 132.50 267.00 132.00 267.00
C 127.54 268.27 126.65 273.74 126.00 278.00 Z"/>
</g>
<g fill="None" fill-opacity="0.0" stroke="#0E060C" stroke-opacity="1.00" stroke-width="0.3"><path d="
M 148.00 278.00 
C 152.33 278.00 156.67 278.00 161.00 278.00
C 161.54 275.70 161.27 270.80 163.00 269.00
C 163.93 268.03 165.85 267.63 167.00 267.00
C 158.45 267.00 149.51 267.77 141.00 267.00
C 141.50 268.76 143.72 267.72 145.00 268.00
C 146.60 271.16 147.07 274.66 148.00 278.00 Z"/>
</g>
<g fill="None" fill-opacity="0.0" stroke="#221447" stroke-opacity="1.00" stroke-width="0.3"><path d="
M 163.00 269.00 
C 165.51 268.89 167.44 269.85 168.00 267.00
C 168.00 267.00 167.50 267.00 167.00 267.00
C 165.85 267.63 163.93 268.03 163.00 269.00 Z"/>
</g>
<g fill="None" fill-opacity="0.0" stroke="#473198" stroke-opacity="1.00" stroke-width="0.3"><path d="
M 163.00 269.00 
C 161.27 270.80 161.54 275.70 161.00 278.00
C 166.00 278.00 171.00 278.00 176.00 278.00
C 175.24 275.37 174.15 272.82 174.00 270.00
C 172.57 268.20 168.62 270.26 169.00 267.00
C 169.00 267.00 168.50 267.00 168.00 267.00
C 167.44 269.85 165.51 268.89 163.00 269.00 Z"/>
</g>
<g fill="None" fill-opacity="0.0" stroke="#2E1D54" stroke-opacity="1.00" stroke-width="0.3"><path d="
M 176.00 278.00 
C 176.50 278.00 177.00 278.00 177.00 278.00
C 176.67 274.60 175.16 271.20 174.00 268.00
C 172.72 267.72 170.50 268.76 170.00 267.00
C 170.00 267.00 169.50 267.00 169.00 267.00
C 168.62 270.26 172.57 268.20 174.00 270.00
C 174.15 272.82 175.24 275.37 176.00 278.00 Z"/>
</g>
<g fill="None" fill-opacity="0.0" stroke="#341B24" stroke-opacity="1.00" stroke-width="0.3"><path d="
M 177.00 278.00 
C 181.00 278.00 185.00 278.08 189.00 278.00
C 189.88 274.93 192.01 272.29 192.00 269.00
C 194.07 270.89 195.88 267.04 196.00 267.00
C 187.87 267.79 178.13 267.79 170.00 267.00
C 170.50 268.76 172.72 267.72 174.00 268.00
C 175.16 271.20 176.67 274.60 177.00 278.00 Z"/>
</g>
<g fill="None" fill-opacity="0.0" stroke="#BEABA7" stroke-opacity="1.00" stroke-width="0.3"><path d="
M 216.00 270.00 
C 212.85 270.97 209.22 271.51 206.00 272.00
C 205.25 272.36 204.35 273.61 203.00 273.00
C 204.41 274.51 204.00 276.45 203.00 278.00
C 215.67 278.00 228.33 278.00 241.00 278.00
C 239.21 277.33 235.98 272.43 234.00 271.00
C 233.55 270.85 232.49 271.06 232.00 271.00
C 228.40 272.97 222.78 270.14 220.00 267.00
C 219.22 269.15 216.87 269.73 216.00 270.00 Z"/>
</g>
<g fill="None" fill-opacity="0.0" stroke="#352477" stroke-opacity="1.00" stroke-width="0.3"><path d="
M 77.00 278.00 
C 79.24 277.70 81.74 278.00 84.00 278.00
C 84.61 274.30 81.81 271.55 82.00 268.00
C 80.67 268.08 79.32 267.89 78.00 268.00
C 77.92 271.51 76.53 274.39 77.00 278.00 Z"/>
</g>
<g fill="None" fill-opacity="0.0" stroke="#371E4D" stroke-opacity="1.00" stroke-width="0.3"><path d="
M 112.00 278.00 
C 112.50 278.00 113.00 278.00 113.00 278.00
C 112.66 273.44 111.81 267.38 106.00 268.00
C 106.50 269.76 108.72 268.72 110.00 269.00
C 110.25 272.21 111.57 274.85 112.00 278.00 Z"/>
</g>
<g fill="None" fill-opacity="0.0" stroke="#A08CA0" stroke-opacity="1.00" stroke-width="0.3"><path d="
M 241.00 278.00 
C 242.29 278.00 243.72 277.83 245.00 278.00
C 244.50 271.90 238.28 272.48 234.00 271.00
C 235.98 272.43 239.21 277.33 241.00 278.00 Z"/>
</g>
<g fill="None" fill-opacity="0.0" stroke="#A16395" stroke-opacity="1.00" stroke-width="0.3"><path d="
M 57.00 277.00 
C 56.95 277.49 56.75 278.72 57.00 279.00
C 58.67 279.00 60.33 279.00 62.00 279.00
C 62.15 278.95 62.00 278.00 62.00 278.00
C 62.00 278.04 60.48 278.09 60.00 278.00
C 57.26 277.46 57.95 275.07 59.00 273.00
C 59.00 273.00 58.98 272.50 59.00 272.00
C 58.49 273.47 57.20 275.07 57.00 277.00 Z"/>
</g>
<g fill="None" fill-opacity="0.0" stroke="#A08894" stroke-opacity="1.00" stroke-width="0.3"><path d="
M 197.00 277.00 
C 196.91 277.48 197.00 278.00 197.00 278.00
C 198.96 277.82 201.03 278.00 203.00 278.00
C 204.00 276.45 204.41 274.51 203.00 273.00
C 204.35 273.61 205.25 272.36 206.00 272.00
C 202.23 272.58 197.93 272.13 197.00 277.00 Z"/>
</g>
<g fill="None" fill-opacity="0.0" stroke="#8164BC" stroke-opacity="1.00" stroke-width="0.3"><path d="
M 23.00 278.00 
C 23.00 278.00 22.00 278.04 22.00 278.00
C 25.20 281.33 34.11 278.30 39.00 279.00 C 43.89 279.70 51.83 279.00 57.00 279.00
C 56.75 278.72 56.95 277.49 57.00 277.00
C 56.59 277.84 54.93 275.98 55.00 276.00
C 54.53 275.87 53.50 276.00 53.00 276.00
C 54.97 278.34 43.60 278.20 40.00 278.00 C 36.40 277.80 27.12 278.00 23.00 278.00 Z"/>
</g>
<g fill="None" fill-opacity="0.0" stroke="#7E65B0" stroke-opacity="1.00" stroke-width="0.3"><path d="
M 189.00 278.00 
C 185.00 278.08 181.00 278.00 177.00 278.00
C 177.00 278.00 176.50 278.00 176.00 278.00
C 171.00 278.00 166.00 278.00 161.00 278.00
C 156.67 278.00 152.33 278.00 148.00 278.00
C 140.67 278.00 133.33 278.00 126.00 278.00
C 121.67 278.00 117.33 278.00 113.00 278.00
C 113.00 278.00 112.50 278.00 112.00 278.00
C 107.00 278.00 102.00 278.00 97.00 278.00
C 92.67 278.00 88.33 278.00 84.00 278.00
C 81.74 278.00 79.24 277.70 77.00 278.00
C 77.00 278.00 76.96 279.00 77.00 279.00
C 85.20 280.95 98.42 274.68 103.00 283.00
C 132.84 275.67 166.05 280.85 197.00 278.00
C 197.00 278.00 196.91 277.48 197.00 277.00
C 194.42 278.31 191.90 277.94 189.00 278.00 Z"/>
</g>
<g fill="None" fill-opacity="0.0" stroke="#B489A0" stroke-opacity="1.00" stroke-width="0.3"><path d="
M 62.00 279.00 
C 64.64 279.00 68.07 278.08 70.00 278.00
C 68.33 278.00 66.67 278.00 65.00 278.00
C 64.80 278.00 62.00 277.97 62.00 278.00
C 62.00 278.00 62.15 278.95 62.00 279.00 Z"/>
</g>
<g fill="#9A8DC1" fill-opacity="0.39" stroke="None">
<path d="
M 0.00 4.00 
C 1.57 3.04 3.25 1.68 4.00 0.00
L 0.00 0.00
L 0.00 4.00 Z"/>
</g>
<g fill="#A993DC" fill-opacity="1.00" stroke="None">
<path d="
M 0.00 4.00 
L 0.00 300.00
L 297.00 300.00
L 297.00 6.00
C 289.69 7.72 293.84 18.28 293.00 25.00 C 292.16 31.72 293.63 41.05 293.00 48.00
C 288.27 48.62 288.07 52.75 286.00 55.00
C 283.93 42.76 285.48 28.21 285.00 15.00
C 199.94 14.90 114.71 15.51 30.00 14.00
C 33.20 10.02 23.27 6.09 21.00 10.00
C 20.48 2.46 1.16 12.81 5.00 0.00
L 4.00 0.00
C 3.25 1.68 1.57 3.04 0.00 4.00
M 245.00 278.00 
C 243.72 277.83 242.29 278.00 241.00 278.00
C 228.33 278.00 215.67 278.00 203.00 278.00
C 201.03 278.00 198.96 277.82 197.00 278.00
C 166.05 280.85 132.84 275.67 103.00 283.00
C 98.42 274.68 85.20 280.95 77.00 279.00
C 74.61 278.79 72.66 277.89 70.00 278.00
C 68.07 278.08 64.64 279.00 62.00 279.00
C 60.33 279.00 58.67 279.00 57.00 279.00
C 51.83 279.00 43.89 279.70 39.00 279.00 C 34.11 278.30 25.20 281.33 22.00 278.00
C 19.48 250.18 22.66 222.00 22.00 194.00 C 21.34 166.00 21.30 137.06 22.00 109.00 C 22.70 80.94 19.47 51.95 22.00 24.00
C 21.01 21.32 15.21 19.56 15.00 16.00
C 104.67 16.00 194.33 16.00 284.00 16.00
C 272.99 25.25 277.54 38.39 277.00 52.00 C 276.46 65.61 277.18 80.90 277.00 95.00 C 276.82 109.10 276.95 123.57 277.00 138.00 C 277.05 152.43 276.69 167.30 277.00 182.00 C 277.31 196.70 276.21 209.88 277.00 225.00 C 277.79 240.12 275.19 251.95 277.00 268.00 C 278.81 284.05 256.76 279.29 245.00 278.00 Z"/>
</g>
<g fill="#BDA9E8" fill-opacity="1.00" stroke="None">
<path d="
M 297.00 6.00 
L 297.00 0.00
L 293.00 0.00
C 293.00 2.00 293.00 4.00 293.00 6.00
C 209.13 6.95 120.75 8.95 39.00 5.00
C 41.67 4.50 41.94 1.31 45.00 2.00
C 44.92 0.74 42.94 1.44 43.00 0.00
L 5.00 0.00
C 1.16 12.81 20.48 2.46 21.00 10.00
C 23.27 6.09 33.20 10.02 30.00 14.00
C 114.71 15.51 199.94 14.90 285.00 15.00
C 285.48 28.21 283.93 42.76 286.00 55.00
C 288.07 52.75 288.27 48.62 293.00 48.00
C 293.63 41.05 292.16 31.72 293.00 25.00 C 293.84 18.28 289.69 7.72 297.00 6.00 Z"/>
</g>
<g fill="#C9B8EE" fill-opacity="1.00" stroke="None">
<path d="
M 293.00 0.00 
L 43.00 0.00
C 42.94 1.44 44.92 0.74 45.00 2.00
C 41.94 1.31 41.67 4.50 39.00 5.00
C 120.75 8.95 209.13 6.95 293.00 6.00
C 293.00 4.00 293.00 2.00 293.00 0.00 Z"/>
</g>
<g fill="#9A7FD2" fill-opacity="1.00" stroke="None">
<path d="
M 22.00 24.00 
C 25.89 19.95 36.08 24.15 42.00 23.00 C 47.92 21.85 56.38 23.50 63.00 23.00 C 69.62 22.50 78.11 23.23 85.00 23.00 C 91.89 22.77 99.02 23.10 106.00 23.00 C 112.98 22.90 119.93 23.03 127.00 23.00 C 134.07 22.97 141.92 23.00 149.00 23.00 C 156.08 23.00 162.98 22.96 170.00 23.00 C 177.02 23.04 184.02 22.88 191.00 23.00 C 197.98 23.12 206.19 22.75 213.00 23.00 C 219.81 23.25 227.64 22.41 234.00 23.00 C 240.36 23.59 249.52 21.69 255.00 23.00 C 260.48 24.31 273.04 19.77 276.00 24.00
C 278.87 28.10 274.77 36.71 276.00 42.00 C 277.23 47.29 275.42 55.24 276.00 61.00 C 276.58 66.76 275.75 73.00 276.00 79.00 C 276.25 85.00 275.89 91.90 276.00 98.00 C 276.11 104.10 275.96 109.84 276.00 116.00 C 276.04 122.16 276.00 128.79 276.00 135.00
C 276.00 149.00 276.00 163.00 276.00 177.00
C 276.00 210.67 276.00 244.33 276.00 278.00
C 265.67 278.00 255.33 278.00 245.00 278.00
C 256.76 279.29 278.81 284.05 277.00 268.00 C 275.19 251.95 277.79 240.12 277.00 225.00 C 276.21 209.88 277.31 196.70 277.00 182.00 C 276.69 167.30 277.05 152.43 277.00 138.00 C 276.95 123.57 276.82 109.10 277.00 95.00 C 277.18 80.90 276.46 65.61 277.00 52.00 C 277.54 38.39 272.99 25.25 284.00 16.00
C 194.33 16.00 104.67 16.00 15.00 16.00
C 15.21 19.56 21.01 21.32 22.00 24.00 Z"/>
</g>
<g fill="#8169C0" fill-opacity="1.00" stroke="None">
<path d="
M 22.00 24.00 
C 22.00 23.96 23.00 24.00 23.00 24.00
C 107.33 24.00 191.67 24.00 276.00 24.00
C 273.04 19.77 260.48 24.31 255.00 23.00 C 249.52 21.69 240.36 23.59 234.00 23.00 C 227.64 22.41 219.81 23.25 213.00 23.00 C 206.19 22.75 197.98 23.12 191.00 23.00 C 184.02 22.88 177.02 23.04 170.00 23.00 C 162.98 22.96 156.08 23.00 149.00 23.00 C 141.92 23.00 134.07 22.97 127.00 23.00 C 119.93 23.03 112.98 22.90 106.00 23.00 C 99.02 23.10 91.89 22.77 85.00 23.00 C 78.11 23.23 69.62 22.50 63.00 23.00 C 56.38 23.50 47.92 21.85 42.00 23.00 C 36.08 24.15 25.89 19.95 22.00 24.00 Z"/>
</g>
<g fill="#5E4BA2" fill-opacity="1.00" stroke="None">
<path d="
M 22.00 278.00 
C 22.00 278.04 23.00 278.00 23.00 278.00
C 25.51 250.18 22.34 222.00 23.00 194.00 C 23.66 166.00 23.70 137.06 23.00 109.00 C 22.30 80.94 25.53 51.95 23.00 24.00
C 23.00 24.00 22.00 23.96 22.00 24.00
C 19.47 51.95 22.70 80.94 22.00 109.00 C 21.30 137.06 21.34 166.00 22.00 194.00 C 22.66 222.00 19.48 250.18 22.00 278.00 Z"/>
</g>
<g fill="#463494" fill-opacity="1.00" stroke="None">
<path d="
M 23.00 278.00 
C 27.12 278.00 36.40 277.80 40.00 278.00 C 43.60 278.20 54.97 278.34 53.00 276.00
C 52.50 276.00 52.00 276.00 52.00 276.00
C 46.33 276.00 40.67 276.00 35.00 276.00
C 39.68 260.15 42.81 243.79 48.00 228.00
C 50.33 228.00 52.67 228.00 55.00 228.00
C 51.35 216.50 64.69 218.50 72.00 219.00
C 70.74 210.82 67.79 203.09 66.00 195.00
C 63.87 189.02 62.83 182.74 66.00 177.00
C 67.05 174.08 69.30 170.58 71.00 168.00
C 70.13 165.28 71.65 161.79 71.00 159.00
C 60.42 159.95 49.60 158.29 39.00 159.00
C 38.93 151.18 39.10 143.87 39.00 136.00 C 38.90 128.13 39.18 119.93 39.00 112.00 C 38.82 104.07 39.40 97.05 39.00 89.00 C 38.60 80.95 39.84 73.29 39.00 65.00 C 38.16 56.71 38.39 48.34 48.00 50.00 C 57.61 51.66 62.33 49.26 71.00 50.00 C 79.67 50.74 86.65 49.61 95.00 50.00 C 103.35 50.39 110.74 49.71 119.00 50.00
C 119.00 64.33 119.00 78.67 119.00 93.00
C 122.19 93.00 125.52 93.65 128.00 94.00
C 141.84 94.53 147.68 96.26 159.25 103.75 C 170.81 111.25 170.00 120.22 170.00 134.00
C 170.00 140.33 170.00 146.67 170.00 153.00
C 170.73 145.48 174.52 142.16 181.02 140.02 C 187.53 137.89 193.12 134.80 198.67 133.67 C 204.22 132.54 214.88 132.25 217.00 128.00
C 217.00 124.54 218.95 111.09 216.00 109.00
C 209.04 109.63 201.18 108.60 195.00 108.00
C 191.33 108.00 187.67 108.00 184.00 108.00
C 186.53 88.63 191.78 69.96 196.00 51.00
C 212.67 51.00 229.33 51.00 246.00 51.00
C 250.01 69.98 254.06 88.97 258.00 108.00
C 254.00 108.00 250.00 108.00 246.00 108.00
C 240.06 108.57 232.65 109.60 226.00 109.00
C 221.94 111.87 226.97 123.06 225.00 127.00
C 242.25 128.59 259.06 133.25 275.00 139.00
C 275.28 137.72 274.24 135.50 276.00 135.00
C 276.00 128.79 276.04 122.16 276.00 116.00 C 275.96 109.84 276.11 104.10 276.00 98.00 C 275.89 91.90 276.25 85.00 276.00 79.00 C 275.75 73.00 276.58 66.76 276.00 61.00 C 275.42 55.24 277.23 47.29 276.00 42.00 C 274.77 36.71 278.87 28.10 276.00 24.00
C 191.67 24.00 107.33 24.00 23.00 24.00
C 25.53 51.95 22.30 80.94 23.00 109.00 C 23.70 137.06 23.66 166.00 23.00 194.00 C 22.34 222.00 25.51 250.18 23.00 278.00 Z"/>
</g>
<g fill="#604A76" fill-opacity="1.00" stroke="None">
<path d="
M 71.00 159.00 
C 70.76 158.68 71.00 158.00 71.00 158.00
C 60.75 157.07 50.27 158.69 40.00 158.00
C 40.00 143.33 40.00 128.67 40.00 114.00
C 40.00 93.00 40.00 72.00 40.00 51.00
C 66.00 51.00 92.00 51.00 118.00 51.00
C 118.00 65.00 118.00 79.00 118.00 93.00
C 118.49 93.06 119.00 93.00 119.00 93.00
C 119.00 78.67 119.00 64.33 119.00 50.00
C 110.74 49.71 103.35 50.39 95.00 50.00 C 86.65 49.61 79.67 50.74 71.00 50.00 C 62.33 49.26 57.61 51.66 48.00 50.00 C 38.39 48.34 38.16 56.71 39.00 65.00 C 39.84 73.29 38.60 80.95 39.00 89.00 C 39.40 97.05 38.82 104.07 39.00 112.00 C 39.18 119.93 38.90 128.13 39.00 136.00 C 39.10 143.87 38.93 151.18 39.00 159.00
C 49.60 158.29 60.42 159.95 71.00 159.00 Z"/>
</g>
<g fill="#8E7883" fill-opacity="1.00" stroke="None">
<path d="
M 40.00 114.00 
C 40.92 116.48 43.79 117.00 46.00 118.00
C 46.25 108.57 46.85 97.27 47.00 88.00 C 47.15 78.73 45.36 66.41 49.00 61.00
C 54.48 59.53 62.30 61.08 68.00 61.00 C 73.70 60.92 82.62 59.92 88.00 61.00 C 93.38 62.08 103.79 58.06 108.00 61.00
C 110.54 62.78 109.09 74.95 109.00 78.00 C 108.91 81.05 110.79 93.52 108.00 95.00
C 110.57 94.87 112.47 94.20 115.00 94.00
C 115.96 93.68 116.43 92.81 118.00 93.00
C 118.00 79.00 118.00 65.00 118.00 51.00
C 92.00 51.00 66.00 51.00 40.00 51.00
C 40.00 72.00 40.00 93.00 40.00 114.00 Z"/>
</g>
<g fill="#908393" fill-opacity="1.00" stroke="None">
<path d="
M 195.00 108.00 
C 196.67 108.00 198.33 108.00 200.00 108.00
C 199.13 107.79 197.51 106.18 196.00 107.00
C 196.00 91.08 198.48 75.74 203.00 61.00
C 209.29 64.67 216.01 57.96 221.70 58.65 C 227.38 59.34 233.62 66.72 239.00 62.00
C 240.42 67.54 241.79 73.12 242.00 79.00
C 242.42 81.65 242.94 84.07 243.00 87.00
C 243.73 93.03 246.23 100.09 245.00 107.00
C 242.81 107.52 239.38 105.86 238.00 108.00
C 240.67 108.00 243.33 108.00 246.00 108.00
C 250.00 108.00 254.00 108.00 258.00 108.00
C 254.06 88.97 250.01 69.98 246.00 51.00
C 229.33 51.00 212.67 51.00 196.00 51.00
C 191.78 69.96 186.53 88.63 184.00 108.00
C 187.67 108.00 191.33 108.00 195.00 108.00 Z"/>
</g>
<g fill="#B2A6A6" fill-opacity="1.00" stroke="None">
<path d="
M 200.00 108.00 
C 205.26 108.00 210.76 107.53 216.00 108.00
C 213.39 107.75 209.32 106.11 206.00 107.00
C 195.59 94.63 196.91 79.69 209.70 70.70 C 222.49 61.71 232.78 67.86 242.00 79.00
C 241.79 73.12 240.42 67.54 239.00 62.00
C 233.62 66.72 227.38 59.34 221.70 58.65 C 216.01 57.96 209.29 64.67 203.00 61.00
C 198.48 75.74 196.00 91.08 196.00 107.00
C 197.51 106.18 199.13 107.79 200.00 108.00 Z"/>
</g>
<g fill="#80697B" fill-opacity="1.00" stroke="None">
<path d="
M 40.00 114.00 
C 40.00 128.67 40.00 143.33 40.00 158.00
C 50.27 158.69 60.75 157.07 71.00 158.00
C 71.00 154.35 70.63 151.34 70.00 148.00
C 65.33 144.70 54.25 150.47 49.00 148.00
C 49.00 141.67 49.00 135.33 49.00 129.00
C 49.00 113.33 49.00 97.67 49.00 82.00
C 49.00 76.70 51.17 65.73 49.00 61.00
C 45.36 66.41 47.15 78.73 47.00 88.00 C 46.85 97.27 46.25 108.57 46.00 118.00
C 43.79 117.00 40.92 116.48 40.00 114.00 Z"/>
</g>
<g fill="#52706D" fill-opacity="1.00" stroke="None">
<path d="
M 49.00 82.00 
C 50.44 87.52 59.40 87.34 63.00 91.00
C 63.25 91.25 64.00 91.00 64.00 91.00
C 64.91 74.21 77.03 67.68 92.00 77.00
C 92.29 82.75 92.56 88.55 94.00 94.00
C 96.04 91.45 99.09 89.46 100.00 86.00
C 102.49 86.68 101.99 90.00 104.00 91.00
C 104.97 88.71 106.24 85.87 108.00 89.00
C 108.00 79.67 108.00 70.33 108.00 61.00
C 103.79 58.06 93.38 62.08 88.00 61.00 C 82.62 59.92 73.70 60.92 68.00 61.00 C 62.30 61.08 54.48 59.53 49.00 61.00
C 51.17 65.73 49.00 76.70 49.00 82.00 Z"/>
</g>
<g fill="#6F726C" fill-opacity="1.00" stroke="None">
<path d="
M 94.00 94.00 
C 94.15 94.45 94.24 95.69 94.00 96.00
C 96.80 95.47 100.27 95.23 103.00 95.00
C 104.65 94.86 106.34 95.08 108.00 95.00
C 110.79 93.52 108.91 81.05 109.00 78.00 C 109.09 74.95 110.54 62.78 108.00 61.00
C 108.00 70.33 108.00 79.67 108.00 89.00
C 106.24 85.87 104.97 88.71 104.00 91.00
C 101.99 90.00 102.49 86.68 100.00 86.00
C 99.09 89.46 96.04 91.45 94.00 94.00 Z"/>
</g>
<g fill="#CAC0B8" fill-opacity="1.00" stroke="None">
<path d="
M 216.00 108.00 
C 219.27 107.70 222.71 108.00 226.00 108.00
C 228.33 108.00 230.67 108.00 233.00 108.00
C 239.39 106.01 243.11 92.66 243.00 87.00
C 242.94 84.07 242.42 81.65 242.00 79.00
C 232.78 67.86 222.49 61.71 209.70 70.70 C 196.91 79.69 195.59 94.63 206.00 107.00
C 209.32 106.11 213.39 107.75 216.00 108.00
M 220.00 71.00 
C 231.22 69.50 240.52 86.76 234.07 97.07 C 227.63 107.39 215.05 109.55 208.23 98.77 C 201.41 87.99 206.96 72.74 220.00 71.00 Z"/>
</g>
<g fill="#E5DED4" fill-opacity="1.00" stroke="None">
<path d="
M 220.00 71.00 
C 206.96 72.74 201.41 87.99 208.23 98.77 C 215.05 109.55 227.63 107.39 234.07 97.07 C 240.52 86.76 231.22 69.50 220.00 71.00 Z"/>
</g>
<g fill="#2C273E" fill-opacity="1.00" stroke="None">
<path d="
M 64.00 91.00 
C 63.79 94.86 64.48 98.83 63.00 102.00
C 60.90 106.49 54.91 108.70 55.22 114.22 C 55.53 119.75 54.90 128.10 49.00 129.00
C 49.00 135.33 49.00 141.67 49.00 148.00
C 54.25 150.47 65.33 144.70 70.00 148.00
C 69.83 147.09 70.00 145.93 70.00 145.00
C 68.04 147.93 61.42 143.90 63.00 140.00 C 64.59 136.09 61.81 130.09 63.00 126.00
C 65.33 125.56 67.02 127.24 69.00 128.00
C 68.67 124.59 68.62 120.40 69.00 117.00
C 67.06 117.62 65.87 115.80 64.00 116.00
C 65.82 110.32 72.20 106.68 74.00 101.00
C 67.57 95.72 64.41 82.38 75.22 79.22 C 86.04 76.07 91.06 87.30 88.00 98.00
C 89.24 97.32 92.95 96.20 94.00 96.00
C 94.24 95.69 94.15 94.45 94.00 94.00
C 92.56 88.55 92.29 82.75 92.00 77.00
C 77.03 67.68 64.91 74.21 64.00 91.00 Z"/>
</g>
<g fill="#8A7481" fill-opacity="1.00" stroke="None">
<path d="
M 69.00 117.00 
C 69.75 110.30 82.18 101.18 88.00 98.00
C 91.06 87.30 86.04 76.07 75.22 79.22 C 64.41 82.38 67.57 95.72 74.00 101.00
C 72.20 106.68 65.82 110.32 64.00 116.00
C 65.87 115.80 67.06 117.62 69.00 117.00 Z"/>
</g>
<g fill="#676F66" fill-opacity="1.00" stroke="None">
<path d="
M 49.00 129.00 
C 54.90 128.10 55.53 119.75 55.22 114.22 C 54.91 108.70 60.90 106.49 63.00 102.00
C 63.97 98.77 62.69 94.37 63.00 91.00
C 59.40 87.34 50.44 87.52 49.00 82.00
C 49.00 97.67 49.00 113.33 49.00 129.00 Z"/>
</g>
<g fill="#B7AAAC" fill-opacity="1.00" stroke="None">
<path d="
M 233.00 108.00 
C 234.67 108.00 236.33 108.00 238.00 108.00
C 239.38 105.86 242.81 107.52 245.00 107.00
C 246.23 100.09 243.73 93.03 243.00 87.00
C 243.11 92.66 239.39 106.01 233.00 108.00 Z"/>
</g>
<g fill="#4B4E53" fill-opacity="1.00" stroke="None">
<path d="
M 63.00 102.00 
C 64.48 98.83 63.79 94.86 64.00 91.00
C 64.00 91.00 63.25 91.25 63.00 91.00
C 62.69 94.37 63.97 98.77 63.00 102.00 Z"/>
</g>
<g fill="#95456A" fill-opacity="1.00" stroke="None">
<path d="
M 115.00 94.00 
C 119.22 93.66 123.76 93.84 128.00 94.00
C 125.52 93.65 122.19 93.00 119.00 93.00
C 119.00 93.00 118.49 93.06 118.00 93.00
C 116.43 92.81 115.96 93.68 115.00 94.00 Z"/>
</g>
<g fill="#CD4C3A" fill-opacity="1.00" stroke="None">
<path d="
M 108.00 95.00 
C 106.34 95.08 104.65 94.86 103.00 95.00
C 93.04 97.21 84.15 108.00 74.00 111.00
C 74.62 114.50 72.73 119.32 75.00 122.00
C 75.00 118.67 75.00 115.33 75.00 112.00
C 80.80 108.12 86.24 107.60 92.08 103.08 C 97.91 98.55 104.79 101.67 110.00 102.00
C 109.90 106.30 114.44 106.10 118.00 105.00
C 119.25 109.43 125.83 109.88 127.30 115.70 C 128.78 121.51 136.33 119.10 135.00 126.00
C 151.92 126.86 147.28 147.62 151.00 158.00
C 150.22 160.92 149.06 160.82 147.00 159.00
C 145.75 165.09 151.97 160.21 154.00 163.00
C 158.96 163.29 164.03 163.00 169.00 163.00
C 168.14 153.53 169.16 142.69 170.00 134.00
C 170.00 120.22 170.81 111.25 159.25 103.75 C 147.68 96.26 141.84 94.53 128.00 94.00
C 123.76 93.84 119.22 93.66 115.00 94.00
C 112.47 94.20 110.57 94.87 108.00 95.00 Z"/>
</g>
<g fill="#A42F36" fill-opacity="1.00" stroke="None">
<path d="
M 94.00 96.00 
C 92.95 96.20 89.24 97.32 88.00 98.00
C 82.18 101.18 69.75 110.30 69.00 117.00
C 68.62 120.40 68.67 124.59 69.00 128.00
C 69.49 133.04 70.00 139.27 70.00 145.00
C 70.00 145.93 69.83 147.09 70.00 148.00
C 70.63 151.34 71.00 154.35 71.00 158.00
C 71.00 158.00 70.76 158.68 71.00 159.00
C 72.35 160.82 72.36 164.49 72.00 167.00
C 74.00 166.92 76.00 167.06 78.00 167.00
C 78.41 159.82 76.24 153.28 77.00 146.00
C 77.00 137.62 75.00 130.50 75.00 122.00
C 72.73 119.32 74.62 114.50 74.00 111.00
C 84.15 108.00 93.04 97.21 103.00 95.00
C 100.27 95.23 96.80 95.47 94.00 96.00 Z"/>
</g>
<g fill="#DB6348" fill-opacity="1.00" stroke="None">
<path d="
M 75.00 122.00 
C 75.00 130.50 77.00 137.62 77.00 146.00
C 78.17 158.07 82.26 173.64 67.00 179.00
C 75.78 178.83 84.07 180.74 93.00 180.00
C 91.26 195.65 100.13 207.64 102.78 222.22 C 105.43 236.80 103.06 253.87 106.00 267.00
C 114.51 266.23 123.45 267.00 132.00 267.00
C 132.50 267.00 133.00 267.00 133.00 267.00
C 135.05 265.48 138.27 266.00 141.00 266.00
C 150.66 266.00 161.11 266.14 170.00 267.00
C 178.13 267.79 187.87 267.79 196.00 267.00
C 198.98 266.71 206.74 266.68 208.00 264.00
C 208.98 252.87 205.52 239.11 208.00 228.00 C 210.48 216.89 212.44 207.67 216.00 197.00
C 216.39 195.82 217.77 193.84 218.00 193.00
C 218.00 188.33 218.00 183.67 218.00 179.00
C 218.55 179.89 215.47 177.74 216.00 178.00
C 213.09 176.56 210.13 174.18 207.00 173.00
C 202.00 171.86 193.08 172.22 188.00 173.00
C 185.86 173.79 183.90 178.75 182.00 180.00
C 188.55 186.38 197.51 190.25 194.00 202.00
C 189.03 201.29 183.43 200.36 179.00 199.00
C 175.84 198.43 172.62 198.40 170.00 197.00
C 169.67 196.82 169.26 196.11 169.00 196.00
C 168.50 195.97 167.50 196.00 167.00 196.00
C 158.19 196.00 147.64 197.62 139.00 196.00
C 137.71 195.76 136.30 196.19 135.00 196.00
C 135.32 192.00 137.77 188.02 140.00 185.00
C 142.68 179.58 144.72 173.61 147.00 168.00
C 148.83 163.51 149.03 163.38 154.00 163.00
C 151.97 160.21 145.75 165.09 147.00 159.00
C 149.06 160.82 150.22 160.92 151.00 158.00
C 147.28 147.62 151.92 126.86 135.00 126.00
C 136.33 119.10 128.78 121.51 127.30 115.70 C 125.83 109.88 119.25 109.43 118.00 105.00
C 114.44 106.10 109.90 106.30 110.00 102.00
C 104.79 101.67 97.91 98.55 92.08 103.08 C 86.24 107.60 80.80 108.12 75.00 112.00
C 75.00 115.33 75.00 118.67 75.00 122.00
M 100.00 197.00 
C 94.01 187.35 105.58 172.34 112.92 182.08 C 120.25 191.82 108.78 204.87 100.00 197.00
M 206.00 178.00 
C 215.54 178.94 215.31 200.19 204.92 199.92 C 194.54 199.66 195.38 176.95 206.00 178.00
M 118.00 220.00 
C 124.30 217.01 135.85 220.77 143.00 220.00 C 150.15 219.23 160.78 219.06 168.00 220.00 C 175.22 220.94 187.54 216.93 194.00 220.00
C 194.94 220.45 186.07 222.88 182.00 222.00 C 177.93 221.12 169.70 222.22 165.00 222.00 C 160.30 221.78 152.70 221.72 148.00 222.00 C 143.30 222.28 135.05 221.03 131.00 222.00 C 126.95 222.97 117.03 220.46 118.00 220.00 Z"/>
</g>
<g fill="#8172A3" fill-opacity="1.00" stroke="None">
<path d="
M 216.00 109.00 
C 215.88 108.97 216.00 108.00 216.00 108.00
C 210.76 107.53 205.26 108.00 200.00 108.00
C 198.33 108.00 196.67 108.00 195.00 108.00
C 201.18 108.60 209.04 109.63 216.00 109.00 Z"/>
</g>
<g fill="#AB9397" fill-opacity="1.00" stroke="None">
<path d="
M 216.00 109.00 
C 220.89 110.31 217.13 125.15 218.00 131.00 C 218.87 136.85 217.68 148.12 218.00 155.00 C 218.32 161.88 218.00 171.84 218.00 179.00
C 218.00 183.67 218.00 188.33 218.00 193.00
C 218.00 215.99 219.67 240.89 217.00 263.00
C 216.95 265.39 217.68 268.37 216.00 270.00
C 216.87 269.73 219.22 269.15 220.00 267.00
C 222.78 270.14 228.40 272.97 232.00 271.00
C 229.95 270.76 226.26 270.55 225.00 269.00
C 220.96 264.04 225.14 253.71 224.00 247.00 C 222.86 240.29 224.48 231.21 224.00 224.00 C 223.52 216.79 224.14 208.40 224.00 201.00 C 223.86 193.60 223.92 184.30 224.00 177.00 C 224.08 169.70 223.62 160.79 224.00 154.00 C 224.38 147.21 223.06 136.70 224.00 131.00 C 224.94 125.30 221.07 110.32 226.00 109.00
C 226.12 108.97 226.00 108.00 226.00 108.00
C 222.71 108.00 219.27 107.70 216.00 108.00
C 216.00 108.00 215.88 108.97 216.00 109.00 Z"/>
</g>
<g fill="#8072A4" fill-opacity="1.00" stroke="None">
<path d="
M 226.00 109.00 
C 232.65 109.60 240.06 108.57 246.00 108.00
C 243.33 108.00 240.67 108.00 238.00 108.00
C 236.33 108.00 234.67 108.00 233.00 108.00
C 230.67 108.00 228.33 108.00 226.00 108.00
C 226.00 108.00 226.12 108.97 226.00 109.00 Z"/>
</g>
<g fill="#917587" fill-opacity="1.00" stroke="None">
<path d="
M 217.00 128.00 
C 217.00 135.96 215.92 145.17 217.00 153.00 C 218.08 160.83 214.69 171.36 216.00 178.00
C 215.47 177.74 218.55 179.89 218.00 179.00
C 218.00 171.84 218.32 161.88 218.00 155.00 C 217.68 148.12 218.87 136.85 218.00 131.00 C 217.13 125.15 220.89 110.31 216.00 109.00
C 218.95 111.09 217.00 124.54 217.00 128.00 Z"/>
</g>
<g fill="#6F53AC" fill-opacity="1.00" stroke="None">
<path d="
M 225.00 269.00 
C 221.65 263.06 226.45 253.06 225.00 246.00 C 223.55 238.94 225.67 229.56 225.00 222.00 C 224.33 214.44 225.35 205.77 225.00 198.00 C 224.65 190.23 225.26 181.83 225.00 174.00
C 231.05 180.28 244.24 177.90 252.03 177.02 C 259.81 176.14 273.75 173.12 274.00 164.00
C 276.83 167.27 273.14 173.80 276.00 177.00
C 276.00 163.00 276.00 149.00 276.00 135.00
C 274.24 135.50 275.28 137.72 275.00 139.00
C 259.06 133.25 242.25 128.59 225.00 127.00
C 226.97 123.06 221.94 111.87 226.00 109.00
C 221.07 110.32 224.94 125.30 224.00 131.00 C 223.06 136.70 224.38 147.21 224.00 154.00 C 223.62 160.79 224.08 169.70 224.00 177.00 C 223.92 184.30 223.86 193.60 224.00 201.00 C 224.14 208.40 223.52 216.79 224.00 224.00 C 224.48 231.21 222.86 240.29 224.00 247.00 C 225.14 253.71 220.96 264.04 225.00 269.00 Z"/>
</g>
<g fill="#7D6577" fill-opacity="1.00" stroke="None">
<path d="
M 70.00 145.00 
C 70.00 139.27 69.49 133.04 69.00 128.00
C 67.02 127.24 65.33 125.56 63.00 126.00
C 61.81 130.09 64.59 136.09 63.00 140.00 C 61.42 143.90 68.04 147.93 70.00 145.00 Z"/>
</g>
<g fill="#7254AD" fill-opacity="1.00" stroke="None">
<path d="
M 170.00 153.00 
C 170.00 156.29 170.30 159.73 170.00 163.00
C 172.24 162.70 174.74 163.00 177.00 163.00
C 181.00 163.00 185.00 163.00 189.00 163.00
C 188.76 165.58 186.92 167.62 186.00 170.00
C 187.28 174.14 202.98 171.48 207.00 173.00
C 210.13 174.18 213.09 176.56 216.00 178.00
C 214.69 171.36 218.08 160.83 217.00 153.00 C 215.92 145.17 217.00 135.96 217.00 128.00
C 214.88 132.25 204.22 132.54 198.67 133.67 C 193.12 134.80 187.53 137.89 181.02 140.02 C 174.52 142.16 170.73 145.48 170.00 153.00 Z"/>
</g>
<g fill="#BB4552" fill-opacity="1.00" stroke="None">
<path d="
M 169.00 163.00 
C 169.50 163.00 170.00 163.00 170.00 163.00
C 170.30 159.73 170.00 156.29 170.00 153.00
C 170.00 146.67 170.00 140.33 170.00 134.00
C 169.16 142.69 168.14 153.53 169.00 163.00 Z"/>
</g>
<g fill="#C94A42" fill-opacity="1.00" stroke="None">
<path d="
M 72.00 167.00 
C 71.95 167.35 71.18 167.73 71.00 168.00
C 69.30 170.58 67.05 174.08 66.00 177.00
C 65.84 177.44 66.00 178.00 66.00 178.00
C 66.51 181.49 71.50 179.32 74.00 181.00
C 73.66 194.44 79.74 207.56 81.00 220.00
C 83.06 220.62 82.10 220.18 83.00 222.00
C 85.79 227.62 84.01 234.66 85.99 241.01 C 87.97 247.35 86.44 255.10 87.00 262.00 C 87.56 268.90 99.31 265.01 104.00 267.00
C 104.42 267.18 105.84 266.77 106.00 267.00
C 103.06 253.87 105.43 236.80 102.78 222.22 C 100.13 207.64 91.26 195.65 93.00 180.00
C 84.07 180.74 75.78 178.83 67.00 179.00
C 82.26 173.64 78.17 158.07 77.00 146.00
C 76.24 153.28 78.41 159.82 78.00 167.00
C 76.00 167.06 74.00 166.92 72.00 167.00 Z"/>
</g>
<g fill="#7E2961" fill-opacity="1.00" stroke="None">
<path d="
M 71.00 168.00 
C 71.18 167.73 71.95 167.35 72.00 167.00
C 72.36 164.49 72.35 160.82 71.00 159.00
C 71.65 161.79 70.13 165.28 71.00 168.00 Z"/>
</g>
<g fill="#D8A0A0" fill-opacity="1.00" stroke="None">
<path d="
M 147.00 168.00 
C 147.74 166.75 149.96 165.92 150.00 164.00
C 156.67 164.00 163.33 164.00 170.00 164.00
C 170.04 164.00 170.00 163.00 170.00 163.00
C 170.00 163.00 169.50 163.00 169.00 163.00
C 164.03 163.00 158.96 163.29 154.00 163.00
C 149.03 163.38 148.83 163.51 147.00 168.00 Z"/>
</g>
<g fill="#A091BF" fill-opacity="1.00" stroke="None">
<path d="
M 170.00 164.00 
C 172.41 163.95 175.30 163.16 177.00 163.00
C 174.74 163.00 172.24 162.70 170.00 163.00
C 170.00 163.00 170.04 164.00 170.00 164.00 Z"/>
</g>
<g fill="#E4DDE0" fill-opacity="1.00" stroke="None">
<path d="
M 170.00 164.00 
C 163.33 164.00 156.67 164.00 150.00 164.00
C 149.96 165.92 147.74 166.75 147.00 168.00
C 144.72 173.61 142.68 179.58 140.00 185.00
C 140.18 185.97 139.86 187.03 140.00 188.00
C 152.02 187.85 165.08 186.59 174.00 195.00
C 174.24 194.73 174.94 194.24 175.00 194.00
C 176.21 189.52 178.10 185.30 180.00 181.00
C 180.91 178.94 181.98 177.00 183.00 175.00
C 183.91 173.22 185.11 171.52 186.00 170.00
C 186.92 167.62 188.76 165.58 189.00 163.00
C 185.00 163.00 181.00 163.00 177.00 163.00
C 175.30 163.16 172.41 163.95 170.00 164.00 Z"/>
</g>
<g fill="#5941A5" fill-opacity="1.00" stroke="None">
<path d="
M 225.00 269.00 
C 226.26 270.55 229.95 270.76 232.00 271.00
C 232.49 271.06 233.55 270.85 234.00 271.00
C 238.28 272.48 244.50 271.90 245.00 278.00
C 255.33 278.00 265.67 278.00 276.00 278.00
C 276.00 244.33 276.00 210.67 276.00 177.00
C 273.14 173.80 276.83 167.27 274.00 164.00
C 273.75 173.12 259.81 176.14 252.03 177.02 C 244.24 177.90 231.05 180.28 225.00 174.00
C 225.26 181.83 224.65 190.23 225.00 198.00 C 225.35 205.77 224.33 214.44 225.00 222.00 C 225.67 229.56 223.55 238.94 225.00 246.00 C 226.45 253.06 221.65 263.06 225.00 269.00 Z"/>
</g>
<g fill="#CA6571" fill-opacity="1.00" stroke="None">
<path d="
M 183.00 175.00 
C 184.58 173.43 185.92 173.32 188.00 173.00
C 193.08 172.22 202.00 171.86 207.00 173.00
C 202.98 171.48 187.28 174.14 186.00 170.00
C 185.11 171.52 183.91 173.22 183.00 175.00 Z"/>
</g>
<g fill="#D74530" fill-opacity="1.00" stroke="None">
<path d="
M 183.00 175.00 
C 181.98 177.00 180.91 178.94 180.00 181.00
C 179.62 184.50 184.22 196.70 179.00 199.00
C 183.43 200.36 189.03 201.29 194.00 202.00
C 197.51 190.25 188.55 186.38 182.00 180.00
C 183.90 178.75 185.86 173.79 188.00 173.00
C 185.92 173.32 184.58 173.43 183.00 175.00 Z"/>
</g>
<g fill="#722E78" fill-opacity="1.00" stroke="None">
<path d="
M 66.00 195.00 
C 65.04 190.68 63.28 181.67 66.00 178.00
C 66.00 178.00 65.84 177.44 66.00 177.00
C 62.83 182.74 63.87 189.02 66.00 195.00 Z"/>
</g>
<g fill="#B3343A" fill-opacity="1.00" stroke="None">
<path d="
M 66.00 195.00 
C 67.79 203.09 70.74 210.82 72.00 219.00
C 74.71 219.18 78.39 219.22 81.00 220.00
C 79.74 207.56 73.66 194.44 74.00 181.00
C 71.50 179.32 66.51 181.49 66.00 178.00
C 63.28 181.67 65.04 190.68 66.00 195.00 Z"/>
</g>
<g fill="#653D37" fill-opacity="1.00" stroke="None">
<path d="
M 100.00 197.00 
C 108.78 204.87 120.25 191.82 112.92 182.08 C 105.58 172.34 94.01 187.35 100.00 197.00 Z"/>
</g>
<g fill="#603934" fill-opacity="1.00" stroke="None">
<path d="
M 206.00 178.00 
C 195.38 176.95 194.54 199.66 204.92 199.92 C 215.31 200.19 215.54 178.94 206.00 178.00 Z"/>
</g>
<g fill="#A8261D" fill-opacity="1.00" stroke="None">
<path d="
M 175.00 194.00 
C 175.77 196.75 171.81 197.44 170.00 197.00
C 172.62 198.40 175.84 198.43 179.00 199.00
C 184.22 196.70 179.62 184.50 180.00 181.00
C 178.10 185.30 176.21 189.52 175.00 194.00 Z"/>
</g>
<g fill="#E1C3C4" fill-opacity="1.00" stroke="None">
<path d="
M 139.00 196.00 
C 147.06 196.71 158.95 192.58 167.00 196.00
C 167.50 196.00 168.50 195.97 169.00 196.00
C 170.92 196.10 172.77 196.41 174.00 195.00
C 165.08 186.59 152.02 187.85 140.00 188.00
C 139.86 187.03 140.18 185.97 140.00 185.00
C 137.77 188.02 135.32 192.00 135.00 196.00
C 136.30 196.19 137.71 195.76 139.00 196.00 Z"/>
</g>
<g fill="#927588" fill-opacity="1.00" stroke="None">
<path d="
M 216.00 197.00 
C 215.26 206.85 217.86 218.17 217.00 229.00 C 216.14 239.83 217.22 252.03 217.00 263.00
C 219.67 240.89 218.00 215.99 218.00 193.00
C 217.77 193.84 216.39 195.82 216.00 197.00 Z"/>
</g>
<g fill="#AB5B59" fill-opacity="1.00" stroke="None">
<path d="
M 174.00 195.00 
C 172.77 196.41 170.92 196.10 169.00 196.00
C 169.26 196.11 169.67 196.82 170.00 197.00
C 171.81 197.44 175.77 196.75 175.00 194.00
C 174.94 194.24 174.24 194.73 174.00 195.00 Z"/>
</g>
<g fill="#C88685" fill-opacity="1.00" stroke="None">
<path d="
M 139.00 196.00 
C 147.64 197.62 158.19 196.00 167.00 196.00
C 158.95 192.58 147.06 196.71 139.00 196.00 Z"/>
</g>
<g fill="#553B9E" fill-opacity="1.00" stroke="None">
<path d="
M 208.00 264.00 
C 207.99 264.14 209.91 266.15 209.00 267.00
C 204.67 267.00 200.33 267.00 196.00 267.00
C 195.88 267.04 194.07 270.89 192.00 269.00
C 192.01 272.29 189.88 274.93 189.00 278.00
C 191.90 277.94 194.42 278.31 197.00 277.00
C 197.93 272.13 202.23 272.58 206.00 272.00
C 209.22 271.51 212.85 270.97 216.00 270.00
C 217.68 268.37 216.95 265.39 217.00 263.00
C 217.22 252.03 216.14 239.83 217.00 229.00 C 217.86 218.17 215.26 206.85 216.00 197.00
C 212.44 207.67 210.48 216.89 208.00 228.00 C 205.52 239.11 208.98 252.87 208.00 264.00 Z"/>
</g>
<g fill="#C98949" fill-opacity="1.00" stroke="None">
<path d="
M 55.00 228.00 
C 57.91 227.94 61.11 227.66 64.00 228.00
C 68.09 228.48 69.92 229.17 70.00 232.00
C 70.11 235.56 68.47 239.37 68.00 243.00
C 66.49 254.60 65.30 266.10 65.00 278.00
C 66.67 278.00 68.33 278.00 70.00 278.00
C 70.48 268.40 71.18 257.11 72.99 247.99 C 74.80 238.88 70.73 223.73 80.00 221.00
C 80.78 230.70 77.88 241.64 78.00 251.00 C 78.12 260.36 72.81 271.08 77.00 278.00
C 76.53 274.39 77.92 271.51 78.00 268.00
C 78.01 267.50 78.00 267.00 78.00 267.00
C 78.28 255.09 80.85 242.90 82.00 231.00
C 82.24 228.52 83.46 224.28 83.00 222.00
C 82.10 220.18 83.06 220.62 81.00 220.00
C 78.39 219.22 74.71 219.18 72.00 219.00
C 64.69 218.50 51.35 216.50 55.00 228.00 Z"/>
</g>
<g fill="#C44E36" fill-opacity="1.00" stroke="None">
<path d="
M 194.00 220.00 
C 169.74 221.66 142.19 221.67 118.00 220.00
C 117.03 220.46 126.95 222.97 131.00 222.00 C 135.05 221.03 143.30 222.28 148.00 222.00 C 152.70 221.72 160.30 221.78 165.00 222.00 C 169.70 222.22 177.93 221.12 182.00 222.00 C 186.07 222.88 194.94 220.45 194.00 220.00 Z"/>
</g>
<g fill="#993928" fill-opacity="1.00" stroke="None">
<path d="
M 194.00 220.00 
C 187.54 216.93 175.22 220.94 168.00 220.00 C 160.78 219.06 150.15 219.23 143.00 220.00 C 135.85 220.77 124.30 217.01 118.00 220.00
C 142.19 221.67 169.74 221.66 194.00 220.00 Z"/>
</g>
<g fill="#D4C0BF" fill-opacity="1.00" stroke="None">
<path d="
M 70.00 278.00 
C 72.66 277.89 74.61 278.79 77.00 279.00
C 76.96 279.00 77.00 278.00 77.00 278.00
C 72.81 271.08 78.12 260.36 78.00 251.00 C 77.88 241.64 80.78 230.70 80.00 221.00
C 70.73 223.73 74.80 238.88 72.99 247.99 C 71.18 257.11 70.48 268.40 70.00 278.00 Z"/>
</g>
<g fill="#AF2E21" fill-opacity="1.00" stroke="None">
<path d="
M 82.00 231.00 
C 82.26 235.38 82.89 244.24 83.00 249.00 C 83.11 253.76 80.81 264.90 85.00 267.00
C 91.00 267.00 97.00 267.00 103.00 267.00
C 103.50 267.00 104.00 267.00 104.00 267.00
C 99.31 265.01 87.56 268.90 87.00 262.00 C 86.44 255.10 87.97 247.35 85.99 241.01 C 84.01 234.66 85.79 227.62 83.00 222.00
C 83.46 224.28 82.24 228.52 82.00 231.00 Z"/>
</g>
<g fill="#B768D5" fill-opacity="1.00" stroke="None">
<path d="
M 52.00 276.00 
C 50.99 260.97 61.96 244.80 64.00 230.00
C 64.07 229.51 64.19 228.08 64.00 228.00
C 61.11 227.66 57.91 227.94 55.00 228.00
C 52.67 228.00 50.33 228.00 48.00 228.00
C 42.81 243.79 39.68 260.15 35.00 276.00
C 40.67 276.00 46.33 276.00 52.00 276.00 Z"/>
</g>
<g fill="#D18B84" fill-opacity="1.00" stroke="None">
<path d="
M 64.00 230.00 
C 64.00 229.98 66.80 229.99 67.00 230.00
C 69.34 230.17 69.31 229.82 70.00 232.00
C 69.92 229.17 68.09 228.48 64.00 228.00
C 64.19 228.08 64.07 229.51 64.00 230.00 Z"/>
</g>
<g fill="#DACBDB" fill-opacity="1.00" stroke="None">
<path d="
M 52.00 276.00 
C 52.00 276.00 52.50 276.00 53.00 276.00
C 53.50 276.00 54.53 275.87 55.00 276.00
C 58.02 274.24 58.61 264.29 59.93 260.93 C 61.24 257.56 64.23 248.96 64.78 245.78 C 65.32 242.59 69.68 231.47 67.00 230.00
C 66.80 229.99 64.00 229.98 64.00 230.00
C 61.96 244.80 50.99 260.97 52.00 276.00 Z"/>
</g>
<g fill="#D08CC8" fill-opacity="1.00" stroke="None">
<path d="
M 55.00 276.00 
C 54.93 275.98 56.59 277.84 57.00 277.00
C 57.20 275.07 58.49 273.47 59.00 272.00
C 59.26 265.19 62.90 257.06 65.00 251.00
C 65.61 248.24 67.35 245.36 68.00 243.00
C 68.47 239.37 70.11 235.56 70.00 232.00
C 69.31 229.82 69.34 230.17 67.00 230.00
C 69.68 231.47 65.32 242.59 64.78 245.78 C 64.23 248.96 61.24 257.56 59.93 260.93 C 58.61 264.29 58.02 274.24 55.00 276.00 Z"/>
</g>
<g fill="#891B12" fill-opacity="1.00" stroke="None">
<path d="
M 78.00 267.00 
C 80.24 266.70 82.74 267.00 85.00 267.00
C 80.81 264.90 83.11 253.76 83.00 249.00 C 82.89 244.24 82.26 235.38 82.00 231.00
C 80.85 242.90 78.28 255.09 78.00 267.00 Z"/>
</g>
<g fill="#B15C25" fill-opacity="1.00" stroke="None">
<path d="
M 65.00 251.00 
C 63.90 255.96 62.80 260.96 62.00 266.00
C 61.48 269.25 59.65 274.97 60.00 278.00
C 60.48 278.09 62.00 278.04 62.00 278.00
C 62.00 277.97 64.80 278.00 65.00 278.00
C 65.30 266.10 66.49 254.60 68.00 243.00
C 67.35 245.36 65.61 248.24 65.00 251.00 Z"/>
</g>
<g fill="#A4495B" fill-opacity="1.00" stroke="None">
<path d="
M 59.00 272.00 
C 58.98 272.50 59.00 273.00 59.00 273.00
C 60.00 271.64 61.53 267.60 62.00 266.00
C 62.80 260.96 63.90 255.96 65.00 251.00
C 62.90 257.06 59.26 265.19 59.00 272.00 Z"/>
</g>
<g fill="#B25273" fill-opacity="1.00" stroke="None">
<path d="
M 196.00 267.00 
C 200.33 267.00 204.67 267.00 209.00 267.00
C 209.91 266.15 207.99 264.14 208.00 264.00
C 206.74 266.68 198.98 266.71 196.00 267.00 Z"/>
</g>
<g fill="#8D3920" fill-opacity="1.00" stroke="None">
<path d="
M 59.00 273.00 
C 57.95 275.07 57.26 277.46 60.00 278.00
C 59.65 274.97 61.48 269.25 62.00 266.00
C 61.53 267.60 60.00 271.64 59.00 273.00 Z"/>
</g>
<g fill="#B6556A" fill-opacity="1.00" stroke="None">
<path d="
M 133.00 267.00 
C 135.63 267.00 138.38 267.24 141.00 267.00
C 140.96 267.00 141.00 266.00 141.00 266.00
C 138.27 266.00 135.05 265.48 133.00 267.00 Z"/>
</g>
<g fill="#AF4E3C" fill-opacity="1.00" stroke="None">
<path d="
M 141.00 267.00 
C 149.51 267.77 158.45 267.00 167.00 267.00
C 167.50 267.00 168.00 267.00 168.00 267.00
C 168.50 267.00 169.00 267.00 169.00 267.00
C 169.50 267.00 170.00 267.00 170.00 267.00
C 161.11 266.14 150.66 266.00 141.00 266.00
C 141.00 266.00 140.96 267.00 141.00 267.00 Z"/>
</g>
<g fill="#10070C" fill-opacity="1.00" stroke="None">
<path d="
M 78.00 268.00 
C 79.32 267.89 80.67 268.08 82.00 268.00
C 81.81 271.55 84.61 274.30 84.00 278.00
C 88.33 278.00 92.67 278.00 97.00 278.00
C 97.65 275.71 97.60 272.00 99.00 270.00
C 100.03 268.53 101.57 267.60 103.00 267.00
C 97.00 267.00 91.00 267.00 85.00 267.00
C 82.74 267.00 80.24 266.70 78.00 267.00
C 78.00 267.00 78.01 267.50 78.00 268.00 Z"/>
</g>
<g fill="#1D1042" fill-opacity="1.00" stroke="None">
<path d="
M 99.00 270.00 
C 100.96 267.84 103.17 270.33 104.00 267.00
C 104.00 267.00 103.50 267.00 103.00 267.00
C 101.57 267.60 100.03 268.53 99.00 270.00 Z"/>
</g>
<g fill="#362288" fill-opacity="1.00" stroke="None">
<path d="
M 99.00 270.00 
C 97.60 272.00 97.65 275.71 97.00 278.00
C 102.00 278.00 107.00 278.00 112.00 278.00
C 111.57 274.85 110.25 272.21 110.00 269.00
C 108.72 268.72 106.50 269.76 106.00 268.00
C 105.88 267.97 106.00 267.00 106.00 267.00
C 105.84 266.77 104.42 267.18 104.00 267.00
C 103.17 270.33 100.96 267.84 99.00 270.00 Z"/>
</g>
<g fill="#49292C" fill-opacity="1.00" stroke="None">
<path d="
M 106.00 268.00 
C 111.81 267.38 112.66 273.44 113.00 278.00
C 117.33 278.00 121.67 278.00 126.00 278.00
C 126.65 273.74 127.54 268.27 132.00 267.00
C 123.45 267.00 114.51 266.23 106.00 267.00
C 106.00 267.00 105.88 267.97 106.00 268.00 Z"/>
</g>
<g fill="#3C278B" fill-opacity="1.00" stroke="None">
<path d="
M 126.00 278.00 
C 133.33 278.00 140.67 278.00 148.00 278.00
C 147.07 274.66 146.60 271.16 145.00 268.00
C 143.72 267.72 141.50 268.76 141.00 267.00
C 138.38 267.24 135.63 267.00 133.00 267.00
C 133.00 267.00 132.50 267.00 132.00 267.00
C 127.54 268.27 126.65 273.74 126.00 278.00 Z"/>
</g>
<g fill="#0E060C" fill-opacity="1.00" stroke="None">
<path d="
M 148.00 278.00 
C 152.33 278.00 156.67 278.00 161.00 278.00
C 161.54 275.70 161.27 270.80 163.00 269.00
C 163.93 268.03 165.85 267.63 167.00 267.00
C 158.45 267.00 149.51 267.77 141.00 267.00
C 141.50 268.76 143.72 267.72 145.00 268.00
C 146.60 271.16 147.07 274.66 148.00 278.00 Z"/>
</g>
<g fill="#221447" fill-opacity="1.00" stroke="None">
<path d="
M 163.00 269.00 
C 165.51 268.89 167.44 269.85 168.00 267.00
C 168.00 267.00 167.50 267.00 167.00 267.00
C 165.85 267.63 163.93 268.03 163.00 269.00 Z"/>
</g>
<g fill="#473198" fill-opacity="1.00" stroke="None">
<path d="
M 163.00 269.00 
C 161.27 270.80 161.54 275.70 161.00 278.00
C 166.00 278.00 171.00 278.00 176.00 278.00
C 175.24 275.37 174.15 272.82 174.00 270.00
C 172.57 268.20 168.62 270.26 169.00 267.00
C 169.00 267.00 168.50 267.00 168.00 267.00
C 167.44 269.85 165.51 268.89 163.00 269.00 Z"/>
</g>
<g fill="#2E1D54" fill-opacity="1.00" stroke="None">
<path d="
M 176.00 278.00 
C 176.50 278.00 177.00 278.00 177.00 278.00
C 176.67 274.60 175.16 271.20 174.00 268.00
C 172.72 267.72 170.50 268.76 170.00 267.00
C 170.00 267.00 169.50 267.00 169.00 267.00
C 168.62 270.26 172.57 268.20 174.00 270.00
C 174.15 272.82 175.24 275.37 176.00 278.00 Z"/>
</g>
<g fill="#341B24" fill-opacity="1.00" stroke="None">
<path d="
M 177.00 278.00 
C 181.00 278.00 185.00 278.08 189.00 278.00
C 189.88 274.93 192.01 272.29 192.00 269.00
C 194.07 270.89 195.88 267.04 196.00 267.00
C 187.87 267.79 178.13 267.79 170.00 267.00
C 170.50 268.76 172.72 267.72 174.00 268.00
C 175.16 271.20 176.67 274.60 177.00 278.00 Z"/>
</g>
<g fill="#BEABA7" fill-opacity="1.00" stroke="None">
<path d="
M 216.00 270.00 
C 212.85 270.97 209.22 271.51 206.00 272.00
C 205.25 272.36 204.35 273.61 203.00 273.00
C 204.41 274.51 204.00 276.45 203.00 278.00
C 215.67 278.00 228.33 278.00 241.00 278.00
C 239.21 277.33 235.98 272.43 234.00 271.00
C 233.55 270.85 232.49 271.06 232.00 271.00
C 228.40 272.97 222.78 270.14 220.00 267.00
C 219.22 269.15 216.87 269.73 216.00 270.00 Z"/>
</g>
<g fill="#352477" fill-opacity="1.00" stroke="None">
<path d="
M 77.00 278.00 
C 79.24 277.70 81.74 278.00 84.00 278.00
C 84.61 274.30 81.81 271.55 82.00 268.00
C 80.67 268.08 79.32 267.89 78.00 268.00
C 77.92 271.51 76.53 274.39 77.00 278.00 Z"/>
</g>
<g fill="#371E4D" fill-opacity="1.00" stroke="None">
<path d="
M 112.00 278.00 
C 112.50 278.00 113.00 278.00 113.00 278.00
C 112.66 273.44 111.81 267.38 106.00 268.00
C 106.50 269.76 108.72 268.72 110.00 269.00
C 110.25 272.21 111.57 274.85 112.00 278.00 Z"/>
</g>
<g fill="#A08CA0" fill-opacity="1.00" stroke="None">
<path d="
M 241.00 278.00 
C 242.29 278.00 243.72 277.83 245.00 278.00
C 244.50 271.90 238.28 272.48 234.00 271.00
C 235.98 272.43 239.21 277.33 241.00 278.00 Z"/>
</g>
<g fill="#A16395" fill-opacity="1.00" stroke="None">
<path d="
M 57.00 277.00 
C 56.95 277.49 56.75 278.72 57.00 279.00
C 58.67 279.00 60.33 279.00 62.00 279.00
C 62.15 278.95 62.00 278.00 62.00 278.00
C 62.00 278.04 60.48 278.09 60.00 278.00
C 57.26 277.46 57.95 275.07 59.00 273.00
C 59.00 273.00 58.98 272.50 59.00 272.00
C 58.49 273.47 57.20 275.07 57.00 277.00 Z"/>
</g>
<g fill="#A08894" fill-opacity="1.00" stroke="None">
<path d="
M 197.00 277.00 
C 196.91 277.48 197.00 278.00 197.00 278.00
C 198.96 277.82 201.03 278.00 203.00 278.00
C 204.00 276.45 204.41 274.51 203.00 273.00
C 204.35 273.61 205.25 272.36 206.00 272.00
C 202.23 272.58 197.93 272.13 197.00 277.00 Z"/>
</g>
<g fill="#8164BC" fill-opacity="1.00" stroke="None">
<path d="
M 23.00 278.00 
C 23.00 278.00 22.00 278.04 22.00 278.00
C 25.20 281.33 34.11 278.30 39.00 279.00 C 43.89 279.70 51.83 279.00 57.00 279.00
C 56.75 278.72 56.95 277.49 57.00 277.00
C 56.59 277.84 54.93 275.98 55.00 276.00
C 54.53 275.87 53.50 276.00 53.00 276.00
C 54.97 278.34 43.60 278.20 40.00 278.00 C 36.40 277.80 27.12 278.00 23.00 278.00 Z"/>
</g>
<g fill="#7E65B0" fill-opacity="1.00" stroke="None">
<path d="
M 189.00 278.00 
C 185.00 278.08 181.00 278.00 177.00 278.00
C 177.00 278.00 176.50 278.00 176.00 278.00
C 171.00 278.00 166.00 278.00 161.00 278.00
C 156.67 278.00 152.33 278.00 148.00 278.00
C 140.67 278.00 133.33 278.00 126.00 278.00
C 121.67 278.00 117.33 278.00 113.00 278.00
C 113.00 278.00 112.50 278.00 112.00 278.00
C 107.00 278.00 102.00 278.00 97.00 278.00
C 92.67 278.00 88.33 278.00 84.00 278.00
C 81.74 278.00 79.24 277.70 77.00 278.00
C 77.00 278.00 76.96 279.00 77.00 279.00
C 85.20 280.95 98.42 274.68 103.00 283.00
C 132.84 275.67 166.05 280.85 197.00 278.00
C 197.00 278.00 196.91 277.48 197.00 277.00
C 194.42 278.31 191.90 277.94 189.00 278.00 Z"/>
</g>
<g fill="#B489A0" fill-opacity="1.00" stroke="None">
<path d="
M 62.00 279.00 
C 64.64 279.00 68.07 278.08 70.00 278.00
C 68.33 278.00 66.67 278.00 65.00 278.00
C 64.80 278.00 62.00 277.97 62.00 278.00
C 62.00 278.00 62.15 278.95 62.00 279.00 Z"/>
</g>
</svg>