<svg xmlns="http://www.w3.org/2000/svg" xmlns:v="https://svgstorm.com"
viewBox = "0 0 326 300"
width="326"
height="300">
<g fill="None" fill-opacity="0.0" stroke="#E5E5E4" stroke-opacity="1.00" stroke-width="0.3"><path d="
M 0.00 300.00 
L 326.00 300.00
L 326.00 0.00
L 0.00 0.00
L 0.00 300.00
M 272.00 92.00 
C 270.93 103.10 272.00 114.84 272.00 126.00
C 272.00 126.50 272.00 127.00 272.00 127.00
C 272.00 127.50 272.00 128.50 272.00 129.00
C 272.00 140.67 272.00 152.33 272.00 164.00
C 272.92 173.51 273.10 183.70 273.00 194.00 C 272.90 204.30 272.75 214.52 273.00 225.00 C 273.25 235.48 272.23 245.25 273.00 256.00 C 273.77 266.75 274.75 279.14 262.00 277.00 C 249.25 274.86 242.45 277.96 231.00 277.00 C 219.55 276.04 210.90 277.41 200.00 277.00 C 189.10 276.59 178.64 277.18 168.00 277.00 C 157.36 276.82 147.45 277.04 137.00 277.00 C 126.55 276.96 116.34 276.94 106.00 277.00 C 95.66 277.06 85.24 276.79 75.00 277.00 C 64.76 277.21 52.98 276.52 43.00 277.00 C 33.02 277.48 19.40 279.20 21.00 268.00 C 22.60 256.80 21.78 248.55 23.00 239.00 C 24.22 229.45 24.69 223.18 25.99 213.99 C 27.29 204.80 28.34 196.49 28.78 187.78 C 29.21 179.07 28.77 170.39 29.00 161.00 C 29.23 151.61 29.09 141.45 29.00 132.00 C 28.91 122.55 28.57 116.30 28.07 106.92 C 27.56 97.53 28.09 86.24 27.07 76.93 C 26.06 67.61 27.34 57.60 24.02 48.98 C 20.71 40.35 21.89 30.86 19.00 22.00
C 23.52 19.87 29.06 21.52 34.00 21.00
C 44.33 21.00 54.67 21.00 65.00 21.00 C 75.33 21.00 85.67 21.00 96.00 21.00 C 106.33 21.00 116.68 21.01 127.00 21.00 C 137.32 20.99 147.69 21.01 158.00 21.00 C 168.31 20.99 178.72 21.02 189.00 21.00 C 199.28 20.98 209.78 21.06 220.00 21.00 C 230.22 20.94 240.92 21.12 251.00 21.00 C 261.08 20.88 274.15 17.98 273.00 30.00 C 271.85 42.02 273.24 49.81 273.00 61.00 C 272.76 72.19 272.99 81.79 272.00 92.00 Z"/>
</g>
<g fill="None" fill-opacity="0.0" stroke="#E0D9CF" stroke-opacity="1.00" stroke-width="0.3"><path d="
M 272.00 164.00 
C 272.00 164.50 272.00 165.00 272.00 165.00
C 272.00 165.50 272.00 166.00 272.00 166.00
C 272.00 192.67 272.00 219.33 272.00 246.00
C 272.00 248.67 272.00 251.33 272.00 254.00
C 272.00 261.33 272.00 268.67 272.00 276.00
C 188.67 276.00 105.33 276.00 22.00 276.00
C 22.00 271.00 22.00 266.00 22.00 261.00
C 25.83 260.37 30.99 262.28 34.00 260.00
C 32.24 261.00 28.91 259.25 27.00 260.00
C 28.61 250.39 31.24 237.70 31.65 228.31 C 32.05 218.91 34.85 217.12 35.00 206.00 C 35.14 194.87 33.42 189.74 34.93 178.93 C 36.44 168.12 32.82 154.50 32.22 143.78 C 31.62 133.06 29.83 118.81 31.00 108.00 C 32.17 97.19 28.77 84.21 32.00 74.00 C 35.23 63.79 31.91 55.20 34.33 45.33 C 36.74 35.46 28.51 30.65 34.00 21.00
C 29.06 21.52 23.52 19.87 19.00 22.00
C 21.89 30.86 20.71 40.35 24.02 48.98 C 27.34 57.60 26.06 67.61 27.07 76.93 C 28.09 86.24 27.56 97.53 28.07 106.92 C 28.57 116.30 28.91 122.55 29.00 132.00 C 29.09 141.45 29.23 151.61 29.00 161.00 C 28.77 170.39 29.21 179.07 28.78 187.78 C 28.34 196.49 27.29 204.80 25.99 213.99 C 24.69 223.18 24.22 229.45 23.00 239.00 C 21.78 248.55 22.60 256.80 21.00 268.00 C 19.40 279.20 33.02 277.48 43.00 277.00 C 52.98 276.52 64.76 277.21 75.00 277.00 C 85.24 276.79 95.66 277.06 106.00 277.00 C 116.34 276.94 126.55 276.96 137.00 277.00 C 147.45 277.04 157.36 276.82 168.00 277.00 C 178.64 277.18 189.10 276.59 200.00 277.00 C 210.90 277.41 219.55 276.04 231.00 277.00 C 242.45 277.96 249.25 274.86 262.00 277.00 C 274.75 279.14 273.77 266.75 273.00 256.00 C 272.23 245.25 273.25 235.48 273.00 225.00 C 272.75 214.52 272.90 204.30 273.00 194.00 C 273.10 183.70 272.92 173.51 272.00 164.00 Z"/>
</g>
<g fill="None" fill-opacity="0.0" stroke="#DFD4BC" stroke-opacity="1.00" stroke-width="0.3"><path d="
M 34.00 260.00 
C 36.58 258.53 36.12 250.26 38.00 248.00
C 51.18 247.60 65.43 250.92 78.00 248.00
C 75.84 242.93 73.22 236.42 72.00 232.00
C 75.34 233.90 77.25 237.46 78.00 241.00
C 81.52 236.51 75.07 232.11 74.00 228.00
C 75.94 225.95 78.00 229.04 80.00 227.00
C 80.93 231.55 84.11 232.69 85.00 237.00
C 86.83 233.40 90.03 229.12 94.00 228.00
C 88.32 233.89 89.95 242.65 88.00 250.00
C 100.81 248.84 112.00 256.79 112.00 240.00
C 112.00 229.24 110.76 217.27 113.00 207.00
C 115.04 197.64 118.52 190.21 129.00 189.00
C 131.35 184.59 127.73 171.18 124.69 167.31 C 121.66 163.44 113.86 160.37 110.25 155.75 C 106.64 151.14 98.74 144.04 108.00 140.00
C 104.36 126.96 110.79 113.16 116.30 102.30 C 121.82 91.45 136.53 82.85 142.00 98.00
C 143.39 93.08 151.12 87.31 154.00 83.00
C 154.42 82.37 154.62 81.62 155.00 81.00
C 161.14 70.91 170.58 65.35 181.08 61.08 C 191.57 56.80 208.53 51.13 220.00 56.00
C 220.42 56.18 221.51 55.92 222.00 56.00
C 230.33 57.45 245.68 64.17 252.68 68.32 C 259.68 72.48 270.33 84.72 272.00 92.00
C 272.99 81.79 272.76 72.19 273.00 61.00 C 273.24 49.81 271.85 42.02 273.00 30.00 C 274.15 17.98 261.08 20.88 251.00 21.00 C 240.92 21.12 230.22 20.94 220.00 21.00 C 209.78 21.06 199.28 20.98 189.00 21.00 C 178.72 21.02 168.31 20.99 158.00 21.00 C 147.69 21.01 137.32 20.99 127.00 21.00 C 116.68 21.01 106.33 21.00 96.00 21.00 C 85.67 21.00 75.33 21.00 65.00 21.00 C 54.67 21.00 44.33 21.00 34.00 21.00
C 28.51 30.65 36.74 35.46 34.33 45.33 C 31.91 55.20 35.23 63.79 32.00 74.00 C 28.77 84.21 32.17 97.19 31.00 108.00 C 29.83 118.81 31.62 133.06 32.22 143.78 C 32.82 154.50 36.44 168.12 34.93 178.93 C 33.42 189.74 35.14 194.87 35.00 206.00 C 34.85 217.12 32.05 218.91 31.65 228.31 C 31.24 237.70 28.61 250.39 27.00 260.00
C 28.91 259.25 32.24 261.00 34.00 260.00
M 112.00 58.00 
C 109.83 59.23 107.32 59.22 105.00 60.00
C 105.68 66.34 102.10 72.36 99.69 77.69 C 97.29 83.03 89.81 86.30 94.00 92.00
C 81.78 93.95 70.23 88.66 65.00 78.00
C 69.36 72.66 69.26 65.09 71.98 58.98 C 74.69 52.86 82.81 50.31 82.00 43.00
C 94.45 40.89 107.85 45.91 112.00 58.00
M 79.00 44.00 
C 80.53 49.00 72.36 55.12 70.23 58.23 C 68.10 61.34 67.69 75.91 63.75 73.20 C 59.82 70.48 64.52 58.35 66.77 54.77 C 69.02 51.20 74.07 45.44 79.00 44.00
M 114.00 61.00 
C 115.41 69.87 113.13 77.40 108.25 84.25 C 103.36 91.09 91.87 91.60 97.75 83.75 C 103.64 75.91 106.17 72.42 107.00 63.00
C 109.29 62.24 111.81 62.19 114.00 61.00 Z"/>
</g>
<g fill="None" fill-opacity="0.0" stroke="#D0D7A4" stroke-opacity="1.00" stroke-width="0.3"><path d="
M 112.00 58.00 
C 107.85 45.91 94.45 40.89 82.00 43.00
C 82.81 50.31 74.69 52.86 71.98 58.98 C 69.26 65.09 69.36 72.66 65.00 78.00
C 70.23 88.66 81.78 93.95 94.00 92.00
C 89.81 86.30 97.29 83.03 99.69 77.69 C 102.10 72.36 105.68 66.34 105.00 60.00
C 107.32 59.22 109.83 59.23 112.00 58.00 Z"/>
</g>
<g fill="None" fill-opacity="0.0" stroke="#CFD3A1" stroke-opacity="1.00" stroke-width="0.3"><path d="
M 79.00 44.00 
C 74.07 45.44 69.02 51.20 66.77 54.77 C 64.52 58.35 59.82 70.48 63.75 73.20 C 67.69 75.91 68.10 61.34 70.23 58.23 C 72.36 55.12 80.53 49.00 79.00 44.00 Z"/>
</g>
<g fill="None" fill-opacity="0.0" stroke="#F9E081" stroke-opacity="1.00" stroke-width="0.3"><path d="
M 155.00 81.00 
C 158.43 79.03 164.12 78.13 168.00 77.00
C 174.06 74.65 184.55 73.62 192.00 75.00
C 196.54 73.32 198.38 63.75 204.25 64.25 C 210.12 64.74 215.56 56.94 220.00 56.00
C 208.53 51.13 191.57 56.80 181.08 61.08 C 170.58 65.35 161.14 70.91 155.00 81.00 Z"/>
</g>
<g fill="None" fill-opacity="0.0" stroke="#F2C85B" stroke-opacity="1.00" stroke-width="0.3"><path d="
M 192.00 75.00 
C 193.25 75.23 195.31 76.06 196.00 77.00
C 199.01 76.77 199.86 78.38 202.00 79.00
C 204.78 78.45 210.40 80.03 213.00 81.00
C 222.11 79.68 225.67 62.79 237.00 65.00
C 233.43 60.07 225.68 60.56 222.00 56.00
C 221.51 55.92 220.42 56.18 220.00 56.00
C 215.56 56.94 210.12 64.74 204.25 64.25 C 198.38 63.75 196.54 73.32 192.00 75.00 Z"/>
</g>
<g fill="None" fill-opacity="0.0" stroke="#E2A342" stroke-opacity="1.00" stroke-width="0.3"><path d="
M 213.00 81.00 
C 218.23 82.95 225.02 87.44 230.07 89.93 C 235.13 92.41 243.40 95.68 246.00 101.00
C 254.28 107.00 263.17 113.49 265.00 124.00
C 265.08 124.49 264.77 125.65 265.00 126.00
C 266.03 126.56 267.90 125.57 269.00 126.00
C 268.40 101.81 256.58 80.62 239.00 64.00
C 260.53 77.58 268.00 103.22 272.00 126.00
C 272.00 114.84 270.93 103.10 272.00 92.00
C 270.33 84.72 259.68 72.48 252.68 68.32 C 245.68 64.17 230.33 57.45 222.00 56.00
C 225.68 60.56 233.43 60.07 237.00 65.00
C 225.67 62.79 222.11 79.68 213.00 81.00 Z"/>
</g>
<g fill="None" fill-opacity="0.0" stroke="#D7D79B" stroke-opacity="1.00" stroke-width="0.3"><path d="
M 114.00 61.00 
C 111.81 62.19 109.29 62.24 107.00 63.00
C 106.17 72.42 103.64 75.91 97.75 83.75 C 91.87 91.60 103.36 91.09 108.25 84.25 C 113.13 77.40 115.41 69.87 114.00 61.00 Z"/>
</g>
<g fill="None" fill-opacity="0.0" stroke="#784818" stroke-opacity="1.00" stroke-width="0.3"><path d="
M 265.00 126.00 
C 265.98 127.51 270.24 127.32 272.00 127.00
C 272.00 127.00 272.00 126.50 272.00 126.00
C 268.00 103.22 260.53 77.58 239.00 64.00
C 256.58 80.62 268.40 101.81 269.00 126.00
C 267.90 125.57 266.03 126.56 265.00 126.00 Z"/>
</g>
<g fill="None" fill-opacity="0.0" stroke="#C3A655" stroke-opacity="1.00" stroke-width="0.3"><path d="
M 168.00 77.00 
C 168.80 76.77 169.15 76.18 170.00 76.00
C 175.81 74.76 188.09 74.91 193.00 77.00
C 193.47 76.88 194.50 77.00 195.00 77.00
C 195.50 77.00 196.00 77.00 196.00 77.00
C 195.31 76.06 193.25 75.23 192.00 75.00
C 184.55 73.62 174.06 74.65 168.00 77.00 Z"/>
</g>
<g fill="None" fill-opacity="0.0" stroke="#785725" stroke-opacity="1.00" stroke-width="0.3"><path d="
M 168.00 77.00 
C 164.12 78.13 158.43 79.03 155.00 81.00
C 154.62 81.62 154.42 82.37 154.00 83.00
C 164.21 76.81 178.00 78.00 190.00 78.00
C 186.93 75.73 173.65 76.03 170.00 76.00
C 169.15 76.18 168.80 76.77 168.00 77.00 Z"/>
</g>
<g fill="None" fill-opacity="0.0" stroke="#422B0E" stroke-opacity="1.00" stroke-width="0.3"><path d="
M 190.00 78.00 
C 190.50 78.00 191.00 78.00 191.00 78.00
C 191.50 78.00 192.00 78.00 192.00 78.00
C 192.26 77.88 192.65 77.09 193.00 77.00
C 188.09 74.91 175.81 74.76 170.00 76.00
C 173.65 76.03 186.93 75.73 190.00 78.00 Z"/>
</g>
<g fill="None" fill-opacity="0.0" stroke="#140701" stroke-opacity="1.00" stroke-width="0.3"><path d="
M 192.00 78.00 
C 194.93 78.55 198.08 79.21 201.00 80.00
C 201.34 79.99 201.78 79.04 202.00 79.00
C 200.65 78.16 196.38 77.48 195.00 77.00
C 194.50 77.00 193.47 76.88 193.00 77.00
C 192.65 77.09 192.26 77.88 192.00 78.00 Z"/>
</g>
<g fill="None" fill-opacity="0.0" stroke="#8A672A" stroke-opacity="1.00" stroke-width="0.3"><path d="
M 202.00 79.00 
C 199.86 78.38 199.01 76.77 196.00 77.00
C 196.00 77.00 195.50 77.00 195.00 77.00
C 196.38 77.48 200.65 78.16 202.00 79.00 Z"/>
</g>
<g fill="None" fill-opacity="0.0" stroke="#EDC35F" stroke-opacity="1.00" stroke-width="0.3"><path d="
M 154.00 83.00 
C 151.12 87.31 143.39 93.08 142.00 98.00
C 142.56 100.54 141.58 103.43 142.00 106.00
C 146.72 106.86 150.51 108.91 153.00 112.00
C 152.61 105.81 159.72 96.14 166.00 102.00
C 165.91 100.73 164.00 100.30 164.00 99.00
C 171.66 100.28 181.06 99.09 184.30 92.30 C 187.55 85.52 189.78 81.27 195.00 82.00
C 195.57 79.32 191.64 79.96 191.00 78.00
C 191.00 78.00 190.50 78.00 190.00 78.00
C 178.00 78.00 164.21 76.81 154.00 83.00 Z"/>
</g>
<g fill="None" fill-opacity="0.0" stroke="#E2AB54" stroke-opacity="1.00" stroke-width="0.3"><path d="
M 166.00 102.00 
C 166.32 106.58 166.18 110.79 165.07 115.07 C 163.96 119.36 167.98 121.81 168.00 126.00
C 184.00 126.00 200.00 126.00 216.00 126.00
C 231.67 126.00 247.33 126.00 263.00 126.00
C 263.95 114.52 251.70 110.05 246.00 102.00
C 240.34 101.40 230.50 92.81 225.00 90.00
C 220.91 87.91 216.02 84.43 212.00 83.00
C 208.32 82.10 204.31 80.90 201.00 80.00
C 198.08 79.21 194.93 78.55 192.00 78.00
C 192.00 78.00 191.50 78.00 191.00 78.00
C 191.64 79.96 195.57 79.32 195.00 82.00
C 189.78 81.27 187.55 85.52 184.30 92.30 C 181.06 99.09 171.66 100.28 164.00 99.00
C 164.00 100.30 165.91 100.73 166.00 102.00 Z"/>
</g>
<g fill="None" fill-opacity="0.0" stroke="#462B0E" stroke-opacity="1.00" stroke-width="0.3"><path d="
M 201.00 80.00 
C 204.31 80.90 208.32 82.10 212.00 83.00
C 216.97 84.21 220.98 87.43 225.00 90.00
C 230.50 92.81 240.34 101.40 246.00 102.00
C 245.80 101.60 246.00 101.00 246.00 101.00
C 243.40 95.68 235.13 92.41 230.07 89.93 C 225.02 87.44 218.23 82.95 213.00 81.00
C 210.40 80.03 204.78 78.45 202.00 79.00
C 201.78 79.04 201.34 79.99 201.00 80.00 Z"/>
</g>
<g fill="None" fill-opacity="0.0" stroke="#784E1F" stroke-opacity="1.00" stroke-width="0.3"><path d="
M 225.00 90.00 
C 220.98 87.43 216.97 84.21 212.00 83.00
C 216.02 84.43 220.91 87.91 225.00 90.00 Z"/>
</g>
<g fill="None" fill-opacity="0.0" stroke="#B7D381" stroke-opacity="1.00" stroke-width="0.3"><path d="
M 129.00 189.00 
C 131.32 188.73 136.51 189.40 139.00 190.00
C 137.03 185.93 142.43 181.17 141.98 176.98 C 141.52 172.78 143.26 166.92 148.00 166.00
C 150.51 159.97 159.48 156.68 162.00 151.00
C 163.08 147.73 162.49 145.98 161.00 143.00
C 163.78 140.58 165.21 136.68 168.00 134.00
C 168.35 132.53 168.00 130.52 168.00 129.00
C 168.00 128.00 168.01 127.00 168.00 126.00
C 167.98 121.81 163.96 119.36 165.07 115.07 C 166.18 110.79 166.32 106.58 166.00 102.00
C 159.72 96.14 152.61 105.81 153.00 112.00
C 150.51 108.91 146.72 106.86 142.00 106.00
C 141.58 103.43 142.56 100.54 142.00 98.00
C 136.53 82.85 121.82 91.45 116.30 102.30 C 110.79 113.16 104.36 126.96 108.00 140.00
C 98.74 144.04 106.64 151.14 110.25 155.75 C 113.86 160.37 121.66 163.44 124.69 167.31 C 127.73 171.18 131.35 184.59 129.00 189.00
M 138.00 160.00 
C 141.79 167.50 137.77 176.11 135.00 183.00
C 134.56 176.33 130.47 163.26 138.00 160.00 Z"/>
</g>
<g fill="None" fill-opacity="0.0" stroke="#673E16" stroke-opacity="1.00" stroke-width="0.3"><path d="
M 246.00 102.00 
C 251.70 110.05 263.95 114.52 263.00 126.00
C 247.33 126.00 231.67 126.00 216.00 126.00
C 216.04 126.00 216.00 127.00 216.00 127.00
C 232.00 127.00 248.00 127.00 264.00 127.00
C 264.11 126.00 263.53 124.27 265.00 124.00
C 263.17 113.49 254.28 107.00 246.00 101.00
C 246.00 101.00 245.80 101.60 246.00 102.00 Z"/>
</g>
<g fill="None" fill-opacity="0.0" stroke="#000000" stroke-opacity="1.00" stroke-width="0.3"><path d="
M 216.00 127.00 
C 209.84 127.00 197.55 126.25 192.00 127.00 C 186.45 127.75 170.28 124.20 169.00 129.00
C 176.67 129.00 185.44 128.80 193.00 129.00 C 200.56 129.20 209.84 128.45 217.00 129.00 C 224.16 129.55 234.80 127.75 241.00 129.00 C 247.20 130.25 261.22 125.40 264.00 131.00
C 264.17 131.33 265.01 131.85 265.00 132.00
C 265.79 129.39 265.44 128.58 269.00 129.00
C 269.49 129.06 270.50 129.00 271.00 129.00
C 271.50 129.00 272.00 129.00 272.00 129.00
C 272.00 128.50 272.00 127.50 272.00 127.00
C 270.24 127.32 265.98 127.51 265.00 126.00
C 264.77 125.65 265.08 124.49 265.00 124.00
C 263.53 124.27 264.11 126.00 264.00 127.00
C 248.00 127.00 232.00 127.00 216.00 127.00 Z"/>
</g>
<g fill="None" fill-opacity="0.0" stroke="#8A5D2A" stroke-opacity="1.00" stroke-width="0.3"><path d="
M 168.00 129.00 
C 168.27 129.25 169.00 129.00 169.00 129.00
C 170.28 124.20 186.45 127.75 192.00 127.00 C 197.55 126.25 209.84 127.00 216.00 127.00
C 216.00 127.00 216.04 126.00 216.00 126.00
C 200.00 126.00 184.00 126.00 168.00 126.00
C 168.01 127.00 168.00 128.00 168.00 129.00 Z"/>
</g>
<g fill="None" fill-opacity="0.0" stroke="#DAA150" stroke-opacity="1.00" stroke-width="0.3"><path d="
M 168.00 134.00 
C 169.41 132.11 169.03 128.69 173.00 130.00
C 168.51 132.33 172.20 137.59 171.00 142.00 C 169.80 146.41 167.60 150.37 167.00 155.00
C 171.63 156.71 176.99 155.76 182.00 156.00
C 184.12 163.67 187.02 171.05 191.00 178.00
C 196.93 177.06 203.05 174.34 209.00 173.00
C 212.71 171.83 217.18 169.65 221.00 168.00
C 234.77 162.06 244.80 152.46 257.00 144.00
C 259.78 141.38 261.54 132.02 264.00 131.00
C 261.22 125.40 247.20 130.25 241.00 129.00 C 234.80 127.75 224.16 129.55 217.00 129.00 C 209.84 128.45 200.56 129.20 193.00 129.00 C 185.44 128.80 176.67 129.00 169.00 129.00
C 169.00 129.00 168.27 129.25 168.00 129.00
C 168.00 130.52 168.35 132.53 168.00 134.00 Z"/>
</g>
<g fill="None" fill-opacity="0.0" stroke="#D18C3B" stroke-opacity="1.00" stroke-width="0.3"><path d="
M 265.00 132.00 
C 264.84 135.00 261.71 139.72 260.00 142.00
C 249.49 155.99 230.46 168.22 215.00 174.00
C 212.81 178.23 223.32 180.91 225.00 184.00
C 236.55 180.93 244.20 165.75 257.00 169.00
C 256.13 165.10 261.68 161.24 263.00 157.00
C 266.07 148.03 265.82 137.69 269.00 129.00
C 265.44 128.58 265.79 129.39 265.00 132.00 Z"/>
</g>
<g fill="None" fill-opacity="0.0" stroke="#643411" stroke-opacity="1.00" stroke-width="0.3"><path d="
M 263.00 157.00 
C 258.73 169.49 251.67 176.86 243.00 187.00
C 241.78 188.42 240.12 191.82 240.00 192.00
C 260.41 175.44 268.06 153.90 271.00 129.00
C 270.50 129.00 269.49 129.06 269.00 129.00
C 265.82 137.69 266.07 148.03 263.00 157.00 Z"/>
</g>
<g fill="None" fill-opacity="0.0" stroke="#C47630" stroke-opacity="1.00" stroke-width="0.3"><path d="
M 240.00 192.00 
C 239.46 192.44 238.57 193.67 238.00 194.00
C 242.47 192.39 247.88 190.34 252.00 188.00
C 260.37 182.37 263.92 170.26 272.00 165.00
C 272.00 165.00 272.00 164.50 272.00 164.00
C 272.00 152.33 272.00 140.67 272.00 129.00
C 272.00 129.00 271.50 129.00 271.00 129.00
C 268.06 153.90 260.41 175.44 240.00 192.00 Z"/>
</g>
<g fill="None" fill-opacity="0.0" stroke="#CF8D44" stroke-opacity="1.00" stroke-width="0.3"><path d="
M 168.00 134.00 
C 165.21 136.68 163.78 140.58 161.00 143.00
C 162.49 145.98 163.08 147.73 162.00 151.00
C 160.02 156.99 152.54 160.93 149.00 166.00
C 150.04 168.91 151.46 171.09 154.00 173.00
C 155.21 170.14 165.08 178.44 169.07 177.93 C 173.07 177.41 186.22 178.76 191.00 178.00
C 187.02 171.05 184.12 163.67 182.00 156.00
C 176.99 155.76 171.63 156.71 167.00 155.00
C 167.60 150.37 169.80 146.41 171.00 142.00 C 172.20 137.59 168.51 132.33 173.00 130.00
C 169.03 128.69 169.41 132.11 168.00 134.00 Z"/>
</g>
<g fill="None" fill-opacity="0.0" stroke="#75461B" stroke-opacity="1.00" stroke-width="0.3"><path d="
M 257.00 144.00 
C 257.88 143.39 259.28 142.70 260.00 142.00
C 261.71 139.72 264.84 135.00 265.00 132.00
C 265.01 131.85 264.17 131.33 264.00 131.00
C 261.54 132.02 259.78 141.38 257.00 144.00 Z"/>
</g>
<g fill="None" fill-opacity="0.0" stroke="#44250E" stroke-opacity="1.00" stroke-width="0.3"><path d="
M 257.00 144.00 
C 244.80 152.46 234.77 162.06 221.00 168.00
C 216.88 170.39 213.81 171.92 209.00 173.00
C 203.05 174.34 196.93 177.06 191.00 178.00
C 186.22 178.76 173.07 177.41 169.07 177.93 C 165.08 178.44 155.21 170.14 154.00 173.00
C 154.27 173.20 154.70 173.79 155.00 174.00
C 171.18 185.15 198.10 180.31 215.00 174.00
C 230.46 168.22 249.49 155.99 260.00 142.00
C 259.28 142.70 257.88 143.39 257.00 144.00 Z"/>
</g>
<g fill="None" fill-opacity="0.0" stroke="#C1AD57" stroke-opacity="1.00" stroke-width="0.3"><path d="
M 148.00 166.00 
C 148.48 165.91 149.00 166.00 149.00 166.00
C 152.54 160.93 160.02 156.99 162.00 151.00
C 159.48 156.68 150.51 159.97 148.00 166.00 Z"/>
</g>
<g fill="None" fill-opacity="0.0" stroke="#C57933" stroke-opacity="1.00" stroke-width="0.3"><path d="
M 215.00 174.00 
C 198.10 180.31 171.18 185.15 155.00 174.00
C 160.90 179.79 164.61 187.54 173.03 189.97 C 181.44 192.41 188.66 197.40 197.00 200.00
C 203.70 201.18 213.22 200.70 220.00 200.00
C 226.97 198.46 237.68 192.32 243.00 187.00
C 251.67 176.86 258.73 169.49 263.00 157.00
C 261.68 161.24 256.13 165.10 257.00 169.00
C 244.20 165.75 236.55 180.93 225.00 184.00
C 223.32 180.91 212.81 178.23 215.00 174.00 Z"/>
</g>
<g fill="None" fill-opacity="0.0" stroke="#D7D0B1" stroke-opacity="1.00" stroke-width="0.3"><path d="
M 138.00 160.00 
C 130.47 163.26 134.56 176.33 135.00 183.00
C 137.77 176.11 141.79 167.50 138.00 160.00 Z"/>
</g>
<g fill="None" fill-opacity="0.0" stroke="#C39269" stroke-opacity="1.00" stroke-width="0.3"><path d="
M 252.00 188.00 
C 259.82 183.55 267.53 172.99 272.00 166.00
C 272.00 166.00 272.00 165.50 272.00 165.00
C 263.92 170.26 260.37 182.37 252.00 188.00 Z"/>
</g>
<g fill="None" fill-opacity="0.0" stroke="#CBBDA7" stroke-opacity="1.00" stroke-width="0.3"><path d="
M 139.00 190.00 
C 141.26 190.54 145.12 192.50 147.00 194.00
C 158.66 203.30 154.31 232.04 153.00 246.00
C 155.19 244.45 161.31 246.71 163.00 247.00
C 169.90 248.20 178.76 246.94 186.00 246.00
C 184.70 239.48 183.01 233.17 181.00 227.00
C 178.12 230.00 180.20 235.88 178.00 239.00
C 177.63 239.84 178.29 241.13 178.00 242.00
C 168.90 237.23 169.66 230.48 167.22 219.78 C 164.79 209.07 176.83 223.79 176.00 231.00
C 178.32 225.31 178.00 215.94 186.00 215.00
C 184.33 217.54 181.51 219.58 182.00 223.00
C 182.83 227.46 191.68 231.01 190.00 237.00
C 192.36 235.62 193.77 224.72 196.00 229.00
C 198.77 223.21 209.60 221.70 206.00 213.00
C 209.11 212.37 210.60 208.90 212.00 206.00
C 216.23 208.76 213.34 203.90 215.00 202.00
C 209.26 200.72 202.19 201.91 197.00 200.00
C 188.66 197.40 181.44 192.41 173.03 189.97 C 164.61 187.54 160.90 179.79 155.00 174.00
C 154.70 173.79 154.27 173.20 154.00 173.00
C 151.46 171.09 150.04 168.91 149.00 166.00
C 149.00 166.00 148.48 165.91 148.00 166.00
C 143.26 166.92 141.52 172.78 141.98 176.98 C 142.43 181.17 137.03 185.93 139.00 190.00 Z"/>
</g>
<g fill="None" fill-opacity="0.0" stroke="#BDAA98" stroke-opacity="1.00" stroke-width="0.3"><path d="
M 252.00 188.00 
C 247.88 190.34 242.47 192.39 238.00 194.00
C 232.31 196.05 226.11 199.37 220.00 200.00
C 213.22 200.70 203.70 201.18 197.00 200.00
C 202.19 201.91 209.26 200.72 215.00 202.00
C 213.34 203.90 216.23 208.76 212.00 206.00
C 210.60 208.90 209.11 212.37 206.00 213.00
C 209.60 221.70 198.77 223.21 196.00 229.00
C 193.47 234.28 193.40 242.10 193.00 248.00
C 193.21 247.13 194.82 245.51 194.00 244.00
C 196.97 245.04 196.94 240.97 200.00 242.00
C 204.51 241.28 212.63 241.39 217.00 242.00 C 221.37 242.61 230.63 239.64 234.00 242.00
C 232.94 234.61 230.43 227.50 230.00 221.00
C 233.22 221.57 233.14 224.80 237.00 223.00
C 239.78 226.49 239.24 231.56 241.00 235.00
C 242.81 231.09 243.87 224.89 249.00 224.00
C 246.30 229.29 244.15 235.03 243.00 241.00
C 248.09 240.65 253.99 241.46 259.00 241.00 C 264.01 240.54 269.14 241.40 264.00 246.00
C 266.67 246.00 269.33 246.00 272.00 246.00
C 272.00 219.33 272.00 192.67 272.00 166.00
C 267.53 172.99 259.82 183.55 252.00 188.00 Z"/>
</g>
<g fill="None" fill-opacity="0.0" stroke="#93622B" stroke-opacity="1.00" stroke-width="0.3"><path d="
M 209.00 173.00 
C 213.81 171.92 216.88 170.39 221.00 168.00
C 217.18 169.65 212.71 171.83 209.00 173.00 Z"/>
</g>
<g fill="None" fill-opacity="0.0" stroke="#9F5A2B" stroke-opacity="1.00" stroke-width="0.3"><path d="
M 220.00 200.00 
C 226.11 199.37 232.31 196.05 238.00 194.00
C 238.57 193.67 239.46 192.44 240.00 192.00
C 240.12 191.82 241.78 188.42 243.00 187.00
C 237.68 192.32 226.97 198.46 220.00 200.00 Z"/>
</g>
<g fill="None" fill-opacity="0.0" stroke="#EAB177" stroke-opacity="1.00" stroke-width="0.3"><path d="
M 113.00 207.00 
C 114.15 203.32 117.04 199.36 117.00 195.00
C 121.38 200.80 126.17 194.23 131.23 194.79 C 136.28 195.35 144.04 201.10 147.00 194.00
C 145.12 192.50 141.26 190.54 139.00 190.00
C 136.51 189.40 131.32 188.73 129.00 189.00
C 118.52 190.21 115.04 197.64 113.00 207.00 Z"/>
</g>
<g fill="None" fill-opacity="0.0" stroke="#E19963" stroke-opacity="1.00" stroke-width="0.3"><path d="
M 113.00 207.00 
C 110.76 217.27 112.00 229.24 112.00 240.00
C 112.31 243.22 112.54 248.22 113.00 252.00
C 113.16 253.34 114.92 255.97 114.00 258.00
C 123.12 259.00 129.62 256.66 139.00 258.00 C 148.38 259.34 154.32 256.59 153.00 246.00
C 154.31 232.04 158.66 203.30 147.00 194.00
C 144.04 201.10 136.28 195.35 131.23 194.79 C 126.17 194.23 121.38 200.80 117.00 195.00
C 117.04 199.36 114.15 203.32 113.00 207.00 Z"/>
</g>
<g fill="None" fill-opacity="0.0" stroke="#8E9C52" stroke-opacity="1.00" stroke-width="0.3"><path d="
M 178.00 239.00 
C 179.56 232.87 179.76 227.74 182.00 223.00
C 181.51 219.58 184.33 217.54 186.00 215.00
C 178.00 215.94 178.32 225.31 176.00 231.00
C 176.83 223.79 164.79 209.07 167.22 219.78 C 169.66 230.48 168.90 237.23 178.00 242.00
C 178.29 241.13 177.63 239.84 178.00 239.00 Z"/>
</g>
<g fill="None" fill-opacity="0.0" stroke="#9FAF68" stroke-opacity="1.00" stroke-width="0.3"><path d="
M 234.00 242.00 
C 234.29 244.02 235.85 247.29 235.00 250.00
C 237.60 249.56 239.53 249.85 242.00 249.00
C 241.31 247.37 242.66 242.75 243.00 241.00
C 244.15 235.03 246.30 229.29 249.00 224.00
C 243.87 224.89 242.81 231.09 241.00 235.00
C 239.24 231.56 239.78 226.49 237.00 223.00
C 233.14 224.80 233.22 221.57 230.00 221.00
C 230.43 227.50 232.94 234.61 234.00 242.00 Z"/>
</g>
<g fill="None" fill-opacity="0.0" stroke="#A6BC6E" stroke-opacity="1.00" stroke-width="0.3"><path d="
M 178.00 239.00 
C 180.20 235.88 178.12 230.00 181.00 227.00
C 183.01 233.17 184.70 239.48 186.00 246.00
C 186.69 249.47 187.55 253.19 187.00 257.00
C 193.86 259.22 193.41 252.82 193.00 248.00
C 193.40 242.10 193.47 234.28 196.00 229.00
C 193.77 224.72 192.36 235.62 190.00 237.00
C 191.68 231.01 182.83 227.46 182.00 223.00
C 179.76 227.74 179.56 232.87 178.00 239.00 Z"/>
</g>
<g fill="None" fill-opacity="0.0" stroke="#AABF6B" stroke-opacity="1.00" stroke-width="0.3"><path d="
M 78.00 248.00 
C 78.24 248.55 78.72 249.18 79.00 250.00
C 79.61 251.79 79.63 253.11 80.00 255.00
C 81.05 258.34 82.69 259.93 87.00 259.00
C 87.56 256.48 85.81 252.70 88.00 251.00
C 88.24 250.68 88.00 250.00 88.00 250.00
C 89.95 242.65 88.32 233.89 94.00 228.00
C 90.03 229.12 86.83 233.40 85.00 237.00
C 84.11 232.69 80.93 231.55 80.00 227.00
C 78.00 229.04 75.94 225.95 74.00 228.00
C 75.07 232.11 81.52 236.51 78.00 241.00
C 77.25 237.46 75.34 233.90 72.00 232.00
C 73.22 236.42 75.84 242.93 78.00 248.00 Z"/>
</g>
<g fill="None" fill-opacity="0.0" stroke="#C2AD94" stroke-opacity="1.00" stroke-width="0.3"><path d="
M 88.00 250.00 
C 88.00 250.00 88.24 250.68 88.00 251.00
C 91.88 251.35 96.78 250.01 100.22 251.78 C 103.66 253.55 109.92 250.01 113.00 252.00
C 112.54 248.22 112.31 243.22 112.00 240.00
C 112.00 256.79 100.81 248.84 88.00 250.00 Z"/>
</g>
<g fill="None" fill-opacity="0.0" stroke="#8F6548" stroke-opacity="1.00" stroke-width="0.3"><path d="
M 242.00 249.00 
C 242.45 248.85 243.55 248.85 244.00 249.00
C 248.26 250.47 249.31 255.58 255.00 254.00 C 260.69 252.42 266.32 255.19 272.00 254.00
C 272.00 251.33 272.00 248.67 272.00 246.00
C 269.33 246.00 266.67 246.00 264.00 246.00
C 269.14 241.40 264.01 240.54 259.00 241.00 C 253.99 241.46 248.09 240.65 243.00 241.00
C 242.66 242.75 241.31 247.37 242.00 249.00 Z"/>
</g>
<g fill="None" fill-opacity="0.0" stroke="#B1947F" stroke-opacity="1.00" stroke-width="0.3"><path d="
M 193.00 248.00 
C 193.41 252.82 193.86 259.22 187.00 257.00
C 187.55 253.19 186.69 249.47 186.00 246.00
C 178.76 246.94 169.90 248.20 163.00 247.00
C 166.74 250.80 148.17 251.36 153.00 258.00
C 156.33 258.00 159.67 258.00 163.00 258.00
C 121.39 261.59 77.86 261.04 35.00 261.00
C 35.57 260.06 36.15 259.18 36.00 258.00
C 35.63 258.68 34.69 259.50 34.00 260.00
C 30.99 262.28 25.83 260.37 22.00 261.00
C 22.00 266.00 22.00 271.00 22.00 276.00
C 105.33 276.00 188.67 276.00 272.00 276.00
C 272.00 268.67 272.00 261.33 272.00 254.00
C 266.32 255.19 260.69 252.42 255.00 254.00 C 249.31 255.58 248.26 250.47 244.00 249.00
C 245.86 250.44 247.40 253.34 249.00 255.00
C 242.26 256.29 235.08 256.04 228.00 256.00
C 226.16 250.22 232.53 251.75 235.00 250.00
C 223.32 250.64 212.93 246.49 201.00 248.00
C 201.59 245.73 200.15 244.10 200.00 242.00
C 196.94 240.97 196.97 245.04 194.00 244.00
C 194.82 245.51 193.21 247.13 193.00 248.00 Z"/>
</g>
<g fill="None" fill-opacity="0.0" stroke="#936848" stroke-opacity="1.00" stroke-width="0.3"><path d="
M 235.00 250.00 
C 235.85 247.29 234.29 244.02 234.00 242.00
C 230.63 239.64 221.37 242.61 217.00 242.00 C 212.63 241.39 204.51 241.28 200.00 242.00
C 200.15 244.10 201.59 245.73 201.00 248.00
C 212.93 246.49 223.32 250.64 235.00 250.00 Z"/>
</g>
<g fill="None" fill-opacity="0.0" stroke="#A9845F" stroke-opacity="1.00" stroke-width="0.3"><path d="
M 113.00 252.00 
C 109.92 250.01 103.66 253.55 100.22 251.78 C 96.78 250.01 91.88 251.35 88.00 251.00
C 90.57 259.17 81.81 264.22 80.00 255.00
C 79.63 253.11 79.61 251.79 79.00 250.00
C 76.85 252.04 69.29 249.24 66.00 250.00 C 62.71 250.76 56.73 250.01 53.00 250.00 C 49.27 249.99 45.21 248.35 41.00 249.00 C 36.79 249.65 37.65 254.95 36.00 258.00
C 36.15 259.18 35.57 260.06 35.00 261.00
C 77.86 261.04 121.39 261.59 163.00 258.00
C 159.67 258.00 156.33 258.00 153.00 258.00
C 148.17 251.36 166.74 250.80 163.00 247.00
C 161.31 246.71 155.19 244.45 153.00 246.00
C 154.32 256.59 148.38 259.34 139.00 258.00 C 129.62 256.66 123.12 259.00 114.00 258.00
C 114.92 255.97 113.16 253.34 113.00 252.00 Z"/>
</g>
<g fill="None" fill-opacity="0.0" stroke="#C4B298" stroke-opacity="1.00" stroke-width="0.3"><path d="
M 34.00 260.00 
C 34.69 259.50 35.63 258.68 36.00 258.00
C 37.65 254.95 36.79 249.65 41.00 249.00 C 45.21 248.35 49.27 249.99 53.00 250.00 C 56.73 250.01 62.71 250.76 66.00 250.00 C 69.29 249.24 76.85 252.04 79.00 250.00
C 78.72 249.18 78.24 248.55 78.00 248.00
C 65.43 250.92 51.18 247.60 38.00 248.00
C 36.12 250.26 36.58 258.53 34.00 260.00 Z"/>
</g>
<g fill="None" fill-opacity="0.0" stroke="#CCC7C3" stroke-opacity="1.00" stroke-width="0.3"><path d="
M 235.00 250.00 
C 232.53 251.75 226.16 250.22 228.00 256.00
C 235.08 256.04 242.26 256.29 249.00 255.00
C 247.40 253.34 245.86 250.44 244.00 249.00
C 243.55 248.85 242.45 248.85 242.00 249.00
C 239.53 249.85 237.60 249.56 235.00 250.00 Z"/>
</g>
<g fill="None" fill-opacity="0.0" stroke="#9F9858" stroke-opacity="1.00" stroke-width="0.3"><path d="
M 80.00 255.00 
C 81.81 264.22 90.57 259.17 88.00 251.00
C 85.81 252.70 87.56 256.48 87.00 259.00
C 82.69 259.93 81.05 258.34 80.00 255.00 Z"/>
</g>
<g fill="#E5E5E4" fill-opacity="1.00" stroke="None">
<path d="
M 0.00 300.00 
L 326.00 300.00
L 326.00 0.00
L 0.00 0.00
L 0.00 300.00
M 272.00 92.00 
C 270.93 103.10 272.00 114.84 272.00 126.00
C 272.00 126.50 272.00 127.00 272.00 127.00
C 272.00 127.50 272.00 128.50 272.00 129.00
C 272.00 140.67 272.00 152.33 272.00 164.00
C 272.92 173.51 273.10 183.70 273.00 194.00 C 272.90 204.30 272.75 214.52 273.00 225.00 C 273.25 235.48 272.23 245.25 273.00 256.00 C 273.77 266.75 274.75 279.14 262.00 277.00 C 249.25 274.86 242.45 277.96 231.00 277.00 C 219.55 276.04 210.90 277.41 200.00 277.00 C 189.10 276.59 178.64 277.18 168.00 277.00 C 157.36 276.82 147.45 277.04 137.00 277.00 C 126.55 276.96 116.34 276.94 106.00 277.00 C 95.66 277.06 85.24 276.79 75.00 277.00 C 64.76 277.21 52.98 276.52 43.00 277.00 C 33.02 277.48 19.40 279.20 21.00 268.00 C 22.60 256.80 21.78 248.55 23.00 239.00 C 24.22 229.45 24.69 223.18 25.99 213.99 C 27.29 204.80 28.34 196.49 28.78 187.78 C 29.21 179.07 28.77 170.39 29.00 161.00 C 29.23 151.61 29.09 141.45 29.00 132.00 C 28.91 122.55 28.57 116.30 28.07 106.92 C 27.56 97.53 28.09 86.24 27.07 76.93 C 26.06 67.61 27.34 57.60 24.02 48.98 C 20.71 40.35 21.89 30.86 19.00 22.00
C 23.52 19.87 29.06 21.52 34.00 21.00
C 44.33 21.00 54.67 21.00 65.00 21.00 C 75.33 21.00 85.67 21.00 96.00 21.00 C 106.33 21.00 116.68 21.01 127.00 21.00 C 137.32 20.99 147.69 21.01 158.00 21.00 C 168.31 20.99 178.72 21.02 189.00 21.00 C 199.28 20.98 209.78 21.06 220.00 21.00 C 230.22 20.94 240.92 21.12 251.00 21.00 C 261.08 20.88 274.15 17.98 273.00 30.00 C 271.85 42.02 273.24 49.81 273.00 61.00 C 272.76 72.19 272.99 81.79 272.00 92.00 Z"/>
</g>
<g fill="#E0D9CF" fill-opacity="1.00" stroke="None">
<path d="
M 272.00 164.00 
C 272.00 164.50 272.00 165.00 272.00 165.00
C 272.00 165.50 272.00 166.00 272.00 166.00
C 272.00 192.67 272.00 219.33 272.00 246.00
C 272.00 248.67 272.00 251.33 272.00 254.00
C 272.00 261.33 272.00 268.67 272.00 276.00
C 188.67 276.00 105.33 276.00 22.00 276.00
C 22.00 271.00 22.00 266.00 22.00 261.00
C 25.83 260.37 30.99 262.28 34.00 260.00
C 32.24 261.00 28.91 259.25 27.00 260.00
C 28.61 250.39 31.24 237.70 31.65 228.31 C 32.05 218.91 34.85 217.12 35.00 206.00 C 35.14 194.87 33.42 189.74 34.93 178.93 C 36.44 168.12 32.82 154.50 32.22 143.78 C 31.62 133.06 29.83 118.81 31.00 108.00 C 32.17 97.19 28.77 84.21 32.00 74.00 C 35.23 63.79 31.91 55.20 34.33 45.33 C 36.74 35.46 28.51 30.65 34.00 21.00
C 29.06 21.52 23.52 19.87 19.00 22.00
C 21.89 30.86 20.71 40.35 24.02 48.98 C 27.34 57.60 26.06 67.61 27.07 76.93 C 28.09 86.24 27.56 97.53 28.07 106.92 C 28.57 116.30 28.91 122.55 29.00 132.00 C 29.09 141.45 29.23 151.61 29.00 161.00 C 28.77 170.39 29.21 179.07 28.78 187.78 C 28.34 196.49 27.29 204.80 25.99 213.99 C 24.69 223.18 24.22 229.45 23.00 239.00 C 21.78 248.55 22.60 256.80 21.00 268.00 C 19.40 279.20 33.02 277.48 43.00 277.00 C 52.98 276.52 64.76 277.21 75.00 277.00 C 85.24 276.79 95.66 277.06 106.00 277.00 C 116.34 276.94 126.55 276.96 137.00 277.00 C 147.45 277.04 157.36 276.82 168.00 277.00 C 178.64 277.18 189.10 276.59 200.00 277.00 C 210.90 277.41 219.55 276.04 231.00 277.00 C 242.45 277.96 249.25 274.86 262.00 277.00 C 274.75 279.14 273.77 266.75 273.00 256.00 C 272.23 245.25 273.25 235.48 273.00 225.00 C 272.75 214.52 272.90 204.30 273.00 194.00 C 273.10 183.70 272.92 173.51 272.00 164.00 Z"/>
</g>
<g fill="#DFD4BC" fill-opacity="1.00" stroke="None">
<path d="
M 34.00 260.00 
C 36.58 258.53 36.12 250.26 38.00 248.00
C 51.18 247.60 65.43 250.92 78.00 248.00
C 75.84 242.93 73.22 236.42 72.00 232.00
C 75.34 233.90 77.25 237.46 78.00 241.00
C 81.52 236.51 75.07 232.11 74.00 228.00
C 75.94 225.95 78.00 229.04 80.00 227.00
C 80.93 231.55 84.11 232.69 85.00 237.00
C 86.83 233.40 90.03 229.12 94.00 228.00
C 88.32 233.89 89.95 242.65 88.00 250.00
C 100.81 248.84 112.00 256.79 112.00 240.00
C 112.00 229.24 110.76 217.27 113.00 207.00
C 115.04 197.64 118.52 190.21 129.00 189.00
C 131.35 184.59 127.73 171.18 124.69 167.31 C 121.66 163.44 113.86 160.37 110.25 155.75 C 106.64 151.14 98.74 144.04 108.00 140.00
C 104.36 126.96 110.79 113.16 116.30 102.30 C 121.82 91.45 136.53 82.85 142.00 98.00
C 143.39 93.08 151.12 87.31 154.00 83.00
C 154.42 82.37 154.62 81.62 155.00 81.00
C 161.14 70.91 170.58 65.35 181.08 61.08 C 191.57 56.80 208.53 51.13 220.00 56.00
C 220.42 56.18 221.51 55.92 222.00 56.00
C 230.33 57.45 245.68 64.17 252.68 68.32 C 259.68 72.48 270.33 84.72 272.00 92.00
C 272.99 81.79 272.76 72.19 273.00 61.00 C 273.24 49.81 271.85 42.02 273.00 30.00 C 274.15 17.98 261.08 20.88 251.00 21.00 C 240.92 21.12 230.22 20.94 220.00 21.00 C 209.78 21.06 199.28 20.98 189.00 21.00 C 178.72 21.02 168.31 20.99 158.00 21.00 C 147.69 21.01 137.32 20.99 127.00 21.00 C 116.68 21.01 106.33 21.00 96.00 21.00 C 85.67 21.00 75.33 21.00 65.00 21.00 C 54.67 21.00 44.33 21.00 34.00 21.00
C 28.51 30.65 36.74 35.46 34.33 45.33 C 31.91 55.20 35.23 63.79 32.00 74.00 C 28.77 84.21 32.17 97.19 31.00 108.00 C 29.83 118.81 31.62 133.06 32.22 143.78 C 32.82 154.50 36.44 168.12 34.93 178.93 C 33.42 189.74 35.14 194.87 35.00 206.00 C 34.85 217.12 32.05 218.91 31.65 228.31 C 31.24 237.70 28.61 250.39 27.00 260.00
C 28.91 259.25 32.24 261.00 34.00 260.00
M 112.00 58.00 
C 109.83 59.23 107.32 59.22 105.00 60.00
C 105.68 66.34 102.10 72.36 99.69 77.69 C 97.29 83.03 89.81 86.30 94.00 92.00
C 81.78 93.95 70.23 88.66 65.00 78.00
C 69.36 72.66 69.26 65.09 71.98 58.98 C 74.69 52.86 82.81 50.31 82.00 43.00
C 94.45 40.89 107.85 45.91 112.00 58.00
M 79.00 44.00 
C 80.53 49.00 72.36 55.12 70.23 58.23 C 68.10 61.34 67.69 75.91 63.75 73.20 C 59.82 70.48 64.52 58.35 66.77 54.77 C 69.02 51.20 74.07 45.44 79.00 44.00
M 114.00 61.00 
C 115.41 69.87 113.13 77.40 108.25 84.25 C 103.36 91.09 91.87 91.60 97.75 83.75 C 103.64 75.91 106.17 72.42 107.00 63.00
C 109.29 62.24 111.81 62.19 114.00 61.00 Z"/>
</g>
<g fill="#D0D7A4" fill-opacity="1.00" stroke="None">
<path d="
M 112.00 58.00 
C 107.85 45.91 94.45 40.89 82.00 43.00
C 82.81 50.31 74.69 52.86 71.98 58.98 C 69.26 65.09 69.36 72.66 65.00 78.00
C 70.23 88.66 81.78 93.95 94.00 92.00
C 89.81 86.30 97.29 83.03 99.69 77.69 C 102.10 72.36 105.68 66.34 105.00 60.00
C 107.32 59.22 109.83 59.23 112.00 58.00 Z"/>
</g>
<g fill="#CFD3A1" fill-opacity="1.00" stroke="None">
<path d="
M 79.00 44.00 
C 74.07 45.44 69.02 51.20 66.77 54.77 C 64.52 58.35 59.82 70.48 63.75 73.20 C 67.69 75.91 68.10 61.34 70.23 58.23 C 72.36 55.12 80.53 49.00 79.00 44.00 Z"/>
</g>
<g fill="#F9E081" fill-opacity="1.00" stroke="None">
<path d="
M 155.00 81.00 
C 158.43 79.03 164.12 78.13 168.00 77.00
C 174.06 74.65 184.55 73.62 192.00 75.00
C 196.54 73.32 198.38 63.75 204.25 64.25 C 210.12 64.74 215.56 56.94 220.00 56.00
C 208.53 51.13 191.57 56.80 181.08 61.08 C 170.58 65.35 161.14 70.91 155.00 81.00 Z"/>
</g>
<g fill="#F2C85B" fill-opacity="1.00" stroke="None">
<path d="
M 192.00 75.00 
C 193.25 75.23 195.31 76.06 196.00 77.00
C 199.01 76.77 199.86 78.38 202.00 79.00
C 204.78 78.45 210.40 80.03 213.00 81.00
C 222.11 79.68 225.67 62.79 237.00 65.00
C 233.43 60.07 225.68 60.56 222.00 56.00
C 221.51 55.92 220.42 56.18 220.00 56.00
C 215.56 56.94 210.12 64.74 204.25 64.25 C 198.38 63.75 196.54 73.32 192.00 75.00 Z"/>
</g>
<g fill="#E2A342" fill-opacity="1.00" stroke="None">
<path d="
M 213.00 81.00 
C 218.23 82.95 225.02 87.44 230.07 89.93 C 235.13 92.41 243.40 95.68 246.00 101.00
C 254.28 107.00 263.17 113.49 265.00 124.00
C 265.08 124.49 264.77 125.65 265.00 126.00
C 266.03 126.56 267.90 125.57 269.00 126.00
C 268.40 101.81 256.58 80.62 239.00 64.00
C 260.53 77.58 268.00 103.22 272.00 126.00
C 272.00 114.84 270.93 103.10 272.00 92.00
C 270.33 84.72 259.68 72.48 252.68 68.32 C 245.68 64.17 230.33 57.45 222.00 56.00
C 225.68 60.56 233.43 60.07 237.00 65.00
C 225.67 62.79 222.11 79.68 213.00 81.00 Z"/>
</g>
<g fill="#D7D79B" fill-opacity="1.00" stroke="None">
<path d="
M 114.00 61.00 
C 111.81 62.19 109.29 62.24 107.00 63.00
C 106.17 72.42 103.64 75.91 97.75 83.75 C 91.87 91.60 103.36 91.09 108.25 84.25 C 113.13 77.40 115.41 69.87 114.00 61.00 Z"/>
</g>
<g fill="#784818" fill-opacity="1.00" stroke="None">
<path d="
M 265.00 126.00 
C 265.98 127.51 270.24 127.32 272.00 127.00
C 272.00 127.00 272.00 126.50 272.00 126.00
C 268.00 103.22 260.53 77.58 239.00 64.00
C 256.58 80.62 268.40 101.81 269.00 126.00
C 267.90 125.57 266.03 126.56 265.00 126.00 Z"/>
</g>
<g fill="#C3A655" fill-opacity="1.00" stroke="None">
<path d="
M 168.00 77.00 
C 168.80 76.77 169.15 76.18 170.00 76.00
C 175.81 74.76 188.09 74.91 193.00 77.00
C 193.47 76.88 194.50 77.00 195.00 77.00
C 195.50 77.00 196.00 77.00 196.00 77.00
C 195.31 76.06 193.25 75.23 192.00 75.00
C 184.55 73.62 174.06 74.65 168.00 77.00 Z"/>
</g>
<g fill="#785725" fill-opacity="1.00" stroke="None">
<path d="
M 168.00 77.00 
C 164.12 78.13 158.43 79.03 155.00 81.00
C 154.62 81.62 154.42 82.37 154.00 83.00
C 164.21 76.81 178.00 78.00 190.00 78.00
C 186.93 75.73 173.65 76.03 170.00 76.00
C 169.15 76.18 168.80 76.77 168.00 77.00 Z"/>
</g>
<g fill="#422B0E" fill-opacity="1.00" stroke="None">
<path d="
M 190.00 78.00 
C 190.50 78.00 191.00 78.00 191.00 78.00
C 191.50 78.00 192.00 78.00 192.00 78.00
C 192.26 77.88 192.65 77.09 193.00 77.00
C 188.09 74.91 175.81 74.76 170.00 76.00
C 173.65 76.03 186.93 75.73 190.00 78.00 Z"/>
</g>
<g fill="#140701" fill-opacity="1.00" stroke="None">
<path d="
M 192.00 78.00 
C 194.93 78.55 198.08 79.21 201.00 80.00
C 201.34 79.99 201.78 79.04 202.00 79.00
C 200.65 78.16 196.38 77.48 195.00 77.00
C 194.50 77.00 193.47 76.88 193.00 77.00
C 192.65 77.09 192.26 77.88 192.00 78.00 Z"/>
</g>
<g fill="#8A672A" fill-opacity="1.00" stroke="None">
<path d="
M 202.00 79.00 
C 199.86 78.38 199.01 76.77 196.00 77.00
C 196.00 77.00 195.50 77.00 195.00 77.00
C 196.38 77.48 200.65 78.16 202.00 79.00 Z"/>
</g>
<g fill="#EDC35F" fill-opacity="1.00" stroke="None">
<path d="
M 154.00 83.00 
C 151.12 87.31 143.39 93.08 142.00 98.00
C 142.56 100.54 141.58 103.43 142.00 106.00
C 146.72 106.86 150.51 108.91 153.00 112.00
C 152.61 105.81 159.72 96.14 166.00 102.00
C 165.91 100.73 164.00 100.30 164.00 99.00
C 171.66 100.28 181.06 99.09 184.30 92.30 C 187.55 85.52 189.78 81.27 195.00 82.00
C 195.57 79.32 191.64 79.96 191.00 78.00
C 191.00 78.00 190.50 78.00 190.00 78.00
C 178.00 78.00 164.21 76.81 154.00 83.00 Z"/>
</g>
<g fill="#E2AB54" fill-opacity="1.00" stroke="None">
<path d="
M 166.00 102.00 
C 166.32 106.58 166.18 110.79 165.07 115.07 C 163.96 119.36 167.98 121.81 168.00 126.00
C 184.00 126.00 200.00 126.00 216.00 126.00
C 231.67 126.00 247.33 126.00 263.00 126.00
C 263.95 114.52 251.70 110.05 246.00 102.00
C 240.34 101.40 230.50 92.81 225.00 90.00
C 220.91 87.91 216.02 84.43 212.00 83.00
C 208.32 82.10 204.31 80.90 201.00 80.00
C 198.08 79.21 194.93 78.55 192.00 78.00
C 192.00 78.00 191.50 78.00 191.00 78.00
C 191.64 79.96 195.57 79.32 195.00 82.00
C 189.78 81.27 187.55 85.52 184.30 92.30 C 181.06 99.09 171.66 100.28 164.00 99.00
C 164.00 100.30 165.91 100.73 166.00 102.00 Z"/>
</g>
<g fill="#462B0E" fill-opacity="1.00" stroke="None">
<path d="
M 201.00 80.00 
C 204.31 80.90 208.32 82.10 212.00 83.00
C 216.97 84.21 220.98 87.43 225.00 90.00
C 230.50 92.81 240.34 101.40 246.00 102.00
C 245.80 101.60 246.00 101.00 246.00 101.00
C 243.40 95.68 235.13 92.41 230.07 89.93 C 225.02 87.44 218.23 82.95 213.00 81.00
C 210.40 80.03 204.78 78.45 202.00 79.00
C 201.78 79.04 201.34 79.99 201.00 80.00 Z"/>
</g>
<g fill="#784E1F" fill-opacity="1.00" stroke="None">
<path d="
M 225.00 90.00 
C 220.98 87.43 216.97 84.21 212.00 83.00
C 216.02 84.43 220.91 87.91 225.00 90.00 Z"/>
</g>
<g fill="#B7D381" fill-opacity="1.00" stroke="None">
<path d="
M 129.00 189.00 
C 131.32 188.73 136.51 189.40 139.00 190.00
C 137.03 185.93 142.43 181.17 141.98 176.98 C 141.52 172.78 143.26 166.92 148.00 166.00
C 150.51 159.97 159.48 156.68 162.00 151.00
C 163.08 147.73 162.49 145.98 161.00 143.00
C 163.78 140.58 165.21 136.68 168.00 134.00
C 168.35 132.53 168.00 130.52 168.00 129.00
C 168.00 128.00 168.01 127.00 168.00 126.00
C 167.98 121.81 163.96 119.36 165.07 115.07 C 166.18 110.79 166.32 106.58 166.00 102.00
C 159.72 96.14 152.61 105.81 153.00 112.00
C 150.51 108.91 146.72 106.86 142.00 106.00
C 141.58 103.43 142.56 100.54 142.00 98.00
C 136.53 82.85 121.82 91.45 116.30 102.30 C 110.79 113.16 104.36 126.96 108.00 140.00
C 98.74 144.04 106.64 151.14 110.25 155.75 C 113.86 160.37 121.66 163.44 124.69 167.31 C 127.73 171.18 131.35 184.59 129.00 189.00
M 138.00 160.00 
C 141.79 167.50 137.77 176.11 135.00 183.00
C 134.56 176.33 130.47 163.26 138.00 160.00 Z"/>
</g>
<g fill="#673E16" fill-opacity="1.00" stroke="None">
<path d="
M 246.00 102.00 
C 251.70 110.05 263.95 114.52 263.00 126.00
C 247.33 126.00 231.67 126.00 216.00 126.00
C 216.04 126.00 216.00 127.00 216.00 127.00
C 232.00 127.00 248.00 127.00 264.00 127.00
C 264.11 126.00 263.53 124.27 265.00 124.00
C 263.17 113.49 254.28 107.00 246.00 101.00
C 246.00 101.00 245.80 101.60 246.00 102.00 Z"/>
</g>
<g fill="#000000" fill-opacity="1.00" stroke="None">
<path d="
M 216.00 127.00 
C 209.84 127.00 197.55 126.25 192.00 127.00 C 186.45 127.75 170.28 124.20 169.00 129.00
C 176.67 129.00 185.44 128.80 193.00 129.00 C 200.56 129.20 209.84 128.45 217.00 129.00 C 224.16 129.55 234.80 127.75 241.00 129.00 C 247.20 130.25 261.22 125.40 264.00 131.00
C 264.17 131.33 265.01 131.85 265.00 132.00
C 265.79 129.39 265.44 128.58 269.00 129.00
C 269.49 129.06 270.50 129.00 271.00 129.00
C 271.50 129.00 272.00 129.00 272.00 129.00
C 272.00 128.50 272.00 127.50 272.00 127.00
C 270.24 127.32 265.98 127.51 265.00 126.00
C 264.77 125.65 265.08 124.49 265.00 124.00
C 263.53 124.27 264.11 126.00 264.00 127.00
C 248.00 127.00 232.00 127.00 216.00 127.00 Z"/>
</g>
<g fill="#8A5D2A" fill-opacity="1.00" stroke="None">
<path d="
M 168.00 129.00 
C 168.27 129.25 169.00 129.00 169.00 129.00
C 170.28 124.20 186.45 127.75 192.00 127.00 C 197.55 126.25 209.84 127.00 216.00 127.00
C 216.00 127.00 216.04 126.00 216.00 126.00
C 200.00 126.00 184.00 126.00 168.00 126.00
C 168.01 127.00 168.00 128.00 168.00 129.00 Z"/>
</g>
<g fill="#DAA150" fill-opacity="1.00" stroke="None">
<path d="
M 168.00 134.00 
C 169.41 132.11 169.03 128.69 173.00 130.00
C 168.51 132.33 172.20 137.59 171.00 142.00 C 169.80 146.41 167.60 150.37 167.00 155.00
C 171.63 156.71 176.99 155.76 182.00 156.00
C 184.12 163.67 187.02 171.05 191.00 178.00
C 196.93 177.06 203.05 174.34 209.00 173.00
C 212.71 171.83 217.18 169.65 221.00 168.00
C 234.77 162.06 244.80 152.46 257.00 144.00
C 259.78 141.38 261.54 132.02 264.00 131.00
C 261.22 125.40 247.20 130.25 241.00 129.00 C 234.80 127.75 224.16 129.55 217.00 129.00 C 209.84 128.45 200.56 129.20 193.00 129.00 C 185.44 128.80 176.67 129.00 169.00 129.00
C 169.00 129.00 168.27 129.25 168.00 129.00
C 168.00 130.52 168.35 132.53 168.00 134.00 Z"/>
</g>
<g fill="#D18C3B" fill-opacity="1.00" stroke="None">
<path d="
M 265.00 132.00 
C 264.84 135.00 261.71 139.72 260.00 142.00
C 249.49 155.99 230.46 168.22 215.00 174.00
C 212.81 178.23 223.32 180.91 225.00 184.00
C 236.55 180.93 244.20 165.75 257.00 169.00
C 256.13 165.10 261.68 161.24 263.00 157.00
C 266.07 148.03 265.82 137.69 269.00 129.00
C 265.44 128.58 265.79 129.39 265.00 132.00 Z"/>
</g>
<g fill="#643411" fill-opacity="1.00" stroke="None">
<path d="
M 263.00 157.00 
C 258.73 169.49 251.67 176.86 243.00 187.00
C 241.78 188.42 240.12 191.82 240.00 192.00
C 260.41 175.44 268.06 153.90 271.00 129.00
C 270.50 129.00 269.49 129.06 269.00 129.00
C 265.82 137.69 266.07 148.03 263.00 157.00 Z"/>
</g>
<g fill="#C47630" fill-opacity="1.00" stroke="None">
<path d="
M 240.00 192.00 
C 239.46 192.44 238.57 193.67 238.00 194.00
C 242.47 192.39 247.88 190.34 252.00 188.00
C 260.37 182.37 263.92 170.26 272.00 165.00
C 272.00 165.00 272.00 164.50 272.00 164.00
C 272.00 152.33 272.00 140.67 272.00 129.00
C 272.00 129.00 271.50 129.00 271.00 129.00
C 268.06 153.90 260.41 175.44 240.00 192.00 Z"/>
</g>
<g fill="#CF8D44" fill-opacity="1.00" stroke="None">
<path d="
M 168.00 134.00 
C 165.21 136.68 163.78 140.58 161.00 143.00
C 162.49 145.98 163.08 147.73 162.00 151.00
C 160.02 156.99 152.54 160.93 149.00 166.00
C 150.04 168.91 151.46 171.09 154.00 173.00
C 155.21 170.14 165.08 178.44 169.07 177.93 C 173.07 177.41 186.22 178.76 191.00 178.00
C 187.02 171.05 184.12 163.67 182.00 156.00
C 176.99 155.76 171.63 156.71 167.00 155.00
C 167.60 150.37 169.80 146.41 171.00 142.00 C 172.20 137.59 168.51 132.33 173.00 130.00
C 169.03 128.69 169.41 132.11 168.00 134.00 Z"/>
</g>
<g fill="#75461B" fill-opacity="1.00" stroke="None">
<path d="
M 257.00 144.00 
C 257.88 143.39 259.28 142.70 260.00 142.00
C 261.71 139.72 264.84 135.00 265.00 132.00
C 265.01 131.85 264.17 131.33 264.00 131.00
C 261.54 132.02 259.78 141.38 257.00 144.00 Z"/>
</g>
<g fill="#44250E" fill-opacity="1.00" stroke="None">
<path d="
M 257.00 144.00 
C 244.80 152.46 234.77 162.06 221.00 168.00
C 216.88 170.39 213.81 171.92 209.00 173.00
C 203.05 174.34 196.93 177.06 191.00 178.00
C 186.22 178.76 173.07 177.41 169.07 177.93 C 165.08 178.44 155.21 170.14 154.00 173.00
C 154.27 173.20 154.70 173.79 155.00 174.00
C 171.18 185.15 198.10 180.31 215.00 174.00
C 230.46 168.22 249.49 155.99 260.00 142.00
C 259.28 142.70 257.88 143.39 257.00 144.00 Z"/>
</g>
<g fill="#C1AD57" fill-opacity="1.00" stroke="None">
<path d="
M 148.00 166.00 
C 148.48 165.91 149.00 166.00 149.00 166.00
C 152.54 160.93 160.02 156.99 162.00 151.00
C 159.48 156.68 150.51 159.97 148.00 166.00 Z"/>
</g>
<g fill="#C57933" fill-opacity="1.00" stroke="None">
<path d="
M 215.00 174.00 
C 198.10 180.31 171.18 185.15 155.00 174.00
C 160.90 179.79 164.61 187.54 173.03 189.97 C 181.44 192.41 188.66 197.40 197.00 200.00
C 203.70 201.18 213.22 200.70 220.00 200.00
C 226.97 198.46 237.68 192.32 243.00 187.00
C 251.67 176.86 258.73 169.49 263.00 157.00
C 261.68 161.24 256.13 165.10 257.00 169.00
C 244.20 165.75 236.55 180.93 225.00 184.00
C 223.32 180.91 212.81 178.23 215.00 174.00 Z"/>
</g>
<g fill="#D7D0B1" fill-opacity="1.00" stroke="None">
<path d="
M 138.00 160.00 
C 130.47 163.26 134.56 176.33 135.00 183.00
C 137.77 176.11 141.79 167.50 138.00 160.00 Z"/>
</g>
<g fill="#C39269" fill-opacity="1.00" stroke="None">
<path d="
M 252.00 188.00 
C 259.82 183.55 267.53 172.99 272.00 166.00
C 272.00 166.00 272.00 165.50 272.00 165.00
C 263.92 170.26 260.37 182.37 252.00 188.00 Z"/>
</g>
<g fill="#CBBDA7" fill-opacity="1.00" stroke="None">
<path d="
M 139.00 190.00 
C 141.26 190.54 145.12 192.50 147.00 194.00
C 158.66 203.30 154.31 232.04 153.00 246.00
C 155.19 244.45 161.31 246.71 163.00 247.00
C 169.90 248.20 178.76 246.94 186.00 246.00
C 184.70 239.48 183.01 233.17 181.00 227.00
C 178.12 230.00 180.20 235.88 178.00 239.00
C 177.63 239.84 178.29 241.13 178.00 242.00
C 168.90 237.23 169.66 230.48 167.22 219.78 C 164.79 209.07 176.83 223.79 176.00 231.00
C 178.32 225.31 178.00 215.94 186.00 215.00
C 184.33 217.54 181.51 219.58 182.00 223.00
C 182.83 227.46 191.68 231.01 190.00 237.00
C 192.36 235.62 193.77 224.72 196.00 229.00
C 198.77 223.21 209.60 221.70 206.00 213.00
C 209.11 212.37 210.60 208.90 212.00 206.00
C 216.23 208.76 213.34 203.90 215.00 202.00
C 209.26 200.72 202.19 201.91 197.00 200.00
C 188.66 197.40 181.44 192.41 173.03 189.97 C 164.61 187.54 160.90 179.79 155.00 174.00
C 154.70 173.79 154.27 173.20 154.00 173.00
C 151.46 171.09 150.04 168.91 149.00 166.00
C 149.00 166.00 148.48 165.91 148.00 166.00
C 143.26 166.92 141.52 172.78 141.98 176.98 C 142.43 181.17 137.03 185.93 139.00 190.00 Z"/>
</g>
<g fill="#BDAA98" fill-opacity="1.00" stroke="None">
<path d="
M 252.00 188.00 
C 247.88 190.34 242.47 192.39 238.00 194.00
C 232.31 196.05 226.11 199.37 220.00 200.00
C 213.22 200.70 203.70 201.18 197.00 200.00
C 202.19 201.91 209.26 200.72 215.00 202.00
C 213.34 203.90 216.23 208.76 212.00 206.00
C 210.60 208.90 209.11 212.37 206.00 213.00
C 209.60 221.70 198.77 223.21 196.00 229.00
C 193.47 234.28 193.40 242.10 193.00 248.00
C 193.21 247.13 194.82 245.51 194.00 244.00
C 196.97 245.04 196.94 240.97 200.00 242.00
C 204.51 241.28 212.63 241.39 217.00 242.00 C 221.37 242.61 230.63 239.64 234.00 242.00
C 232.94 234.61 230.43 227.50 230.00 221.00
C 233.22 221.57 233.14 224.80 237.00 223.00
C 239.78 226.49 239.24 231.56 241.00 235.00
C 242.81 231.09 243.87 224.89 249.00 224.00
C 246.30 229.29 244.15 235.03 243.00 241.00
C 248.09 240.65 253.99 241.46 259.00 241.00 C 264.01 240.54 269.14 241.40 264.00 246.00
C 266.67 246.00 269.33 246.00 272.00 246.00
C 272.00 219.33 272.00 192.67 272.00 166.00
C 267.53 172.99 259.82 183.55 252.00 188.00 Z"/>
</g>
<g fill="#93622B" fill-opacity="1.00" stroke="None">
<path d="
M 209.00 173.00 
C 213.81 171.92 216.88 170.39 221.00 168.00
C 217.18 169.65 212.71 171.83 209.00 173.00 Z"/>
</g>
<g fill="#9F5A2B" fill-opacity="1.00" stroke="None">
<path d="
M 220.00 200.00 
C 226.11 199.37 232.31 196.05 238.00 194.00
C 238.57 193.67 239.46 192.44 240.00 192.00
C 240.12 191.82 241.78 188.42 243.00 187.00
C 237.68 192.32 226.97 198.46 220.00 200.00 Z"/>
</g>
<g fill="#EAB177" fill-opacity="1.00" stroke="None">
<path d="
M 113.00 207.00 
C 114.15 203.32 117.04 199.36 117.00 195.00
C 121.38 200.80 126.17 194.23 131.23 194.79 C 136.28 195.35 144.04 201.10 147.00 194.00
C 145.12 192.50 141.26 190.54 139.00 190.00
C 136.51 189.40 131.32 188.73 129.00 189.00
C 118.52 190.21 115.04 197.64 113.00 207.00 Z"/>
</g>
<g fill="#E19963" fill-opacity="1.00" stroke="None">
<path d="
M 113.00 207.00 
C 110.76 217.27 112.00 229.24 112.00 240.00
C 112.31 243.22 112.54 248.22 113.00 252.00
C 113.16 253.34 114.92 255.97 114.00 258.00
C 123.12 259.00 129.62 256.66 139.00 258.00 C 148.38 259.34 154.32 256.59 153.00 246.00
C 154.31 232.04 158.66 203.30 147.00 194.00
C 144.04 201.10 136.28 195.35 131.23 194.79 C 126.17 194.23 121.38 200.80 117.00 195.00
C 117.04 199.36 114.15 203.32 113.00 207.00 Z"/>
</g>
<g fill="#8E9C52" fill-opacity="1.00" stroke="None">
<path d="
M 178.00 239.00 
C 179.56 232.87 179.76 227.74 182.00 223.00
C 181.51 219.58 184.33 217.54 186.00 215.00
C 178.00 215.94 178.32 225.31 176.00 231.00
C 176.83 223.79 164.79 209.07 167.22 219.78 C 169.66 230.48 168.90 237.23 178.00 242.00
C 178.29 241.13 177.63 239.84 178.00 239.00 Z"/>
</g>
<g fill="#9FAF68" fill-opacity="1.00" stroke="None">
<path d="
M 234.00 242.00 
C 234.29 244.02 235.85 247.29 235.00 250.00
C 237.60 249.56 239.53 249.85 242.00 249.00
C 241.31 247.37 242.66 242.75 243.00 241.00
C 244.15 235.03 246.30 229.29 249.00 224.00
C 243.87 224.89 242.81 231.09 241.00 235.00
C 239.24 231.56 239.78 226.49 237.00 223.00
C 233.14 224.80 233.22 221.57 230.00 221.00
C 230.43 227.50 232.94 234.61 234.00 242.00 Z"/>
</g>
<g fill="#A6BC6E" fill-opacity="1.00" stroke="None">
<path d="
M 178.00 239.00 
C 180.20 235.88 178.12 230.00 181.00 227.00
C 183.01 233.17 184.70 239.48 186.00 246.00
C 186.69 249.47 187.55 253.19 187.00 257.00
C 193.86 259.22 193.41 252.82 193.00 248.00
C 193.40 242.10 193.47 234.28 196.00 229.00
C 193.77 224.72 192.36 235.62 190.00 237.00
C 191.68 231.01 182.83 227.46 182.00 223.00
C 179.76 227.74 179.56 232.87 178.00 239.00 Z"/>
</g>
<g fill="#AABF6B" fill-opacity="1.00" stroke="None">
<path d="
M 78.00 248.00 
C 78.24 248.55 78.72 249.18 79.00 250.00
C 79.61 251.79 79.63 253.11 80.00 255.00
C 81.05 258.34 82.69 259.93 87.00 259.00
C 87.56 256.48 85.81 252.70 88.00 251.00
C 88.24 250.68 88.00 250.00 88.00 250.00
C 89.95 242.65 88.32 233.89 94.00 228.00
C 90.03 229.12 86.83 233.40 85.00 237.00
C 84.11 232.69 80.93 231.55 80.00 227.00
C 78.00 229.04 75.94 225.95 74.00 228.00
C 75.07 232.11 81.52 236.51 78.00 241.00
C 77.25 237.46 75.34 233.90 72.00 232.00
C 73.22 236.42 75.84 242.93 78.00 248.00 Z"/>
</g>
<g fill="#C2AD94" fill-opacity="1.00" stroke="None">
<path d="
M 88.00 250.00 
C 88.00 250.00 88.24 250.68 88.00 251.00
C 91.88 251.35 96.78 250.01 100.22 251.78 C 103.66 253.55 109.92 250.01 113.00 252.00
C 112.54 248.22 112.31 243.22 112.00 240.00
C 112.00 256.79 100.81 248.84 88.00 250.00 Z"/>
</g>
<g fill="#8F6548" fill-opacity="1.00" stroke="None">
<path d="
M 242.00 249.00 
C 242.45 248.85 243.55 248.85 244.00 249.00
C 248.26 250.47 249.31 255.58 255.00 254.00 C 260.69 252.42 266.32 255.19 272.00 254.00
C 272.00 251.33 272.00 248.67 272.00 246.00
C 269.33 246.00 266.67 246.00 264.00 246.00
C 269.14 241.40 264.01 240.54 259.00 241.00 C 253.99 241.46 248.09 240.65 243.00 241.00
C 242.66 242.75 241.31 247.37 242.00 249.00 Z"/>
</g>
<g fill="#B1947F" fill-opacity="1.00" stroke="None">
<path d="
M 193.00 248.00 
C 193.41 252.82 193.86 259.22 187.00 257.00
C 187.55 253.19 186.69 249.47 186.00 246.00
C 178.76 246.94 169.90 248.20 163.00 247.00
C 166.74 250.80 148.17 251.36 153.00 258.00
C 156.33 258.00 159.67 258.00 163.00 258.00
C 121.39 261.59 77.86 261.04 35.00 261.00
C 35.57 260.06 36.15 259.18 36.00 258.00
C 35.63 258.68 34.69 259.50 34.00 260.00
C 30.99 262.28 25.83 260.37 22.00 261.00
C 22.00 266.00 22.00 271.00 22.00 276.00
C 105.33 276.00 188.67 276.00 272.00 276.00
C 272.00 268.67 272.00 261.33 272.00 254.00
C 266.32 255.19 260.69 252.42 255.00 254.00 C 249.31 255.58 248.26 250.47 244.00 249.00
C 245.86 250.44 247.40 253.34 249.00 255.00
C 242.26 256.29 235.08 256.04 228.00 256.00
C 226.16 250.22 232.53 251.75 235.00 250.00
C 223.32 250.64 212.93 246.49 201.00 248.00
C 201.59 245.73 200.15 244.10 200.00 242.00
C 196.94 240.97 196.97 245.04 194.00 244.00
C 194.82 245.51 193.21 247.13 193.00 248.00 Z"/>
</g>
<g fill="#936848" fill-opacity="1.00" stroke="None">
<path d="
M 235.00 250.00 
C 235.85 247.29 234.29 244.02 234.00 242.00
C 230.63 239.64 221.37 242.61 217.00 242.00 C 212.63 241.39 204.51 241.28 200.00 242.00
C 200.15 244.10 201.59 245.73 201.00 248.00
C 212.93 246.49 223.32 250.64 235.00 250.00 Z"/>
</g>
<g fill="#A9845F" fill-opacity="1.00" stroke="None">
<path d="
M 113.00 252.00 
C 109.92 250.01 103.66 253.55 100.22 251.78 C 96.78 250.01 91.88 251.35 88.00 251.00
C 90.57 259.17 81.81 264.22 80.00 255.00
C 79.63 253.11 79.61 251.79 79.00 250.00
C 76.85 252.04 69.29 249.24 66.00 250.00 C 62.71 250.76 56.73 250.01 53.00 250.00 C 49.27 249.99 45.21 248.35 41.00 249.00 C 36.79 249.65 37.65 254.95 36.00 258.00
C 36.15 259.18 35.57 260.06 35.00 261.00
C 77.86 261.04 121.39 261.59 163.00 258.00
C 159.67 258.00 156.33 258.00 153.00 258.00
C 148.17 251.36 166.74 250.80 163.00 247.00
C 161.31 246.71 155.19 244.45 153.00 246.00
C 154.32 256.59 148.38 259.34 139.00 258.00 C 129.62 256.66 123.12 259.00 114.00 258.00
C 114.92 255.97 113.16 253.34 113.00 252.00 Z"/>
</g>
<g fill="#C4B298" fill-opacity="1.00" stroke="None">
<path d="
M 34.00 260.00 
C 34.69 259.50 35.63 258.68 36.00 258.00
C 37.65 254.95 36.79 249.65 41.00 249.00 C 45.21 248.35 49.27 249.99 53.00 250.00 C 56.73 250.01 62.71 250.76 66.00 250.00 C 69.29 249.24 76.85 252.04 79.00 250.00
C 78.72 249.18 78.24 248.55 78.00 248.00
C 65.43 250.92 51.18 247.60 38.00 248.00
C 36.12 250.26 36.58 258.53 34.00 260.00 Z"/>
</g>
<g fill="#CCC7C3" fill-opacity="1.00" stroke="None">
<path d="
M 235.00 250.00 
C 232.53 251.75 226.16 250.22 228.00 256.00
C 235.08 256.04 242.26 256.29 249.00 255.00
C 247.40 253.34 245.86 250.44 244.00 249.00
C 243.55 248.85 242.45 248.85 242.00 249.00
C 239.53 249.85 237.60 249.56 235.00 250.00 Z"/>
</g>
<g fill="#9F9858" fill-opacity="1.00" stroke="None">
<path d="
M 80.00 255.00 
C 81.81 264.22 90.57 259.17 88.00 251.00
C 85.81 252.70 87.56 256.48 87.00 259.00
C 82.69 259.93 81.05 258.34 80.00 255.00 Z"/>
</g>
</svg>