<svg xmlns="http://www.w3.org/2000/svg" xmlns:v="https://svgstorm.com"
viewBox = "0 0 299 300"
width="299"
height="300">
<g fill="None" fill-opacity="0.0" stroke="#E6E5E6" stroke-opacity="1.00" stroke-width="0.3"><path d="
M 0.00 296.00 
C 1.57 296.96 3.25 298.32 4.00 300.00
L 296.00 300.00
C 296.67 298.80 297.64 297.42 299.00 297.00
L 299.00 0.00
L 0.00 0.00
L 0.00 296.00
M 259.00 276.00 
C 248.34 277.00 237.04 277.05 226.00 277.00 C 214.96 276.95 202.93 276.71 192.00 277.00 C 181.07 277.29 169.45 275.57 159.31 278.31 C 149.16 281.04 142.99 284.20 132.00 285.00 C 121.01 285.80 109.48 283.48 98.00 285.00 C 86.52 286.52 83.14 276.06 72.00 277.00 C 60.86 277.94 49.25 276.99 39.00 276.00
C 33.72 275.49 28.30 276.38 23.00 276.00
C 23.00 191.00 23.00 106.00 23.00 21.00
C 108.00 21.00 193.00 21.00 278.00 21.00
C 278.00 106.00 278.00 191.00 278.00 276.00
C 271.67 276.00 265.33 276.00 259.00 276.00 Z"/>
</g>
<g fill="None" fill-opacity="0.0" stroke="#D3CBCE" stroke-opacity="1.00" stroke-width="0.3"><path d="
M 39.00 276.00 
C 38.81 275.92 39.00 274.50 39.00 274.00
C 39.00 269.18 39.33 266.26 41.00 262.00
C 42.02 259.40 43.21 256.71 44.00 254.00
C 42.43 253.61 39.78 254.94 39.00 253.00
C 38.84 252.75 38.87 250.27 39.00 250.00
C 40.15 247.66 44.95 249.71 47.00 249.00
C 50.37 240.93 53.84 232.70 58.00 225.00
C 55.00 224.44 57.55 223.28 56.00 222.00
C 53.19 222.67 51.62 221.81 50.00 220.00
C 49.20 219.10 48.41 216.23 48.00 215.00
C 46.68 211.00 45.20 200.31 50.30 197.30 C 55.41 194.30 65.80 196.00 72.00 196.00
C 71.96 196.00 72.00 195.00 72.00 195.00
C 72.98 184.55 83.36 176.25 85.78 165.78 C 88.19 155.30 96.62 146.20 99.77 135.77 C 102.92 125.34 110.30 116.74 116.00 108.00
C 117.62 105.51 118.80 100.95 120.00 98.00
C 121.92 93.29 123.11 88.66 125.00 83.00
C 127.00 76.99 134.71 72.29 139.00 68.00
C 142.25 61.36 158.93 45.53 162.00 55.00
C 164.50 62.69 164.31 71.78 163.00 80.00
C 162.09 85.73 158.61 91.91 157.67 97.67 C 156.73 103.44 149.65 106.53 147.00 111.00
C 145.12 114.16 142.86 117.93 141.00 121.00
C 138.64 124.89 138.38 129.28 136.00 133.00
C 132.82 137.98 131.03 143.87 127.69 148.69 C 124.36 153.52 121.00 159.34 118.08 164.08 C 115.16 168.82 111.98 175.54 108.25 179.25 C 104.51 182.95 103.29 192.88 99.00 195.00
C 106.00 195.00 113.00 195.00 120.00 195.00
C 120.50 195.00 121.00 195.00 121.00 195.00
C 126.82 188.34 132.15 180.80 138.25 174.25 C 144.34 167.70 149.38 158.86 155.25 152.25 C 161.13 145.65 167.96 138.83 173.25 132.25 C 178.54 125.66 178.74 126.65 182.25 121.25 C 185.77 115.86 188.47 115.95 191.25 111.25 C 194.02 106.55 197.31 105.12 199.30 100.30 C 201.30 95.49 207.61 93.85 210.00 91.00
C 211.93 88.70 214.75 80.23 215.97 76.97 C 217.19 73.71 208.41 66.42 211.00 62.00
C 204.79 61.62 195.92 68.00 192.00 60.00
C 191.63 59.59 193.63 58.39 191.87 58.08 C 190.10 57.78 188.48 58.69 187.00 58.00
C 185.05 57.10 183.52 55.28 184.00 53.00
C 202.19 43.05 227.34 36.35 244.00 53.00
C 249.51 57.35 252.00 61.82 257.75 66.25 C 263.50 70.67 265.54 76.65 270.25 81.75 C 274.95 86.85 279.56 92.28 272.75 97.75 C 265.94 103.22 266.50 110.78 256.00 109.00
C 248.38 107.71 244.52 96.23 235.00 99.00
C 233.11 101.27 231.11 104.66 228.00 105.00
C 226.69 105.41 226.83 104.82 226.00 106.00
C 221.91 111.83 217.82 118.26 212.75 123.75 C 207.68 129.25 204.29 136.42 198.25 141.25 C 192.21 146.08 189.93 154.43 184.25 159.25 C 178.56 164.06 175.66 172.86 170.08 177.08 C 164.50 181.31 161.89 192.43 156.00 195.00
C 162.45 194.41 169.57 195.18 176.00 195.00 C 182.43 194.82 189.74 194.89 196.00 195.00 C 202.26 195.11 210.19 194.53 216.00 195.00 C 221.81 195.47 231.22 193.86 236.00 195.00 C 240.78 196.14 254.08 192.10 256.00 196.00
C 256.10 196.20 256.14 198.87 256.00 199.00
C 254.43 200.63 251.29 199.95 249.00 200.00
C 249.00 205.67 249.00 211.33 249.00 217.00
C 251.24 217.06 253.45 216.45 255.00 218.00
C 255.67 218.67 256.50 219.78 256.00 221.00
C 255.26 222.83 247.82 222.26 246.00 222.00
C 246.73 225.31 246.14 232.90 246.00 236.00 C 245.86 239.10 247.51 247.40 245.00 249.00
C 249.74 249.00 255.72 247.72 259.00 251.00
C 263.80 255.80 263.08 267.67 260.00 273.00
C 259.62 273.66 259.14 274.23 259.00 275.00
C 258.91 275.48 259.00 276.00 259.00 276.00
C 265.33 276.00 271.67 276.00 278.00 276.00
C 278.00 191.00 278.00 106.00 278.00 21.00
C 193.00 21.00 108.00 21.00 23.00 21.00
C 23.00 106.00 23.00 191.00 23.00 276.00
C 28.30 276.38 33.72 275.49 39.00 276.00 Z"/>
</g>
<g fill="None" fill-opacity="0.0" stroke="#A79EA9" stroke-opacity="1.00" stroke-width="0.3"><path d="
M 187.00 58.00 
C 186.20 57.33 186.04 55.96 186.00 55.00
C 194.11 52.15 212.45 46.11 211.00 61.00
C 204.49 60.13 197.21 66.49 192.00 60.00
C 195.92 68.00 204.79 61.62 211.00 62.00
C 208.41 66.42 217.19 73.71 215.97 76.97 C 214.75 80.23 211.93 88.70 210.00 91.00
C 210.39 94.46 215.07 97.23 217.00 100.00
C 217.16 100.23 218.00 100.00 218.00 100.00
C 220.83 95.95 225.26 93.03 228.00 89.00
C 238.38 89.44 241.73 77.66 249.25 70.25 C 256.78 62.84 238.46 54.83 235.00 48.00
C 238.51 48.42 241.23 50.99 244.00 53.00
C 227.34 36.35 202.19 43.05 184.00 53.00
C 183.52 55.28 185.05 57.10 187.00 58.00 Z"/>
</g>
<g fill="None" fill-opacity="0.0" stroke="#898297" stroke-opacity="1.00" stroke-width="0.3"><path d="
M 218.00 100.00 
C 219.36 101.42 223.82 105.99 226.00 106.00
C 226.83 104.82 226.69 105.41 228.00 105.00
C 230.48 103.24 232.97 100.33 235.00 98.00
C 237.79 99.01 240.89 99.18 244.00 99.00
C 238.05 90.40 240.67 86.34 246.77 78.77 C 252.87 71.20 260.54 76.97 265.00 83.00
C 257.60 87.79 242.36 102.96 256.00 109.00
C 266.50 110.78 265.94 103.22 272.75 97.75 C 279.56 92.28 274.95 86.85 270.25 81.75 C 265.54 76.65 263.50 70.67 257.75 66.25 C 252.00 61.82 249.51 57.35 244.00 53.00
C 241.23 50.99 238.51 48.42 235.00 48.00
C 238.46 54.83 256.78 62.84 249.25 70.25 C 241.73 77.66 238.38 89.44 228.00 89.00
C 225.26 93.03 220.83 95.95 218.00 100.00 Z"/>
</g>
<g fill="None" fill-opacity="0.0" stroke="#EDBFBE" stroke-opacity="1.00" stroke-width="0.3"><path d="
M 139.00 68.00 
C 138.80 68.40 139.00 69.00 139.00 69.00
C 145.99 66.08 150.59 56.98 157.00 53.00
C 160.00 51.14 160.34 51.29 162.00 55.00
C 158.93 45.53 142.25 61.36 139.00 68.00 Z"/>
</g>
<g fill="None" fill-opacity="0.0" stroke="#E57E81" stroke-opacity="1.00" stroke-width="0.3"><path d="
M 157.00 53.00 
C 155.22 55.35 153.55 62.89 151.25 65.25 C 148.94 67.60 143.58 73.71 145.00 76.00
C 147.24 77.49 150.45 79.18 153.00 80.00
C 155.04 80.65 161.36 82.31 163.00 80.00
C 164.31 71.78 164.50 62.69 162.00 55.00
C 160.34 51.29 160.00 51.14 157.00 53.00 Z"/>
</g>
<g fill="None" fill-opacity="0.0" stroke="#877B8B" stroke-opacity="1.00" stroke-width="0.3"><path d="
M 187.00 58.00 
C 188.48 58.69 190.10 57.78 191.87 58.08 C 193.63 58.39 191.63 59.59 192.00 60.00
C 197.21 66.49 204.49 60.13 211.00 61.00
C 212.45 46.11 194.11 52.15 186.00 55.00
C 186.04 55.96 186.20 57.33 187.00 58.00 Z"/>
</g>
<g fill="None" fill-opacity="0.0" stroke="#F4A09A" stroke-opacity="1.00" stroke-width="0.3"><path d="
M 139.00 69.00 
C 139.57 71.92 142.58 74.39 145.00 76.00
C 143.58 73.71 148.94 67.60 151.25 65.25 C 153.55 62.89 155.22 55.35 157.00 53.00
C 150.59 56.98 145.99 66.08 139.00 69.00 Z"/>
</g>
<g fill="None" fill-opacity="0.0" stroke="#ECDED1" stroke-opacity="1.00" stroke-width="0.3"><path d="
M 125.00 83.00 
C 131.51 88.96 139.09 92.80 147.00 96.00
C 148.03 90.35 153.31 86.06 153.00 80.00
C 150.45 79.18 147.24 77.49 145.00 76.00
C 142.58 74.39 139.57 71.92 139.00 69.00
C 139.00 69.00 138.80 68.40 139.00 68.00
C 134.71 72.29 127.00 76.99 125.00 83.00 Z"/>
</g>
<g fill="None" fill-opacity="0.0" stroke="#A099A7" stroke-opacity="1.00" stroke-width="0.3"><path d="
M 228.00 105.00 
C 231.11 104.66 233.11 101.27 235.00 99.00
C 244.52 96.23 248.38 107.71 256.00 109.00
C 242.36 102.96 257.60 87.79 265.00 83.00
C 260.54 76.97 252.87 71.20 246.77 78.77 C 240.67 86.34 238.05 90.40 244.00 99.00
C 240.89 99.18 237.79 99.01 235.00 98.00
C 232.97 100.33 230.48 103.24 228.00 105.00 Z"/>
</g>
<g fill="None" fill-opacity="0.0" stroke="#D7C3BE" stroke-opacity="1.00" stroke-width="0.3"><path d="
M 125.00 83.00 
C 123.11 88.66 121.92 93.29 120.00 98.00
C 123.58 99.56 129.56 102.83 132.69 105.31 C 135.83 107.78 145.71 107.90 147.00 111.00
C 149.65 106.53 156.73 103.44 157.67 97.67 C 158.61 91.91 162.09 85.73 163.00 80.00
C 161.36 82.31 155.04 80.65 153.00 80.00
C 153.31 86.06 148.03 90.35 147.00 96.00
C 139.09 92.80 131.51 88.96 125.00 83.00 Z"/>
</g>
<g fill="None" fill-opacity="0.0" stroke="#C9A186" stroke-opacity="1.00" stroke-width="0.3"><path d="
M 121.00 195.00 
C 127.33 195.00 133.67 195.00 140.00 195.00
C 144.92 193.18 148.19 183.49 152.75 179.75 C 157.32 176.01 161.00 168.12 165.75 163.75 C 170.50 159.38 174.09 152.47 178.75 147.75 C 183.42 143.04 187.76 138.03 191.75 132.75 C 195.74 127.47 200.84 122.13 204.75 116.75 C 208.67 111.37 214.96 106.24 217.00 100.00
C 215.07 97.23 210.39 94.46 210.00 91.00
C 207.61 93.85 201.30 95.49 199.30 100.30 C 197.31 105.12 194.02 106.55 191.25 111.25 C 188.47 115.95 185.77 115.86 182.25 121.25 C 178.74 126.65 178.54 125.66 173.25 132.25 C 167.96 138.83 161.13 145.65 155.25 152.25 C 149.38 158.86 144.34 167.70 138.25 174.25 C 132.15 180.80 126.82 188.34 121.00 195.00 Z"/>
</g>
<g fill="None" fill-opacity="0.0" stroke="#938BA1" stroke-opacity="1.00" stroke-width="0.3"><path d="
M 116.00 108.00 
C 119.86 107.77 123.10 115.08 127.23 115.77 C 131.36 116.46 135.99 122.40 141.00 121.00
C 142.86 117.93 145.12 114.16 147.00 111.00
C 145.71 107.90 135.83 107.78 132.69 105.31 C 129.56 102.83 123.58 99.56 120.00 98.00
C 118.80 100.95 117.62 105.51 116.00 108.00 Z"/>
</g>
<g fill="None" fill-opacity="0.0" stroke="#B88E79" stroke-opacity="1.00" stroke-width="0.3"><path d="
M 140.00 195.00 
C 145.26 195.00 150.76 194.53 156.00 195.00
C 161.89 192.43 164.50 181.31 170.08 177.08 C 175.66 172.86 178.56 164.06 184.25 159.25 C 189.93 154.43 192.21 146.08 198.25 141.25 C 204.29 136.42 207.68 129.25 212.75 123.75 C 217.82 118.26 221.91 111.83 226.00 106.00
C 223.82 105.99 219.36 101.42 218.00 100.00
C 218.00 100.00 217.16 100.23 217.00 100.00
C 214.96 106.24 208.67 111.37 204.75 116.75 C 200.84 122.13 195.74 127.47 191.75 132.75 C 187.76 138.03 183.42 143.04 178.75 147.75 C 174.09 152.47 170.50 159.38 165.75 163.75 C 161.00 168.12 157.32 176.01 152.75 179.75 C 148.19 183.49 144.92 193.18 140.00 195.00 Z"/>
</g>
<g fill="None" fill-opacity="0.0" stroke="#D8BF99" stroke-opacity="1.00" stroke-width="0.3"><path d="
M 72.00 195.00 
C 78.22 194.43 84.76 195.00 91.00 195.00
C 93.24 188.56 98.25 182.33 101.25 176.25 C 104.26 170.18 109.19 163.77 111.77 157.77 C 114.35 151.77 121.15 145.32 122.30 139.30 C 123.46 133.29 135.93 124.14 136.00 133.00
C 138.38 129.28 138.64 124.89 141.00 121.00
C 135.99 122.40 131.36 116.46 127.23 115.77 C 123.10 115.08 119.86 107.77 116.00 108.00
C 110.30 116.74 102.92 125.34 99.77 135.77 C 96.62 146.20 88.19 155.30 85.78 165.78 C 83.36 176.25 72.98 184.55 72.00 195.00 Z"/>
</g>
<g fill="None" fill-opacity="0.0" stroke="#CFAF8C" stroke-opacity="1.00" stroke-width="0.3"><path d="
M 91.00 195.00 
C 93.67 195.00 96.33 195.00 99.00 195.00
C 103.29 192.88 104.51 182.95 108.25 179.25 C 111.98 175.54 115.16 168.82 118.08 164.08 C 121.00 159.34 124.36 153.52 127.69 148.69 C 131.03 143.87 132.82 137.98 136.00 133.00
C 135.93 124.14 123.46 133.29 122.30 139.30 C 121.15 145.32 114.35 151.77 111.77 157.77 C 109.19 163.77 104.26 170.18 101.25 176.25 C 98.25 182.33 93.24 188.56 91.00 195.00 Z"/>
</g>
<g fill="None" fill-opacity="0.0" stroke="#CEAEC4" stroke-opacity="1.00" stroke-width="0.3"><path d="
M 72.00 196.00 
C 88.00 196.00 104.00 196.00 120.00 196.00
C 119.96 196.00 120.00 195.00 120.00 195.00
C 113.00 195.00 106.00 195.00 99.00 195.00
C 96.33 195.00 93.67 195.00 91.00 195.00
C 84.76 195.00 78.22 194.43 72.00 195.00
C 72.00 195.00 71.96 196.00 72.00 196.00 Z"/>
</g>
<g fill="None" fill-opacity="0.0" stroke="#BF8CB0" stroke-opacity="1.00" stroke-width="0.3"><path d="
M 120.00 196.00 
C 132.00 196.00 144.00 196.00 156.00 196.00
C 155.96 196.00 156.00 195.00 156.00 195.00
C 150.76 194.53 145.26 195.00 140.00 195.00
C 133.67 195.00 127.33 195.00 121.00 195.00
C 121.00 195.00 120.50 195.00 120.00 195.00
C 120.00 195.00 119.96 196.00 120.00 196.00 Z"/>
</g>
<g fill="None" fill-opacity="0.0" stroke="#CBB5D4" stroke-opacity="1.00" stroke-width="0.3"><path d="
M 156.00 196.00 
C 189.33 196.00 222.67 196.00 256.00 196.00
C 254.08 192.10 240.78 196.14 236.00 195.00 C 231.22 193.86 221.81 195.47 216.00 195.00 C 210.19 194.53 202.26 195.11 196.00 195.00 C 189.74 194.89 182.43 194.82 176.00 195.00 C 169.57 195.18 162.45 194.41 156.00 195.00
C 156.00 195.00 155.96 196.00 156.00 196.00 Z"/>
</g>
<g fill="None" fill-opacity="0.0" stroke="#C982EA" stroke-opacity="1.00" stroke-width="0.3"><path d="
M 48.00 215.00 
C 47.26 211.14 48.56 206.89 48.00 203.00
C 59.78 203.01 71.18 202.99 83.00 203.00 C 94.82 203.01 107.16 202.98 119.00 203.00 C 130.84 203.02 143.25 202.95 155.00 203.00 C 166.75 203.05 178.69 204.69 186.92 198.92 C 195.15 193.16 210.75 198.15 221.00 197.00 C 231.25 195.85 247.02 196.21 255.00 199.00
C 255.50 199.00 256.00 199.00 256.00 199.00
C 256.14 198.87 256.10 196.20 256.00 196.00
C 222.67 196.00 189.33 196.00 156.00 196.00
C 144.00 196.00 132.00 196.00 120.00 196.00
C 104.00 196.00 88.00 196.00 72.00 196.00
C 65.80 196.00 55.41 194.30 50.30 197.30 C 45.20 200.31 46.68 211.00 48.00 215.00 Z"/>
</g>
<g fill="None" fill-opacity="0.0" stroke="#B86DE4" stroke-opacity="1.00" stroke-width="0.3"><path d="
M 48.00 215.00 
C 48.41 216.23 49.20 219.10 50.00 220.00
C 51.73 221.37 53.92 220.91 56.00 221.00
C 57.99 221.09 60.01 221.00 62.00 221.00
C 58.55 218.80 68.27 212.01 73.00 214.00 C 77.73 215.99 87.14 213.23 93.00 214.00 C 98.86 214.77 107.77 213.81 114.00 214.00 C 120.23 214.19 126.90 214.49 133.00 215.00 C 139.10 215.51 144.06 218.00 150.00 219.00
C 149.92 220.26 147.94 219.56 148.00 221.00
C 168.00 221.00 188.00 221.00 208.00 221.00
C 220.33 221.00 232.67 221.00 245.00 221.00
C 248.67 221.00 252.33 221.00 256.00 221.00
C 256.50 219.78 255.67 218.67 255.00 218.00
C 249.62 214.73 239.30 219.77 233.00 218.00 C 226.70 216.23 217.54 219.45 211.00 218.00 C 204.46 216.55 194.48 220.53 189.00 217.00
C 184.30 213.97 185.56 205.45 188.00 202.00
C 193.11 194.78 210.35 200.07 220.00 199.00 C 229.65 197.93 244.84 199.00 255.00 199.00
C 247.02 196.21 231.25 195.85 221.00 197.00 C 210.75 198.15 195.15 193.16 186.92 198.92 C 178.69 204.69 166.75 203.05 155.00 203.00 C 143.25 202.95 130.84 203.02 119.00 203.00 C 107.16 202.98 94.82 203.01 83.00 203.00 C 71.18 202.99 59.78 203.01 48.00 203.00
C 48.56 206.89 47.26 211.14 48.00 215.00 Z"/>
</g>
<g fill="None" fill-opacity="0.0" stroke="#C8B5E1" stroke-opacity="1.00" stroke-width="0.3"><path d="
M 188.00 202.00 
C 193.81 196.07 208.14 201.14 217.00 200.00 C 225.86 198.86 239.68 200.19 249.00 200.00
C 251.29 199.95 254.43 200.63 256.00 199.00
C 256.00 199.00 255.50 199.00 255.00 199.00
C 244.84 199.00 229.65 197.93 220.00 199.00 C 210.35 200.07 193.11 194.78 188.00 202.00 Z"/>
</g>
<g fill="None" fill-opacity="0.0" stroke="#D9D6E2" stroke-opacity="1.00" stroke-width="0.3"><path d="
M 188.00 202.00 
C 185.56 205.45 184.30 213.97 189.00 217.00
C 197.22 220.59 209.92 215.56 219.00 217.00 C 228.08 218.44 239.67 216.74 249.00 217.00
C 249.00 211.33 249.00 205.67 249.00 200.00
C 239.68 200.19 225.86 198.86 217.00 200.00 C 208.14 201.14 193.81 196.07 188.00 202.00 Z"/>
</g>
<g fill="None" fill-opacity="0.0" stroke="#814CE5" stroke-opacity="1.00" stroke-width="0.3"><path d="
M 62.00 221.00 
C 89.67 221.00 117.33 221.00 145.00 221.00
C 146.00 221.00 147.00 221.00 148.00 221.00
C 147.94 219.56 149.92 220.26 150.00 219.00
C 144.06 218.00 139.10 215.51 133.00 215.00 C 126.90 214.49 120.23 214.19 114.00 214.00 C 107.77 213.81 98.86 214.77 93.00 214.00 C 87.14 213.23 77.73 215.99 73.00 214.00 C 68.27 212.01 58.55 218.80 62.00 221.00 Z"/>
</g>
<g fill="None" fill-opacity="0.0" stroke="#D3C4E5" stroke-opacity="1.00" stroke-width="0.3"><path d="
M 255.00 218.00 
C 253.45 216.45 251.24 217.06 249.00 217.00
C 239.67 216.74 228.08 218.44 219.00 217.00 C 209.92 215.56 197.22 220.59 189.00 217.00
C 194.48 220.53 204.46 216.55 211.00 218.00 C 217.54 219.45 226.70 216.23 233.00 218.00 C 239.30 219.77 249.62 214.73 255.00 218.00 Z"/>
</g>
<g fill="None" fill-opacity="0.0" stroke="#C5ADD0" stroke-opacity="1.00" stroke-width="0.3"><path d="
M 56.00 222.00 
C 55.96 222.00 56.00 221.00 56.00 221.00
C 53.92 220.91 51.73 221.37 50.00 220.00
C 51.62 221.81 53.19 222.67 56.00 222.00 Z"/>
</g>
<g fill="None" fill-opacity="0.0" stroke="#90A3E1" stroke-opacity="1.00" stroke-width="0.3"><path d="
M 56.00 222.00 
C 85.12 224.63 115.74 222.00 145.00 222.00
C 144.75 221.75 145.00 221.00 145.00 221.00
C 117.33 221.00 89.67 221.00 62.00 221.00
C 60.01 221.00 57.99 221.09 56.00 221.00
C 56.00 221.00 55.96 222.00 56.00 222.00 Z"/>
</g>
<g fill="None" fill-opacity="0.0" stroke="#9484DB" stroke-opacity="1.00" stroke-width="0.3"><path d="
M 145.00 222.00 
C 145.50 222.00 146.00 222.00 146.00 222.00
C 149.33 222.00 152.67 222.00 156.00 222.00
C 172.67 222.00 189.33 222.00 206.00 222.00
C 206.50 222.00 207.84 222.23 208.00 222.00
C 208.25 221.78 208.00 221.00 208.00 221.00
C 188.00 221.00 168.00 221.00 148.00 221.00
C 147.00 221.00 146.00 221.00 145.00 221.00
C 145.00 221.00 144.75 221.75 145.00 222.00 Z"/>
</g>
<g fill="None" fill-opacity="0.0" stroke="#89C5E2" stroke-opacity="1.00" stroke-width="0.3"><path d="
M 208.00 222.00 
C 198.59 230.44 189.64 230.60 177.00 230.00 C 164.36 229.40 155.67 229.76 146.00 222.00
C 146.00 222.00 145.50 222.00 145.00 222.00
C 115.74 222.00 85.12 224.63 56.00 222.00
C 57.55 223.28 55.00 224.44 58.00 225.00
C 58.89 225.17 60.09 225.02 61.00 225.00
C 62.33 224.97 63.67 225.03 65.00 225.00
C 65.00 231.67 65.00 238.33 65.00 245.00
C 61.82 244.59 59.28 246.69 56.00 246.00
C 55.74 246.93 56.21 248.06 56.00 249.00
C 64.67 249.00 73.33 249.00 82.00 249.00
C 80.84 245.63 91.63 241.26 96.00 242.00 C 100.37 242.74 111.25 241.76 117.00 242.00 C 122.75 242.24 131.71 242.10 138.00 242.00 C 144.29 241.90 150.83 242.99 157.00 244.00 C 163.17 245.01 169.70 246.28 176.00 247.00
C 175.92 248.26 173.94 247.56 174.00 249.00
C 174.50 249.00 175.00 249.00 175.00 249.00
C 197.33 249.00 219.67 249.00 242.00 249.00
C 243.00 249.00 244.00 249.00 245.00 249.00
C 247.51 247.40 245.86 239.10 246.00 236.00 C 246.14 232.90 246.73 225.31 246.00 222.00
C 245.65 221.95 245.23 221.05 245.00 221.00
C 232.67 221.00 220.33 221.00 208.00 221.00
C 208.00 221.00 208.25 221.78 208.00 222.00 Z"/>
</g>
<g fill="None" fill-opacity="0.0" stroke="#C6AED4" stroke-opacity="1.00" stroke-width="0.3"><path d="
M 246.00 222.00 
C 247.82 222.26 255.26 222.83 256.00 221.00
C 252.33 221.00 248.67 221.00 245.00 221.00
C 245.23 221.05 245.65 221.95 246.00 222.00 Z"/>
</g>
<g fill="None" fill-opacity="0.0" stroke="#61A0DF" stroke-opacity="1.00" stroke-width="0.3"><path d="
M 208.00 222.00 
C 207.84 222.23 206.50 222.00 206.00 222.00
C 189.10 230.61 173.04 224.06 156.00 222.00
C 152.67 222.00 149.33 222.00 146.00 222.00
C 155.67 229.76 164.36 229.40 177.00 230.00 C 189.64 230.60 198.59 230.44 208.00 222.00 Z"/>
</g>
<g fill="None" fill-opacity="0.0" stroke="#4980DC" stroke-opacity="1.00" stroke-width="0.3"><path d="
M 206.00 222.00 
C 189.33 222.00 172.67 222.00 156.00 222.00
C 173.04 224.06 189.10 230.61 206.00 222.00 Z"/>
</g>
<g fill="None" fill-opacity="0.0" stroke="#CEB78E" stroke-opacity="1.00" stroke-width="0.3"><path d="
M 39.00 250.00 
C 83.15 249.87 129.06 249.97 174.00 250.00
C 174.50 250.00 175.00 250.00 175.00 250.00
C 175.25 249.75 175.00 249.00 175.00 249.00
C 175.00 249.00 174.50 249.00 174.00 249.00
C 170.33 249.00 166.67 249.00 163.00 249.00
C 136.67 249.00 110.33 249.00 84.00 249.00
C 83.50 249.00 82.50 249.00 82.00 249.00
C 73.33 249.00 64.67 249.00 56.00 249.00
C 56.21 248.06 55.74 246.93 56.00 246.00
C 56.51 244.16 59.69 245.40 61.00 245.00
C 61.00 238.33 61.00 231.67 61.00 225.00
C 60.09 225.02 58.89 225.17 58.00 225.00
C 53.84 232.70 50.37 240.93 47.00 249.00
C 44.95 249.71 40.15 247.66 39.00 250.00 Z"/>
</g>
<g fill="None" fill-opacity="0.0" stroke="#D2CED3" stroke-opacity="1.00" stroke-width="0.3"><path d="
M 56.00 246.00 
C 59.28 246.69 61.82 244.59 65.00 245.00
C 65.00 238.33 65.00 231.67 65.00 225.00
C 63.67 225.03 62.33 224.97 61.00 225.00
C 61.00 231.67 61.00 238.33 61.00 245.00
C 59.69 245.40 56.51 244.16 56.00 246.00 Z"/>
</g>
<g fill="None" fill-opacity="0.0" stroke="#7BA7BF" stroke-opacity="1.00" stroke-width="0.3"><path d="
M 82.00 249.00 
C 82.50 249.00 83.50 249.00 84.00 249.00
C 90.82 240.50 111.63 248.55 123.00 246.00 C 134.37 243.45 152.39 247.48 163.00 249.00
C 166.67 249.00 170.33 249.00 174.00 249.00
C 173.94 247.56 175.92 248.26 176.00 247.00
C 169.70 246.28 163.17 245.01 157.00 244.00 C 150.83 242.99 144.29 241.90 138.00 242.00 C 131.71 242.10 122.75 242.24 117.00 242.00 C 111.25 241.76 100.37 242.74 96.00 242.00 C 91.63 241.26 80.84 245.63 82.00 249.00 Z"/>
</g>
<g fill="None" fill-opacity="0.0" stroke="#7092A6" stroke-opacity="1.00" stroke-width="0.3"><path d="
M 84.00 249.00 
C 110.33 249.00 136.67 249.00 163.00 249.00
C 152.39 247.48 134.37 243.45 123.00 246.00 C 111.63 248.55 90.82 240.50 84.00 249.00 Z"/>
</g>
<g fill="None" fill-opacity="0.0" stroke="#E1B65A" stroke-opacity="1.00" stroke-width="0.3"><path d="
M 39.00 250.00 
C 38.87 250.27 38.84 252.75 39.00 253.00
C 58.00 253.00 77.00 253.00 96.00 253.00
C 97.95 257.65 99.34 264.46 97.00 269.00
C 97.00 269.50 97.09 270.52 97.00 271.00
C 96.80 272.09 95.79 272.55 95.00 273.00
C 90.21 275.75 82.51 272.87 77.00 274.00 C 71.49 275.13 62.01 272.33 57.00 274.00 C 51.99 275.67 42.01 270.22 39.00 274.00
C 39.00 274.50 38.81 275.92 39.00 276.00
C 44.87 278.61 54.34 275.40 61.00 276.00 C 67.66 276.60 76.47 276.39 83.00 277.00
C 103.59 278.93 125.31 277.00 146.00 277.00
C 151.20 277.00 156.11 276.43 161.00 276.00
C 165.49 274.56 170.83 272.32 176.00 272.00 C 181.17 271.68 186.56 269.08 191.67 270.33 C 196.78 271.58 202.66 270.81 208.01 270.01 C 213.35 269.21 220.32 268.82 225.22 268.22 C 230.12 267.63 240.40 267.22 244.07 268.93 C 247.74 270.63 259.24 268.79 260.00 273.00
C 263.08 267.67 263.80 255.80 259.00 251.00
C 255.43 248.45 247.30 250.00 243.00 250.00
C 245.36 259.95 229.62 257.31 223.00 257.00 C 216.38 256.69 202.33 258.27 196.00 256.00 C 189.67 253.74 178.19 255.19 174.00 250.00
C 129.06 249.97 83.15 249.87 39.00 250.00 Z"/>
</g>
<g fill="None" fill-opacity="0.0" stroke="#A49D9B" stroke-opacity="1.00" stroke-width="0.3"><path d="
M 175.00 250.00 
C 197.33 249.99 219.67 250.00 242.00 250.00
C 241.75 249.75 242.00 249.00 242.00 249.00
C 219.67 249.00 197.33 249.00 175.00 249.00
C 175.00 249.00 175.25 249.75 175.00 250.00 Z"/>
</g>
<g fill="None" fill-opacity="0.0" stroke="#D7BE9E" stroke-opacity="1.00" stroke-width="0.3"><path d="
M 242.00 250.00 
C 242.50 250.00 243.00 250.00 243.00 250.00
C 247.30 250.00 255.43 248.45 259.00 251.00
C 255.72 247.72 249.74 249.00 245.00 249.00
C 244.00 249.00 243.00 249.00 242.00 249.00
C 242.00 249.00 241.75 249.75 242.00 250.00 Z"/>
</g>
<g fill="None" fill-opacity="0.0" stroke="#BB8C3B" stroke-opacity="1.00" stroke-width="0.3"><path d="
M 243.00 250.00 
C 243.00 250.00 242.50 250.00 242.00 250.00
C 219.67 250.00 197.33 249.99 175.00 250.00
C 175.00 250.00 174.50 250.00 174.00 250.00
C 178.19 255.19 189.67 253.74 196.00 256.00 C 202.33 258.27 216.38 256.69 223.00 257.00 C 229.62 257.31 245.36 259.95 243.00 250.00 Z"/>
</g>
<g fill="None" fill-opacity="0.0" stroke="#DDCDBF" stroke-opacity="1.00" stroke-width="0.3"><path d="
M 41.00 262.00 
C 41.94 260.23 44.14 258.44 44.00 256.00
C 47.49 260.15 41.08 272.85 49.01 272.99 C 56.94 273.14 64.20 272.93 72.00 273.00 C 79.80 273.07 87.23 272.95 95.00 273.00
C 95.79 272.55 96.80 272.09 97.00 271.00
C 94.46 274.30 85.26 271.55 81.00 272.00 C 76.74 272.45 67.47 272.43 63.00 272.00 C 58.53 271.57 50.20 274.16 46.78 271.22 C 43.35 268.28 47.73 257.93 46.00 254.00
C 57.22 253.08 67.71 255.22 79.00 254.00 C 90.29 252.78 101.30 254.31 97.00 269.00
C 99.34 264.46 97.95 257.65 96.00 253.00
C 77.00 253.00 58.00 253.00 39.00 253.00
C 39.78 254.94 42.43 253.61 44.00 254.00
C 43.21 256.71 42.02 259.40 41.00 262.00 Z"/>
</g>
<g fill="None" fill-opacity="0.0" stroke="#E0DADB" stroke-opacity="1.00" stroke-width="0.3"><path d="
M 97.00 271.00 
C 97.09 270.52 97.00 269.50 97.00 269.00
C 101.30 254.31 90.29 252.78 79.00 254.00 C 67.71 255.22 57.22 253.08 46.00 254.00
C 47.73 257.93 43.35 268.28 46.78 271.22 C 50.20 274.16 58.53 271.57 63.00 272.00 C 67.47 272.43 76.74 272.45 81.00 272.00 C 85.26 271.55 94.46 274.30 97.00 271.00 Z"/>
</g>
<g fill="None" fill-opacity="0.0" stroke="#D9BC8D" stroke-opacity="1.00" stroke-width="0.3"><path d="
M 41.00 262.00 
C 39.33 266.26 39.00 269.18 39.00 274.00
C 42.01 270.22 51.99 275.67 57.00 274.00 C 62.01 272.33 71.49 275.13 77.00 274.00 C 82.51 272.87 90.21 275.75 95.00 273.00
C 87.23 272.95 79.80 273.07 72.00 273.00 C 64.20 272.93 56.94 273.14 49.01 272.99 C 41.08 272.85 47.49 260.15 44.00 256.00
C 44.14 258.44 41.94 260.23 41.00 262.00 Z"/>
</g>
<g fill="None" fill-opacity="0.0" stroke="#DDA246" stroke-opacity="1.00" stroke-width="0.3"><path d="
M 161.00 276.00 
C 171.67 275.06 183.41 276.92 194.00 276.00 C 204.59 275.08 216.77 277.52 227.00 276.00 C 237.23 274.48 249.95 279.59 259.00 275.00
C 259.14 274.23 259.62 273.66 260.00 273.00
C 259.24 268.79 247.74 270.63 244.07 268.93 C 240.40 267.22 230.12 267.63 225.22 268.22 C 220.32 268.82 213.35 269.21 208.01 270.01 C 202.66 270.81 196.78 271.58 191.67 270.33 C 186.56 269.08 181.17 271.68 176.00 272.00 C 170.83 272.32 165.49 274.56 161.00 276.00 Z"/>
</g>
<g fill="None" fill-opacity="0.0" stroke="#DFC8B9" stroke-opacity="1.00" stroke-width="0.3"><path d="
M 161.00 276.00 
C 156.11 276.43 151.20 277.00 146.00 277.00
C 127.31 278.81 101.44 280.88 83.00 277.00
C 76.47 276.39 67.66 276.60 61.00 276.00 C 54.34 275.40 44.87 278.61 39.00 276.00
C 49.25 276.99 60.86 277.94 72.00 277.00 C 83.14 276.06 86.52 286.52 98.00 285.00 C 109.48 283.48 121.01 285.80 132.00 285.00 C 142.99 284.20 149.16 281.04 159.31 278.31 C 169.45 275.57 181.07 277.29 192.00 277.00 C 202.93 276.71 214.96 276.95 226.00 277.00 C 237.04 277.05 248.34 277.00 259.00 276.00
C 259.00 276.00 258.91 275.48 259.00 275.00
C 249.95 279.59 237.23 274.48 227.00 276.00 C 216.77 277.52 204.59 275.08 194.00 276.00 C 183.41 276.92 171.67 275.06 161.00 276.00 Z"/>
</g>
<g fill="None" fill-opacity="0.0" stroke="#DAB38F" stroke-opacity="1.00" stroke-width="0.3"><path d="
M 146.00 277.00 
C 125.31 277.00 103.59 278.93 83.00 277.00
C 101.44 280.88 127.31 278.81 146.00 277.00 Z"/>
</g>
<g fill="None" fill-opacity="0.0" stroke="#898989" stroke-opacity="0.27" stroke-width="0.3"><path d="
M 0.00 300.00 
L 4.00 300.00
C 3.25 298.32 1.57 296.96 0.00 296.00
L 0.00 300.00 Z"/>
</g>
<g fill="None" fill-opacity="0.0" stroke="#DCDCDC" stroke-opacity="0.49" stroke-width="0.3"><path d="
M 296.00 300.00 
L 299.00 300.00
L 299.00 297.00
C 297.64 297.42 296.67 298.80 296.00 300.00 Z"/>
</g>
<g fill="#E6E5E6" fill-opacity="1.00" stroke="None">
<path d="
M 0.00 296.00 
C 1.57 296.96 3.25 298.32 4.00 300.00
L 296.00 300.00
C 296.67 298.80 297.64 297.42 299.00 297.00
L 299.00 0.00
L 0.00 0.00
L 0.00 296.00
M 259.00 276.00 
C 248.34 277.00 237.04 277.05 226.00 277.00 C 214.96 276.95 202.93 276.71 192.00 277.00 C 181.07 277.29 169.45 275.57 159.31 278.31 C 149.16 281.04 142.99 284.20 132.00 285.00 C 121.01 285.80 109.48 283.48 98.00 285.00 C 86.52 286.52 83.14 276.06 72.00 277.00 C 60.86 277.94 49.25 276.99 39.00 276.00
C 33.72 275.49 28.30 276.38 23.00 276.00
C 23.00 191.00 23.00 106.00 23.00 21.00
C 108.00 21.00 193.00 21.00 278.00 21.00
C 278.00 106.00 278.00 191.00 278.00 276.00
C 271.67 276.00 265.33 276.00 259.00 276.00 Z"/>
</g>
<g fill="#D3CBCE" fill-opacity="1.00" stroke="None">
<path d="
M 39.00 276.00 
C 38.81 275.92 39.00 274.50 39.00 274.00
C 39.00 269.18 39.33 266.26 41.00 262.00
C 42.02 259.40 43.21 256.71 44.00 254.00
C 42.43 253.61 39.78 254.94 39.00 253.00
C 38.84 252.75 38.87 250.27 39.00 250.00
C 40.15 247.66 44.95 249.71 47.00 249.00
C 50.37 240.93 53.84 232.70 58.00 225.00
C 55.00 224.44 57.55 223.28 56.00 222.00
C 53.19 222.67 51.62 221.81 50.00 220.00
C 49.20 219.10 48.41 216.23 48.00 215.00
C 46.68 211.00 45.20 200.31 50.30 197.30 C 55.41 194.30 65.80 196.00 72.00 196.00
C 71.96 196.00 72.00 195.00 72.00 195.00
C 72.98 184.55 83.36 176.25 85.78 165.78 C 88.19 155.30 96.62 146.20 99.77 135.77 C 102.92 125.34 110.30 116.74 116.00 108.00
C 117.62 105.51 118.80 100.95 120.00 98.00
C 121.92 93.29 123.11 88.66 125.00 83.00
C 127.00 76.99 134.71 72.29 139.00 68.00
C 142.25 61.36 158.93 45.53 162.00 55.00
C 164.50 62.69 164.31 71.78 163.00 80.00
C 162.09 85.73 158.61 91.91 157.67 97.67 C 156.73 103.44 149.65 106.53 147.00 111.00
C 145.12 114.16 142.86 117.93 141.00 121.00
C 138.64 124.89 138.38 129.28 136.00 133.00
C 132.82 137.98 131.03 143.87 127.69 148.69 C 124.36 153.52 121.00 159.34 118.08 164.08 C 115.16 168.82 111.98 175.54 108.25 179.25 C 104.51 182.95 103.29 192.88 99.00 195.00
C 106.00 195.00 113.00 195.00 120.00 195.00
C 120.50 195.00 121.00 195.00 121.00 195.00
C 126.82 188.34 132.15 180.80 138.25 174.25 C 144.34 167.70 149.38 158.86 155.25 152.25 C 161.13 145.65 167.96 138.83 173.25 132.25 C 178.54 125.66 178.74 126.65 182.25 121.25 C 185.77 115.86 188.47 115.95 191.25 111.25 C 194.02 106.55 197.31 105.12 199.30 100.30 C 201.30 95.49 207.61 93.85 210.00 91.00
C 211.93 88.70 214.75 80.23 215.97 76.97 C 217.19 73.71 208.41 66.42 211.00 62.00
C 204.79 61.62 195.92 68.00 192.00 60.00
C 191.63 59.59 193.63 58.39 191.87 58.08 C 190.10 57.78 188.48 58.69 187.00 58.00
C 185.05 57.10 183.52 55.28 184.00 53.00
C 202.19 43.05 227.34 36.35 244.00 53.00
C 249.51 57.35 252.00 61.82 257.75 66.25 C 263.50 70.67 265.54 76.65 270.25 81.75 C 274.95 86.85 279.56 92.28 272.75 97.75 C 265.94 103.22 266.50 110.78 256.00 109.00
C 248.38 107.71 244.52 96.23 235.00 99.00
C 233.11 101.27 231.11 104.66 228.00 105.00
C 226.69 105.41 226.83 104.82 226.00 106.00
C 221.91 111.83 217.82 118.26 212.75 123.75 C 207.68 129.25 204.29 136.42 198.25 141.25 C 192.21 146.08 189.93 154.43 184.25 159.25 C 178.56 164.06 175.66 172.86 170.08 177.08 C 164.50 181.31 161.89 192.43 156.00 195.00
C 162.45 194.41 169.57 195.18 176.00 195.00 C 182.43 194.82 189.74 194.89 196.00 195.00 C 202.26 195.11 210.19 194.53 216.00 195.00 C 221.81 195.47 231.22 193.86 236.00 195.00 C 240.78 196.14 254.08 192.10 256.00 196.00
C 256.10 196.20 256.14 198.87 256.00 199.00
C 254.43 200.63 251.29 199.95 249.00 200.00
C 249.00 205.67 249.00 211.33 249.00 217.00
C 251.24 217.06 253.45 216.45 255.00 218.00
C 255.67 218.67 256.50 219.78 256.00 221.00
C 255.26 222.83 247.82 222.26 246.00 222.00
C 246.73 225.31 246.14 232.90 246.00 236.00 C 245.86 239.10 247.51 247.40 245.00 249.00
C 249.74 249.00 255.72 247.72 259.00 251.00
C 263.80 255.80 263.08 267.67 260.00 273.00
C 259.62 273.66 259.14 274.23 259.00 275.00
C 258.91 275.48 259.00 276.00 259.00 276.00
C 265.33 276.00 271.67 276.00 278.00 276.00
C 278.00 191.00 278.00 106.00 278.00 21.00
C 193.00 21.00 108.00 21.00 23.00 21.00
C 23.00 106.00 23.00 191.00 23.00 276.00
C 28.30 276.38 33.72 275.49 39.00 276.00 Z"/>
</g>
<g fill="#A79EA9" fill-opacity="1.00" stroke="None">
<path d="
M 187.00 58.00 
C 186.20 57.33 186.04 55.96 186.00 55.00
C 194.11 52.15 212.45 46.11 211.00 61.00
C 204.49 60.13 197.21 66.49 192.00 60.00
C 195.92 68.00 204.79 61.62 211.00 62.00
C 208.41 66.42 217.19 73.71 215.97 76.97 C 214.75 80.23 211.93 88.70 210.00 91.00
C 210.39 94.46 215.07 97.23 217.00 100.00
C 217.16 100.23 218.00 100.00 218.00 100.00
C 220.83 95.95 225.26 93.03 228.00 89.00
C 238.38 89.44 241.73 77.66 249.25 70.25 C 256.78 62.84 238.46 54.83 235.00 48.00
C 238.51 48.42 241.23 50.99 244.00 53.00
C 227.34 36.35 202.19 43.05 184.00 53.00
C 183.52 55.28 185.05 57.10 187.00 58.00 Z"/>
</g>
<g fill="#898297" fill-opacity="1.00" stroke="None">
<path d="
M 218.00 100.00 
C 219.36 101.42 223.82 105.99 226.00 106.00
C 226.83 104.82 226.69 105.41 228.00 105.00
C 230.48 103.24 232.97 100.33 235.00 98.00
C 237.79 99.01 240.89 99.18 244.00 99.00
C 238.05 90.40 240.67 86.34 246.77 78.77 C 252.87 71.20 260.54 76.97 265.00 83.00
C 257.60 87.79 242.36 102.96 256.00 109.00
C 266.50 110.78 265.94 103.22 272.75 97.75 C 279.56 92.28 274.95 86.85 270.25 81.75 C 265.54 76.65 263.50 70.67 257.75 66.25 C 252.00 61.82 249.51 57.35 244.00 53.00
C 241.23 50.99 238.51 48.42 235.00 48.00
C 238.46 54.83 256.78 62.84 249.25 70.25 C 241.73 77.66 238.38 89.44 228.00 89.00
C 225.26 93.03 220.83 95.95 218.00 100.00 Z"/>
</g>
<g fill="#EDBFBE" fill-opacity="1.00" stroke="None">
<path d="
M 139.00 68.00 
C 138.80 68.40 139.00 69.00 139.00 69.00
C 145.99 66.08 150.59 56.98 157.00 53.00
C 160.00 51.14 160.34 51.29 162.00 55.00
C 158.93 45.53 142.25 61.36 139.00 68.00 Z"/>
</g>
<g fill="#E57E81" fill-opacity="1.00" stroke="None">
<path d="
M 157.00 53.00 
C 155.22 55.35 153.55 62.89 151.25 65.25 C 148.94 67.60 143.58 73.71 145.00 76.00
C 147.24 77.49 150.45 79.18 153.00 80.00
C 155.04 80.65 161.36 82.31 163.00 80.00
C 164.31 71.78 164.50 62.69 162.00 55.00
C 160.34 51.29 160.00 51.14 157.00 53.00 Z"/>
</g>
<g fill="#877B8B" fill-opacity="1.00" stroke="None">
<path d="
M 187.00 58.00 
C 188.48 58.69 190.10 57.78 191.87 58.08 C 193.63 58.39 191.63 59.59 192.00 60.00
C 197.21 66.49 204.49 60.13 211.00 61.00
C 212.45 46.11 194.11 52.15 186.00 55.00
C 186.04 55.96 186.20 57.33 187.00 58.00 Z"/>
</g>
<g fill="#F4A09A" fill-opacity="1.00" stroke="None">
<path d="
M 139.00 69.00 
C 139.57 71.92 142.58 74.39 145.00 76.00
C 143.58 73.71 148.94 67.60 151.25 65.25 C 153.55 62.89 155.22 55.35 157.00 53.00
C 150.59 56.98 145.99 66.08 139.00 69.00 Z"/>
</g>
<g fill="#ECDED1" fill-opacity="1.00" stroke="None">
<path d="
M 125.00 83.00 
C 131.51 88.96 139.09 92.80 147.00 96.00
C 148.03 90.35 153.31 86.06 153.00 80.00
C 150.45 79.18 147.24 77.49 145.00 76.00
C 142.58 74.39 139.57 71.92 139.00 69.00
C 139.00 69.00 138.80 68.40 139.00 68.00
C 134.71 72.29 127.00 76.99 125.00 83.00 Z"/>
</g>
<g fill="#A099A7" fill-opacity="1.00" stroke="None">
<path d="
M 228.00 105.00 
C 231.11 104.66 233.11 101.27 235.00 99.00
C 244.52 96.23 248.38 107.71 256.00 109.00
C 242.36 102.96 257.60 87.79 265.00 83.00
C 260.54 76.97 252.87 71.20 246.77 78.77 C 240.67 86.34 238.05 90.40 244.00 99.00
C 240.89 99.18 237.79 99.01 235.00 98.00
C 232.97 100.33 230.48 103.24 228.00 105.00 Z"/>
</g>
<g fill="#D7C3BE" fill-opacity="1.00" stroke="None">
<path d="
M 125.00 83.00 
C 123.11 88.66 121.92 93.29 120.00 98.00
C 123.58 99.56 129.56 102.83 132.69 105.31 C 135.83 107.78 145.71 107.90 147.00 111.00
C 149.65 106.53 156.73 103.44 157.67 97.67 C 158.61 91.91 162.09 85.73 163.00 80.00
C 161.36 82.31 155.04 80.65 153.00 80.00
C 153.31 86.06 148.03 90.35 147.00 96.00
C 139.09 92.80 131.51 88.96 125.00 83.00 Z"/>
</g>
<g fill="#C9A186" fill-opacity="1.00" stroke="None">
<path d="
M 121.00 195.00 
C 127.33 195.00 133.67 195.00 140.00 195.00
C 144.92 193.18 148.19 183.49 152.75 179.75 C 157.32 176.01 161.00 168.12 165.75 163.75 C 170.50 159.38 174.09 152.47 178.75 147.75 C 183.42 143.04 187.76 138.03 191.75 132.75 C 195.74 127.47 200.84 122.13 204.75 116.75 C 208.67 111.37 214.96 106.24 217.00 100.00
C 215.07 97.23 210.39 94.46 210.00 91.00
C 207.61 93.85 201.30 95.49 199.30 100.30 C 197.31 105.12 194.02 106.55 191.25 111.25 C 188.47 115.95 185.77 115.86 182.25 121.25 C 178.74 126.65 178.54 125.66 173.25 132.25 C 167.96 138.83 161.13 145.65 155.25 152.25 C 149.38 158.86 144.34 167.70 138.25 174.25 C 132.15 180.80 126.82 188.34 121.00 195.00 Z"/>
</g>
<g fill="#938BA1" fill-opacity="1.00" stroke="None">
<path d="
M 116.00 108.00 
C 119.86 107.77 123.10 115.08 127.23 115.77 C 131.36 116.46 135.99 122.40 141.00 121.00
C 142.86 117.93 145.12 114.16 147.00 111.00
C 145.71 107.90 135.83 107.78 132.69 105.31 C 129.56 102.83 123.58 99.56 120.00 98.00
C 118.80 100.95 117.62 105.51 116.00 108.00 Z"/>
</g>
<g fill="#B88E79" fill-opacity="1.00" stroke="None">
<path d="
M 140.00 195.00 
C 145.26 195.00 150.76 194.53 156.00 195.00
C 161.89 192.43 164.50 181.31 170.08 177.08 C 175.66 172.86 178.56 164.06 184.25 159.25 C 189.93 154.43 192.21 146.08 198.25 141.25 C 204.29 136.42 207.68 129.25 212.75 123.75 C 217.82 118.26 221.91 111.83 226.00 106.00
C 223.82 105.99 219.36 101.42 218.00 100.00
C 218.00 100.00 217.16 100.23 217.00 100.00
C 214.96 106.24 208.67 111.37 204.75 116.75 C 200.84 122.13 195.74 127.47 191.75 132.75 C 187.76 138.03 183.42 143.04 178.75 147.75 C 174.09 152.47 170.50 159.38 165.75 163.75 C 161.00 168.12 157.32 176.01 152.75 179.75 C 148.19 183.49 144.92 193.18 140.00 195.00 Z"/>
</g>
<g fill="#D8BF99" fill-opacity="1.00" stroke="None">
<path d="
M 72.00 195.00 
C 78.22 194.43 84.76 195.00 91.00 195.00
C 93.24 188.56 98.25 182.33 101.25 176.25 C 104.26 170.18 109.19 163.77 111.77 157.77 C 114.35 151.77 121.15 145.32 122.30 139.30 C 123.46 133.29 135.93 124.14 136.00 133.00
C 138.38 129.28 138.64 124.89 141.00 121.00
C 135.99 122.40 131.36 116.46 127.23 115.77 C 123.10 115.08 119.86 107.77 116.00 108.00
C 110.30 116.74 102.92 125.34 99.77 135.77 C 96.62 146.20 88.19 155.30 85.78 165.78 C 83.36 176.25 72.98 184.55 72.00 195.00 Z"/>
</g>
<g fill="#CFAF8C" fill-opacity="1.00" stroke="None">
<path d="
M 91.00 195.00 
C 93.67 195.00 96.33 195.00 99.00 195.00
C 103.29 192.88 104.51 182.95 108.25 179.25 C 111.98 175.54 115.16 168.82 118.08 164.08 C 121.00 159.34 124.36 153.52 127.69 148.69 C 131.03 143.87 132.82 137.98 136.00 133.00
C 135.93 124.14 123.46 133.29 122.30 139.30 C 121.15 145.32 114.35 151.77 111.77 157.77 C 109.19 163.77 104.26 170.18 101.25 176.25 C 98.25 182.33 93.24 188.56 91.00 195.00 Z"/>
</g>
<g fill="#CEAEC4" fill-opacity="1.00" stroke="None">
<path d="
M 72.00 196.00 
C 88.00 196.00 104.00 196.00 120.00 196.00
C 119.96 196.00 120.00 195.00 120.00 195.00
C 113.00 195.00 106.00 195.00 99.00 195.00
C 96.33 195.00 93.67 195.00 91.00 195.00
C 84.76 195.00 78.22 194.43 72.00 195.00
C 72.00 195.00 71.96 196.00 72.00 196.00 Z"/>
</g>
<g fill="#BF8CB0" fill-opacity="1.00" stroke="None">
<path d="
M 120.00 196.00 
C 132.00 196.00 144.00 196.00 156.00 196.00
C 155.96 196.00 156.00 195.00 156.00 195.00
C 150.76 194.53 145.26 195.00 140.00 195.00
C 133.67 195.00 127.33 195.00 121.00 195.00
C 121.00 195.00 120.50 195.00 120.00 195.00
C 120.00 195.00 119.96 196.00 120.00 196.00 Z"/>
</g>
<g fill="#CBB5D4" fill-opacity="1.00" stroke="None">
<path d="
M 156.00 196.00 
C 189.33 196.00 222.67 196.00 256.00 196.00
C 254.08 192.10 240.78 196.14 236.00 195.00 C 231.22 193.86 221.81 195.47 216.00 195.00 C 210.19 194.53 202.26 195.11 196.00 195.00 C 189.74 194.89 182.43 194.82 176.00 195.00 C 169.57 195.18 162.45 194.41 156.00 195.00
C 156.00 195.00 155.96 196.00 156.00 196.00 Z"/>
</g>
<g fill="#C982EA" fill-opacity="1.00" stroke="None">
<path d="
M 48.00 215.00 
C 47.26 211.14 48.56 206.89 48.00 203.00
C 59.78 203.01 71.18 202.99 83.00 203.00 C 94.82 203.01 107.16 202.98 119.00 203.00 C 130.84 203.02 143.25 202.95 155.00 203.00 C 166.75 203.05 178.69 204.69 186.92 198.92 C 195.15 193.16 210.75 198.15 221.00 197.00 C 231.25 195.85 247.02 196.21 255.00 199.00
C 255.50 199.00 256.00 199.00 256.00 199.00
C 256.14 198.87 256.10 196.20 256.00 196.00
C 222.67 196.00 189.33 196.00 156.00 196.00
C 144.00 196.00 132.00 196.00 120.00 196.00
C 104.00 196.00 88.00 196.00 72.00 196.00
C 65.80 196.00 55.41 194.30 50.30 197.30 C 45.20 200.31 46.68 211.00 48.00 215.00 Z"/>
</g>
<g fill="#B86DE4" fill-opacity="1.00" stroke="None">
<path d="
M 48.00 215.00 
C 48.41 216.23 49.20 219.10 50.00 220.00
C 51.73 221.37 53.92 220.91 56.00 221.00
C 57.99 221.09 60.01 221.00 62.00 221.00
C 58.55 218.80 68.27 212.01 73.00 214.00 C 77.73 215.99 87.14 213.23 93.00 214.00 C 98.86 214.77 107.77 213.81 114.00 214.00 C 120.23 214.19 126.90 214.49 133.00 215.00 C 139.10 215.51 144.06 218.00 150.00 219.00
C 149.92 220.26 147.94 219.56 148.00 221.00
C 168.00 221.00 188.00 221.00 208.00 221.00
C 220.33 221.00 232.67 221.00 245.00 221.00
C 248.67 221.00 252.33 221.00 256.00 221.00
C 256.50 219.78 255.67 218.67 255.00 218.00
C 249.62 214.73 239.30 219.77 233.00 218.00 C 226.70 216.23 217.54 219.45 211.00 218.00 C 204.46 216.55 194.48 220.53 189.00 217.00
C 184.30 213.97 185.56 205.45 188.00 202.00
C 193.11 194.78 210.35 200.07 220.00 199.00 C 229.65 197.93 244.84 199.00 255.00 199.00
C 247.02 196.21 231.25 195.85 221.00 197.00 C 210.75 198.15 195.15 193.16 186.92 198.92 C 178.69 204.69 166.75 203.05 155.00 203.00 C 143.25 202.95 130.84 203.02 119.00 203.00 C 107.16 202.98 94.82 203.01 83.00 203.00 C 71.18 202.99 59.78 203.01 48.00 203.00
C 48.56 206.89 47.26 211.14 48.00 215.00 Z"/>
</g>
<g fill="#C8B5E1" fill-opacity="1.00" stroke="None">
<path d="
M 188.00 202.00 
C 193.81 196.07 208.14 201.14 217.00 200.00 C 225.86 198.86 239.68 200.19 249.00 200.00
C 251.29 199.95 254.43 200.63 256.00 199.00
C 256.00 199.00 255.50 199.00 255.00 199.00
C 244.84 199.00 229.65 197.93 220.00 199.00 C 210.35 200.07 193.11 194.78 188.00 202.00 Z"/>
</g>
<g fill="#D9D6E2" fill-opacity="1.00" stroke="None">
<path d="
M 188.00 202.00 
C 185.56 205.45 184.30 213.97 189.00 217.00
C 197.22 220.59 209.92 215.56 219.00 217.00 C 228.08 218.44 239.67 216.74 249.00 217.00
C 249.00 211.33 249.00 205.67 249.00 200.00
C 239.68 200.19 225.86 198.86 217.00 200.00 C 208.14 201.14 193.81 196.07 188.00 202.00 Z"/>
</g>
<g fill="#814CE5" fill-opacity="1.00" stroke="None">
<path d="
M 62.00 221.00 
C 89.67 221.00 117.33 221.00 145.00 221.00
C 146.00 221.00 147.00 221.00 148.00 221.00
C 147.94 219.56 149.92 220.26 150.00 219.00
C 144.06 218.00 139.10 215.51 133.00 215.00 C 126.90 214.49 120.23 214.19 114.00 214.00 C 107.77 213.81 98.86 214.77 93.00 214.00 C 87.14 213.23 77.73 215.99 73.00 214.00 C 68.27 212.01 58.55 218.80 62.00 221.00 Z"/>
</g>
<g fill="#D3C4E5" fill-opacity="1.00" stroke="None">
<path d="
M 255.00 218.00 
C 253.45 216.45 251.24 217.06 249.00 217.00
C 239.67 216.74 228.08 218.44 219.00 217.00 C 209.92 215.56 197.22 220.59 189.00 217.00
C 194.48 220.53 204.46 216.55 211.00 218.00 C 217.54 219.45 226.70 216.23 233.00 218.00 C 239.30 219.77 249.62 214.73 255.00 218.00 Z"/>
</g>
<g fill="#C5ADD0" fill-opacity="1.00" stroke="None">
<path d="
M 56.00 222.00 
C 55.96 222.00 56.00 221.00 56.00 221.00
C 53.92 220.91 51.73 221.37 50.00 220.00
C 51.62 221.81 53.19 222.67 56.00 222.00 Z"/>
</g>
<g fill="#90A3E1" fill-opacity="1.00" stroke="None">
<path d="
M 56.00 222.00 
C 85.12 224.63 115.74 222.00 145.00 222.00
C 144.75 221.75 145.00 221.00 145.00 221.00
C 117.33 221.00 89.67 221.00 62.00 221.00
C 60.01 221.00 57.99 221.09 56.00 221.00
C 56.00 221.00 55.96 222.00 56.00 222.00 Z"/>
</g>
<g fill="#9484DB" fill-opacity="1.00" stroke="None">
<path d="
M 145.00 222.00 
C 145.50 222.00 146.00 222.00 146.00 222.00
C 149.33 222.00 152.67 222.00 156.00 222.00
C 172.67 222.00 189.33 222.00 206.00 222.00
C 206.50 222.00 207.84 222.23 208.00 222.00
C 208.25 221.78 208.00 221.00 208.00 221.00
C 188.00 221.00 168.00 221.00 148.00 221.00
C 147.00 221.00 146.00 221.00 145.00 221.00
C 145.00 221.00 144.75 221.75 145.00 222.00 Z"/>
</g>
<g fill="#89C5E2" fill-opacity="1.00" stroke="None">
<path d="
M 208.00 222.00 
C 198.59 230.44 189.64 230.60 177.00 230.00 C 164.36 229.40 155.67 229.76 146.00 222.00
C 146.00 222.00 145.50 222.00 145.00 222.00
C 115.74 222.00 85.12 224.63 56.00 222.00
C 57.55 223.28 55.00 224.44 58.00 225.00
C 58.89 225.17 60.09 225.02 61.00 225.00
C 62.33 224.97 63.67 225.03 65.00 225.00
C 65.00 231.67 65.00 238.33 65.00 245.00
C 61.82 244.59 59.28 246.69 56.00 246.00
C 55.74 246.93 56.21 248.06 56.00 249.00
C 64.67 249.00 73.33 249.00 82.00 249.00
C 80.84 245.63 91.63 241.26 96.00 242.00 C 100.37 242.74 111.25 241.76 117.00 242.00 C 122.75 242.24 131.71 242.10 138.00 242.00 C 144.29 241.90 150.83 242.99 157.00 244.00 C 163.17 245.01 169.70 246.28 176.00 247.00
C 175.92 248.26 173.94 247.56 174.00 249.00
C 174.50 249.00 175.00 249.00 175.00 249.00
C 197.33 249.00 219.67 249.00 242.00 249.00
C 243.00 249.00 244.00 249.00 245.00 249.00
C 247.51 247.40 245.86 239.10 246.00 236.00 C 246.14 232.90 246.73 225.31 246.00 222.00
C 245.65 221.95 245.23 221.05 245.00 221.00
C 232.67 221.00 220.33 221.00 208.00 221.00
C 208.00 221.00 208.25 221.78 208.00 222.00 Z"/>
</g>
<g fill="#C6AED4" fill-opacity="1.00" stroke="None">
<path d="
M 246.00 222.00 
C 247.82 222.26 255.26 222.83 256.00 221.00
C 252.33 221.00 248.67 221.00 245.00 221.00
C 245.23 221.05 245.65 221.95 246.00 222.00 Z"/>
</g>
<g fill="#61A0DF" fill-opacity="1.00" stroke="None">
<path d="
M 208.00 222.00 
C 207.84 222.23 206.50 222.00 206.00 222.00
C 189.10 230.61 173.04 224.06 156.00 222.00
C 152.67 222.00 149.33 222.00 146.00 222.00
C 155.67 229.76 164.36 229.40 177.00 230.00 C 189.64 230.60 198.59 230.44 208.00 222.00 Z"/>
</g>
<g fill="#4980DC" fill-opacity="1.00" stroke="None">
<path d="
M 206.00 222.00 
C 189.33 222.00 172.67 222.00 156.00 222.00
C 173.04 224.06 189.10 230.61 206.00 222.00 Z"/>
</g>
<g fill="#CEB78E" fill-opacity="1.00" stroke="None">
<path d="
M 39.00 250.00 
C 83.15 249.87 129.06 249.97 174.00 250.00
C 174.50 250.00 175.00 250.00 175.00 250.00
C 175.25 249.75 175.00 249.00 175.00 249.00
C 175.00 249.00 174.50 249.00 174.00 249.00
C 170.33 249.00 166.67 249.00 163.00 249.00
C 136.67 249.00 110.33 249.00 84.00 249.00
C 83.50 249.00 82.50 249.00 82.00 249.00
C 73.33 249.00 64.67 249.00 56.00 249.00
C 56.21 248.06 55.74 246.93 56.00 246.00
C 56.51 244.16 59.69 245.40 61.00 245.00
C 61.00 238.33 61.00 231.67 61.00 225.00
C 60.09 225.02 58.89 225.17 58.00 225.00
C 53.84 232.70 50.37 240.93 47.00 249.00
C 44.95 249.71 40.15 247.66 39.00 250.00 Z"/>
</g>
<g fill="#D2CED3" fill-opacity="1.00" stroke="None">
<path d="
M 56.00 246.00 
C 59.28 246.69 61.82 244.59 65.00 245.00
C 65.00 238.33 65.00 231.67 65.00 225.00
C 63.67 225.03 62.33 224.97 61.00 225.00
C 61.00 231.67 61.00 238.33 61.00 245.00
C 59.69 245.40 56.51 244.16 56.00 246.00 Z"/>
</g>
<g fill="#7BA7BF" fill-opacity="1.00" stroke="None">
<path d="
M 82.00 249.00 
C 82.50 249.00 83.50 249.00 84.00 249.00
C 90.82 240.50 111.63 248.55 123.00 246.00 C 134.37 243.45 152.39 247.48 163.00 249.00
C 166.67 249.00 170.33 249.00 174.00 249.00
C 173.94 247.56 175.92 248.26 176.00 247.00
C 169.70 246.28 163.17 245.01 157.00 244.00 C 150.83 242.99 144.29 241.90 138.00 242.00 C 131.71 242.10 122.75 242.24 117.00 242.00 C 111.25 241.76 100.37 242.74 96.00 242.00 C 91.63 241.26 80.84 245.63 82.00 249.00 Z"/>
</g>
<g fill="#7092A6" fill-opacity="1.00" stroke="None">
<path d="
M 84.00 249.00 
C 110.33 249.00 136.67 249.00 163.00 249.00
C 152.39 247.48 134.37 243.45 123.00 246.00 C 111.63 248.55 90.82 240.50 84.00 249.00 Z"/>
</g>
<g fill="#E1B65A" fill-opacity="1.00" stroke="None">
<path d="
M 39.00 250.00 
C 38.87 250.27 38.84 252.75 39.00 253.00
C 58.00 253.00 77.00 253.00 96.00 253.00
C 97.95 257.65 99.34 264.46 97.00 269.00
C 97.00 269.50 97.09 270.52 97.00 271.00
C 96.80 272.09 95.79 272.55 95.00 273.00
C 90.21 275.75 82.51 272.87 77.00 274.00 C 71.49 275.13 62.01 272.33 57.00 274.00 C 51.99 275.67 42.01 270.22 39.00 274.00
C 39.00 274.50 38.81 275.92 39.00 276.00
C 44.87 278.61 54.34 275.40 61.00 276.00 C 67.66 276.60 76.47 276.39 83.00 277.00
C 103.59 278.93 125.31 277.00 146.00 277.00
C 151.20 277.00 156.11 276.43 161.00 276.00
C 165.49 274.56 170.83 272.32 176.00 272.00 C 181.17 271.68 186.56 269.08 191.67 270.33 C 196.78 271.58 202.66 270.81 208.01 270.01 C 213.35 269.21 220.32 268.82 225.22 268.22 C 230.12 267.63 240.40 267.22 244.07 268.93 C 247.74 270.63 259.24 268.79 260.00 273.00
C 263.08 267.67 263.80 255.80 259.00 251.00
C 255.43 248.45 247.30 250.00 243.00 250.00
C 245.36 259.95 229.62 257.31 223.00 257.00 C 216.38 256.69 202.33 258.27 196.00 256.00 C 189.67 253.74 178.19 255.19 174.00 250.00
C 129.06 249.97 83.15 249.87 39.00 250.00 Z"/>
</g>
<g fill="#A49D9B" fill-opacity="1.00" stroke="None">
<path d="
M 175.00 250.00 
C 197.33 249.99 219.67 250.00 242.00 250.00
C 241.75 249.75 242.00 249.00 242.00 249.00
C 219.67 249.00 197.33 249.00 175.00 249.00
C 175.00 249.00 175.25 249.75 175.00 250.00 Z"/>
</g>
<g fill="#D7BE9E" fill-opacity="1.00" stroke="None">
<path d="
M 242.00 250.00 
C 242.50 250.00 243.00 250.00 243.00 250.00
C 247.30 250.00 255.43 248.45 259.00 251.00
C 255.72 247.72 249.74 249.00 245.00 249.00
C 244.00 249.00 243.00 249.00 242.00 249.00
C 242.00 249.00 241.75 249.75 242.00 250.00 Z"/>
</g>
<g fill="#BB8C3B" fill-opacity="1.00" stroke="None">
<path d="
M 243.00 250.00 
C 243.00 250.00 242.50 250.00 242.00 250.00
C 219.67 250.00 197.33 249.99 175.00 250.00
C 175.00 250.00 174.50 250.00 174.00 250.00
C 178.19 255.19 189.67 253.74 196.00 256.00 C 202.33 258.27 216.38 256.69 223.00 257.00 C 229.62 257.31 245.36 259.95 243.00 250.00 Z"/>
</g>
<g fill="#DDCDBF" fill-opacity="1.00" stroke="None">
<path d="
M 41.00 262.00 
C 41.94 260.23 44.14 258.44 44.00 256.00
C 47.49 260.15 41.08 272.85 49.01 272.99 C 56.94 273.14 64.20 272.93 72.00 273.00 C 79.80 273.07 87.23 272.95 95.00 273.00
C 95.79 272.55 96.80 272.09 97.00 271.00
C 94.46 274.30 85.26 271.55 81.00 272.00 C 76.74 272.45 67.47 272.43 63.00 272.00 C 58.53 271.57 50.20 274.16 46.78 271.22 C 43.35 268.28 47.73 257.93 46.00 254.00
C 57.22 253.08 67.71 255.22 79.00 254.00 C 90.29 252.78 101.30 254.31 97.00 269.00
C 99.34 264.46 97.95 257.65 96.00 253.00
C 77.00 253.00 58.00 253.00 39.00 253.00
C 39.78 254.94 42.43 253.61 44.00 254.00
C 43.21 256.71 42.02 259.40 41.00 262.00 Z"/>
</g>
<g fill="#E0DADB" fill-opacity="1.00" stroke="None">
<path d="
M 97.00 271.00 
C 97.09 270.52 97.00 269.50 97.00 269.00
C 101.30 254.31 90.29 252.78 79.00 254.00 C 67.71 255.22 57.22 253.08 46.00 254.00
C 47.73 257.93 43.35 268.28 46.78 271.22 C 50.20 274.16 58.53 271.57 63.00 272.00 C 67.47 272.43 76.74 272.45 81.00 272.00 C 85.26 271.55 94.46 274.30 97.00 271.00 Z"/>
</g>
<g fill="#D9BC8D" fill-opacity="1.00" stroke="None">
<path d="
M 41.00 262.00 
C 39.33 266.26 39.00 269.18 39.00 274.00
C 42.01 270.22 51.99 275.67 57.00 274.00 C 62.01 272.33 71.49 275.13 77.00 274.00 C 82.51 272.87 90.21 275.75 95.00 273.00
C 87.23 272.95 79.80 273.07 72.00 273.00 C 64.20 272.93 56.94 273.14 49.01 272.99 C 41.08 272.85 47.49 260.15 44.00 256.00
C 44.14 258.44 41.94 260.23 41.00 262.00 Z"/>
</g>
<g fill="#DDA246" fill-opacity="1.00" stroke="None">
<path d="
M 161.00 276.00 
C 171.67 275.06 183.41 276.92 194.00 276.00 C 204.59 275.08 216.77 277.52 227.00 276.00 C 237.23 274.48 249.95 279.59 259.00 275.00
C 259.14 274.23 259.62 273.66 260.00 273.00
C 259.24 268.79 247.74 270.63 244.07 268.93 C 240.40 267.22 230.12 267.63 225.22 268.22 C 220.32 268.82 213.35 269.21 208.01 270.01 C 202.66 270.81 196.78 271.58 191.67 270.33 C 186.56 269.08 181.17 271.68 176.00 272.00 C 170.83 272.32 165.49 274.56 161.00 276.00 Z"/>
</g>
<g fill="#DFC8B9" fill-opacity="1.00" stroke="None">
<path d="
M 161.00 276.00 
C 156.11 276.43 151.20 277.00 146.00 277.00
C 127.31 278.81 101.44 280.88 83.00 277.00
C 76.47 276.39 67.66 276.60 61.00 276.00 C 54.34 275.40 44.87 278.61 39.00 276.00
C 49.25 276.99 60.86 277.94 72.00 277.00 C 83.14 276.06 86.52 286.52 98.00 285.00 C 109.48 283.48 121.01 285.80 132.00 285.00 C 142.99 284.20 149.16 281.04 159.31 278.31 C 169.45 275.57 181.07 277.29 192.00 277.00 C 202.93 276.71 214.96 276.95 226.00 277.00 C 237.04 277.05 248.34 277.00 259.00 276.00
C 259.00 276.00 258.91 275.48 259.00 275.00
C 249.95 279.59 237.23 274.48 227.00 276.00 C 216.77 277.52 204.59 275.08 194.00 276.00 C 183.41 276.92 171.67 275.06 161.00 276.00 Z"/>
</g>
<g fill="#DAB38F" fill-opacity="1.00" stroke="None">
<path d="
M 146.00 277.00 
C 125.31 277.00 103.59 278.93 83.00 277.00
C 101.44 280.88 127.31 278.81 146.00 277.00 Z"/>
</g>
<g fill="#898989" fill-opacity="0.27" stroke="None">
<path d="
M 0.00 300.00 
L 4.00 300.00
C 3.25 298.32 1.57 296.96 0.00 296.00
L 0.00 300.00 Z"/>
</g>
<g fill="#DCDCDC" fill-opacity="0.49" stroke="None">
<path d="
M 296.00 300.00 
L 299.00 300.00
L 299.00 297.00
C 297.64 297.42 296.67 298.80 296.00 300.00 Z"/>
</g>
</svg>